<svg xmlns="http://www.w3.org/2000/svg" width="46.927" height="50" viewBox="0 0 46.927 50">
  <g id="Grupo_1182851" data-name="Grupo 1182851" transform="translate(-15.731)">
    <path id="Trazado_1015156" data-name="Trazado 1015156" d="M57.167,0h-2.15a.733.733,0,0,0,0,1.465h2.15a4.024,4.024,0,0,1,4.026,4.012V22.43a4.024,4.024,0,0,1-4.026,4.012H54.729a.733.733,0,0,0-.445.151L49.81,30.014v-2.84a.732.732,0,0,0-.733-.733H40.162a4.006,4.006,0,0,1-2.051-.559V17.659a4.47,4.47,0,0,0-1.976-3.706V5.477a4.024,4.024,0,0,1,4.026-4.012H50.427a.733.733,0,0,0,0-1.465H40.162A5.49,5.49,0,0,0,34.67,5.477v7.832a4.491,4.491,0,0,0-1.044-.124H20.216a4.485,4.485,0,0,0-4.485,4.474v1.582a.733.733,0,0,0,1.465,0V17.659a3.018,3.018,0,0,1,3.02-3.009h13.41a3.018,3.018,0,0,1,3.02,3.009v8.515a.733.733,0,0,0,0,.194v4.66c0,.092-.006.184-.014.275H35.122a3.4,3.4,0,0,0-3.34,2.78.734.734,0,0,0-.19.106l-3.276,2.53v-1.95a.732.732,0,0,0-.733-.733H20.216a3.018,3.018,0,0,1-3.02-3.009V23.636a.733.733,0,0,0-1.465,0v7.392A4.485,4.485,0,0,0,20.216,35.5h6.634V38.21a.744.744,0,0,0,1.18.58l3.7-2.853v8.241a3.4,3.4,0,0,0,3.4,3.387h4.5v1.709a.744.744,0,0,0,1.18.58l2.965-2.289h.876a3.4,3.4,0,0,0,3.4-3.388v-1.3a.733.733,0,0,0-1.465,0v1.3A1.929,1.929,0,0,1,44.638,46.1H43.512a.733.733,0,0,0-.448.153l-1.983,1.531v-.951a.732.732,0,0,0-.733-.733H35.122a1.929,1.929,0,0,1-1.931-1.922V34.691a1.929,1.929,0,0,1,1.931-1.922h9.516a1.929,1.929,0,0,1,1.931,1.922v3.6a.733.733,0,0,0,1.465,0v-3.6a3.4,3.4,0,0,0-3.4-3.387H38.1c.006-.092.008-3.791.008-3.791a5.483,5.483,0,0,0,2.051.395h8.183V31.5a.744.744,0,0,0,1.178.582l5.454-4.172h2.19a5.49,5.49,0,0,0,5.491-5.477V5.477A5.49,5.49,0,0,0,57.167,0Z" fill="#484e36"/>
    <path id="Trazado_1015157" data-name="Trazado 1015157" d="M276.878,54.615A1.527,1.527,0,0,0,275,56.074a4.3,4.3,0,0,1-1.077,2.849l-2.018,2.284a.731.731,0,0,0-.614-.333h-3.94a.732.732,0,0,0-.733.733v8.865a.732.732,0,0,0,.733.733h3.94a.732.732,0,0,0,.666-.428,5.118,5.118,0,0,0,2.662.751h6.963a1.917,1.917,0,0,0,1.892-1.985c-.022-.47,0-6.781,0-6.921a1.9,1.9,0,0,0-1.892-1.894l-3.621-.011.15-.355a5.72,5.72,0,0,0-.3-5.033,1.493,1.493,0,0,0-.934-.712h0Zm-6.319,15.123h-2.475v-7.4h2.475Zm11.024-7.547a.429.429,0,0,1,.429.429c0,.139,0,.518,0,1.031-.011,2.832-.018,5.513,0,5.959a.429.429,0,0,1-.428.451H274.62a3.647,3.647,0,0,1-2.288-.81l-.308-.25V63.285l3-3.392a5.768,5.768,0,0,0,1.444-3.819.041.041,0,0,1,.075-.02,4.246,4.246,0,0,1,.224,3.737l-.578,1.369a.732.732,0,0,0,.673,1.018Z" transform="translate(-226.384 -49.203)" fill="#484e36"/>
    <path id="Trazado_1015158" data-name="Trazado 1015158" d="M73.184,200.043a.733.733,0,1,0,0,1.465h2.159l-.4,2.44a.733.733,0,1,0,1.445.239l.443-2.679h1.767l-.4,2.44a.733.733,0,1,0,1.445.239l.443-2.679h2.939a.733.733,0,0,0,0-1.465h-2.7l.3-1.787h2.4a.733.733,0,0,0,0-1.465H80.86l.4-2.44a.733.733,0,0,0-1.445-.239l-.443,2.679H77.608l.4-2.44a.733.733,0,1,0-1.445-.239l-.443,2.679H73.184a.733.733,0,1,0,0,1.465h2.7l-.3,1.787Zm4.182-1.787h1.767l-.3,1.787H77.07Z" transform="translate(-51.18 -174.6)" fill="#484e36"/>
    <path id="Trazado_1015159" data-name="Trazado 1015159" d="M224.087,369.017a2.463,2.463,0,0,0-2.168-.487,2.725,2.725,0,0,0-2.032,2.75,3.6,3.6,0,0,0,1.082,2.574,10.745,10.745,0,0,0,2.784,1.92.732.732,0,0,0,.686,0c2.32-1.23,3.866-2.465,3.866-4.494a2.708,2.708,0,0,0-2.1-2.736A2.456,2.456,0,0,0,224.087,369.017Zm2.753,2.263c0,1.094-.726,1.9-2.744,3.015-2.018-1.111-2.744-1.92-2.744-3.015a1.253,1.253,0,0,1,.913-1.326,1.1,1.1,0,0,1,.258-.031,1.011,1.011,0,0,1,.922.59.733.733,0,0,0,1.315-.026.952.952,0,0,1,1.123-.511A1.239,1.239,0,0,1,226.84,371.28Z" transform="translate(-184.216 -332.469)" fill="#484e36"/>
  </g>
</svg>
