<svg xmlns="http://www.w3.org/2000/svg" width="150" height="150" viewBox="0 0 150 150">
  <g id="Grupo_1182016" data-name="Grupo 1182016" transform="translate(-383.746 -8400)">
    <circle id="Elipse_13609" data-name="Elipse 13609" cx="75" cy="75" r="75" transform="translate(383.746 8400)" fill="#b3c487"/>
    <g id="Grupo_1182538" data-name="Grupo 1182538" transform="translate(393.098 8380.972)">
      <path id="Trazado_1005059" data-name="Trazado 1005059" d="M113.641,211.3h-9.93V164.965A4.97,4.97,0,0,0,98.746,160h-9.93v3.31h9.93a1.657,1.657,0,0,1,1.655,1.655V211.3H30.894V164.965a1.657,1.657,0,0,1,1.655-1.655H49.1V160H32.549a4.97,4.97,0,0,0-4.965,4.965V211.3h-9.93A1.655,1.655,0,0,0,16,212.958v4.965a4.97,4.97,0,0,0,4.965,4.965h89.366a4.97,4.97,0,0,0,4.965-4.965v-4.965a1.655,1.655,0,0,0-1.655-1.655Zm-1.655,6.62a1.657,1.657,0,0,1-1.655,1.655H20.965a1.657,1.657,0,0,1-1.655-1.655v-3.31H53.378l1.17,1.17a1.655,1.655,0,0,0,1.17.485H75.577a1.655,1.655,0,0,0,1.17-.485l1.17-1.17h34.068Z" transform="translate(0 -88.831)" fill="#484e36"/>
      <path id="Trazado_1005060" data-name="Trazado 1005060" d="M160.267,192h-8.275a1.655,1.655,0,0,0-1.655,1.655v3.31h-6.62a1.655,1.655,0,0,0-1.655,1.655v4.965h-6.62a1.655,1.655,0,0,0-1.655,1.655V210.2h-6.62a1.655,1.655,0,0,0-1.655,1.655v4.965h-6.62a1.655,1.655,0,0,0-1.655,1.655v3.31h-6.62a1.655,1.655,0,0,0-1.655,1.655v6.62H104v3.31h62.887v-3.31h-4.965V193.655A1.655,1.655,0,0,0,160.268,192Zm-47.993,33.1h4.965v4.965h-4.965Zm8.275-4.965h4.965v9.93h-4.965Zm8.275-6.62h4.965v16.549h-4.965Zm8.275-6.62h4.965v23.169H137.1Zm8.275-6.62h4.965v29.789h-4.965Zm8.275,29.789V195.31h4.965v34.753Z" transform="translate(-69.796 -114.211)" fill="#484e36"/>
      <path id="Trazado_1005061" data-name="Trazado 1005061" d="M143.718,48A14.885,14.885,0,0,0,130.19,69.116l-3.022,3.022-.485-.485a1.656,1.656,0,0,0-2.341,0L106.2,89.8a7.506,7.506,0,0,0,10.615,10.615l18.145-18.145a1.655,1.655,0,0,0,0-2.341l-.485-.485,3.022-3.022A14.892,14.892,0,1,0,143.718,48ZM114.473,98.074a4.2,4.2,0,0,1-5.934-5.934l12.01-12.01,5.934,5.934Zm14.351-14.351-5.934-5.934,2.624-2.625,5.934,5.934Zm3.31-6.62-2.624-2.624,2.454-2.454a15.02,15.02,0,0,0,2.624,2.624Zm11.584-2.624A11.584,11.584,0,1,1,155.3,62.894,11.584,11.584,0,0,1,143.718,74.479Z" transform="translate(-69.795)" fill="#484e36"/>
    </g>
  </g>
</svg>
