<svg xmlns="http://www.w3.org/2000/svg" width="50" height="48.19" viewBox="0 0 50 48.19">
  <g id="Grupo_1182850" data-name="Grupo 1182850" transform="translate(0 -9.267)">
    <path id="Trazado_1015151" data-name="Trazado 1015151" d="M46.845,51.148H43.182V35.334a3.542,3.542,0,0,0,2.186-3.268V26.374a1.739,1.739,0,0,0-1.737-1.737H42.417A9.059,9.059,0,0,0,37.894,9.282a.732.732,0,1,0-.292,1.435,7.6,7.6,0,1,1-3.117.015A.732.732,0,1,0,34.18,9.3a9.06,9.06,0,0,0-4.436,15.337H6.37a1.739,1.739,0,0,0-1.737,1.737v5.691a3.535,3.535,0,0,0,4.836,3.289V49.231a.732.732,0,0,0,.732.732H39.8a.732.732,0,0,0,.732-.732V35.355a3.512,3.512,0,0,0,1.186.245V51.148H8.283V38.285a.732.732,0,1,0-1.465,0V51.148H3.154a3.154,3.154,0,0,0,0,6.309H46.845a3.154,3.154,0,1,0,0-6.309ZM43.63,26.1a.273.273,0,0,1,.272.272v5.691a2.072,2.072,0,0,1-4.145,0V26.447q.354-.158.692-.345Zm-5.337.852v5.112a2.073,2.073,0,0,1-4.146,0V27.019a9.082,9.082,0,0,0,4.146-.066Zm-5.61-.388v5.5a2.073,2.073,0,0,1-4.145,0s0,0,0,0V26.1H31.71A9.04,9.04,0,0,0,32.683,26.566ZM22.927,26.1h4.145v5.964s0,0,0,0a2.072,2.072,0,0,1-4.145,0Zm-1.465,5.964a2.073,2.073,0,1,1-4.145,0V26.1h4.145Zm-5.61,0a2.073,2.073,0,1,1-4.145,0V26.1h4.145Zm-9.755,0V26.374A.273.273,0,0,1,6.37,26.1h3.873v5.964a2.073,2.073,0,0,1-4.145,0ZM10.934,48.5V34.27l.042-.053a3.532,3.532,0,0,0,5.61,0,3.532,3.532,0,0,0,5.61,0,3.532,3.532,0,0,0,5.61,0,3.532,3.532,0,0,0,5.61,0,3.532,3.532,0,0,0,5.61,0l.041.052V48.5H10.934Zm35.912,7.494H3.154a1.69,1.69,0,0,1,0-3.379H46.845a1.69,1.69,0,1,1,0,3.379Z" fill="#484e36"/>
    <path id="Trazado_1015152" data-name="Trazado 1015152" d="M324.549,67.294a1.685,1.685,0,0,0,1.613-1.181l1.438-4.539a.732.732,0,0,0-.7-.954h-9.185a.732.732,0,0,0-.7.954l1.438,4.539a1.687,1.687,0,0,0,.583.832l-.367.7a1.384,1.384,0,0,0,1.4,2v.251a.732.732,0,0,0,1.465,0V69.64h1.517v.251a.732.732,0,0,0,1.465,0V69.64h.467a.732.732,0,0,0,0-1.465h-4.937l.463-.881h4.038Zm-5.832-5.209H325.9l-1.136,3.586a.226.226,0,0,1-.216.158h-4.481a.226.226,0,0,1-.216-.158Z" transform="translate(-286.028 -46.339)" fill="#484e36"/>
    <path id="Trazado_1015153" data-name="Trazado 1015153" d="M143.84,302.179h-5.961a1.38,1.38,0,0,0-1.378,1.378v5.006a1.38,1.38,0,0,0,1.378,1.378h5.961a1.38,1.38,0,0,0,1.378-1.378v-5.006A1.38,1.38,0,0,0,143.84,302.179Zm-.087,6.3h-5.787v-4.832h5.787v4.832Z" transform="translate(-123.171 -264.307)" fill="#484e36"/>
    <path id="Trazado_1015154" data-name="Trazado 1015154" d="M251.148,320.66h4.671a.732.732,0,1,0,0-1.465h-4.671a.732.732,0,0,0,0,1.465Z" transform="translate(-225.961 -279.662)" fill="#484e36"/>
    <path id="Trazado_1015155" data-name="Trazado 1015155" d="M261.9,350.746h-10.75a.732.732,0,0,0,0,1.465H261.9a.732.732,0,0,0,0-1.465Z" transform="translate(-225.961 -308.131)" fill="#484e36"/>
  </g>
</svg>
