<svg xmlns="http://www.w3.org/2000/svg" width="128" height="128" viewBox="0 0 128 128">
  <g id="Grupo_1182002" data-name="Grupo 1182002" transform="translate(-72.746 -7992)">
    <g id="Elipse_13628" data-name="Elipse 13628" transform="translate(72.746 7992)" fill="#ecf0f1" stroke="#ffa038" stroke-width="6">
      <circle cx="64" cy="64" r="64" stroke="none"/>
      <circle cx="64" cy="64" r="61" fill="none"/>
    </g>
    <g id="Grupo_1182867" data-name="Grupo 1182867" transform="translate(82.214 8023.756)">
      <g id="Grupo_1182863" data-name="Grupo 1182863" transform="translate(30.79 9.95)">
        <path id="Trazado_1015212" data-name="Trazado 1015212" d="M67.5,79h3.779v33.944H67.5Z" transform="translate(-67.5 -79)" fill="#5e6b75"/>
        <path id="Trazado_1015213" data-name="Trazado 1015213" d="M414.5,79h3.779v33.944H414.5Z" transform="translate(-370.795 -79)" fill="#5e6b75"/>
      </g>
      <path id="Trazado_1015214" data-name="Trazado 1015214" d="M87.448,368.148H34.726A1.726,1.726,0,0,1,33,366.422v-16.2a1.726,1.726,0,0,1,1.726-1.726H87.448a1.726,1.726,0,0,1,1.726,1.726v16.2a1.726,1.726,0,0,1-1.726,1.726Z" transform="translate(-6.555 -304.606)" fill="#aca6d6"/>
      <path id="Trazado_1015215" data-name="Trazado 1015215" d="M439.073,348.5h-3.779a1.726,1.726,0,0,1,1.726,1.726v16.2a1.726,1.726,0,0,1-1.726,1.726h3.779a1.726,1.726,0,0,0,1.726-1.726v-16.2A1.726,1.726,0,0,0,439.073,348.5Z" transform="translate(-358.18 -304.606)" fill="#8993da"/>
      <path id="Trazado_1015216" data-name="Trazado 1015216" d="M150.366,303.049H135V297a.5.5,0,0,1,.5-.5h14.358a.5.5,0,0,1,.5.5Z" transform="translate(-95.708 -259.155)" fill="#5e6b75"/>
      <path id="Trazado_1015217" data-name="Trazado 1015217" d="M226.779,296.5H223a.5.5,0,0,1,.5.5v6.046h3.779V297A.5.5,0,0,0,226.779,296.5Z" transform="translate(-172.625 -259.155)" fill="#4d5961"/>
      <path id="Trazado_1015218" data-name="Trazado 1015218" d="M142.305,238.282h-6.8a.5.5,0,0,1-.5-.5V234.5a.5.5,0,0,1,.5-.5h6.8a.5.5,0,0,1,.5.5v3.275A.5.5,0,0,1,142.305,238.282Z" transform="translate(-95.708 -204.527)" fill="#dd636e"/>
      <path id="Trazado_1015219" data-name="Trazado 1015219" d="M166.779,234H163a.5.5,0,0,1,.5.5v3.275a.5.5,0,0,1-.5.5h3.779a.5.5,0,0,0,.5-.5V234.5A.5.5,0,0,0,166.779,234Z" transform="translate(-120.182 -204.527)" fill="#da4a54"/>
      <path id="Trazado_1015220" data-name="Trazado 1015220" d="M109.086,406.387H92.227a.816.816,0,0,1-.816-.816v-6.046a.816.816,0,0,1,.816-.816h16.859a.816.816,0,0,1,.816.816v6.046A.816.816,0,0,1,109.086,406.387Z" transform="translate(-57.609 -348.491)" fill="#fee45a"/>
      <path id="Trazado_1015221" data-name="Trazado 1015221" d="M205.522,398.709h-3.779a.816.816,0,0,1,.816.816v6.046a.816.816,0,0,1-.816.816h3.779a.816.816,0,0,0,.816-.816v-6.046A.816.816,0,0,0,205.522,398.709Z" transform="translate(-154.045 -348.491)" fill="#fed402"/>
      <g id="Grupo_1182865" data-name="Grupo 1182865" transform="translate(26.948 0.945)">
        <path id="Trazado_1015222" data-name="Trazado 1015222" d="M92.167,8.812V15.46a5.517,5.517,0,0,1-11.033,0,5.517,5.517,0,1,1-11.033,0,5.517,5.517,0,1,1-11.033,0,5.517,5.517,0,0,1-11.033,0A5.517,5.517,0,0,1,37,15.46V8.812A1.312,1.312,0,0,1,38.312,7.5H90.854a1.312,1.312,0,0,1,1.312,1.312Z" transform="translate(-37 -7.5)" fill="#aca6d6"/>
        <g id="Grupo_1182864" data-name="Grupo 1182864" transform="translate(47.761)">
          <path id="Trazado_1015223" data-name="Trazado 1015223" d="M422.294,7.5h-3.779a1.312,1.312,0,0,1,1.312,1.312V15.46a5.519,5.519,0,0,1-3.627,5.184,5.52,5.52,0,0,0,7.406-5.184V8.812A1.312,1.312,0,0,0,422.294,7.5Z" transform="translate(-416.2 -7.5)" fill="#8993da"/>
        </g>
      </g>
      <path id="Trazado_1015224" data-name="Trazado 1015224" d="M323.2,270.949H304.968A1.968,1.968,0,0,1,303,268.982V250.75a1.968,1.968,0,0,1,1.968-1.968H323.2a1.968,1.968,0,0,1,1.968,1.968v18.232a1.968,1.968,0,0,1-1.968,1.968Z" transform="translate(-242.548 -217.448)" fill="#f2fbff"/>
      <path id="Trazado_1015225" data-name="Trazado 1015225" d="M437.155,248.782h-3.779a1.968,1.968,0,0,1,1.968,1.968v18.232a1.968,1.968,0,0,1-1.968,1.968h3.779a1.968,1.968,0,0,0,1.968-1.968V250.75a1.968,1.968,0,0,0-1.968-1.968Z" transform="translate(-356.503 -217.448)" fill="#dff6fd"/>
      <path id="Trazado_1015226" data-name="Trazado 1015226" d="M349.121,333.35a1.889,1.889,0,0,1-1.889-1.889v-3.37a1.889,1.889,0,0,1,3.779,0v3.37A1.889,1.889,0,0,1,349.121,333.35Z" transform="translate(-281.209 -285.115)" fill="#dd636e"/>
      <path id="Trazado_1015227" data-name="Trazado 1015227" d="M379.121,315.735a1.889,1.889,0,0,1-1.889-1.889v-5.909a1.889,1.889,0,1,1,3.779,0v5.909A1.889,1.889,0,0,1,379.121,315.735Z" transform="translate(-307.431 -267.501)" fill="#fee45a"/>
      <path id="Trazado_1015228" data-name="Trazado 1015228" d="M409.121,299.711a1.889,1.889,0,0,1-1.889-1.889V289.6a1.889,1.889,0,1,1,3.779,0v8.218A1.889,1.889,0,0,1,409.121,299.711Z" transform="translate(-333.652 -251.476)" fill="#90d8f9"/>
      <g id="Grupo_1182866" data-name="Grupo 1182866" transform="translate(25.5 0)">
        <path id="Trazado_1015229" data-name="Trazado 1015229" d="M82.619,43.894a.945.945,0,0,0,.945-.945V33.3a2.916,2.916,0,0,0-2.913-2.913H79.218V14.809A6.469,6.469,0,0,0,83.06,8.9V2.257A2.26,2.26,0,0,0,80.8,0H37.235a.945.945,0,0,0,0,1.889H80.8a.368.368,0,0,1,.368.368V8.9a4.572,4.572,0,1,1-9.144,0,.945.945,0,0,0-1.889,0,4.572,4.572,0,1,1-9.144,0,.945.945,0,0,0-1.889,0,4.572,4.572,0,1,1-9.144,0,.945.945,0,0,0-1.889,0,4.572,4.572,0,0,1-9.144,0,.945.945,0,1,0-1.889,0,4.572,4.572,0,0,1-9.144,0V2.257a.368.368,0,0,1,.368-.368h4.418a.945.945,0,0,0,0-1.889H28.261A2.26,2.26,0,0,0,26,2.257V8.9a6.469,6.469,0,0,0,3.842,5.9v28.14H28.171A2.674,2.674,0,0,0,25.5,45.62v16.2a2.674,2.674,0,0,0,2.671,2.671H80.893a2.674,2.674,0,0,0,2.671-2.671V47.267a.945.945,0,1,0-1.889,0v4.267a1.024,1.024,0,0,1-1.023,1.023H62.419A1.024,1.024,0,0,1,61.4,51.534V33.3a1.024,1.024,0,0,1,1.023-1.023H80.651A1.024,1.024,0,0,1,81.674,33.3v9.647a.945.945,0,0,0,.945.945Zm-5.29-28.57V30.39H75.44V15.261a6.4,6.4,0,0,0,1.889.062Zm-45.594,0a6.4,6.4,0,0,0,1.889-.062V42.949H31.735ZM62.419,54.447H80.651a2.9,2.9,0,0,0,1.023-.186v7.556a.783.783,0,0,1-.782.782H28.171a.783.783,0,0,1-.782-.782V45.62a.783.783,0,0,1,.782-.782H59.507v6.7A2.916,2.916,0,0,0,62.419,54.447ZM53.713,38.289v4.66H40.236v-4.66ZM59.507,33.3v9.647H55.6v-5.1A1.45,1.45,0,0,0,54.154,36.4H44.141V34.7H46.6a1.45,1.45,0,0,0,1.448-1.448V29.976A1.45,1.45,0,0,0,46.6,28.528H39.8a1.45,1.45,0,0,0-1.448,1.448v3.275A1.45,1.45,0,0,0,39.8,34.7h2.456v1.7H39.8a1.45,1.45,0,0,0-1.448,1.448v5.1H35.513V14.6a6.508,6.508,0,0,0,2.469-2.335,6.458,6.458,0,0,0,11.033,0,6.458,6.458,0,0,0,11.033,0,6.458,6.458,0,0,0,11.033,0A6.51,6.51,0,0,0,73.551,14.6V30.39H62.419A2.916,2.916,0,0,0,59.507,33.3ZM40.236,32.81V30.417h5.92V32.81Z" transform="translate(-25.5 0)"/>
        <path id="Trazado_1015230" data-name="Trazado 1015230" d="M347.312,282.693a2.834,2.834,0,0,0-3.8,2.532,2.833,2.833,0,0,0-3.782,2.67v3.37a2.832,2.832,0,0,0,4.723,2.11,2.827,2.827,0,0,0,3.779,0,2.832,2.832,0,0,0,4.723-2.11v-8.218a2.834,2.834,0,0,0-5.645-.354Zm-4.746,9.517a.946.946,0,0,1-.945-.945V287.9a.945.945,0,0,1,1.889,0v3.37A.946.946,0,0,1,342.566,292.21Zm3.779,0a.946.946,0,0,1-.945-.945v-5.909a.945.945,0,1,1,1.889,0v5.909A.946.946,0,0,1,346.344,292.21Zm4.723-9.163v8.218a.945.945,0,0,1-1.889,0v-8.218a.945.945,0,1,1,1.889,0Z" transform="translate(-300.154 -244.921)"/>
        <path id="Trazado_1015231" data-name="Trazado 1015231" d="M102.531,391.208H85.672a1.763,1.763,0,0,0-1.761,1.761v6.046a1.763,1.763,0,0,0,1.761,1.761h16.859a1.763,1.763,0,0,0,1.761-1.761v-6.046A1.763,1.763,0,0,0,102.531,391.208Zm-.129,7.678H85.8V393.1h16.6Z" transform="translate(-76.554 -341.935)"/>
      </g>
    </g>
  </g>
</svg>
