<svg xmlns="http://www.w3.org/2000/svg" width="128" height="128" viewBox="0 0 128 128">
  <g id="Grupo_1182000" data-name="Grupo 1182000" transform="translate(-72.746 -7992)">
    <g id="Elipse_13628" data-name="Elipse 13628" transform="translate(72.746 7992)" fill="#ecf0f1" stroke="#ffa038" stroke-width="6">
      <circle cx="64" cy="64" r="64" stroke="none"/>
      <circle cx="64" cy="64" r="61" fill="none"/>
    </g>
    <g id="Grupo_1182862" data-name="Grupo 1182862" transform="translate(90.196 8023.268)">
      <path id="Trazado_1015174" data-name="Trazado 1015174" d="M83.273,224H82.182A2.182,2.182,0,0,0,80,226.182v1.091a5.462,5.462,0,0,0,5.455,5.455h1.091a2.182,2.182,0,0,0,2.182-2.182v-1.091A5.462,5.462,0,0,0,83.273,224Z" transform="translate(-55.271 -193.45)" fill="#33bc00"/>
      <path id="Trazado_1015175" data-name="Trazado 1015175" d="M131.273,224h-1.091A2.182,2.182,0,0,0,128,226.182v1.091a5.462,5.462,0,0,0,5.455,5.455h1.091a2.182,2.182,0,0,0,2.182-2.182v-1.091A5.462,5.462,0,0,0,131.273,224Z" transform="translate(-96.725 -193.45)" fill="#79d60d"/>
      <path id="Trazado_1015176" data-name="Trazado 1015176" d="M67.273,272H66.182A2.182,2.182,0,0,0,64,274.182v1.091a5.462,5.462,0,0,0,5.455,5.455h1.091a2.182,2.182,0,0,0,2.182-2.182v-1.091A5.462,5.462,0,0,0,67.273,272Z" transform="translate(-41.454 -234.904)" fill="#025902"/>
      <path id="Trazado_1015177" data-name="Trazado 1015177" d="M115.273,272h-1.091A2.182,2.182,0,0,0,112,274.182v1.091a5.462,5.462,0,0,0,5.455,5.455h1.091a2.182,2.182,0,0,0,2.182-2.182v-1.091A5.462,5.462,0,0,0,115.273,272Z" transform="translate(-82.907 -234.904)" fill="#008100"/>
      <path id="Trazado_1015178" data-name="Trazado 1015178" d="M163.273,272h-1.091A2.182,2.182,0,0,0,160,274.182v1.091a5.462,5.462,0,0,0,5.455,5.455h1.091a2.182,2.182,0,0,0,2.182-2.182v-1.091A5.462,5.462,0,0,0,163.273,272Z" transform="translate(-124.361 -234.904)" fill="#33bc00"/>
      <g id="Grupo_1182857" data-name="Grupo 1182857" transform="translate(54.243 25.837)">
        <path id="Trazado_1015179" data-name="Trazado 1015179" d="M296.407,192.751l1.091-3.273,2.07.69-1.091,3.273Z" transform="translate(-296.407 -189.473)" fill="#008100"/>
        <path id="Trazado_1015180" data-name="Trazado 1015180" d="M328.411,192.715l1.091-3.273,2.07.69-1.091,3.273Z" transform="translate(-324.046 -189.442)" fill="#008100"/>
        <path id="Trazado_1015181" data-name="Trazado 1015181" d="M360.423,192.742l1.091-3.273,2.07.69-1.091,3.273Z" transform="translate(-351.692 -189.465)" fill="#008100"/>
      </g>
      <path id="Trazado_1015182" data-name="Trazado 1015182" d="M283.273,208A3.273,3.273,0,0,0,280,211.273v5.455h6.546v-5.455A3.273,3.273,0,0,0,283.273,208Z" transform="translate(-227.995 -179.632)" fill="#f80"/>
      <path id="Trazado_1015183" data-name="Trazado 1015183" d="M315.273,208A3.273,3.273,0,0,0,312,211.273v5.455h6.546v-5.455A3.273,3.273,0,0,0,315.273,208Z" transform="translate(-255.631 -179.632)" fill="#ff6536"/>
      <path id="Trazado_1015184" data-name="Trazado 1015184" d="M347.273,208A3.273,3.273,0,0,0,344,211.273v5.455h6.546v-5.455A3.273,3.273,0,0,0,347.273,208Z" transform="translate(-283.266 -179.632)" fill="#ff421d"/>
      <path id="Trazado_1015185" data-name="Trazado 1015185" d="M264,264h19.639v8.729H264Z" transform="translate(-214.177 -227.995)" fill="#ffa900"/>
      <g id="Grupo_1182858" data-name="Grupo 1182858" transform="translate(30.184 1.091)">
        <path id="Trazado_1015186" data-name="Trazado 1015186" d="M216,8h6.546V23.275H216Z" transform="translate(-202.907 -8)" fill="#de0418"/>
        <path id="Trazado_1015187" data-name="Trazado 1015187" d="M126.546,23.275V8H121.7L120,23.275Z" transform="translate(-120 -8)" fill="#de0418"/>
      </g>
      <g id="Grupo_1182859" data-name="Grupo 1182859" transform="translate(23.637 1.091)">
        <path id="Trazado_1015188" data-name="Trazado 1015188" d="M168,8h6.546V23.275H168Z" transform="translate(-154.907 -8)" fill="#fbbf00"/>
        <path id="Trazado_1015189" data-name="Trazado 1015189" d="M78.546,23.275,80.244,8h-4.85L72,23.275Z" transform="translate(-72 -8)" fill="#fbbf00"/>
        <path id="Trazado_1015190" data-name="Trazado 1015190" d="M355.8,23.275,352.4,8h-4.85l1.7,15.275Z" transform="translate(-309.971 -8)" fill="#fbbf00"/>
      </g>
      <g id="Grupo_1182860" data-name="Grupo 1182860" transform="translate(17.091 1.091)">
        <path id="Trazado_1015191" data-name="Trazado 1015191" d="M33.941,8H30.546L24,21.093v2.182h6.546Z" transform="translate(-24 -8)" fill="#de0418"/>
        <path id="Trazado_1015192" data-name="Trazado 1015192" d="M318.546,23.275,316.849,8H312V23.275Z" transform="translate(-272.722 -8)" fill="#de0418"/>
      </g>
      <path id="Trazado_1015193" data-name="Trazado 1015193" d="M264,8h6.546V23.275H264Z" transform="translate(-214.177 -6.909)" fill="#fbbf00"/>
      <path id="Trazado_1015194" data-name="Trazado 1015194" d="M386.506,8h-3.394l3.394,15.275h6.546V21.093Z" transform="translate(-317.044 -6.909)" fill="#de0418"/>
      <path id="Trazado_1015195" data-name="Trazado 1015195" d="M24,120v3.273a3.273,3.273,0,0,0,6.546,0V120Z" transform="translate(-6.909 -103.634)" fill="#ff421d"/>
      <path id="Trazado_1015196" data-name="Trazado 1015196" d="M72,120v3.273a3.273,3.273,0,0,0,6.546,0V120Z" transform="translate(-48.363 -103.634)" fill="#ffdb0c"/>
      <path id="Trazado_1015197" data-name="Trazado 1015197" d="M120,120v3.273a3.273,3.273,0,0,0,6.546,0V120Z" transform="translate(-89.816 -103.634)" fill="#ff421d"/>
      <path id="Trazado_1015198" data-name="Trazado 1015198" d="M168,120v3.273a3.273,3.273,0,0,0,6.546,0V120Z" transform="translate(-131.27 -103.634)" fill="#ffdb0c"/>
      <path id="Trazado_1015199" data-name="Trazado 1015199" d="M216,120v3.273a3.273,3.273,0,1,0,6.546,0V120Z" transform="translate(-172.723 -103.634)" fill="#ff421d"/>
      <path id="Trazado_1015200" data-name="Trazado 1015200" d="M264,120v3.273a3.273,3.273,0,0,0,6.546,0V120Z" transform="translate(-214.177 -103.634)" fill="#ffdb0c"/>
      <path id="Trazado_1015201" data-name="Trazado 1015201" d="M312,120v3.273a3.273,3.273,0,0,0,6.546,0V120Z" transform="translate(-255.631 -103.634)" fill="#ff421d"/>
      <path id="Trazado_1015202" data-name="Trazado 1015202" d="M360,120v3.273a3.273,3.273,0,0,0,6.546,0V120Z" transform="translate(-297.084 -103.634)" fill="#ffdb0c"/>
      <path id="Trazado_1015203" data-name="Trazado 1015203" d="M408,123.273a3.273,3.273,0,0,0,6.546,0V120H408Z" transform="translate(-338.538 -103.634)" fill="#ff421d"/>
      <path id="Trazado_1015204" data-name="Trazado 1015204" d="M16,320H77.1v21.821H16Z" transform="translate(0 -276.357)" fill="#ffdb0c"/>
      <g id="Grupo_1182861" data-name="Grupo 1182861" transform="translate(54.507 47.238)">
        <path id="Trazado_1015205" data-name="Trazado 1015205" d="M298.343,349.634l3.273-3.273,1.543,1.543-3.273,3.273Z" transform="translate(-298.343 -346.361)" fill="#33bc00"/>
        <path id="Trazado_1015206" data-name="Trazado 1015206" d="M312,376h3.273v2.182H312Z" transform="translate(-310.137 -371.958)" fill="#33bc00"/>
      </g>
      <path id="Trazado_1015207" data-name="Trazado 1015207" d="M232.63,360h-.349a4.474,4.474,0,0,0-3.632,1.869l-4.138,5.795A2.744,2.744,0,0,0,226.743,372h.14a2.765,2.765,0,0,0,1.226-.289l6.517-3.259a4.462,4.462,0,0,0-2-8.454Z" transform="translate(-179.632 -310.902)" fill="#ff6536"/>
      <path id="Trazado_1015208" data-name="Trazado 1015208" d="M179.273,368h-1.091A2.182,2.182,0,0,0,176,370.182v1.091a7.646,7.646,0,0,0,7.637,7.637h1.091a2.182,2.182,0,0,0,2.182-2.182v-1.091A7.646,7.646,0,0,0,179.273,368Z" transform="translate(-138.179 -317.811)" fill="#79d60d"/>
      <path id="Trazado_1015209" data-name="Trazado 1015209" d="M70.136,0H22.963L16,13.926v5.713A4.35,4.35,0,0,0,18.182,23.4V43.643H16V65.464H77.1V43.643H74.917V23.4A4.35,4.35,0,0,0,77.1,19.639V13.926ZM68.371,19.639a2.182,2.182,0,0,1-4.364,0V17.457h4.364Zm-6.546,0a2.182,2.182,0,0,1-4.364,0V17.457h4.364Zm-6.546,0a2.182,2.182,0,0,1-4.364,0V17.457h4.364Zm-6.546,0a2.182,2.182,0,0,1-4.364,0V17.457h4.364Zm-6.546,0a2.182,2.182,0,0,1-4.364,0V17.457h4.364Zm-6.546,0a2.182,2.182,0,0,1-4.364,0V17.457h4.364Zm-6.546,0a2.182,2.182,0,0,1-4.364,0V17.457h4.364Zm15.275-4.364V2.182h4.364V15.275Zm-2.182,0H37.821V2.182h4.364Zm-6.546,0h-4.2l1.87-13.093h2.327Zm-6.4,0H25.084l3.74-13.093h2.284Zm34.769,0h-.145L61.992,2.182h2.284l3.741,13.093ZM59.788,2.182l1.87,13.093h-4.2V2.182ZM55.278,15.275H50.914V2.182h4.364Zm-37.1-.834,6.13-12.259h2.243l-3.74,13.093H18.182Zm4.364,3.016v2.182a2.182,2.182,0,0,1-4.364,0V17.457ZM74.917,63.282H18.182V45.825H74.917ZM24.729,40.369V39.278H25.82a3.273,3.273,0,0,1,3.273,3.273v1.091H28A3.273,3.273,0,0,1,24.729,40.369Zm17.457,3.273H41.094a3.273,3.273,0,0,1-3.273-3.273V39.278h1.091a3.273,3.273,0,0,1,3.273,3.273ZM31.275,40.369V39.278h1.091a3.273,3.273,0,0,1,3.273,3.273v1.091H34.548A3.273,3.273,0,0,1,31.275,40.369ZM37.821,37.1H36.73a3.273,3.273,0,0,1-3.273-3.273V32.732h1.091a3.273,3.273,0,0,1,3.273,3.273Zm-6.546,0H30.184a3.273,3.273,0,0,1-3.273-3.273V32.732H28a3.273,3.273,0,0,1,3.273,3.273Zm24-6.546a1.091,1.091,0,0,1,1.091,1.091v3.273H54.187V31.641A1.091,1.091,0,0,1,55.278,30.55Zm3.273,1.091a1.091,1.091,0,0,1,2.182,0v3.273H58.552Zm4.364,0a1.091,1.091,0,0,1,2.182,0v3.273H62.916ZM56.369,37.1h12v6.546H50.914V37.1Zm16.366,6.546H70.553V34.914H67.28V31.641a3.273,3.273,0,0,0-1.869-2.946l.722-2.166-2.073-.691-.882,2.646a3.254,3.254,0,0,0-1.354.734,3.276,3.276,0,0,0-.778-.523l.722-2.166L59.7,25.84l-.882,2.646a3.253,3.253,0,0,0-1.354.733,3.276,3.276,0,0,0-.778-.523L57.4,26.53l-2.073-.691-.882,2.646a3.273,3.273,0,0,0-2.445,3.155v3.273H48.732v8.729H44.368V42.552a5.464,5.464,0,0,0-4.375-5.346c0-.037.011-.072.011-.109V36.005a5.462,5.462,0,0,0-5.455-5.455H33.457a2.182,2.182,0,0,0-1.984,1.283A5.4,5.4,0,0,0,28,30.55H26.911a2.182,2.182,0,0,0-2.182,2.182v1.091A5.4,5.4,0,0,0,25.85,37.1H24.729a2.182,2.182,0,0,0-2.182,2.182v1.091a5.4,5.4,0,0,0,1.119,3.273h-3.3V24A4.337,4.337,0,0,0,23.637,22.5a4.305,4.305,0,0,0,6.546,0,4.305,4.305,0,0,0,6.546,0,4.305,4.305,0,0,0,6.546,0,4.305,4.305,0,0,0,6.546,0,4.305,4.305,0,0,0,6.546,0,4.305,4.305,0,0,0,6.546,0,4.305,4.305,0,0,0,6.546,0A4.337,4.337,0,0,0,72.735,24Zm2.182-24a2.182,2.182,0,0,1-4.364,0V17.457h4.364Zm-4.364-4.364h-.268L66.545,2.182h2.243l6.13,12.259v.834Z"/>
      <path id="Trazado_1015210" data-name="Trazado 1015210" d="M288,288h13.093v2.182H288Z" transform="translate(-234.904 -248.722)"/>
      <path id="Trazado_1015211" data-name="Trazado 1015211" d="M197.5,347.887l-1.543-1.543-2.509,2.509a4.415,4.415,0,0,0-2.273-.647h-.349a4.474,4.474,0,0,0-3.632,1.869l-1.73,2.423a7.571,7.571,0,0,0-6.192-3.2h-1.091A2.182,2.182,0,0,0,176,351.48v1.091a7.646,7.646,0,0,0,7.637,7.637h1.091a1.346,1.346,0,0,0,.287-.031,2.747,2.747,0,0,0,.274.031h.14a2.751,2.751,0,0,0,1.227-.29l6.516-3.258a4.438,4.438,0,0,0,2.467-3.991c0-.034-.009-.065-.01-.1h2.192v-2.182H195Zm-19.319,4.684V351.48h1.091a5.469,5.469,0,0,1,5.455,5.455l-.007,1.07-1.085.021A5.462,5.462,0,0,1,178.182,352.571Zm14.015,2.137-5.286,2.644v-.417a7.535,7.535,0,0,0-.075-1.008c-.01-.073-.02-.145-.032-.218a7.6,7.6,0,0,0-.218-.968.068.068,0,0,0-.009-.04l2.4-3.358a2.291,2.291,0,0,1,1.85-.954h.348a2.28,2.28,0,0,1,1.02,4.32Z" transform="translate(-138.179 -299.109)"/>
    </g>
  </g>
</svg>
