<svg xmlns="http://www.w3.org/2000/svg" width="98" height="98" viewBox="0 0 98 98">
  <g id="Grupo_1182039" data-name="Grupo 1182039" transform="translate(-289.609 -11611.898)">
    <g id="Grupo_1177473" data-name="Grupo 1177473" transform="translate(289.609 11611.898)">
      <ellipse id="Elipse_13609" data-name="Elipse 13609" cx="49" cy="49" rx="49" ry="49" transform="translate(0)" fill="#fff"/>
      <g id="Grupo_1182884" data-name="Grupo 1182884" transform="translate(17 16.999)">
        <path id="Trazado_1015313" data-name="Trazado 1015313" d="M8,28h6a1,1,0,0,0,1-1V21h2a1,1,0,0,0,.8-1.6l-6-8a1.035,1.035,0,0,0-1.6,0l-6,8A1,1,0,0,0,5,21H7v6A1,1,0,0,0,8,28Zm3-14.333L15,19H14a1,1,0,0,0-1,1v6H9V20a1,1,0,0,0-1-1H7Z" fill="#484e36"/>
        <path id="Trazado_1015314" data-name="Trazado 1015314" d="M56,11H50a1,1,0,0,0-1,1v6H47a1,1,0,0,0-.8,1.6l6,8a1,1,0,0,0,1.6,0l6-8A1,1,0,0,0,59,18H57V12a1,1,0,0,0-1-1ZM53,25.333,49,20h1a1,1,0,0,0,1-1V13h4v6a1,1,0,0,0,1,1h1Z" fill="#484e36"/>
        <path id="Trazado_1015315" data-name="Trazado 1015315" d="M62,29H2a1,1,0,0,0-1,1v3a1,1,0,0,0,1,1H30.234l-2.091,3.485.115.069a13,13,0,1,0,7.484,0l.115-.069L33.766,34H62a1,1,0,0,0,1-1V30a1,1,0,0,0-1-1ZM33,57.594V55.3c1.088.025,2.152.088,3.169.191a16.394,16.394,0,0,1-.94,2.322A20.657,20.657,0,0,0,33,57.594Zm-4.23.221a16.4,16.4,0,0,1-.94-2.322c1.017-.1,2.081-.166,3.169-.191v2.292a20.658,20.658,0,0,0-2.23.221ZM31,42.4V44.7c-1.088-.025-2.152-.088-3.169-.191a16.4,16.4,0,0,1,.94-2.322A20.662,20.662,0,0,0,31,42.4ZM31,46.7V49H27.03a18.471,18.471,0,0,1,.31-2.537C28.513,46.591,29.743,46.668,31,46.7ZM25.03,49H21.051a10.9,10.9,0,0,1,.966-3.59,25.5,25.5,0,0,0,3.338.773A20.513,20.513,0,0,0,25.03,49Zm0,2a20.513,20.513,0,0,0,.325,2.816,25.5,25.5,0,0,0-3.338.773A10.9,10.9,0,0,1,21.051,51Zm2,0H31v2.3c-1.257.028-2.487.1-3.661.234A18.471,18.471,0,0,1,27.03,51ZM33,53.3V51h3.97a18.47,18.47,0,0,1-.31,2.537C35.487,53.407,34.257,53.33,33,53.3ZM38.97,51h3.979a10.9,10.9,0,0,1-.966,3.59,25.5,25.5,0,0,0-3.338-.773A20.513,20.513,0,0,0,38.97,51Zm0-2a20.513,20.513,0,0,0-.325-2.816,25.5,25.5,0,0,0,3.338-.773A10.9,10.9,0,0,1,42.949,49Zm-2,0H33V46.7c1.257-.028,2.487-.1,3.661-.234A18.47,18.47,0,0,1,36.97,49ZM33,44.7V42.4a20.662,20.662,0,0,0,2.23-.221,16.4,16.4,0,0,1,.94,2.322C35.152,44.609,34.088,44.671,33,44.7Zm-1-4.269a17.975,17.975,0,0,1-4.377-.515,10.94,10.94,0,0,1,8.753,0A17.975,17.975,0,0,1,32,40.428Zm-6.647.828a11.983,11.983,0,0,0,1.405.49,18.627,18.627,0,0,0-.929,2.492,24.685,24.685,0,0,1-2.782-.605,11.077,11.077,0,0,1,2.306-2.377Zm-2.306,15.11a24.683,24.683,0,0,1,2.782-.605,18.627,18.627,0,0,0,.929,2.492,11.986,11.986,0,0,0-1.405.49A11.078,11.078,0,0,1,23.047,56.366Zm4.577,3.719a18.846,18.846,0,0,1,8.753,0,10.941,10.941,0,0,1-8.753,0Zm11.024-1.343a11.983,11.983,0,0,0-1.405-.49,18.628,18.628,0,0,0,.929-2.492,24.683,24.683,0,0,1,2.782.605,11.077,11.077,0,0,1-2.306,2.377Zm2.306-15.111a24.685,24.685,0,0,1-2.782.605,18.626,18.626,0,0,0-.929-2.492,11.983,11.983,0,0,0,1.405-.49,11.077,11.077,0,0,1,2.306,2.377ZM32,37c-.43,0-.854.024-1.272.064L32,34.943l1.272,2.121C32.854,37.023,32.43,37,32,37Zm29-5H3V31H61Z" fill="#484e36"/>
        <path id="Trazado_1015316" data-name="Trazado 1015316" d="M41,10a9,9,0,1,0-9,9A9,9,0,0,0,41,10ZM25,10a7,7,0,1,1,7,7,7,7,0,0,1-7-7Z" fill="#484e36"/>
        <path id="Trazado_1015317" data-name="Trazado 1015317" d="M33,16V14.815A2.993,2.993,0,0,0,32,9a1,1,0,1,1,1-1h2a3,3,0,0,0-2-2.816V4H31V5.183A2.993,2.993,0,0,0,32,11a1,1,0,1,1-1,1H29a3,3,0,0,0,2,2.816V16Z" fill="#484e36"/>
      </g>
    </g>
  </g>
</svg>
