<svg xmlns="http://www.w3.org/2000/svg" width="150" height="150" viewBox="0 0 150 150">
  <g id="Grupo_1182042" data-name="Grupo 1182042" transform="translate(-383.746 -8400)">
    <circle id="Elipse_13609" data-name="Elipse 13609" cx="75" cy="75" r="75" transform="translate(383.746 8400)" fill="#b3c487"/>
    <g id="Layer_2_00000136376003071828084610000008544060838170273213_" transform="translate(414.114 8427.244)">
      <g id="Layer_1-2" transform="translate(-0.409 -0.412)">
        <g id="local_market_place" transform="translate(0 0)">
          <path id="Trazado_1015336" data-name="Trazado 1015336" d="M275.993,341.4H257.854a4.066,4.066,0,0,0-4.078,4.06c-.018.018.018,8.138,0,8.156a4.081,4.081,0,0,0,4.078,4.078h18.139a4.119,4.119,0,0,0,4.1-4.078v-8.138A4.119,4.119,0,0,0,275.993,341.4Zm-19.51,12.234V345.5a1.373,1.373,0,0,1,1.371-1.371h7.7V355h-7.7a1.4,1.4,0,0,1-1.371-1.371Zm20.864,0A1.381,1.381,0,0,1,275.993,355h-7.716v-10.88C280.018,344.265,276.907,342.332,277.347,353.634Z" transform="translate(-209.094 -281.32)" fill="#484e36"/>
          <path id="Trazado_1015337" data-name="Trazado 1015337" d="M88.268,253.929H79.761V222.255a8.685,8.685,0,0,0,9.878-8.859,1.433,1.433,0,0,0-.387-.9c-.387-.176-10.423-10.81-10.845-10.142H54.222a1.373,1.373,0,0,0-1.371,1.371c.053,1.283,1.142,1.459,2.18,1.371l2.3,7H32l2.285-7c1.037.088,2.144-.105,2.18-1.371a1.369,1.369,0,0,0-1.353-1.371h-24.2C10.473,201.69.472,212.342.067,212.5c-.018,0-.018.035-.018.035a1.28,1.28,0,0,0-.369.844c-.035.053-.018.141-.018.193h0c.053,5.273,4.746,9.562,9.878,8.683v31.691H1.017a1.355,1.355,0,1,0-.141,2.707H88.268a1.363,1.363,0,1,0,0-2.724Zm-7.259-34.275a5.98,5.98,0,0,1-5.765-4.816h11.53A5.957,5.957,0,0,1,81.009,219.654Zm3.955-7.558H74.506l-4.5-7.013h7.857Zm-18.174-7.013,4.5,7H60.251l-2.32-7Zm5.484,9.755a5.875,5.875,0,0,1-11.53,0Zm-14.554,0a5.875,5.875,0,0,1-11.53,0ZM29.157,212.1H18.066l4.517-7h8.841Zm-.527,2.742a5.875,5.875,0,0,1-11.53,0Zm14.536,0a5.875,5.875,0,0,1-11.53,0Zm-31.674-9.755h7.822l-4.5,7H4.356Zm-8.947,9.755H14.059A5.862,5.862,0,0,1,2.546,214.838Zm32.57,25.539H21.476v-9.509A1.358,1.358,0,0,1,22.83,229.5H33.762a1.347,1.347,0,0,1,1.353,1.371C35.133,230.868,35.116,240.377,35.116,240.377ZM21.494,253.929V243.084h13.64v10.845Zm16.364,0V230.868a4.1,4.1,0,0,0-4.078-4.1H22.865a4.111,4.111,0,0,0-4.113,4.078v23.078h-6.5v-32.57a8.4,8.4,0,0,0,3.3-3.111c3.094,5.466,11.46,5.431,14.554,0,3.094,5.466,11.46,5.431,14.554,0,3.058,5.484,11.46,5.449,14.519,0,3.094,5.466,11.46,5.431,14.554,0a8.4,8.4,0,0,0,3.3,3.111v32.588H37.858Z" transform="translate(0.409 -166.693)" fill="#484e36"/>
          <path id="Trazado_1015338" data-name="Trazado 1015338" d="M186.36,42.671c1.81-.422,14.36-16.382,14.852-28a14.863,14.863,0,1,0-29.723,0C171.982,26.342,184.462,42.214,186.36,42.671Zm0-40.146a12.13,12.13,0,0,1,12.11,12.146c0,8.419-9.017,20.565-12.11,24.449-3.111-3.9-12.163-16.03-12.163-24.449A12.152,12.152,0,0,1,186.36,2.525Z" transform="translate(-141.274 0.412)" fill="#484e36"/>
          <path id="Trazado_1015339" data-name="Trazado 1015339" d="M230.74,54.491c-.123-8.964-13.464-9-13.64-.035C217.258,63.42,230.546,63.437,230.74,54.491Zm-10.9,0c.088-5.379,8.085-5.379,8.173,0C227.927,59.869,219.93,59.852,219.842,54.491Z" transform="translate(-178.869 -39.284)" fill="#484e36"/>
        </g>
      </g>
    </g>
  </g>
</svg>
