<svg xmlns="http://www.w3.org/2000/svg" width="98" height="98" viewBox="0 0 98 98">
  <g id="Grupo_1182037" data-name="Grupo 1182037" transform="translate(-289.609 -11611.898)">
    <g id="Grupo_1177473" data-name="Grupo 1177473" transform="translate(289.609 11611.898)">
      <ellipse id="Elipse_13609" data-name="Elipse 13609" cx="49" cy="49" rx="49" ry="49" transform="translate(0)" fill="#fff"/>
      <g id="Grupo_1182883" data-name="Grupo 1182883" transform="translate(17 16.856)">
        <path id="Trazado_1015298" data-name="Trazado 1015298" d="M44.948,21.684l-2-6A1,1,0,0,0,42,15H22a1,1,0,0,0-.948.684l-2,6A1,1,0,0,0,19,22a3.962,3.962,0,0,0,1,2.618V39a1,1,0,0,0,1,1H43a1,1,0,0,0,1-1V24.618A3.962,3.962,0,0,0,45,22,1,1,0,0,0,44.948,21.684ZM33,17h4v5a2,2,0,0,1-4,0Zm-6,0h4v5a2,2,0,0,1-4,0Zm-5.995,5.146L22.721,17H25v5a2,2,0,0,1-4,.146ZM29,38H26V34h3Zm13-6H36V30h6Zm0-4H35a1,1,0,0,0-1,1v4a1,1,0,0,0,1,1h7v4H31V33a1,1,0,0,0-1-1H25a1,1,0,0,0-1,1v5H22V25.858a3.864,3.864,0,0,0,4-1.24,3.947,3.947,0,0,0,6,0,3.947,3.947,0,0,0,6,0,3.864,3.864,0,0,0,4,1.24Zm-1-4a2,2,0,0,1-2-2V17h2.279l1.716,5.146A2,2,0,0,1,41,24Z" fill="#484e36"/>
        <path id="Trazado_1015299" data-name="Trazado 1015299" d="M46.474,31.6l-.947,1.762A25.979,25.979,0,0,1,56.228,44H46.5a3.5,3.5,0,1,0,0,7h2A1.5,1.5,0,0,1,50,52.5,3.493,3.493,0,0,0,53.5,56h5.464a23.3,23.3,0,0,1-.948,5.712l1.916.576A25.311,25.311,0,0,0,61,55,26.825,26.825,0,0,0,46.474,31.6Zm5.963,21.966A1.511,1.511,0,0,1,52,52.5,3.5,3.5,0,0,0,48.5,49h-2a1.5,1.5,0,0,1,0-3H57.162a23.318,23.318,0,0,1,1.8,8H53.5a1.511,1.511,0,0,1-1.063-.438Z" fill="#484e36"/>
        <path id="Trazado_1015300" data-name="Trazado 1015300" d="M19,53H13a.977.977,0,0,1-.713-.307A.959.959,0,0,1,12,52a1,1,0,0,1,1-1h1a3.015,3.015,0,0,0,3-3,3,3,0,0,0-3-3H7.281A25.851,25.851,0,0,1,18.473,33.357L17.526,31.6A26.828,26.828,0,0,0,3,55a25.311,25.311,0,0,0,1.068,7.288l1.916-.576c-.17-.565-.315-1.136-.441-1.712H19a3,3,0,0,0,3-3V56a3,3,0,0,0-3-3Zm1,4a1,1,0,0,1-1,1H5.2A23.45,23.45,0,0,1,5,55a23.2,23.2,0,0,1,1.433-8H14a1,1,0,0,1,1,1,.977.977,0,0,1-.307.713A.959.959,0,0,1,14,49H13a3,3,0,0,0-3,3,3.015,3.015,0,0,0,3,3h6a1,1,0,0,1,1,1Z" fill="#484e36"/>
        <path id="Trazado_1015301" data-name="Trazado 1015301" d="M43,56H41a1,1,0,0,1-1-1V54a3,3,0,0,0-3-3H31a3,3,0,0,0-3,3v5a3,3,0,0,0,3,3H43a3,3,0,0,0,0-6Zm0,4H31a1,1,0,0,1-1-1V54a1,1,0,0,1,1-1h6a1,1,0,0,1,1,1v1a3,3,0,0,0,3,3h2a1,1,0,0,1,0,2Z" fill="#484e36"/>
        <path id="Trazado_1015302" data-name="Trazado 1015302" d="M25,42H23a3,3,0,0,0,0,6h2a3,3,0,0,0,0-6Zm0,4H23a1,1,0,0,1,0-2h2a1,1,0,0,1,0,2Z" fill="#484e36"/>
        <path id="Trazado_1015303" data-name="Trazado 1015303" d="M29,8v4a1,1,0,0,0,1,1h4a1,1,0,0,0,1-1V8a1,1,0,0,0-1-1H30A1,1,0,0,0,29,8Zm2,1h2v2H31Z" fill="#484e36"/>
        <path id="Trazado_1015304" data-name="Trazado 1015304" d="M53,15a1,1,0,0,0-1,1v4a1,1,0,0,0,1,1h4a1,1,0,0,0,1-1V16a1,1,0,0,0-1-1Zm3,4H54V17h2Z" fill="#484e36"/>
        <path id="Trazado_1015305" data-name="Trazado 1015305" d="M7,15a1,1,0,0,0-1,1v4a1,1,0,0,0,1,1h4a1,1,0,0,0,1-1V16a1,1,0,0,0-1-1Zm3,4H8V17h2Z" fill="#484e36"/>
        <path id="Trazado_1015306" data-name="Trazado 1015306" d="M31,2h2V5H31Z" fill="#484e36"/>
        <path id="Trazado_1015307" data-name="Trazado 1015307" d="M36.44,5.061h3v2h-3Z" transform="translate(6.827 28.602) rotate(-45)" fill="#484e36"/>
        <path id="Trazado_1015308" data-name="Trazado 1015308" d="M24.94,4.561h2v3h-2Z" transform="translate(3.312 20.117) rotate(-45)" fill="#484e36"/>
        <path id="Trazado_1015309" data-name="Trazado 1015309" d="M58.088,22.667a35.216,35.216,0,0,1,3.019,3.889l1.662-1.111a37.048,37.048,0,0,0-3.19-4.111Z" fill="#484e36"/>
        <path id="Trazado_1015310" data-name="Trazado 1015310" d="M50.5,13.951a36.631,36.631,0,0,0-13.363-4.6l-.275,1.98A34.639,34.639,0,0,1,49.5,15.681Z" fill="#484e36"/>
        <path id="Trazado_1015311" data-name="Trazado 1015311" d="M14.5,15.682a34.639,34.639,0,0,1,12.637-4.347l-.275-1.98a36.606,36.606,0,0,0-13.363,4.6Z" fill="#484e36"/>
        <path id="Trazado_1015312" data-name="Trazado 1015312" d="M4.25,21.526a37.361,37.361,0,0,0-3.019,3.918l1.662,1.111a35.492,35.492,0,0,1,2.856-3.707Z" fill="#484e36"/>
      </g>
    </g>
  </g>
</svg>
