<svg xmlns="http://www.w3.org/2000/svg" width="150" height="150" viewBox="0 0 150 150">
  <g id="Grupo_1182043" data-name="Grupo 1182043" transform="translate(-383.746 -8400)">
    <circle id="Elipse_13609" data-name="Elipse 13609" cx="75" cy="75" r="75" transform="translate(383.746 8400)" fill="#b3c487"/>
    <path id="Trazado_1015357" data-name="Trazado 1015357" d="M87.233,53.853H12.164A3.332,3.332,0,0,0,8.836,57.34a40.91,40.91,0,0,0,68.2,28.449.107.107,0,0,0,.015-.013c.308-.278.617-.56.917-.848a40.71,40.71,0,0,0,12.6-27.588V57.33a3.334,3.334,0,0,0-3.327-3.477Zm-72.1,17.116C16.678,67.838,19.446,63.351,21,62.5c1.006-.551,2.363.058,4.677,1.182a24.525,24.525,0,0,0,9.562,2.93c5.865.519,9.4,2.064,9.964,4.351.726,2.955-3.077,7.69-9.464,11.789a12.968,12.968,0,0,0-5.054,5.415A37.915,37.915,0,0,1,15.134,70.969Zm18.212,18.6A9.8,9.8,0,0,1,37.2,85.377c.038-.019.073-.041.109-.064a33.8,33.8,0,0,0,8.25-7.122c2.252-2.853,3.139-5.6,2.564-7.945-.917-3.741-5.169-5.972-12.637-6.63a.252.252,0,0,0-.038,0,21.641,21.641,0,0,1-8.457-2.635c-2.581-1.254-5.019-2.438-7.434-1.115C17.482,61,15.179,64.62,13.7,67.274a37.9,37.9,0,0,1-1.857-10.066.3.3,0,0,1,.1-.256.265.265,0,0,1,.229-.094H50.92c.748,3.876,5.259,7.919,10.382,12.509,5.064,4.538,10.767,9.648,12.968,14.872a38.027,38.027,0,0,1-40.923,5.329ZM76.591,82.1c-2.688-5.468-8.28-10.483-13.284-14.966-4.1-3.677-8.325-7.46-9.286-10.271H87.233a.269.269,0,0,1,.237.1.287.287,0,0,1,.09.242A37.751,37.751,0,0,1,76.591,82.1ZM25.016,24.216v21.6a4.21,4.21,0,0,0,4.2,4.2H70.179a4.21,4.21,0,0,0,4.2-4.2v-21.6a7.312,7.312,0,0,0,5.8-7.143,1.322,1.322,0,0,0-.013-.194L78.245,2.122A2.408,2.408,0,0,0,75.859.03H23.54a2.41,2.41,0,0,0-2.385,2.092L19.232,16.878a1.674,1.674,0,0,0-.013.194,7.313,7.313,0,0,0,5.8,7.145ZM22.5,18.575h8.039a4.29,4.29,0,0,1-8.039,0ZM64.662,3.032l.821,12.538H57V3.032Zm.652,15.543a4.294,4.294,0,0,1-8.045,0Zm-20,28.438v-11.5h8.765v11.5Zm24.861,0H57.085V34.908a2.4,2.4,0,0,0-2.4-2.4h-9.97a2.407,2.407,0,0,0-2.4,2.4V47.013H29.217a1.2,1.2,0,0,1-1.2-1.2v-21.6A7.306,7.306,0,0,0,32.307,21.5a7.289,7.289,0,0,0,11.594,0,7.285,7.285,0,0,0,11.59,0,7.289,7.289,0,0,0,11.594,0,7.3,7.3,0,0,0,4.289,2.712v21.6A1.2,1.2,0,0,1,70.177,47.013ZM34.083,18.575h8.045a4.294,4.294,0,0,1-8.045,0Zm11.6,0h8.041a4.291,4.291,0,0,1-8.041,0Zm27.2,2.793a4.3,4.3,0,0,1-4.017-2.791H76.9A4.3,4.3,0,0,1,72.88,21.368ZM75.331,3.032l1.633,12.538h-8.47L67.673,3.032ZM53.991,15.569H45.407V3.032h8.585Zm-11.59,0H33.914l.821-12.538H42.4V15.569ZM24.067,3.032h7.658L30.9,15.569h-8.47ZM96.72,29.586l-7.6-7.6a2.5,2.5,0,0,0-3.532,0L78,29.577a2.493,2.493,0,0,0,1.757,4.269h2.962V47.592a2.428,2.428,0,0,0,2.425,2.425H89.57a2.428,2.428,0,0,0,2.425-2.425V33.846h2.962a2.495,2.495,0,0,0,1.763-4.259Zm-5.239,1.256a2.5,2.5,0,0,0-2.494,2.5V47.013H85.726V33.34a2.5,2.5,0,0,0-2.494-2.5H80.987l6.368-6.368,6.368,6.368ZM14.253,50.016a2.428,2.428,0,0,0,2.425-2.425V33.846H19.64A2.5,2.5,0,0,0,21.952,32.3a2.478,2.478,0,0,0-.547-2.712l-7.6-7.6a2.5,2.5,0,0,0-3.532,0l-7.6,7.6a2.5,2.5,0,0,0,1.767,4.259H7.407V47.592a2.428,2.428,0,0,0,2.425,2.425ZM7.918,30.842H5.674l6.368-6.368,6.368,6.368H16.166a2.5,2.5,0,0,0-2.494,2.5V47.013H10.411V33.34a2.5,2.5,0,0,0-2.492-2.5Z" transform="translate(409.048 8426.854)" fill="#484e36"/>
  </g>
</svg>
