<svg xmlns="http://www.w3.org/2000/svg" width="150" height="150" viewBox="0 0 150 150">
  <g id="Grupo_1182044" data-name="Grupo 1182044" transform="translate(-383.746 -8400)">
    <circle id="Elipse_13609" data-name="Elipse 13609" cx="75" cy="75" r="75" transform="translate(383.746 8400)" fill="#b3c487"/>
    <g id="Grupo_1182894" data-name="Grupo 1182894" transform="translate(416.746 8432.999)">
      <g id="layer2_18_" transform="translate(0 0.001)">
        <path id="path832_4_" d="M19.594,0A19.6,19.6,0,0,0,0,19.565a21.052,21.052,0,0,0,2.264,8.846,42.014,42.014,0,1,0,79.756.946v0a1.4,1.4,0,0,0-.208-.686,42.231,42.231,0,0,0-3.391-7.544C81.13,17.862,84.054,13.477,84,9.8A9.8,9.8,0,0,0,64.87,6.8,41.827,41.827,0,0,0,28.6,2.208a19.5,19.5,0,0,0-9-2.207Zm0,2.8A16.762,16.762,0,0,1,36.4,19.565c0,5.589-4.309,12.477-8.774,17.817a69.515,69.515,0,0,1-8.02,8.225,69.139,69.139,0,0,1-8.031-8.225C7.11,32.043,2.8,25.154,2.8,19.565A16.75,16.75,0,0,1,19.594,2.8ZM42,2.8A39.165,39.165,0,0,1,64.4,9.861a8.724,8.724,0,0,0,.12,1.343H58.805a5.6,5.6,0,1,0,0,11.192h2.789a2.766,2.766,0,0,1,2.8,2.8A5.621,5.621,0,0,0,70,30.8h9.537a38.942,38.942,0,0,1-.916,25.208H69.335A20.69,20.69,0,0,0,71.4,47.571a19.6,19.6,0,0,0-39.2,0,20.69,20.69,0,0,0,2.067,8.436H33.6A4.213,4.213,0,0,0,29.4,60.2,1.367,1.367,0,0,1,28,61.6H25.2a4.2,4.2,0,0,0,0,8.4H26.6a1.4,1.4,0,0,1,0,2.8H17.751A39.342,39.342,0,0,1,8.9,63a5.694,5.694,0,0,0,6.5-5.6,2.766,2.766,0,0,1,2.8-2.8H21a5.583,5.583,0,0,0,3.631-9.841c1.549-1.549,3.306-3.381,5.143-5.578C34.409,33.637,39.2,26.51,39.2,19.566A19.509,19.509,0,0,0,31.68,4.19,39.207,39.207,0,0,1,42,2.8Zm32.2,0a6.972,6.972,0,0,1,7,6.995c0,2.1-1.883,5.547-3.916,8.258a32.158,32.158,0,0,1-3.082,3.6,32.182,32.182,0,0,1-3.079-3.6C69.09,15.346,67.2,11.9,67.2,9.8A6.979,6.979,0,0,1,74.2,2.8ZM19.594,5.6A14,14,0,1,0,33.6,19.6a14.007,14.007,0,0,0-14-13.992ZM74.2,5.6A4.2,4.2,0,1,0,78.4,9.8,4.221,4.221,0,0,0,74.2,5.6ZM19.594,8.4A11.2,11.2,0,1,1,8.4,19.6,11.174,11.174,0,0,1,19.594,8.4ZM74.2,8.4a1.4,1.4,0,0,1,0,2.8,1.4,1.4,0,1,1,0-2.8ZM14.005,12.6a1.409,1.409,0,1,0,.205,2.8l1.209,7.232a1.4,1.4,0,0,0,1.386,1.17h5.589a1.4,1.4,0,0,0,1.364-1.066l1.4-5.6A1.4,1.4,0,0,0,23.8,15.4H17.051l-.268-1.632A1.4,1.4,0,0,0,15.4,12.6Zm44.8,1.408h6.571C66.615,17.1,70.2,21.7,73.21,24.794a1.4,1.4,0,0,0,1.974,0s.541-.548,1.3-1.389A39.522,39.522,0,0,1,78.588,28H70a2.764,2.764,0,0,1-2.8-2.8,5.624,5.624,0,0,0-5.6-5.6H58.805a2.794,2.794,0,1,1,0-5.589ZM17.519,18.2H22L21.312,21H17.984Zm-.719,7a1.4,1.4,0,1,0,1.4,1.4A1.411,1.411,0,0,0,16.8,25.2Zm5.6,0a1.4,1.4,0,1,0,1.4,1.4A1.411,1.411,0,0,0,22.4,25.2Zm29.4,5.6A16.771,16.771,0,0,1,68.6,47.571c0,5.589-4.309,12.477-8.774,17.817A68.806,68.806,0,0,1,51.8,73.6a69.117,69.117,0,0,1-8.02-8.217c-4.465-5.34-8.772-12.228-8.772-17.817A16.759,16.759,0,0,1,51.8,30.8ZM4.126,31.886A68.522,68.522,0,0,0,13.221,43.4H2.847a38.427,38.427,0,0,1,1.28-11.509ZM51.8,33.6A14,14,0,1,0,65.8,47.6,14.019,14.019,0,0,0,51.8,33.6Zm0,2.8a11.2,11.2,0,1,1-11.2,11.2A11.183,11.183,0,0,1,51.8,36.4Zm-.019,2.8A1.4,1.4,0,0,0,50.4,40.617,4.19,4.19,0,1,0,50.4,49v2.789H47.6a1.4,1.4,0,0,0,0,2.8h2.8a1.4,1.4,0,0,0,2.8,0,4.2,4.2,0,1,0,0-8.392V43.417h2.8a1.4,1.4,0,1,0,0-2.8H53.2A1.4,1.4,0,0,0,51.778,39.2ZM49,44.812A1.37,1.37,0,0,1,50.4,43.417l0,2.781A1.36,1.36,0,0,1,49,44.812ZM3.041,46.2H16.01c1.594,1.528,2.685,2.469,2.685,2.469a1.4,1.4,0,0,0,1.81,0s.9-.789,2.125-1.944A2.8,2.8,0,0,1,21,51.8H18.2a5.623,5.623,0,0,0-5.6,5.6,2.764,2.764,0,0,1-2.8,2.8H7.279a39.459,39.459,0,0,1-4.238-14ZM53.2,49a1.393,1.393,0,1,1,0,2.786ZM35.7,58.806a57.836,57.836,0,0,0,5.928,8.381,87.465,87.465,0,0,0,9.261,9.477,1.4,1.4,0,0,0,1.818,0,87.061,87.061,0,0,0,9.27-9.477,57.826,57.826,0,0,0,5.928-8.381h9.521A39.234,39.234,0,0,1,21.785,75.6H26.6a4.2,4.2,0,0,0,0-8.4H25.2a1.4,1.4,0,0,1,0-2.8H28A4.222,4.222,0,0,0,32.2,60.2,1.358,1.358,0,0,1,33.6,58.806h2.1Z" transform="translate(0 -0.001)" fill="#484e36"/>
      </g>
    </g>
  </g>
</svg>
