<svg xmlns="http://www.w3.org/2000/svg" width="292" height="199.018" viewBox="0 0 292 199.018">
  <g id="Grupo_1182933" data-name="Grupo 1182933" transform="translate(-186 -13283)">
    <rect id="Rectángulo_456653" data-name="Rectángulo 456653" width="292" height="199.018" rx="10" transform="translate(186 13283)" fill="#e8eddb"/>
    <g id="_45181463_783Z_TW_0214_03_06" data-name="45181463_783Z_TW_0214_03_06" transform="translate(-2.578 13139.701)">
      <g id="_x36_" transform="translate(217.053 148.457)">
        <g id="Grupo_1182897" data-name="Grupo 1182897" transform="translate(24.806 84.02)">
          <circle id="Elipse_15133" data-name="Elipse 15133" cx="44.434" cy="44.434" r="44.434" fill="#fcf0cf"/>
        </g>
        <g id="Grupo_1182898" data-name="Grupo 1182898" transform="translate(132.062 12.507)">
          <circle id="Elipse_15134" data-name="Elipse 15134" cx="44.434" cy="44.434" r="44.434" fill="#fcf0cf"/>
        </g>
        <g id="Grupo_1182899" data-name="Grupo 1182899" transform="translate(54.041 17.835)">
          <path id="Trazado_1015358" data-name="Trazado 1015358" d="M759.533,365.465l-.3-.074V368.2l-35.046,47.31a59.861,59.861,0,0,1,35.045-107.466V365.35Z" transform="translate(-700.597 -308.044)" fill="#9062c4"/>
        </g>
        <g id="Grupo_1182900" data-name="Grupo 1182900" transform="translate(112.976 85.369)">
          <path id="Trazado_1015359" data-name="Trazado 1015359" d="M1287.871,927.251a59.881,59.881,0,0,1-58.714,48.144c-.41,0-.815,0-1.225-.014V912.32Z" transform="translate(-1227.932 -912.32)" fill="#ff7e33"/>
        </g>
        <g id="Grupo_1182901" data-name="Grupo 1182901" transform="translate(120.039 17.822)">
          <path id="Trazado_1015360" data-name="Trazado 1015360" d="M1352.215,367.783a59.774,59.774,0,0,1-3.342,19.765l-57.742-22.306V307.936c.41-.009.815-.014,1.225-.014a59.814,59.814,0,0,1,59.86,59.861Z" transform="translate(-1291.13 -307.922)" fill="#fc3"/>
        </g>
        <g id="Grupo_1182902" data-name="Grupo 1182902" transform="translate(57.452 77.503)">
          <path id="Trazado_1015361" data-name="Trazado 1015361" d="M783.234,841.934l-25.851,53.629a59.568,59.568,0,0,1-26.261-26.229Z" transform="translate(-731.122 -841.934)" fill="#79dbdb"/>
        </g>
        <g id="Grupo_1182903" data-name="Grupo 1182903" transform="translate(193.757 11.4)">
          <path id="Trazado_1015362" data-name="Trazado 1015362" d="M1950.74,267.882l35.524-17.42,11.955,38.94L1960.3,305.8Z" transform="translate(-1950.74 -250.462)" fill="#c59df2"/>
        </g>
        <g id="Grupo_1182904" data-name="Grupo 1182904" transform="translate(142.186 106.765)">
          <path id="Trazado_1015363" data-name="Trazado 1015363" d="M1492.639,1141.94c2.473-10.054,5.457-13.292,9.115-22.978.607-1.607,1.257-3.269,2.733-4.289a3.22,3.22,0,0,1,2.834-.489c2.227.748,2.366,3.647,2.173,5.918-.338,3.973-.312,7.606-.326,8.194a50.26,50.26,0,0,0,12.057-21.058c1.147-.867,2.929-.153,3.665,1.083a7.149,7.149,0,0,1,.6,4.2,57.048,57.048,0,0,1-2.173,11.971c3.728,2.819,11.367,7.707,11.457,12.121.084,4.143-2.62,13.8-2.62,13.8l-35.626,6.449S1491.2,1147.791,1492.639,1141.94Z" transform="translate(-1492.047 -1106.51)" fill="#fff"/>
          <path id="Trazado_1015364" data-name="Trazado 1015364" d="M1493.781,1154.457a.345.345,0,0,1-.3-.17c-.221-.375-5.384-9.257-3.928-15.176h0a64.975,64.975,0,0,1,5.167-13.889c1.25-2.642,2.543-5.375,3.96-9.128a8.716,8.716,0,0,1,2.859-4.451,3.532,3.532,0,0,1,3.14-.532c1.9.637,2.707,2.748,2.407,6.274-.258,3.028-.3,5.879-.317,7.292a49.647,49.647,0,0,0,11.371-20.279.344.344,0,0,1,.124-.181,2.387,2.387,0,0,1,1.926-.4,3.461,3.461,0,0,1,2.244,1.58,7.474,7.474,0,0,1,.65,4.4,57.654,57.654,0,0,1-2.12,11.813c.453.339.957.707,1.494,1.1,4.148,3.021,9.829,7.157,9.91,11.149.084,4.147-2.521,13.5-2.632,13.9a.345.345,0,0,1-.271.247l-35.625,6.449A.307.307,0,0,1,1493.781,1154.457Zm-3.891-15.263.335.082c-1.27,5.164,2.963,13.073,3.735,14.453l35.171-6.367c.39-1.425,2.625-9.776,2.549-13.487-.074-3.649-5.822-7.835-9.626-10.605-.617-.449-1.191-.867-1.693-1.248a.345.345,0,0,1-.124-.372,57.06,57.06,0,0,0,2.16-11.9,6.91,6.91,0,0,0-.555-4,2.789,2.789,0,0,0-1.783-1.256,1.73,1.73,0,0,0-1.286.209,50.269,50.269,0,0,1-12.107,21.086.345.345,0,0,1-.593-.248c0-.085,0-.236,0-.443.009-1.2.033-4.371.323-7.773.27-3.167-.382-5.038-1.939-5.561a2.891,2.891,0,0,0-2.528.446c-1.417.979-2.049,2.651-2.606,4.126-1.427,3.78-2.726,6.525-3.982,9.18a64.4,64.4,0,0,0-5.121,13.759Z" transform="translate(-1489.297 -1103.764)" fill="#330a3b"/>
        </g>
        <g id="Grupo_1182905" data-name="Grupo 1182905" transform="translate(146.67 150.757)">
          <path id="Trazado_1015365" data-name="Trazado 1015365" d="M1529.42,1504.091l35.958-6.7,18.329,21.917-35.032,16.027Z" transform="translate(-1529.42 -1497.39)" fill="#9062c4"/>
        </g>
        <g id="Grupo_1182906" data-name="Grupo 1182906" transform="translate(23.767 99.269)">
          <path id="Trazado_1015366" data-name="Trazado 1015366" d="M432.8,1073.514c2.454-1.669,4.908-3.337,7.273-5.164a15.1,15.1,0,0,1,.92-8.572,5.473,5.473,0,0,1,1.524-2.243,2.45,2.45,0,0,1,2.564-.388,4.752,4.752,0,0,1,2.389-3.152,4.135,4.135,0,0,1,3.928-.023,16.85,16.85,0,0,1,1.762-3.473,5.662,5.662,0,0,1,3.074-2.276,3.265,3.265,0,0,1,3.357.914,18.889,18.889,0,0,1,3.4-7.632c.726-.968,1.8-1.956,2.982-1.679,1.563.367,1.8,2.467,1.688,4.069a57.268,57.268,0,0,0,.015,11.875,19.189,19.189,0,0,0,4.747,10.7c4.133,4.3,10.642,5.606,16.561,4.845a8.448,8.448,0,0,1,2.581-.1,2.41,2.41,0,0,1,1.942,1.517c.412,1.384-.927,2.616-2.112,3.443l-23.369,16.31Z" transform="translate(-432.454 -1039.434)" fill="#fff"/>
          <path id="Trazado_1015367" data-name="Trazado 1015367" d="M465.284,1090.078a.346.346,0,0,1-.164-.041l-35.229-18.966a.345.345,0,0,1-.031-.589l.013-.009c2.348-1.6,4.774-3.246,7.077-5.015a15.52,15.52,0,0,1,.979-8.56,5.828,5.828,0,0,1,1.628-2.38,2.909,2.909,0,0,1,2.542-.58,5.094,5.094,0,0,1,2.464-2.994,4.5,4.5,0,0,1,3.912-.191,15.669,15.669,0,0,1,1.66-3.2,6.02,6.02,0,0,1,3.268-2.409,3.925,3.925,0,0,1,3.24.552,19.289,19.289,0,0,1,3.331-7.143c1.081-1.442,2.236-2.066,3.337-1.808,1.41.331,2.122,1.945,1.953,4.428a57.171,57.171,0,0,0,.012,11.8c.427,3.027,1.58,7.307,4.654,10.508,3.657,3.807,9.739,5.581,16.267,4.741l.275-.036a7.686,7.686,0,0,1,2.412-.065,2.742,2.742,0,0,1,2.21,1.758c.37,1.24-.386,2.527-2.245,3.824l-23.369,16.31A.339.339,0,0,1,465.284,1090.078Zm-34.564-19.346,34.541,18.6,23.195-16.189c1.588-1.108,2.253-2.138,1.978-3.061a2.089,2.089,0,0,0-1.673-1.276,7.076,7.076,0,0,0-2.2.07l-.278.036c-6.744.866-13.045-.983-16.853-4.948-3.2-3.333-4.4-7.761-4.84-10.889a57.7,57.7,0,0,1-.017-11.948c.068-1,.065-3.36-1.422-3.709-1.082-.253-2.111.862-2.627,1.55a18.586,18.586,0,0,0-3.342,7.492.345.345,0,0,1-.621.131,2.941,2.941,0,0,0-2.989-.778,5.328,5.328,0,0,0-2.879,2.144,16.6,16.6,0,0,0-1.723,3.4.346.346,0,0,1-.205.194.351.351,0,0,1-.281-.024,3.772,3.772,0,0,0-3.6.026,4.388,4.388,0,0,0-2.213,2.919.346.346,0,0,1-.19.24.342.342,0,0,1-.306-.006,2.113,2.113,0,0,0-2.191.352,5.207,5.207,0,0,0-1.419,2.106,14.812,14.812,0,0,0-.9,8.374.346.346,0,0,1-.129.337C435.32,1067.591,432.99,1069.189,430.72,1070.732Z" transform="translate(-429.71 -1036.687)" fill="#330a3b"/>
        </g>
        <g id="Grupo_1182907" data-name="Grupo 1182907" transform="translate(0 133.531)">
          <path id="Trazado_1015368" data-name="Trazado 1015368" d="M217.053,1359.26l23.818-16,35.42,19.113-31.068,25.057Z" transform="translate(-217.053 -1343.26)" fill="#c59df2"/>
        </g>
        <g id="Grupo_1182908" data-name="Grupo 1182908" transform="translate(165.157 28.563)">
          <path id="Trazado_1015369" data-name="Trazado 1015369" d="M1722.347,444.94a1.851,1.851,0,0,1-.548,2.629,4.968,4.968,0,0,1-2.818.488q-2.983-.076-5.962-.147a59.51,59.51,0,0,0-4.438-15.934,63.507,63.507,0,0,1-5.778,2.721c-1.5.612-3.508,1.04-4.475-.253-1-1.326.06-3.177,1.091-4.475q2.424-3.052,4.848-6.109a59.983,59.983,0,0,0-5.276-7.1,7.876,7.876,0,0,1,1.367-2.145c2.348-2.62,2.615-3.771,25.741-7.5l10.216,37.6A37.7,37.7,0,0,1,1722.347,444.94Z" transform="translate(-1697.582 -406.773)" fill="#fff"/>
          <path id="Trazado_1015370" data-name="Trazado 1015370" d="M1716.795,445.671c-.2,0-.386,0-.568-.009l-.146,0q-2.91-.074-5.816-.143a.345.345,0,0,1-.334-.3,59.214,59.214,0,0,0-4.265-15.5c-1.767.93-3.608,1.791-5.478,2.56-2.277.931-4.011.8-4.883-.366-.889-1.18-.51-2.873,1.1-4.9l1.914-2.413q1.389-1.752,2.781-3.5a59.86,59.86,0,0,0-5.114-6.851.345.345,0,0,1-.056-.36,8.26,8.26,0,0,1,1.427-2.24l.249-.281c2.192-2.475,3.292-3.718,25.694-7.326a.349.349,0,0,1,.388.25l10.216,37.6a.345.345,0,0,1-.264.429,37.735,37.735,0,0,1-13.424.338,2.048,2.048,0,0,1,.046.9,2.328,2.328,0,0,1-1.023,1.569A4.481,4.481,0,0,1,1716.795,445.671Zm-6.218-.84q2.763.065,5.523.137l.145,0a4.7,4.7,0,0,0,2.624-.434,1.652,1.652,0,0,0,.712-1.1,1.265,1.265,0,0,0-.248-1.022.345.345,0,0,1,.328-.556,37.664,37.664,0,0,0,13.48-.151l-10.038-36.94c-21.862,3.53-22.907,4.711-24.98,7.052l-.252.283a7.626,7.626,0,0,0-1.221,1.855,60.537,60.537,0,0,1,5.164,6.975.345.345,0,0,1-.022.4q-1.471,1.846-2.933,3.7l-1.914,2.414c-.969,1.22-1.944,2.913-1.086,4.052.9,1.2,2.936.606,4.069.141,1.965-.808,3.9-1.719,5.746-2.706a.345.345,0,0,1,.479.167A59.953,59.953,0,0,1,1710.576,444.831Z" transform="translate(-1694.835 -404.034)" fill="#330a3b"/>
        </g>
        <g id="Grupo_1182909" data-name="Grupo 1182909" transform="translate(171.299 37.967)">
          <path id="Trazado_1015371" data-name="Trazado 1015371" d="M1750.139,496.547a.345.345,0,0,1-.295-.524l4.646-7.679a.345.345,0,0,1,.591.357l-4.646,7.679A.343.343,0,0,1,1750.139,496.547Z" transform="translate(-1749.794 -488.178)" fill="#330a3b"/>
        </g>
        <g id="Grupo_1182910" data-name="Grupo 1182910" transform="translate(175.442 47.581)">
          <path id="Trazado_1015372" data-name="Trazado 1015372" d="M1787.205,581a.345.345,0,0,1-.124-.667,44.858,44.858,0,0,0,10.9-6.07.345.345,0,0,1,.416.551,45.55,45.55,0,0,1-11.069,6.164A.352.352,0,0,1,1787.205,581Z" transform="translate(-1786.86 -574.195)" fill="#330a3b"/>
        </g>
        <g id="Grupo_1182911" data-name="Grupo 1182911" transform="translate(177.518 50.228)">
          <path id="Trazado_1015373" data-name="Trazado 1015373" d="M1818.311,615.085a.343.343,0,0,1-.216-.076,16.622,16.622,0,0,0-10.428-3.547h0a.345.345,0,0,1-.052-.687l7.23-1.1c1.46-.222,2.255-.693,2.362-1.4a1.448,1.448,0,0,0-.534-1.221,4.292,4.292,0,0,0-1.413-.732,22.366,22.366,0,0,0-9.446-1.194.345.345,0,0,1-.1-.682l6.887-1.439c.929-.194,1.952-.466,2.332-1.241a1.975,1.975,0,0,0-.813-2.3,6.525,6.525,0,0,0-2.807-.9.345.345,0,0,1-.286-.4.34.34,0,0,1,.4-.286,7.038,7.038,0,0,1,3.1,1.021,2.643,2.643,0,0,1,1.029,3.166c-.561,1.142-2.024,1.448-2.811,1.613l-3.425.715a23.027,23.027,0,0,1,6.176,1.273,4.876,4.876,0,0,1,1.639.866,2.118,2.118,0,0,1,.759,1.841c-.157,1.043-1.147,1.71-2.941,1.982l-4.271.647a17.142,17.142,0,0,1,7.852,3.461.346.346,0,0,1-.217.615Z" transform="translate(-1805.435 -597.88)" fill="#330a3b"/>
        </g>
        <g id="Grupo_1182912" data-name="Grupo 1182912" transform="translate(158.902 127.672)">
          <path id="Trazado_1015374" data-name="Trazado 1015374" d="M1639.215,1301.8h0a.345.345,0,0,1-.343-.348l.085-10.276a.345.345,0,0,1,.345-.343h0a.345.345,0,0,1,.343.348l-.085,10.276A.345.345,0,0,1,1639.215,1301.8Z" transform="translate(-1638.87 -1290.835)" fill="#330a3b"/>
        </g>
        <g id="Grupo_1182913" data-name="Grupo 1182913" transform="translate(171.594 123.963)">
          <path id="Trazado_1015375" data-name="Trazado 1015375" d="M1752.774,1262.482a.345.345,0,0,1-.322-.471l1.623-4.146a.345.345,0,0,1,.643.252l-1.624,4.146A.345.345,0,0,1,1752.774,1262.482Z" transform="translate(-1752.429 -1257.646)" fill="#330a3b"/>
        </g>
        <g id="Grupo_1182914" data-name="Grupo 1182914" transform="translate(50.003 108.136)">
          <path id="Trazado_1015376" data-name="Trazado 1015376" d="M665.594,1131.38a.346.346,0,0,1-.338-.274,37.358,37.358,0,0,1-.1-14.8.345.345,0,1,1,.677.134,36.662,36.662,0,0,0,.1,14.522.345.345,0,0,1-.267.409A.336.336,0,0,1,665.594,1131.38Z" transform="translate(-664.465 -1116.029)" fill="#330a3b"/>
        </g>
        <g id="Grupo_1182915" data-name="Grupo 1182915" transform="translate(42.16 112.806)">
          <path id="Trazado_1015377" data-name="Trazado 1015377" d="M595.292,1167.744a.345.345,0,0,1-.334-.257,20.3,20.3,0,0,1-.215-9.4.345.345,0,1,1,.675.145,19.608,19.608,0,0,0,.208,9.08.345.345,0,0,1-.246.422A.372.372,0,0,1,595.292,1167.744Z" transform="translate(-594.293 -1157.812)" fill="#330a3b"/>
        </g>
        <g id="Grupo_1182916" data-name="Grupo 1182916" transform="translate(35.592 116.412)">
          <path id="Trazado_1015378" data-name="Trazado 1015378" d="M536.542,1198.478a.345.345,0,0,1-.327-.234,13.466,13.466,0,0,1-.2-7.907.345.345,0,0,1,.665.188,12.767,12.767,0,0,0,.189,7.5.345.345,0,0,1-.216.438A.336.336,0,0,1,536.542,1198.478Z" transform="translate(-535.518 -1190.084)" fill="#330a3b"/>
        </g>
        <g id="Grupo_1182917" data-name="Grupo 1182917" transform="translate(11.524 141.505)">
          <path id="Trazado_1015379" data-name="Trazado 1015379" d="M355.657,1434.265a.34.34,0,0,1-.164-.042l-35.144-18.971a.345.345,0,1,1,.328-.608l35.144,18.971a.345.345,0,0,1-.164.649Z" transform="translate(-320.168 -1414.603)" fill="#330a3b"/>
        </g>
        <g id="Grupo_1182918" data-name="Grupo 1182918" transform="translate(38.733 146.701)">
          <path id="Trazado_1015380" data-name="Trazado 1015380" d="M563.967,1470.781a.345.345,0,0,1-.239-.594l9.368-8.994a.345.345,0,0,1,.478.5l-9.368,8.994A.346.346,0,0,1,563.967,1470.781Z" transform="translate(-563.622 -1461.097)" fill="#330a3b"/>
        </g>
        <g id="Grupo_1182919" data-name="Grupo 1182919" transform="translate(155.978 161.142)">
          <path id="Trazado_1015381" data-name="Trazado 1015381" d="M1613.048,1601.61a.345.345,0,0,1-.073-.682,187.343,187.343,0,0,0,33.332-10.585.345.345,0,0,1,.269.635,187.988,187.988,0,0,1-33.455,10.624A.425.425,0,0,1,1613.048,1601.61Z" transform="translate(-1612.703 -1590.315)" fill="#330a3b"/>
        </g>
        <g id="Grupo_1182920" data-name="Grupo 1182920" transform="translate(158.734 155.551)">
          <path id="Trazado_1015382" data-name="Trazado 1015382" d="M1644.8,1555.806a.346.346,0,0,1-.312-.2l-7.083-14.831a.345.345,0,1,1,.623-.3l7.083,14.831a.346.346,0,0,1-.163.46A.331.331,0,0,1,1644.8,1555.806Z" transform="translate(-1637.366 -1540.284)" fill="#330a3b"/>
        </g>
        <g id="Grupo_1182921" data-name="Grupo 1182921" transform="translate(207.473 22.88)">
          <path id="Trazado_1015383" data-name="Trazado 1015383" d="M2082.142,390.458a.345.345,0,0,1-.336-.269l-8.328-36.586a.345.345,0,1,1,.673-.154l8.328,36.586a.345.345,0,0,1-.26.413A.34.34,0,0,1,2082.142,390.458Z" transform="translate(-2073.469 -353.182)" fill="#330a3b"/>
        </g>
        <g id="Grupo_1182922" data-name="Grupo 1182922" transform="translate(200.955 46.21)">
          <path id="Trazado_1015384" data-name="Trazado 1015384" d="M2015.492,570.055a.345.345,0,0,1-.181-.639l12.087-7.432a.345.345,0,1,1,.362.588L2015.673,570A.344.344,0,0,1,2015.492,570.055Z" transform="translate(-2015.147 -561.933)" fill="#330a3b"/>
        </g>
        <g id="Grupo_1182923" data-name="Grupo 1182923" transform="translate(53.382 17.811)">
          <path id="Trazado_1015385" data-name="Trazado 1015385" d="M700.385,393.316a.46.46,0,0,1-.419-.27,60.549,60.549,0,0,1,53.1-85.216.46.46,0,1,1,.027.92A59.629,59.629,0,0,0,700.8,392.665a.46.46,0,0,1-.229.609A.453.453,0,0,1,700.385,393.316Z" transform="translate(-694.705 -307.829)" fill="#330a3b"/>
        </g>
        <g id="Grupo_1182924" data-name="Grupo 1182924" transform="translate(119.399 17.504)">
          <path id="Trazado_1015386" data-name="Trazado 1015386" d="M1343.595,385.257a.462.462,0,0,1-.165-.031l-57.1-22.006a.46.46,0,0,1-.3-.424l-.622-57.256a.46.46,0,0,1,.455-.466h.005a.461.461,0,0,1,.46.455l.619,56.944,56.813,21.894a.46.46,0,0,1-.166.89Z" transform="translate(-1285.408 -305.074)" fill="#330a3b"/>
        </g>
        <g id="Grupo_1182925" data-name="Grupo 1182925" transform="translate(112.588 85.081)">
          <path id="Trazado_1015387" data-name="Trazado 1015387" d="M1225.075,973.759a.461.461,0,0,1-.46-.459l-.154-63.1a.461.461,0,0,1,.459-.462h0a.461.461,0,0,1,.46.459l.154,63.1a.46.46,0,0,1-.459.462Z" transform="translate(-1224.46 -909.74)" fill="#330a3b"/>
        </g>
        <g id="Grupo_1182926" data-name="Grupo 1182926" transform="translate(58.461 77.193)">
          <path id="Trazado_1015388" data-name="Trazado 1015388" d="M740.6,866.548a.46.46,0,0,1-.217-.867l49.672-26.466a.461.461,0,1,1,.433.813L740.82,866.495A.456.456,0,0,1,740.6,866.548Z" transform="translate(-740.143 -839.162)" fill="#330a3b"/>
        </g>
        <g id="Grupo_1182927" data-name="Grupo 1182927" transform="translate(58.148 106.513)">
          <path id="Trazado_1015389" data-name="Trazado 1015389" d="M762.57,1126.388a.459.459,0,0,1-.206-.049,58.444,58.444,0,0,1-24.959-24.156.46.46,0,0,1,.809-.439,57.516,57.516,0,0,0,24.562,23.772.46.46,0,0,1-.207.872Z" transform="translate(-737.35 -1101.504)" fill="#330a3b"/>
        </g>
        <g id="Grupo_1182928" data-name="Grupo 1182928" transform="translate(202.179 88.947)">
          <path id="Trazado_1015390" data-name="Trazado 1015390" d="M2037.413,966.973a.23.23,0,0,1-.23-.23,10.871,10.871,0,0,0-10.857-10.86.23.23,0,0,1,0-.46,10.869,10.869,0,0,0,10.857-10.857.23.23,0,0,1,.461,0,10.87,10.87,0,0,0,10.86,10.857.23.23,0,0,1,0,.46,10.872,10.872,0,0,0-10.86,10.86A.231.231,0,0,1,2037.413,966.973Zm-8.81-11.32a11.353,11.353,0,0,1,8.81,8.813,11.354,11.354,0,0,1,8.812-8.813,11.352,11.352,0,0,1-8.812-8.81A11.351,11.351,0,0,1,2028.6,955.653Z" transform="translate(-2026.096 -944.336)" fill="#fc3"/>
        </g>
        <g id="Grupo_1182929" data-name="Grupo 1182929" transform="translate(80.404 155.701)">
          <path id="Trazado_1015391" data-name="Trazado 1015391" d="M958.663,1552.715a11.093,11.093,0,0,0-11.09,11.09,11.09,11.09,0,0,0-11.087-11.09,11.087,11.087,0,0,0,11.087-11.087A11.09,11.09,0,0,0,958.663,1552.715Z" transform="translate(-936.486 -1541.628)" fill="#fc3"/>
        </g>
        <g id="Grupo_1182930" data-name="Grupo 1182930" transform="translate(19.817 73.083)">
          <path id="Trazado_1015392" data-name="Trazado 1015392" d="M402.232,818.1a.23.23,0,0,1-.23-.23,7.408,7.408,0,0,0-7.4-7.4.23.23,0,1,1,0-.46,7.407,7.407,0,0,0,7.4-7.4.23.23,0,0,1,.46,0,7.408,7.408,0,0,0,7.4,7.4.23.23,0,0,1,0,.46,7.409,7.409,0,0,0-7.4,7.4A.23.23,0,0,1,402.232,818.1Zm-5.737-7.861a7.888,7.888,0,0,1,5.737,5.739,7.889,7.889,0,0,1,5.739-5.739,7.888,7.888,0,0,1-5.739-5.737A7.887,7.887,0,0,1,396.495,810.241Z" transform="translate(-394.373 -802.382)" fill="#fc3"/>
        </g>
        <g id="Grupo_1182931" data-name="Grupo 1182931" transform="translate(163.229 0)">
          <path id="Trazado_1015393" data-name="Trazado 1015393" d="M1702.6,160.962a12.512,12.512,0,0,0-12.509,12.509,12.509,12.509,0,0,0-12.505-12.509,12.506,12.506,0,0,0,12.505-12.505A12.509,12.509,0,0,0,1702.6,160.962Z" transform="translate(-1677.586 -148.457)" fill="#fc3"/>
        </g>
        <g id="Grupo_1182932" data-name="Grupo 1182932" transform="translate(45.41 12.446)">
          <path id="Trazado_1015394" data-name="Trazado 1015394" d="M641.557,268.915a9.1,9.1,0,0,0-9.1,9.1,9.1,9.1,0,0,0-9.094-9.1,9.094,9.094,0,0,0,9.094-9.094A9.1,9.1,0,0,0,641.557,268.915Z" transform="translate(-623.367 -259.821)" fill="#fc3"/>
        </g>
      </g>
    </g>
  </g>
</svg>
