<svg xmlns="http://www.w3.org/2000/svg" xmlns:xlink="http://www.w3.org/1999/xlink" width="400" height="1009.394" viewBox="0 0 400 1009.394">
  <defs>
    <clipPath id="clip-path">
      <rect id="Rectángulo_457050" data-name="Rectángulo 457050" width="809.865" height="244.578" fill="none"/>
    </clipPath>
  </defs>
  <g id="Grupo_1183844" data-name="Grupo 1183844" transform="translate(5585 -4587.642)">
    <g id="Grupo_1183779" data-name="Grupo 1183779">
      <path id="Image_Place_Holder" data-name="Image Place Holder" d="M10,0H390a10,10,0,0,1,10,10V999.394a10,10,0,0,1-10,10H10a10,10,0,0,1-10-10V10A10,10,0,0,1,10,0Z" transform="translate(-5185 5597.035) rotate(180)" fill="#f4f6ea"/>
      <path id="Trazado_1017160" data-name="Trazado 1017160" d="M10,0H219a10,10,0,0,1,10,10V47a10,10,0,0,1-10,10H10A10,10,0,0,1,0,47V10A10,10,0,0,1,10,0Z" transform="translate(-5499 4626)" fill="#dbe2ba"/>
      <path id="Trazado_1017161" data-name="Trazado 1017161" d="M-91.816-5.789h-4.242V-8.965h4.242a2.937,2.937,0,0,0,1.406-.293,1.81,1.81,0,0,0,.791-.814,2.673,2.673,0,0,0,.252-1.178,3.314,3.314,0,0,0-.252-1.3,2.172,2.172,0,0,0-.791-.967,2.442,2.442,0,0,0-1.406-.369h-2.7V0h-4.113V-17.062h6.809a7.743,7.743,0,0,1,3.533.75A5.507,5.507,0,0,1-86-14.256a5.613,5.613,0,0,1,.8,2.982A5.185,5.185,0,0,1-86-8.391a5.268,5.268,0,0,1-2.279,1.916A8.359,8.359,0,0,1-91.816-5.789ZM-79.2-9.539V0h-3.949V-12.68h3.691Zm3.75-3.234-.07,3.668q-.234-.023-.633-.059t-.668-.035a3.952,3.952,0,0,0-1.189.158,2.058,2.058,0,0,0-.82.469,1.809,1.809,0,0,0-.469.779A3.441,3.441,0,0,0-79.43-6.7l-.715-.469A9.967,9.967,0,0,1-79.893-9.5a6.28,6.28,0,0,1,.721-1.816A3.522,3.522,0,0,1-78.035-12.5a2.779,2.779,0,0,1,1.5-.416,4.768,4.768,0,0,1,.58.035A2.851,2.851,0,0,1-75.445-12.773ZM-75-6.211v-.246a7.982,7.982,0,0,1,.4-2.572,5.847,5.847,0,0,1,1.172-2.045,5.326,5.326,0,0,1,1.91-1.354,6.625,6.625,0,0,1,2.625-.486,6.7,6.7,0,0,1,2.643.486,5.314,5.314,0,0,1,1.916,1.354,5.847,5.847,0,0,1,1.172,2.045,7.982,7.982,0,0,1,.4,2.572v.246a7.943,7.943,0,0,1-.4,2.561A5.909,5.909,0,0,1-64.336-1.6a5.232,5.232,0,0,1-1.91,1.354,6.7,6.7,0,0,1-2.625.48,6.783,6.783,0,0,1-2.637-.48A5.212,5.212,0,0,1-73.43-1.6,5.909,5.909,0,0,1-74.6-3.65,7.943,7.943,0,0,1-75-6.211Zm3.949-.246v.246a7.986,7.986,0,0,0,.105,1.336,3.572,3.572,0,0,0,.352,1.084,1.832,1.832,0,0,0,.668.721,1.991,1.991,0,0,0,1.055.258,1.935,1.935,0,0,0,1.037-.258,1.847,1.847,0,0,0,.662-.721,3.572,3.572,0,0,0,.352-1.084,7.986,7.986,0,0,0,.105-1.336v-.246a7.732,7.732,0,0,0-.105-1.307,3.721,3.721,0,0,0-.352-1.09A1.9,1.9,0,0,0-67.84-9.6a1.923,1.923,0,0,0-1.055-.27,1.87,1.87,0,0,0-1.037.27,1.916,1.916,0,0,0-.662.744,3.721,3.721,0,0,0-.352,1.09A7.732,7.732,0,0,0-71.051-6.457Zm15.387,3.645a2.014,2.014,0,0,0,.943-.205,1.4,1.4,0,0,0,.6-.586,1.83,1.83,0,0,0,.193-.92h3.715a4.364,4.364,0,0,1-.7,2.5A4.748,4.748,0,0,1-52.834-.357,6.159,6.159,0,0,1-55.57.234a6.454,6.454,0,0,1-2.6-.486,5.062,5.062,0,0,1-1.857-1.359,5.8,5.8,0,0,1-1.113-2.045A8.424,8.424,0,0,1-61.512-6.2v-.27a8.481,8.481,0,0,1,.369-2.549,5.79,5.79,0,0,1,1.113-2.051,5.073,5.073,0,0,1,1.852-1.359,6.38,6.38,0,0,1,2.584-.486,6.246,6.246,0,0,1,2.795.6,4.518,4.518,0,0,1,1.9,1.734,5.129,5.129,0,0,1,.68,2.754H-53.93a2.556,2.556,0,0,0-.176-1.031,1.63,1.63,0,0,0-.58-.732,1.705,1.705,0,0,0-1-.275,1.65,1.65,0,0,0-.984.27,1.663,1.663,0,0,0-.568.744A3.976,3.976,0,0,0-57.5-7.77a12.39,12.39,0,0,0-.064,1.3v.27A12.681,12.681,0,0,0-57.5-4.881,3.7,3.7,0,0,0-57.234-3.8a1.672,1.672,0,0,0,.574.727A1.7,1.7,0,0,0-55.664-2.812ZM-42.4.234a7.412,7.412,0,0,1-2.766-.486,5.89,5.89,0,0,1-2.057-1.342A5.862,5.862,0,0,1-48.5-3.562a6.357,6.357,0,0,1-.439-2.355v-.445a8.314,8.314,0,0,1,.387-2.584,6.029,6.029,0,0,1,1.148-2.08,5.184,5.184,0,0,1,1.91-1.389,6.668,6.668,0,0,1,2.672-.5,6.362,6.362,0,0,1,2.414.434A4.965,4.965,0,0,1-38.6-11.238a5.451,5.451,0,0,1,1.137,1.957A7.94,7.94,0,0,1-37.066-6.7V-5.1H-47.426V-7.57h6.5v-.3a2.245,2.245,0,0,0-.217-1.078,1.568,1.568,0,0,0-.662-.68,2.192,2.192,0,0,0-1.055-.234,1.855,1.855,0,0,0-1.061.281,1.857,1.857,0,0,0-.645.768A4,4,0,0,0-44.883-7.7a9.117,9.117,0,0,0-.094,1.336v.445a3.985,3.985,0,0,0,.193,1.277,2.714,2.714,0,0,0,.563.979,2.54,2.54,0,0,0,.891.627,3,3,0,0,0,1.189.223,4.373,4.373,0,0,0,1.594-.3A3.185,3.185,0,0,0-39.2-4.125l1.793,2.133A4.687,4.687,0,0,1-38.5-.926,6.067,6.067,0,0,1-40.2-.088,7.058,7.058,0,0,1-42.4.234Zm13.582-3.8a.82.82,0,0,0-.217-.568,1.967,1.967,0,0,0-.756-.445A11.049,11.049,0,0,0-31.3-4.992a10.637,10.637,0,0,1-1.74-.527,5.994,5.994,0,0,1-1.424-.8A3.459,3.459,0,0,1-35.42-7.43a3.075,3.075,0,0,1-.346-1.477,3.492,3.492,0,0,1,.346-1.529,3.765,3.765,0,0,1,1.02-1.277,5.047,5.047,0,0,1,1.646-.879,7.03,7.03,0,0,1,2.215-.322,7.6,7.6,0,0,1,2.953.521,4.39,4.39,0,0,1,1.916,1.453A3.574,3.574,0,0,1-25-8.789h-3.949a1.933,1.933,0,0,0-.158-.82,1.1,1.1,0,0,0-.51-.521,2.052,2.052,0,0,0-.937-.182,1.773,1.773,0,0,0-.744.152,1.338,1.338,0,0,0-.533.422,1.035,1.035,0,0,0-.2.633.882.882,0,0,0,.123.463,1.2,1.2,0,0,0,.381.375,2.867,2.867,0,0,0,.656.3,7.158,7.158,0,0,0,.961.24,13.076,13.076,0,0,1,2.391.668,4.547,4.547,0,0,1,1.811,1.23,3.142,3.142,0,0,1,.7,2.145,3.19,3.19,0,0,1-.387,1.553A3.8,3.8,0,0,1-26.508-.885a5.481,5.481,0,0,1-1.746.826,8.316,8.316,0,0,1-2.3.293,6.608,6.608,0,0,1-3.07-.65,4.826,4.826,0,0,1-1.893-1.641,3.672,3.672,0,0,1-.639-2.01h3.68a1.76,1.76,0,0,0,.287.961,1.533,1.533,0,0,0,.709.551,2.8,2.8,0,0,0,1.031.176,2.3,2.3,0,0,0,.9-.152A1.248,1.248,0,0,0-29-2.947,1.034,1.034,0,0,0-28.816-3.562Zm5.168-2.648v-.246a7.982,7.982,0,0,1,.4-2.572,5.847,5.847,0,0,1,1.172-2.045,5.326,5.326,0,0,1,1.91-1.354,6.625,6.625,0,0,1,2.625-.486,6.7,6.7,0,0,1,2.643.486,5.314,5.314,0,0,1,1.916,1.354,5.848,5.848,0,0,1,1.172,2.045,7.982,7.982,0,0,1,.4,2.572v.246a7.943,7.943,0,0,1-.4,2.561A5.909,5.909,0,0,1-12.984-1.6a5.232,5.232,0,0,1-1.91,1.354,6.7,6.7,0,0,1-2.625.48,6.783,6.783,0,0,1-2.637-.48A5.212,5.212,0,0,1-22.078-1.6,5.909,5.909,0,0,1-23.25-3.65,7.943,7.943,0,0,1-23.648-6.211Zm3.949-.246v.246a7.986,7.986,0,0,0,.105,1.336,3.572,3.572,0,0,0,.352,1.084,1.832,1.832,0,0,0,.668.721,1.991,1.991,0,0,0,1.055.258,1.935,1.935,0,0,0,1.037-.258,1.847,1.847,0,0,0,.662-.721,3.572,3.572,0,0,0,.352-1.084,7.986,7.986,0,0,0,.105-1.336v-.246a7.732,7.732,0,0,0-.105-1.307,3.721,3.721,0,0,0-.352-1.09,1.9,1.9,0,0,0-.668-.744,1.923,1.923,0,0,0-1.055-.27,1.87,1.87,0,0,0-1.037.27,1.916,1.916,0,0,0-.662.744,3.721,3.721,0,0,0-.352,1.09A7.732,7.732,0,0,0-19.7-6.457ZM3.6-2.906V-18H7.57V0H4.008ZM-4.184-6.187v-.246a10.226,10.226,0,0,1,.316-2.631,6.191,6.191,0,0,1,.938-2.051,4.255,4.255,0,0,1,1.547-1.33A4.659,4.659,0,0,1,.75-12.914a3.524,3.524,0,0,1,1.887.5A4.386,4.386,0,0,1,4.02-11.027a8.286,8.286,0,0,1,.938,2.08,16.344,16.344,0,0,1,.551,2.561v.293a15.27,15.27,0,0,1-.551,2.432A8.241,8.241,0,0,1,4.02-1.641,4.4,4.4,0,0,1,2.631-.264a3.577,3.577,0,0,1-1.9.5A4.529,4.529,0,0,1-1.4-.246,4.305,4.305,0,0,1-2.936-1.594a6.35,6.35,0,0,1-.932-2.039A9.779,9.779,0,0,1-4.184-6.187Zm3.949-.246v.246A8.728,8.728,0,0,0-.141-4.863,3.675,3.675,0,0,0,.182-3.791a1.82,1.82,0,0,0,.609.721,1.645,1.645,0,0,0,.943.258,2.082,2.082,0,0,0,1.26-.363,2.124,2.124,0,0,0,.738-1.031,4.155,4.155,0,0,0,.205-1.57V-6.7a5.651,5.651,0,0,0-.105-1.365,2.758,2.758,0,0,0-.4-.99,1.8,1.8,0,0,0-.691-.6,2.189,2.189,0,0,0-.979-.205,1.623,1.623,0,0,0-.932.258,1.865,1.865,0,0,0-.615.721A3.8,3.8,0,0,0-.129-7.8,8.246,8.246,0,0,0-.234-6.434ZM15.949.234a7.412,7.412,0,0,1-2.766-.486,5.89,5.89,0,0,1-2.057-1.342A5.862,5.862,0,0,1,9.85-3.562,6.357,6.357,0,0,1,9.41-5.918v-.445A8.314,8.314,0,0,1,9.8-8.947a6.029,6.029,0,0,1,1.148-2.08,5.184,5.184,0,0,1,1.91-1.389,6.668,6.668,0,0,1,2.672-.5,6.362,6.362,0,0,1,2.414.434,4.965,4.965,0,0,1,1.811,1.242,5.451,5.451,0,0,1,1.137,1.957A7.94,7.94,0,0,1,21.281-6.7V-5.1H10.922V-7.57h6.5v-.3a2.245,2.245,0,0,0-.217-1.078,1.568,1.568,0,0,0-.662-.68,2.192,2.192,0,0,0-1.055-.234,1.855,1.855,0,0,0-1.061.281,1.857,1.857,0,0,0-.645.768A4,4,0,0,0,13.465-7.7a9.116,9.116,0,0,0-.094,1.336v.445a3.985,3.985,0,0,0,.193,1.277,2.714,2.714,0,0,0,.563.979,2.54,2.54,0,0,0,.891.627,3,3,0,0,0,1.189.223,4.373,4.373,0,0,0,1.594-.3,3.185,3.185,0,0,0,1.348-1.008l1.793,2.133a4.687,4.687,0,0,1-1.1,1.066,6.067,6.067,0,0,1-1.693.838A7.058,7.058,0,0,1,15.949.234ZM33.434-2.707l2.5-9.973h4.16L35.941,0H33.48ZM31.957-12.68l2.461,9.973L34.395,0H31.922L27.785-12.68ZM47.25.234a7.412,7.412,0,0,1-2.766-.486,5.89,5.89,0,0,1-2.057-1.342A5.862,5.862,0,0,1,41.15-3.562a6.357,6.357,0,0,1-.439-2.355v-.445A8.314,8.314,0,0,1,41.1-8.947a6.029,6.029,0,0,1,1.148-2.08,5.184,5.184,0,0,1,1.91-1.389,6.668,6.668,0,0,1,2.672-.5,6.362,6.362,0,0,1,2.414.434,4.965,4.965,0,0,1,1.811,1.242,5.451,5.451,0,0,1,1.137,1.957A7.94,7.94,0,0,1,52.582-6.7V-5.1H42.223V-7.57h6.5v-.3a2.245,2.245,0,0,0-.217-1.078,1.568,1.568,0,0,0-.662-.68,2.192,2.192,0,0,0-1.055-.234,1.855,1.855,0,0,0-1.061.281,1.857,1.857,0,0,0-.645.768A4,4,0,0,0,44.766-7.7a9.117,9.117,0,0,0-.094,1.336v.445a3.985,3.985,0,0,0,.193,1.277,2.714,2.714,0,0,0,.563.979,2.54,2.54,0,0,0,.891.627,3,3,0,0,0,1.189.223,4.373,4.373,0,0,0,1.594-.3,3.185,3.185,0,0,0,1.348-1.008l1.793,2.133a4.687,4.687,0,0,1-1.1,1.066,6.067,6.067,0,0,1-1.693.838A7.058,7.058,0,0,1,47.25.234ZM58.066-9.973V0H54.117V-12.68h3.7Zm-.469,3.2-.926.023a8.822,8.822,0,0,1,.352-2.6,5.722,5.722,0,0,1,1-1.939A4.282,4.282,0,0,1,59.561-12.5a4.69,4.69,0,0,1,2-.416,4.824,4.824,0,0,1,1.611.258,3.115,3.115,0,0,1,1.266.832,3.831,3.831,0,0,1,.82,1.518,8.091,8.091,0,0,1,.287,2.326V0H61.57V-7.992a2.578,2.578,0,0,0-.211-1.166,1.129,1.129,0,0,0-.609-.557,2.734,2.734,0,0,0-.973-.152,2.1,2.1,0,0,0-1.031.234,1.794,1.794,0,0,0-.674.65A3,3,0,0,0,57.709-8,6.346,6.346,0,0,0,57.6-6.773ZM74.414-12.68v2.742H66.773V-12.68Zm-6.035-3.152h3.949v11.7a2.055,2.055,0,0,0,.117.779.693.693,0,0,0,.4.387,2.171,2.171,0,0,0,.768.111q.34,0,.563-.018T74.6-2.93V-.105a6.928,6.928,0,0,1-1.055.252,7.439,7.439,0,0,1-1.172.088,5.3,5.3,0,0,1-2.162-.4,2.823,2.823,0,0,1-1.365-1.254,4.617,4.617,0,0,1-.469-2.227ZM82.57-3.187V-8.414a2.525,2.525,0,0,0-.152-.926,1.253,1.253,0,0,0-.48-.6,1.574,1.574,0,0,0-.879-.217,1.743,1.743,0,0,0-.762.152,1.048,1.048,0,0,0-.48.457,1.621,1.621,0,0,0-.164.773H75.7a3.494,3.494,0,0,1,.393-1.635,3.957,3.957,0,0,1,1.125-1.318,5.447,5.447,0,0,1,1.758-.873,7.889,7.889,0,0,1,2.291-.311,6.867,6.867,0,0,1,2.7.5A4.233,4.233,0,0,1,85.852-10.9a4.324,4.324,0,0,1,.691,2.514V-3.2a9.391,9.391,0,0,0,.141,1.881,4.328,4.328,0,0,0,.4,1.119V0H83.121a5.218,5.218,0,0,1-.416-1.436A11.169,11.169,0,0,1,82.57-3.187Zm.48-4.559.023,2.109H81.328a2.515,2.515,0,0,0-.932.152,1.55,1.55,0,0,0-.609.416,1.608,1.608,0,0,0-.328.592,2.367,2.367,0,0,0-.1.691,1.169,1.169,0,0,0,.17.627,1.164,1.164,0,0,0,.463.428,1.4,1.4,0,0,0,.656.152,2.311,2.311,0,0,0,1.119-.252,1.972,1.972,0,0,0,.709-.615,1.231,1.231,0,0,0,.246-.68l.867,1.617q-.234.469-.533.949a4.254,4.254,0,0,1-.738.885,3.448,3.448,0,0,1-1.072.656,4.155,4.155,0,0,1-1.535.252,4.812,4.812,0,0,1-2.15-.48A3.967,3.967,0,0,1,76-1.588a3.447,3.447,0,0,1-.586-1.986,4.144,4.144,0,0,1,.357-1.758,3.393,3.393,0,0,1,1.084-1.312,5.193,5.193,0,0,1,1.852-.82,11.011,11.011,0,0,1,2.648-.281ZM95.379-3.562a.82.82,0,0,0-.217-.568,1.967,1.967,0,0,0-.756-.445,11.049,11.049,0,0,0-1.512-.416,10.637,10.637,0,0,1-1.74-.527,5.994,5.994,0,0,1-1.424-.8,3.459,3.459,0,0,1-.955-1.113,3.075,3.075,0,0,1-.346-1.477,3.492,3.492,0,0,1,.346-1.529,3.765,3.765,0,0,1,1.02-1.277,5.047,5.047,0,0,1,1.646-.879,7.03,7.03,0,0,1,2.215-.322,7.6,7.6,0,0,1,2.953.521,4.39,4.39,0,0,1,1.916,1.453,3.574,3.574,0,0,1,.674,2.15H95.25a1.933,1.933,0,0,0-.158-.82,1.1,1.1,0,0,0-.51-.521,2.052,2.052,0,0,0-.937-.182,1.773,1.773,0,0,0-.744.152,1.338,1.338,0,0,0-.533.422,1.035,1.035,0,0,0-.2.633.882.882,0,0,0,.123.463,1.2,1.2,0,0,0,.381.375,2.867,2.867,0,0,0,.656.3,7.158,7.158,0,0,0,.961.24,13.076,13.076,0,0,1,2.391.668,4.547,4.547,0,0,1,1.811,1.23,3.142,3.142,0,0,1,.7,2.145A3.19,3.19,0,0,1,98.8-2.127,3.8,3.8,0,0,1,97.688-.885a5.481,5.481,0,0,1-1.746.826,8.316,8.316,0,0,1-2.3.293,6.608,6.608,0,0,1-3.07-.65,4.826,4.826,0,0,1-1.893-1.641,3.672,3.672,0,0,1-.639-2.01h3.68a1.76,1.76,0,0,0,.287.961,1.533,1.533,0,0,0,.709.551,2.8,2.8,0,0,0,1.031.176,2.3,2.3,0,0,0,.9-.152,1.248,1.248,0,0,0,.545-.416A1.034,1.034,0,0,0,95.379-3.562Z" transform="translate(-5385 4663)" fill="#12263f"/>
      <g id="Grupo_1183761" data-name="Grupo 1183761" transform="translate(-5262.422 4732.157) rotate(90)">
        <g id="Grupo_1183759" data-name="Grupo 1183759" clip-path="url(#clip-path)">
          <path id="Trazado_1016745" data-name="Trazado 1016745" d="M206.184,215.167H19.889a8.984,8.984,0,0,1-8.983-8.983V19.888A8.984,8.984,0,0,1,19.889,10.9H206.184a8.984,8.984,0,0,1,8.983,8.983V206.183a8.984,8.984,0,0,1-8.983,8.983" transform="translate(9.253 9.252)" fill="#fc5732"/>
          <path id="Trazado_1016746" data-name="Trazado 1016746" d="M207.1,218.089H20.808A11,11,0,0,1,9.823,207.1V20.807A11,11,0,0,1,20.808,9.822H207.1a11,11,0,0,1,10.985,10.985V207.1A11,11,0,0,1,207.1,218.089M20.808,13.826a6.989,6.989,0,0,0-6.982,6.982V207.1a6.989,6.989,0,0,0,6.982,6.982H207.1a6.99,6.99,0,0,0,6.982-6.982V20.807a6.99,6.99,0,0,0-6.982-6.982Z" transform="translate(8.334 8.333)" fill="#fff"/>
          <path id="Trazado_1016747" data-name="Trazado 1016747" d="M132.152,69.833a2,2,0,0,1-2-2v-4a2,2,0,1,1,4,0v4a2,2,0,0,1-2,2" transform="translate(110.424 52.456)" fill="#fc5732"/>
          <path id="Trazado_1016748" data-name="Trazado 1016748" d="M221.835,182.975h-7.961a2,2,0,1,1,0-4h7.961a2,2,0,1,1,0,4m-23.887,0h-7.963a2,2,0,1,1,0-4h7.963a2,2,0,1,1,0,4m-23.887,0H166.1a2,2,0,1,1,0-4h7.963a2,2,0,1,1,0,4m-23.889,0H142.21a2,2,0,1,1,0-4h7.961a2,2,0,1,1,0,4m-23.887,0H118.32a2,2,0,1,1,0-4h7.963a2,2,0,1,1,0,4m-23.887,0H94.433a2,2,0,1,1,0-4H102.4a2,2,0,1,1,0,4m-23.887,0H70.546a2,2,0,1,1,0-4h7.963a2,2,0,1,1,0,4m-23.889,0H46.656a2,2,0,1,1,0-4h7.963a2,2,0,1,1,0,4m-23.887,0H22.769a2,2,0,1,1,0-4h7.963a2,2,0,1,1,0,4M7.969,178.434a1.985,1.985,0,0,1-1.331-.508q-.419-.374-.817-.771a19.735,19.735,0,0,1-4.283-6.377,2,2,0,0,1,3.693-1.545,15.794,15.794,0,0,0,3.42,5.092q.319.316.651.616a2,2,0,0,1-1.333,3.494m228.659-.017a2,2,0,0,1-1.336-3.494c.218-.2.431-.4.638-.6a15.811,15.811,0,0,0,3.427-5.113,2,2,0,0,1,3.7,1.542,19.8,19.8,0,0,1-4.294,6.4c-.259.259-.525.508-.795.75a1.991,1.991,0,0,1-1.335.512M2,156.265a2,2,0,0,1-2-2V146.3a2,2,0,1,1,4,0v7.961a2,2,0,0,1-2,2m240.574-.026a2,2,0,0,1-2-2v-7.965a2,2,0,1,1,4,0v7.965a2,2,0,0,1-2,2M2,132.378a2,2,0,0,1-2-2v-7.963a2,2,0,1,1,4,0v7.963a2,2,0,0,1-2,2m240.574-.028a2,2,0,0,1-2-2v-7.963a2,2,0,1,1,4,0v7.963a2,2,0,0,1-2,2M2,108.489a2,2,0,0,1-2-2V98.526a2,2,0,1,1,4,0v7.961a2,2,0,0,1-2,2m240.574-.026a2,2,0,0,1-2-2V98.5a2,2,0,1,1,4,0v7.965a2,2,0,0,1-2,2M2,84.6a2,2,0,0,1-2-2V74.637a2,2,0,1,1,4,0V82.6a2,2,0,0,1-2,2m240.574-.03a2,2,0,0,1-2-2V74.609a2,2,0,1,1,4,0v7.963a2,2,0,0,1-2,2" transform="translate(0 61.603)" fill="#fc5732"/>
          <path id="Trazado_1016749" data-name="Trazado 1016749" d="M2,69.833a2,2,0,0,1-2-2v-4a2,2,0,0,1,4,0v4a2,2,0,0,1-2,2" transform="translate(0 52.456)" fill="#fc5732"/>
          <path id="Trazado_1016750" data-name="Trazado 1016750" d="M272.469,124.291H240.574V19.874A15.872,15.872,0,0,0,224.7,4H19.874A15.869,15.869,0,0,0,4,19.874V122.289H0V19.874A19.873,19.873,0,0,1,19.874,0H224.7a19.873,19.873,0,0,1,19.874,19.874V120.287h27.891Z" fill="#fc5732"/>
          <path id="Trazado_1016751" data-name="Trazado 1016751" d="M145.825,80.72l17.285-9.982-17.285-9.98Z" transform="translate(123.724 51.55)" fill="#fc5732"/>
          <path id="Trazado_1016752" data-name="Trazado 1016752" d="M512,215.167H325.707a8.984,8.984,0,0,1-8.983-8.983V19.888a8.984,8.984,0,0,1,8.983-8.983H512a8.984,8.984,0,0,1,8.983,8.983V206.183A8.984,8.984,0,0,1,512,215.167" transform="translate(268.721 9.252)" fill="#047060"/>
          <path id="Trazado_1016753" data-name="Trazado 1016753" d="M512.921,218.089H326.626A11,11,0,0,1,315.641,207.1V20.807A11,11,0,0,1,326.626,9.822H512.921a11,11,0,0,1,10.985,10.985V207.1a11,11,0,0,1-10.985,10.985M326.626,13.826a6.989,6.989,0,0,0-6.982,6.982V207.1a6.989,6.989,0,0,0,6.982,6.982H512.921A6.989,6.989,0,0,0,519.9,207.1V20.807a6.989,6.989,0,0,0-6.982-6.982Z" transform="translate(267.802 8.333)" fill="#fff"/>
          <path id="Trazado_1016754" data-name="Trazado 1016754" d="M437.971,69.833a2,2,0,0,1-2-2v-4a2,2,0,0,1,4,0v4a2,2,0,0,1-2,2" transform="translate(369.893 52.456)" fill="#00b59a"/>
          <path id="Trazado_1016755" data-name="Trazado 1016755" d="M527.654,182.975h-7.961a2,2,0,0,1,0-4h7.961a2,2,0,1,1,0,4m-23.887,0H495.8a2,2,0,1,1,0-4h7.963a2,2,0,1,1,0,4m-23.887,0h-7.963a2,2,0,1,1,0-4h7.963a2,2,0,0,1,0,4m-23.889,0h-7.961a2,2,0,0,1,0-4h7.961a2,2,0,1,1,0,4m-23.887,0h-7.963a2,2,0,0,1,0-4H432.1a2,2,0,1,1,0,4m-23.887,0h-7.963a2,2,0,0,1,0-4h7.963a2,2,0,0,1,0,4m-23.889,0h-7.961a2,2,0,1,1,0-4h7.961a2,2,0,1,1,0,4m-23.887,0h-7.963a2,2,0,0,1,0-4h7.963a2,2,0,0,1,0,4m-23.887,0h-7.963a2,2,0,1,1,0-4h7.963a2,2,0,1,1,0,4m-22.764-4.542a1.985,1.985,0,0,1-1.331-.508q-.419-.374-.817-.771a19.745,19.745,0,0,1-4.283-6.377,2,2,0,1,1,3.691-1.545,15.828,15.828,0,0,0,3.421,5.092c.213.211.429.416.651.616a2,2,0,0,1-1.333,3.494m228.659-.017a2,2,0,0,1-1.336-3.494c.218-.2.431-.4.638-.6a15.816,15.816,0,0,0,3.429-5.113,2,2,0,0,1,3.7,1.542,19.8,19.8,0,0,1-4.3,6.4q-.391.388-.795.75a1.991,1.991,0,0,1-1.335.512M307.821,156.265a2,2,0,0,1-2-2V146.3a2,2,0,1,1,4,0v7.961a2,2,0,0,1-2,2M548.4,156.24a2,2,0,0,1-2-2v-7.965a2,2,0,0,1,4,0v7.965a2,2,0,0,1-2,2M307.821,132.376a2,2,0,0,1-2-2v-7.961a2,2,0,1,1,4,0v7.961a2,2,0,0,1-2,2M548.4,132.35a2,2,0,0,1-2-2v-7.963a2,2,0,0,1,4,0v7.963a2,2,0,0,1-2,2M307.821,108.489a2,2,0,0,1-2-2V98.526a2,2,0,1,1,4,0v7.961a2,2,0,0,1-2,2m240.574-.026a2,2,0,0,1-2-2V98.5a2,2,0,0,1,4,0v7.965a2,2,0,0,1-2,2M307.821,84.6a2,2,0,0,1-2-2V74.637a2,2,0,1,1,4,0V82.6a2,2,0,0,1-2,2M548.4,84.574a2,2,0,0,1-2-2V74.609a2,2,0,0,1,4,0v7.963a2,2,0,0,1-2,2" transform="translate(259.469 61.603)" fill="#00b59a"/>
          <path id="Trazado_1016756" data-name="Trazado 1016756" d="M307.82,69.833a2,2,0,0,1-2-2v-4a2,2,0,0,1,4,0v4a2,2,0,0,1-2,2" transform="translate(259.468 52.456)" fill="#00b59a"/>
          <path id="Trazado_1016757" data-name="Trazado 1016757" d="M550.4,122.289h-4V19.874A15.872,15.872,0,0,0,530.522,4H325.694a15.872,15.872,0,0,0-15.873,15.871V122.289h-4V19.874A19.876,19.876,0,0,1,325.694,0H530.522A19.873,19.873,0,0,1,550.4,19.874Z" transform="translate(259.468)" fill="#00b59a"/>
          <path id="Trazado_1016758" data-name="Trazado 1016758" d="M358.989,215.167H172.694a8.984,8.984,0,0,1-8.983-8.983V19.888a8.984,8.984,0,0,1,8.983-8.983H358.989a8.984,8.984,0,0,1,8.983,8.983V206.183a8.984,8.984,0,0,1-8.983,8.983" transform="translate(138.899 9.252)" fill="#7b3dd9"/>
          <path id="Trazado_1016759" data-name="Trazado 1016759" d="M359.909,218.089H173.614A11,11,0,0,1,162.629,207.1V20.807A11,11,0,0,1,173.614,9.822H359.909a11,11,0,0,1,10.983,10.985V207.1a11,11,0,0,1-10.983,10.985M173.614,13.826a6.989,6.989,0,0,0-6.982,6.982V207.1a6.989,6.989,0,0,0,6.982,6.982H359.909a6.99,6.99,0,0,0,6.982-6.982V20.807a6.99,6.99,0,0,0-6.982-6.982Z" transform="translate(137.981 8.333)" fill="#fff"/>
          <path id="Trazado_1016760" data-name="Trazado 1016760" d="M284.958,74.165a2,2,0,0,1-2-2v-4a2,2,0,1,1,4,0v4a2,2,0,0,1-2,2" transform="translate(240.071 56.131)" fill="#7b3dd9"/>
          <path id="Trazado_1016761" data-name="Trazado 1016761" d="M395.383,110.368a2,2,0,0,1-2-2V100.4a2,2,0,1,1,4,0v7.963a2,2,0,0,1-2,2m-240.576-.028a2,2,0,0,1-2-2v-7.963a2,2,0,1,1,4,0v7.963a2,2,0,0,1-2,2m240.576-23.86a2,2,0,0,1-2-2V76.516a2,2,0,1,1,4,0v7.963a2,2,0,0,1-2,2m-240.576-.028a2,2,0,0,1-2-2V76.488a2,2,0,1,1,4,0V84.45a2,2,0,0,1-2,2M395.383,62.592a2,2,0,0,1-2-2V52.629a2,2,0,0,1,4,0V60.59a2,2,0,0,1-2,2m-240.576-.026a2,2,0,0,1-2-2V52.6a2,2,0,1,1,4,0v7.965a2,2,0,0,1-2,2M395.383,38.7a2,2,0,0,1-2-2V28.74a2,2,0,0,1,4,0V36.7a2,2,0,0,1-2,2m-240.576-.028a2,2,0,0,1-2-2V28.712a2,2,0,1,1,4,0v7.963a2,2,0,0,1-2,2M394.011,15a2,2,0,0,1-1.848-1.231,15.791,15.791,0,0,0-3.431-5.115q-.308-.308-.634-.6a2,2,0,0,1,2.671-2.982c.27.242.534.494.791.749a19.8,19.8,0,0,1,4.3,6.407,2,2,0,0,1-1.076,2.617,1.966,1.966,0,0,1-.771.155m-237.822-.024a2.028,2.028,0,0,1-.771-.155,2,2,0,0,1-1.076-2.619,19.8,19.8,0,0,1,4.285-6.379q.4-.4.817-.771a2,2,0,1,1,2.664,2.987c-.222.2-.44.4-.651.616a15.773,15.773,0,0,0-3.42,5.092,2.005,2.005,0,0,1-1.848,1.229M374.642,4H366.68a2,2,0,0,1,0-4h7.961a2,2,0,1,1,0,4M350.754,4h-7.963a2,2,0,1,1,0-4h7.963a2,2,0,1,1,0,4M326.865,4H318.9a2,2,0,1,1,0-4h7.961a2,2,0,1,1,0,4M302.978,4h-7.961a2,2,0,1,1,0-4h7.961a2,2,0,0,1,0,4M279.09,4h-7.963a2,2,0,1,1,0-4h7.963a2,2,0,1,1,0,4M255.2,4H247.24a2,2,0,0,1,0-4H255.2a2,2,0,0,1,0,4M231.316,4h-7.965a2,2,0,1,1,0-4h7.965a2,2,0,1,1,0,4M207.426,4h-7.963a2,2,0,0,1,0-4h7.963a2,2,0,1,1,0,4M183.539,4h-7.963a2,2,0,1,1,0-4h7.963a2,2,0,1,1,0,4" transform="translate(129.646)" fill="#7b3dd9"/>
          <path id="Trazado_1016762" data-name="Trazado 1016762" d="M154.808,74.165a2,2,0,0,1-2-2v-4a2,2,0,1,1,4,0v4a2,2,0,0,1-2,2" transform="translate(129.646 56.131)" fill="#7b3dd9"/>
          <path id="Trazado_1016763" data-name="Trazado 1016763" d="M377.51,189.366H172.68a19.873,19.873,0,0,1-19.874-19.874V67.077h4V169.491a15.869,15.869,0,0,0,15.871,15.871H377.51a15.872,15.872,0,0,0,15.871-15.871V65.075h31.895v4H397.384V169.491a19.873,19.873,0,0,1-19.874,19.874" transform="translate(129.646 55.212)" fill="#7b3dd9"/>
          <path id="Trazado_1016764" data-name="Trazado 1016764" d="M298.631,80.72l17.285-9.982-17.285-9.98Z" transform="translate(253.37 51.55)" fill="#7b3dd9"/>
        </g>
      </g>
      <path id="Trazado_1017162" data-name="Trazado 1017162" d="M31.271,4.781V19H27.98V8.492l-3.242.947v-2.5l6.23-2.158Zm4.57,12.676a1.544,1.544,0,0,1,.508-1.177,2.051,2.051,0,0,1,2.622,0,1.628,1.628,0,0,1,0,2.354,2.051,2.051,0,0,1-2.622,0A1.544,1.544,0,0,1,35.842,17.457ZM53.117,4.781V19H49.689V4.781Zm4.277,0V7.428H45.51V4.781ZM62.17,8.434V19h-3.3V8.434Zm-3.5-2.725a1.469,1.469,0,0,1,.508-1.152,2.159,2.159,0,0,1,2.637,0,1.469,1.469,0,0,1,.508,1.152,1.469,1.469,0,0,1-.508,1.152,2.159,2.159,0,0,1-2.637,0A1.469,1.469,0,0,1,58.674,5.709Zm8.838,4.756v12.6H64.221V8.434h3.066ZM74,13.59v.205a8.26,8.26,0,0,1-.264,2.139,5.337,5.337,0,0,1-.781,1.719,3.641,3.641,0,0,1-1.284,1.138,3.737,3.737,0,0,1-1.772.405,3.055,3.055,0,0,1-1.631-.42,3.486,3.486,0,0,1-1.143-1.162,6.98,6.98,0,0,1-.742-1.7,15.582,15.582,0,0,1-.449-2.021v-.264a15.928,15.928,0,0,1,.449-2.124,6.722,6.722,0,0,1,.742-1.714,3.439,3.439,0,0,1,1.138-1.143,3.086,3.086,0,0,1,1.626-.41,3.934,3.934,0,0,1,1.772.381,3.545,3.545,0,0,1,1.289,1.089,4.994,4.994,0,0,1,.786,1.694A8.465,8.465,0,0,1,74,13.59Zm-3.291.205V13.59a6.7,6.7,0,0,0-.088-1.128,3.2,3.2,0,0,0-.278-.894,1.464,1.464,0,0,0-.5-.586,1.377,1.377,0,0,0-.771-.205,2.144,2.144,0,0,0-.884.161,1.291,1.291,0,0,0-.566.488,2.167,2.167,0,0,0-.293.811,6.185,6.185,0,0,0-.073,1.128v.8a4.217,4.217,0,0,0,.146,1.3,1.648,1.648,0,0,0,.576.874,1.794,1.794,0,0,0,1.113.313,1.325,1.325,0,0,0,.781-.22,1.521,1.521,0,0,0,.5-.615,3.305,3.305,0,0,0,.264-.913A7.469,7.469,0,0,0,70.705,13.795Zm4.336.029v-.205a6.651,6.651,0,0,1,.332-2.144,4.873,4.873,0,0,1,.977-1.7,4.438,4.438,0,0,1,1.592-1.128,5.521,5.521,0,0,1,2.188-.405,5.584,5.584,0,0,1,2.2.405,4.429,4.429,0,0,1,1.6,1.128,4.873,4.873,0,0,1,.977,1.7,6.651,6.651,0,0,1,.332,2.144v.205a6.619,6.619,0,0,1-.332,2.134,4.924,4.924,0,0,1-.977,1.709,4.36,4.36,0,0,1-1.592,1.128,5.58,5.58,0,0,1-2.187.4,5.653,5.653,0,0,1-2.2-.4,4.343,4.343,0,0,1-1.6-1.128,4.924,4.924,0,0,1-.977-1.709A6.619,6.619,0,0,1,75.041,13.824Zm3.291-.205v.205a6.655,6.655,0,0,0,.088,1.113,2.976,2.976,0,0,0,.293.9,1.527,1.527,0,0,0,.557.6,1.659,1.659,0,0,0,.879.215,1.613,1.613,0,0,0,.864-.215,1.539,1.539,0,0,0,.552-.6,2.976,2.976,0,0,0,.293-.9,6.655,6.655,0,0,0,.088-1.113v-.205a6.443,6.443,0,0,0-.088-1.089,3.1,3.1,0,0,0-.293-.908,1.583,1.583,0,0,0-.557-.62,1.6,1.6,0,0,0-.879-.225,1.558,1.558,0,0,0-.864.225,1.6,1.6,0,0,0-.552.62,3.1,3.1,0,0,0-.293.908A6.443,6.443,0,0,0,78.332,13.619Zm19.414,2.959V4h3.311V19H98.088Zm-6.484-2.734v-.205a8.521,8.521,0,0,1,.264-2.192,5.159,5.159,0,0,1,.781-1.709A3.546,3.546,0,0,1,93.6,8.629a3.882,3.882,0,0,1,1.777-.391,2.937,2.937,0,0,1,1.572.415A3.655,3.655,0,0,1,98.1,9.811a6.905,6.905,0,0,1,.781,1.733,13.62,13.62,0,0,1,.459,2.134v.244a12.725,12.725,0,0,1-.459,2.026,6.868,6.868,0,0,1-.781,1.685A3.668,3.668,0,0,1,96.94,18.78a2.981,2.981,0,0,1-1.587.415,3.774,3.774,0,0,1-1.772-.4A3.588,3.588,0,0,1,92.3,17.672a5.291,5.291,0,0,1-.776-1.7A8.149,8.149,0,0,1,91.262,13.844Zm3.291-.205v.205a7.273,7.273,0,0,0,.078,1.1,3.062,3.062,0,0,0,.269.894,1.517,1.517,0,0,0,.508.6,1.371,1.371,0,0,0,.786.215,1.735,1.735,0,0,0,1.05-.3,1.77,1.77,0,0,0,.615-.859,3.463,3.463,0,0,0,.171-1.309v-.771a4.709,4.709,0,0,0-.088-1.138,2.3,2.3,0,0,0-.337-.825,1.5,1.5,0,0,0-.576-.5,1.824,1.824,0,0,0-.815-.171,1.353,1.353,0,0,0-.776.215,1.554,1.554,0,0,0-.513.6,3.168,3.168,0,0,0-.283.908A6.871,6.871,0,0,0,94.553,13.639ZM108.039,19.2a6.177,6.177,0,0,1-2.3-.405,4.832,4.832,0,0,1-2.778-2.759,5.3,5.3,0,0,1-.366-1.963V13.7a6.928,6.928,0,0,1,.322-2.153,5.024,5.024,0,0,1,.957-1.733,4.32,4.32,0,0,1,1.592-1.157,5.557,5.557,0,0,1,2.227-.415A5.3,5.3,0,0,1,109.7,8.6a4.137,4.137,0,0,1,1.509,1.035,4.542,4.542,0,0,1,.947,1.631,6.617,6.617,0,0,1,.327,2.148v1.338H103.85V12.691h5.42v-.254a1.871,1.871,0,0,0-.181-.9,1.306,1.306,0,0,0-.552-.566,1.826,1.826,0,0,0-.879-.2,1.45,1.45,0,0,0-1.421.874,3.335,3.335,0,0,0-.269.933,7.6,7.6,0,0,0-.078,1.113v.371a3.321,3.321,0,0,0,.161,1.064,2.262,2.262,0,0,0,.469.815,2.117,2.117,0,0,0,.742.522,2.5,2.5,0,0,0,.991.186,3.644,3.644,0,0,0,1.328-.254,2.654,2.654,0,0,0,1.123-.84L112.2,17.34a3.905,3.905,0,0,1-.913.889,5.056,5.056,0,0,1-1.411.7A5.882,5.882,0,0,1,108.039,19.2ZM32,35.465v12.6H28.713V33.434h3.066Zm6.484,3.125v.205a8.26,8.26,0,0,1-.264,2.139,5.337,5.337,0,0,1-.781,1.719,3.641,3.641,0,0,1-1.284,1.138,3.737,3.737,0,0,1-1.772.405,3.055,3.055,0,0,1-1.631-.42,3.486,3.486,0,0,1-1.143-1.162,6.981,6.981,0,0,1-.742-1.7,15.582,15.582,0,0,1-.449-2.021v-.264a15.928,15.928,0,0,1,.449-2.124,6.722,6.722,0,0,1,.742-1.714,3.439,3.439,0,0,1,1.138-1.143,3.085,3.085,0,0,1,1.626-.41,3.934,3.934,0,0,1,1.772.381,3.545,3.545,0,0,1,1.289,1.089,4.994,4.994,0,0,1,.786,1.694A8.465,8.465,0,0,1,38.488,38.59Zm-3.291.205V38.59a6.7,6.7,0,0,0-.088-1.128,3.2,3.2,0,0,0-.278-.894,1.464,1.464,0,0,0-.5-.586,1.377,1.377,0,0,0-.771-.205,2.144,2.144,0,0,0-.884.161,1.291,1.291,0,0,0-.566.488,2.167,2.167,0,0,0-.293.811,6.185,6.185,0,0,0-.073,1.128v.8a4.217,4.217,0,0,0,.146,1.3,1.648,1.648,0,0,0,.576.874,1.794,1.794,0,0,0,1.113.313,1.325,1.325,0,0,0,.781-.22,1.521,1.521,0,0,0,.5-.615,3.3,3.3,0,0,0,.264-.913A7.47,7.47,0,0,0,35.2,38.795Zm8.066-2.744V44H39.973V33.434h3.076Zm3.125-2.7-.059,3.057-.527-.049q-.332-.029-.557-.029a3.293,3.293,0,0,0-.991.132,1.715,1.715,0,0,0-.684.391,1.508,1.508,0,0,0-.391.649,2.868,2.868,0,0,0-.112.908l-.6-.391a8.306,8.306,0,0,1,.21-1.938,5.233,5.233,0,0,1,.6-1.514,2.935,2.935,0,0,1,.947-.986,2.316,2.316,0,0,1,1.25-.347,3.974,3.974,0,0,1,.483.029A2.376,2.376,0,0,1,46.389,33.355Zm.371,5.469v-.205a6.651,6.651,0,0,1,.332-2.144,4.873,4.873,0,0,1,.977-1.7,4.438,4.438,0,0,1,1.592-1.128,5.521,5.521,0,0,1,2.188-.405,5.584,5.584,0,0,1,2.2.405,4.429,4.429,0,0,1,1.6,1.128,4.873,4.873,0,0,1,.977,1.7,6.651,6.651,0,0,1,.332,2.144v.205a6.619,6.619,0,0,1-.332,2.134,4.924,4.924,0,0,1-.977,1.709,4.36,4.36,0,0,1-1.592,1.128,5.58,5.58,0,0,1-2.187.4,5.653,5.653,0,0,1-2.2-.4,4.343,4.343,0,0,1-1.6-1.128,4.924,4.924,0,0,1-.977-1.709A6.619,6.619,0,0,1,46.76,38.824Zm3.291-.205v.205a6.655,6.655,0,0,0,.088,1.113,2.976,2.976,0,0,0,.293.9,1.527,1.527,0,0,0,.557.6,1.659,1.659,0,0,0,.879.215,1.613,1.613,0,0,0,.864-.215,1.539,1.539,0,0,0,.552-.6,2.976,2.976,0,0,0,.293-.9,6.655,6.655,0,0,0,.088-1.113v-.205a6.443,6.443,0,0,0-.088-1.089,3.1,3.1,0,0,0-.293-.908,1.583,1.583,0,0,0-.557-.62,1.6,1.6,0,0,0-.879-.225,1.558,1.558,0,0,0-.864.225,1.6,1.6,0,0,0-.552.62,3.1,3.1,0,0,0-.293.908A6.443,6.443,0,0,0,50.051,38.619Zm14.434,2.959V29h3.311V44H64.826ZM58,38.844v-.205a8.521,8.521,0,0,1,.264-2.192,5.159,5.159,0,0,1,.781-1.709,3.546,3.546,0,0,1,1.289-1.108,3.882,3.882,0,0,1,1.777-.391,2.937,2.937,0,0,1,1.572.415,3.655,3.655,0,0,1,1.152,1.157,6.905,6.905,0,0,1,.781,1.733,13.62,13.62,0,0,1,.459,2.134v.244a12.725,12.725,0,0,1-.459,2.026,6.868,6.868,0,0,1-.781,1.685,3.668,3.668,0,0,1-1.157,1.147,2.981,2.981,0,0,1-1.587.415,3.774,3.774,0,0,1-1.772-.4,3.588,3.588,0,0,1-1.279-1.123,5.291,5.291,0,0,1-.776-1.7A8.149,8.149,0,0,1,58,38.844Zm3.291-.205v.205a7.274,7.274,0,0,0,.078,1.1,3.062,3.062,0,0,0,.269.894,1.517,1.517,0,0,0,.508.6,1.371,1.371,0,0,0,.786.215,1.735,1.735,0,0,0,1.05-.3,1.77,1.77,0,0,0,.615-.859,3.463,3.463,0,0,0,.171-1.309v-.771a4.709,4.709,0,0,0-.088-1.138,2.3,2.3,0,0,0-.337-.825,1.5,1.5,0,0,0-.576-.5,1.824,1.824,0,0,0-.815-.171,1.353,1.353,0,0,0-.776.215,1.554,1.554,0,0,0-.513.6,3.168,3.168,0,0,0-.283.908A6.871,6.871,0,0,0,61.291,38.639Zm14.541,2.793v-8h3.3V44H76.047Zm.313-2.148.859-.02a7.251,7.251,0,0,1-.254,1.968A4.762,4.762,0,0,1,76,42.8a3.44,3.44,0,0,1-1.211,1.03,3.593,3.593,0,0,1-1.655.366,4.441,4.441,0,0,1-1.431-.22,2.822,2.822,0,0,1-1.118-.693,3.186,3.186,0,0,1-.728-1.221A5.5,5.5,0,0,1,69.6,40.27V33.434h3.291v6.855a1.857,1.857,0,0,0,.088.605,1.13,1.13,0,0,0,.254.425,1.015,1.015,0,0,0,.415.254,1.8,1.8,0,0,0,.571.083,1.91,1.91,0,0,0,1.162-.312,1.65,1.65,0,0,0,.591-.85A3.986,3.986,0,0,0,76.145,39.283Zm9.268,2.373a1.679,1.679,0,0,0,.786-.171A1.163,1.163,0,0,0,86.7,41a1.525,1.525,0,0,0,.161-.767h3.1a3.637,3.637,0,0,1-.581,2.085,3.957,3.957,0,0,1-1.6,1.387,5.133,5.133,0,0,1-2.28.493,5.379,5.379,0,0,1-2.168-.405,4.219,4.219,0,0,1-1.548-1.133,4.831,4.831,0,0,1-.928-1.7,7.02,7.02,0,0,1-.308-2.119v-.225a7.067,7.067,0,0,1,.308-2.124,4.825,4.825,0,0,1,.928-1.709,4.228,4.228,0,0,1,1.543-1.133,5.317,5.317,0,0,1,2.153-.405,5.2,5.2,0,0,1,2.329.5,3.765,3.765,0,0,1,1.587,1.445,4.274,4.274,0,0,1,.566,2.295h-3.1a2.13,2.13,0,0,0-.146-.859,1.358,1.358,0,0,0-.483-.61,1.421,1.421,0,0,0-.835-.229,1.275,1.275,0,0,0-1.294.845,3.313,3.313,0,0,0-.215.9,10.326,10.326,0,0,0-.054,1.084v.225a10.569,10.569,0,0,0,.054,1.1,3.081,3.081,0,0,0,.22.9,1.393,1.393,0,0,0,.479.605A1.416,1.416,0,0,0,85.412,41.656Zm11.5-8.223v2.285H90.549V33.434Zm-5.029-2.627h3.291v9.746a1.713,1.713,0,0,0,.1.649.577.577,0,0,0,.337.322,1.809,1.809,0,0,0,.64.093q.283,0,.469-.015t.352-.044v2.354a5.773,5.773,0,0,1-.879.21,6.2,6.2,0,0,1-.977.073,4.419,4.419,0,0,1-1.8-.332,2.353,2.353,0,0,1-1.138-1.045,3.848,3.848,0,0,1-.391-1.855Zm5.635,8.018v-.205a6.651,6.651,0,0,1,.332-2.144,4.873,4.873,0,0,1,.977-1.7,4.438,4.438,0,0,1,1.592-1.128,5.521,5.521,0,0,1,2.188-.405,5.584,5.584,0,0,1,2.2.405,4.429,4.429,0,0,1,1.6,1.128,4.873,4.873,0,0,1,.977,1.7,6.651,6.651,0,0,1,.332,2.144v.205a6.619,6.619,0,0,1-.332,2.134,4.924,4.924,0,0,1-.977,1.709,4.36,4.36,0,0,1-1.592,1.128,5.58,5.58,0,0,1-2.187.4,5.653,5.653,0,0,1-2.2-.4,4.343,4.343,0,0,1-1.6-1.128,4.924,4.924,0,0,1-.977-1.709A6.619,6.619,0,0,1,97.521,38.824Zm3.291-.205v.205a6.655,6.655,0,0,0,.088,1.113,2.976,2.976,0,0,0,.293.9,1.527,1.527,0,0,0,.557.6,1.659,1.659,0,0,0,.879.215,1.613,1.613,0,0,0,.864-.215,1.539,1.539,0,0,0,.552-.6,2.976,2.976,0,0,0,.293-.9,6.655,6.655,0,0,0,.088-1.113v-.205a6.443,6.443,0,0,0-.088-1.089,3.1,3.1,0,0,0-.293-.908,1.583,1.583,0,0,0-.557-.62,1.6,1.6,0,0,0-.879-.225,1.558,1.558,0,0,0-.864.225,1.6,1.6,0,0,0-.552.62,3.1,3.1,0,0,0-.293.908A6.443,6.443,0,0,0,100.813,38.619Z" transform="translate(-5453 4888)" fill="#fff"/>
      <path id="Trazado_1017163" data-name="Trazado 1017163" d="M21.4,16.461V19H11.481V16.852l4.57-4.8a12.831,12.831,0,0,0,.977-1.245,5.075,5.075,0,0,0,.542-1,2.308,2.308,0,0,0,.171-.811,2.585,2.585,0,0,0-.181-1.03,1.35,1.35,0,0,0-.527-.63,1.593,1.593,0,0,0-.854-.215,1.416,1.416,0,0,0-.889.293,1.9,1.9,0,0,0-.591.8,2.966,2.966,0,0,0-.21,1.143h-3.3a4.621,4.621,0,0,1,.64-2.393A4.749,4.749,0,0,1,13.61,5.226a5.263,5.263,0,0,1,2.646-.649,6.315,6.315,0,0,1,2.637.488A3.487,3.487,0,0,1,20.5,6.476,4.313,4.313,0,0,1,21.042,8.7a4.365,4.365,0,0,1-.234,1.426,6.026,6.026,0,0,1-.674,1.353,11.708,11.708,0,0,1-1.069,1.372q-.63.7-1.431,1.494L15.8,16.461Zm1.934,1a1.544,1.544,0,0,1,.508-1.177,2.051,2.051,0,0,1,2.622,0,1.628,1.628,0,0,1,0,2.354,2.051,2.051,0,0,1-2.622,0A1.544,1.544,0,0,1,23.337,17.457Zm18.3-2.236a1.748,1.748,0,0,0-.1-.6,1.255,1.255,0,0,0-.361-.5,3.363,3.363,0,0,0-.757-.474,10.754,10.754,0,0,0-1.294-.5,18.427,18.427,0,0,1-1.807-.708,7.719,7.719,0,0,1-1.553-.928,4.121,4.121,0,0,1-1.084-1.25,3.382,3.382,0,0,1-.4-1.675,3.347,3.347,0,0,1,.41-1.655,3.8,3.8,0,0,1,1.147-1.26,5.556,5.556,0,0,1,1.733-.8,8.072,8.072,0,0,1,2.178-.278,6.623,6.623,0,0,1,2.759.542,4.425,4.425,0,0,1,1.875,1.533A4.038,4.038,0,0,1,45.065,9H41.657a1.975,1.975,0,0,0-.22-.947,1.556,1.556,0,0,0-.659-.645,2.328,2.328,0,0,0-1.1-.234,2.667,2.667,0,0,0-1.084.2,1.535,1.535,0,0,0-.664.522,1.241,1.241,0,0,0-.225.718.991.991,0,0,0,.181.581,1.914,1.914,0,0,0,.518.483,5.018,5.018,0,0,0,.82.43q.483.205,1.089.4a13.9,13.9,0,0,1,2.017.806,6.509,6.509,0,0,1,1.494,1.006,3.852,3.852,0,0,1,.928,1.274,3.922,3.922,0,0,1,.317,1.611,3.75,3.75,0,0,1-.371,1.7,3.483,3.483,0,0,1-1.064,1.255,4.955,4.955,0,0,1-1.66.776,8.2,8.2,0,0,1-2.158.264,8.441,8.441,0,0,1-2.153-.278,6.216,6.216,0,0,1-1.919-.859,4.214,4.214,0,0,1-1.885-3.667h3.438a2.939,2.939,0,0,0,.166,1.055,1.6,1.6,0,0,0,.488.688,1.98,1.98,0,0,0,.791.371,4.633,4.633,0,0,0,1.074.112,2.475,2.475,0,0,0,1.055-.19,1.3,1.3,0,0,0,.586-.508A1.358,1.358,0,0,0,41.638,15.221ZM51.794,19.2a6.177,6.177,0,0,1-2.3-.405,4.832,4.832,0,0,1-2.778-2.759,5.3,5.3,0,0,1-.366-1.963V13.7a6.928,6.928,0,0,1,.322-2.153,5.024,5.024,0,0,1,.957-1.733,4.32,4.32,0,0,1,1.592-1.157,5.557,5.557,0,0,1,2.227-.415,5.3,5.3,0,0,1,2.012.361,4.137,4.137,0,0,1,1.509,1.035,4.542,4.542,0,0,1,.947,1.631,6.617,6.617,0,0,1,.327,2.148v1.338H47.6V12.691h5.42v-.254a1.871,1.871,0,0,0-.181-.9,1.306,1.306,0,0,0-.552-.566,1.826,1.826,0,0,0-.879-.2,1.45,1.45,0,0,0-1.421.874,3.335,3.335,0,0,0-.269.933,7.6,7.6,0,0,0-.078,1.113v.371a3.321,3.321,0,0,0,.161,1.064,2.262,2.262,0,0,0,.469.815,2.117,2.117,0,0,0,.742.522,2.5,2.5,0,0,0,.991.186,3.644,3.644,0,0,0,1.328-.254,2.654,2.654,0,0,0,1.123-.84l1.494,1.777a3.905,3.905,0,0,1-.913.889,5.056,5.056,0,0,1-1.411.7A5.882,5.882,0,0,1,51.794,19.2ZM64.216,8.434H67.2V18.59a4.411,4.411,0,0,1-.674,2.485,4.243,4.243,0,0,1-1.88,1.553,6.928,6.928,0,0,1-2.817.532,6.139,6.139,0,0,1-1.455-.181,5.694,5.694,0,0,1-1.387-.532,3.775,3.775,0,0,1-1.084-.869l1.377-1.934a3.515,3.515,0,0,0,1.006.767,3.03,3.03,0,0,0,1.426.317,2.551,2.551,0,0,0,1.2-.254,1.716,1.716,0,0,0,.737-.737A2.482,2.482,0,0,0,63.9,18.57V10.934Zm-7.021,5.41v-.205a7.6,7.6,0,0,1,.3-2.192,5.144,5.144,0,0,1,.859-1.709,3.861,3.861,0,0,1,1.362-1.108,4.067,4.067,0,0,1,1.807-.391,3.447,3.447,0,0,1,1.782.415,3.119,3.119,0,0,1,1.123,1.157,6.587,6.587,0,0,1,.664,1.733q.239.991.405,2.134v.244a14.8,14.8,0,0,1-.454,2.026,6.944,6.944,0,0,1-.747,1.685,3.452,3.452,0,0,1-1.147,1.147A3.128,3.128,0,0,1,61.5,19.2a3.852,3.852,0,0,1-3.149-1.523,5.221,5.221,0,0,1-.859-1.7A7.268,7.268,0,0,1,57.194,13.844Zm3.291-.205v.205a5.109,5.109,0,0,0,.112,1.1,2.924,2.924,0,0,0,.347.894,1.774,1.774,0,0,0,.581.6,1.516,1.516,0,0,0,.815.215,1.993,1.993,0,0,0,1.152-.3,1.686,1.686,0,0,0,.635-.859,3.534,3.534,0,0,0,.166-1.309v-.771a4.709,4.709,0,0,0-.088-1.138,2.3,2.3,0,0,0-.337-.825,1.451,1.451,0,0,0-.605-.5,2.171,2.171,0,0,0-.9-.171,1.523,1.523,0,0,0-.811.215,1.757,1.757,0,0,0-.586.6,3.094,3.094,0,0,0-.356.908A5,5,0,0,0,60.485,13.639ZM72.409,10.67V19H69.118V8.434H72.2Zm-.4,2.686-.752.02a7.555,7.555,0,0,1,.264-2.051A4.926,4.926,0,0,1,72.3,9.693a3.582,3.582,0,0,1,1.274-1.074,3.85,3.85,0,0,1,1.753-.381,3.6,3.6,0,0,1,1.26.21,2.488,2.488,0,0,1,.977.654,2.966,2.966,0,0,1,.63,1.152,5.755,5.755,0,0,1,.22,1.694V19H75.124V12.369a2.621,2.621,0,0,0-.151-1.016.827.827,0,0,0-.435-.459,1.816,1.816,0,0,0-.693-.117,1.527,1.527,0,0,0-.771.2,1.77,1.77,0,0,0-.581.542,2.556,2.556,0,0,0-.361.815A4.063,4.063,0,0,0,72.009,13.355Zm6.035,0-.918.02a7.974,7.974,0,0,1,.249-2.051,4.882,4.882,0,0,1,.752-1.631,3.466,3.466,0,0,1,1.255-1.074,3.819,3.819,0,0,1,1.748-.381,3.947,3.947,0,0,1,1.328.215,2.563,2.563,0,0,1,1.045.693,3.276,3.276,0,0,1,.684,1.265,6.616,6.616,0,0,1,.244,1.938V19h-3.3V12.35a2.517,2.517,0,0,0-.151-.991.849.849,0,0,0-.435-.459,1.7,1.7,0,0,0-.674-.122,1.607,1.607,0,0,0-.811.2,1.68,1.68,0,0,0-.571.542,2.458,2.458,0,0,0-.337.815A4.59,4.59,0,0,0,78.044,13.355ZM91.433,19.2a6.177,6.177,0,0,1-2.3-.405,4.832,4.832,0,0,1-2.778-2.759,5.3,5.3,0,0,1-.366-1.963V13.7a6.928,6.928,0,0,1,.322-2.153,5.024,5.024,0,0,1,.957-1.733,4.32,4.32,0,0,1,1.592-1.157,5.557,5.557,0,0,1,2.227-.415,5.3,5.3,0,0,1,2.012.361A4.137,4.137,0,0,1,94.6,9.635a4.542,4.542,0,0,1,.947,1.631,6.617,6.617,0,0,1,.327,2.148v1.338H87.243V12.691h5.42v-.254a1.871,1.871,0,0,0-.181-.9,1.306,1.306,0,0,0-.552-.566,1.826,1.826,0,0,0-.879-.2,1.45,1.45,0,0,0-1.421.874,3.335,3.335,0,0,0-.269.933,7.6,7.6,0,0,0-.078,1.113v.371a3.321,3.321,0,0,0,.161,1.064,2.262,2.262,0,0,0,.469.815,2.117,2.117,0,0,0,.742.522,2.5,2.5,0,0,0,.991.186,3.644,3.644,0,0,0,1.328-.254,2.654,2.654,0,0,0,1.123-.84l1.494,1.777a3.905,3.905,0,0,1-.913.889,5.056,5.056,0,0,1-1.411.7A5.882,5.882,0,0,1,91.433,19.2Zm9.014-8.506V19H97.155V8.434h3.086Zm-.391,2.666-.771.02a7.352,7.352,0,0,1,.293-2.163,4.769,4.769,0,0,1,.83-1.616,3.568,3.568,0,0,1,1.284-1.011,3.908,3.908,0,0,1,1.665-.347,4.02,4.02,0,0,1,1.343.215,2.6,2.6,0,0,1,1.055.693,3.193,3.193,0,0,1,.684,1.265,6.743,6.743,0,0,1,.239,1.938V19h-3.311V12.34a2.149,2.149,0,0,0-.176-.972.941.941,0,0,0-.508-.464,2.278,2.278,0,0,0-.811-.127,1.747,1.747,0,0,0-.859.2,1.5,1.5,0,0,0-.562.542,2.5,2.5,0,0,0-.3.815A5.288,5.288,0,0,0,100.056,13.355Zm14.014-4.922v2.285H107.7V8.434ZM109.04,5.807h3.291v9.746a1.713,1.713,0,0,0,.1.649.577.577,0,0,0,.337.322,1.809,1.809,0,0,0,.64.093q.283,0,.469-.015t.352-.044v2.354a5.773,5.773,0,0,1-.879.21,6.2,6.2,0,0,1-.977.073,4.419,4.419,0,0,1-1.8-.332,2.353,2.353,0,0,1-1.138-1.045,3.848,3.848,0,0,1-.391-1.855Zm5.635,8.018v-.205a6.651,6.651,0,0,1,.332-2.144,4.873,4.873,0,0,1,.977-1.7,4.438,4.438,0,0,1,1.592-1.128,5.521,5.521,0,0,1,2.188-.405,5.584,5.584,0,0,1,2.2.405,4.429,4.429,0,0,1,1.6,1.128,4.873,4.873,0,0,1,.977,1.7,6.651,6.651,0,0,1,.332,2.144v.205a6.619,6.619,0,0,1-.332,2.134,4.924,4.924,0,0,1-.977,1.709,4.36,4.36,0,0,1-1.592,1.128,5.58,5.58,0,0,1-2.187.4,5.653,5.653,0,0,1-2.2-.4,4.343,4.343,0,0,1-1.6-1.128,4.924,4.924,0,0,1-.977-1.709A6.619,6.619,0,0,1,114.675,13.824Zm3.291-.205v.205a6.655,6.655,0,0,0,.088,1.113,2.976,2.976,0,0,0,.293.9,1.527,1.527,0,0,0,.557.6,1.659,1.659,0,0,0,.879.215,1.613,1.613,0,0,0,.864-.215,1.539,1.539,0,0,0,.552-.6,2.976,2.976,0,0,0,.293-.9,6.655,6.655,0,0,0,.088-1.113v-.205a6.443,6.443,0,0,0-.088-1.089,3.1,3.1,0,0,0-.293-.908,1.583,1.583,0,0,0-.557-.62,1.6,1.6,0,0,0-.879-.225A1.558,1.558,0,0,0,118.9,11a1.6,1.6,0,0,0-.552.62,3.1,3.1,0,0,0-.293.908A6.443,6.443,0,0,0,117.966,13.619ZM21.921,41.578V29h3.311V44H22.263Zm-6.484-2.734v-.205a8.521,8.521,0,0,1,.264-2.192,5.159,5.159,0,0,1,.781-1.709,3.546,3.546,0,0,1,1.289-1.108,3.882,3.882,0,0,1,1.777-.391,2.937,2.937,0,0,1,1.572.415,3.655,3.655,0,0,1,1.152,1.157,6.905,6.905,0,0,1,.781,1.733,13.62,13.62,0,0,1,.459,2.134v.244a12.725,12.725,0,0,1-.459,2.026,6.868,6.868,0,0,1-.781,1.685,3.668,3.668,0,0,1-1.157,1.147,2.981,2.981,0,0,1-1.587.415,3.774,3.774,0,0,1-1.772-.4,3.588,3.588,0,0,1-1.279-1.123,5.291,5.291,0,0,1-.776-1.7A8.149,8.149,0,0,1,15.437,38.844Zm3.291-.205v.205a7.273,7.273,0,0,0,.078,1.1,3.062,3.062,0,0,0,.269.894,1.517,1.517,0,0,0,.508.6,1.371,1.371,0,0,0,.786.215,1.735,1.735,0,0,0,1.05-.3,1.77,1.77,0,0,0,.615-.859,3.463,3.463,0,0,0,.171-1.309v-.771a4.709,4.709,0,0,0-.088-1.138,2.3,2.3,0,0,0-.337-.825,1.5,1.5,0,0,0-.576-.5,1.824,1.824,0,0,0-.815-.171,1.353,1.353,0,0,0-.776.215,1.554,1.554,0,0,0-.513.6,3.168,3.168,0,0,0-.283.908A6.871,6.871,0,0,0,18.728,38.639ZM32.214,44.2a6.177,6.177,0,0,1-2.3-.405,4.832,4.832,0,0,1-2.778-2.759,5.3,5.3,0,0,1-.366-1.963V38.7a6.928,6.928,0,0,1,.322-2.153,5.024,5.024,0,0,1,.957-1.733,4.32,4.32,0,0,1,1.592-1.157,5.557,5.557,0,0,1,2.227-.415,5.3,5.3,0,0,1,2.012.361,4.137,4.137,0,0,1,1.509,1.035,4.542,4.542,0,0,1,.947,1.631,6.617,6.617,0,0,1,.327,2.148v1.338H28.024V37.691h5.42v-.254a1.871,1.871,0,0,0-.181-.9,1.306,1.306,0,0,0-.552-.566,1.826,1.826,0,0,0-.879-.2,1.45,1.45,0,0,0-1.421.874,3.335,3.335,0,0,0-.269.933,7.6,7.6,0,0,0-.078,1.113v.371a3.321,3.321,0,0,0,.161,1.064,2.262,2.262,0,0,0,.469.815,2.117,2.117,0,0,0,.742.522,2.5,2.5,0,0,0,.991.186,3.644,3.644,0,0,0,1.328-.254,2.654,2.654,0,0,0,1.123-.84l1.494,1.777a3.905,3.905,0,0,1-.913.889,5.056,5.056,0,0,1-1.411.7A5.882,5.882,0,0,1,32.214,44.2ZM46.3,35.67V44H43V33.434h3.086Zm-.4,2.686-.752.02a7.555,7.555,0,0,1,.264-2.051,4.926,4.926,0,0,1,.781-1.631,3.582,3.582,0,0,1,1.274-1.074,3.85,3.85,0,0,1,1.753-.381,3.6,3.6,0,0,1,1.26.21,2.488,2.488,0,0,1,.977.654,2.966,2.966,0,0,1,.63,1.152,5.755,5.755,0,0,1,.22,1.694V44H49.011V37.369a2.621,2.621,0,0,0-.151-1.016.827.827,0,0,0-.435-.459,1.816,1.816,0,0,0-.693-.117,1.527,1.527,0,0,0-.771.2,1.77,1.77,0,0,0-.581.542,2.556,2.556,0,0,0-.361.815A4.063,4.063,0,0,0,45.9,38.355Zm6.035,0-.918.02a7.974,7.974,0,0,1,.249-2.051,4.882,4.882,0,0,1,.752-1.631,3.466,3.466,0,0,1,1.255-1.074,3.819,3.819,0,0,1,1.748-.381,3.947,3.947,0,0,1,1.328.215,2.563,2.563,0,0,1,1.045.693,3.276,3.276,0,0,1,.684,1.265,6.616,6.616,0,0,1,.244,1.938V44h-3.3V37.35a2.517,2.517,0,0,0-.151-.991.849.849,0,0,0-.435-.459,1.7,1.7,0,0,0-.674-.122,1.607,1.607,0,0,0-.811.2,1.68,1.68,0,0,0-.571.542,2.458,2.458,0,0,0-.337.815A4.59,4.59,0,0,0,51.931,38.355ZM65.319,44.2a6.177,6.177,0,0,1-2.3-.405,4.832,4.832,0,0,1-2.778-2.759,5.3,5.3,0,0,1-.366-1.963V38.7a6.928,6.928,0,0,1,.322-2.153,5.024,5.024,0,0,1,.957-1.733,4.32,4.32,0,0,1,1.592-1.157,5.557,5.557,0,0,1,2.227-.415,5.3,5.3,0,0,1,2.012.361,4.137,4.137,0,0,1,1.509,1.035,4.542,4.542,0,0,1,.947,1.631,6.617,6.617,0,0,1,.327,2.148v1.338H61.13V37.691h5.42v-.254a1.871,1.871,0,0,0-.181-.9,1.306,1.306,0,0,0-.552-.566,1.826,1.826,0,0,0-.879-.2,1.45,1.45,0,0,0-1.421.874,3.335,3.335,0,0,0-.269.933,7.6,7.6,0,0,0-.078,1.113v.371a3.321,3.321,0,0,0,.161,1.064,2.262,2.262,0,0,0,.469.815,2.117,2.117,0,0,0,.742.522,2.5,2.5,0,0,0,.991.186,3.644,3.644,0,0,0,1.328-.254,2.654,2.654,0,0,0,1.123-.84l1.494,1.777a3.905,3.905,0,0,1-.913.889,5.056,5.056,0,0,1-1.411.7A5.882,5.882,0,0,1,65.319,44.2Zm9.1-8.145V44H71.13V33.434h3.076Zm3.125-2.7-.059,3.057-.527-.049q-.332-.029-.557-.029a3.293,3.293,0,0,0-.991.132,1.715,1.715,0,0,0-.684.391,1.508,1.508,0,0,0-.391.649,2.868,2.868,0,0,0-.112.908l-.6-.391a8.305,8.305,0,0,1,.21-1.938,5.234,5.234,0,0,1,.6-1.514,2.935,2.935,0,0,1,.947-.986,2.316,2.316,0,0,1,1.25-.347,3.974,3.974,0,0,1,.483.029A2.376,2.376,0,0,1,77.546,33.355Zm5.41,8.3a1.679,1.679,0,0,0,.786-.171,1.163,1.163,0,0,0,.5-.488,1.525,1.525,0,0,0,.161-.767h3.1a3.637,3.637,0,0,1-.581,2.085,3.957,3.957,0,0,1-1.6,1.387,5.133,5.133,0,0,1-2.28.493,5.379,5.379,0,0,1-2.168-.405,4.219,4.219,0,0,1-1.548-1.133,4.831,4.831,0,0,1-.928-1.7,7.02,7.02,0,0,1-.308-2.119v-.225a7.067,7.067,0,0,1,.308-2.124,4.825,4.825,0,0,1,.928-1.709,4.228,4.228,0,0,1,1.543-1.133,5.317,5.317,0,0,1,2.153-.405,5.2,5.2,0,0,1,2.329.5,3.765,3.765,0,0,1,1.587,1.445,4.274,4.274,0,0,1,.566,2.295H84.4a2.13,2.13,0,0,0-.146-.859,1.358,1.358,0,0,0-.483-.61,1.421,1.421,0,0,0-.835-.229,1.275,1.275,0,0,0-1.294.845,3.313,3.313,0,0,0-.215.9,10.326,10.326,0,0,0-.054,1.084v.225a10.569,10.569,0,0,0,.054,1.1,3.081,3.081,0,0,0,.22.9,1.393,1.393,0,0,0,.479.605A1.416,1.416,0,0,0,82.956,41.656Zm11.426-.312V36.988a2.1,2.1,0,0,0-.127-.771,1.044,1.044,0,0,0-.4-.5,1.312,1.312,0,0,0-.732-.181,1.452,1.452,0,0,0-.635.127.873.873,0,0,0-.4.381,1.351,1.351,0,0,0-.137.645H88.659a2.912,2.912,0,0,1,.327-1.362,3.3,3.3,0,0,1,.938-1.1,4.539,4.539,0,0,1,1.465-.728,6.574,6.574,0,0,1,1.909-.259,5.722,5.722,0,0,1,2.251.42,3.527,3.527,0,0,1,1.567,1.255,3.6,3.6,0,0,1,.576,2.095v4.326A7.826,7.826,0,0,0,97.81,42.9a3.607,3.607,0,0,0,.332.933V44h-3.3a4.348,4.348,0,0,1-.347-1.2A9.308,9.308,0,0,1,94.382,41.344Zm.4-3.8L94.8,39.3H93.347a2.1,2.1,0,0,0-.776.127,1.292,1.292,0,0,0-.508.347,1.34,1.34,0,0,0-.273.493,1.973,1.973,0,0,0-.083.576.965.965,0,0,0,.527.879,1.167,1.167,0,0,0,.547.127,1.926,1.926,0,0,0,.933-.21,1.643,1.643,0,0,0,.591-.513,1.026,1.026,0,0,0,.205-.566l.723,1.348q-.2.391-.444.791a3.545,3.545,0,0,1-.615.737,2.873,2.873,0,0,1-.894.547A3.463,3.463,0,0,1,92,44.2a4.01,4.01,0,0,1-1.792-.4,3.306,3.306,0,0,1-1.3-1.118,2.872,2.872,0,0,1-.488-1.655,3.454,3.454,0,0,1,.3-1.465,2.827,2.827,0,0,1,.9-1.094,4.327,4.327,0,0,1,1.543-.684,9.176,9.176,0,0,1,2.207-.234Zm10.811,4.033V29H108.9V44h-2.969Zm-6.484-2.734v-.205a8.521,8.521,0,0,1,.264-2.192,5.159,5.159,0,0,1,.781-1.709,3.546,3.546,0,0,1,1.289-1.108,3.882,3.882,0,0,1,1.777-.391,2.937,2.937,0,0,1,1.572.415,3.655,3.655,0,0,1,1.152,1.157,6.905,6.905,0,0,1,.781,1.733,13.62,13.62,0,0,1,.459,2.134v.244a12.725,12.725,0,0,1-.459,2.026,6.868,6.868,0,0,1-.781,1.685,3.668,3.668,0,0,1-1.157,1.147,2.981,2.981,0,0,1-1.587.415,3.774,3.774,0,0,1-1.772-.4,3.588,3.588,0,0,1-1.279-1.123,5.291,5.291,0,0,1-.776-1.7A8.149,8.149,0,0,1,99.108,38.844Zm3.291-.205v.205a7.273,7.273,0,0,0,.078,1.1,3.062,3.062,0,0,0,.269.894,1.517,1.517,0,0,0,.508.6,1.371,1.371,0,0,0,.786.215,1.735,1.735,0,0,0,1.05-.3,1.77,1.77,0,0,0,.615-.859,3.463,3.463,0,0,0,.171-1.309v-.771a4.709,4.709,0,0,0-.088-1.138,2.3,2.3,0,0,0-.337-.825,1.5,1.5,0,0,0-.576-.5,1.824,1.824,0,0,0-.815-.171,1.353,1.353,0,0,0-.776.215,1.554,1.554,0,0,0-.513.6,3.168,3.168,0,0,0-.283.908A6.871,6.871,0,0,0,102.4,38.639Zm7.959.186v-.205a6.651,6.651,0,0,1,.332-2.144,4.873,4.873,0,0,1,.977-1.7,4.438,4.438,0,0,1,1.592-1.128,5.521,5.521,0,0,1,2.188-.405,5.584,5.584,0,0,1,2.2.405,4.429,4.429,0,0,1,1.6,1.128,4.873,4.873,0,0,1,.977,1.7,6.651,6.651,0,0,1,.332,2.144v.205a6.619,6.619,0,0,1-.332,2.134,4.924,4.924,0,0,1-.977,1.709,4.36,4.36,0,0,1-1.592,1.128,5.58,5.58,0,0,1-2.187.4,5.653,5.653,0,0,1-2.2-.4,4.343,4.343,0,0,1-1.6-1.128,4.924,4.924,0,0,1-.977-1.709A6.619,6.619,0,0,1,110.358,38.824Zm3.291-.205v.205a6.655,6.655,0,0,0,.088,1.113,2.976,2.976,0,0,0,.293.9,1.527,1.527,0,0,0,.557.6,1.659,1.659,0,0,0,.879.215,1.613,1.613,0,0,0,.864-.215,1.539,1.539,0,0,0,.552-.6,2.976,2.976,0,0,0,.293-.9,6.655,6.655,0,0,0,.088-1.113v-.205a6.443,6.443,0,0,0-.088-1.089,3.1,3.1,0,0,0-.293-.908,1.583,1.583,0,0,0-.557-.62,1.6,1.6,0,0,0-.879-.225,1.558,1.558,0,0,0-.864.225,1.6,1.6,0,0,0-.552.62,3.1,3.1,0,0,0-.293.908A6.443,6.443,0,0,0,113.649,38.619Z" transform="translate(-5453 5156)" fill="#fff"/>
      <path id="Trazado_1017164" data-name="Trazado 1017164" d="M11.426,10.514h1.6a2.066,2.066,0,0,0,1.011-.22,1.389,1.389,0,0,0,.591-.625,2.2,2.2,0,0,0,.2-.962,1.744,1.744,0,0,0-.181-.791,1.392,1.392,0,0,0-.552-.581,1.838,1.838,0,0,0-.947-.22,1.9,1.9,0,0,0-.762.161,1.591,1.591,0,0,0-.61.454,1.091,1.091,0,0,0-.239.713h-3.3A3.289,3.289,0,0,1,8.9,6.368,4.3,4.3,0,0,1,10.669,5.04a6.025,6.025,0,0,1,2.368-.464,7.026,7.026,0,0,1,2.656.464,3.931,3.931,0,0,1,1.782,1.367,3.764,3.764,0,0,1,.64,2.231,2.9,2.9,0,0,1-.342,1.377,3.588,3.588,0,0,1-.957,1.133,4.72,4.72,0,0,1-1.44.767,5.606,5.606,0,0,1-1.8.278H11.426Zm0,2.451V11.324h2.148a7.39,7.39,0,0,1,1.943.239,4.518,4.518,0,0,1,1.514.708,3.181,3.181,0,0,1,.977,1.157,3.5,3.5,0,0,1,.342,1.577,3.841,3.841,0,0,1-.4,1.777A3.766,3.766,0,0,1,16.826,18.1a5.226,5.226,0,0,1-1.689.815,7.564,7.564,0,0,1-2.1.278,6.811,6.811,0,0,1-1.777-.239,5.252,5.252,0,0,1-1.621-.742,3.824,3.824,0,0,1-1.177-1.289,3.761,3.761,0,0,1-.444-1.88h3.3a1.418,1.418,0,0,0,.249.815,1.762,1.762,0,0,0,.669.581,1.965,1.965,0,0,0,.908.215,2.141,2.141,0,0,0,1.03-.229,1.614,1.614,0,0,0,.649-.62,1.712,1.712,0,0,0,.225-.869,2.37,2.37,0,0,0-.239-1.152,1.41,1.41,0,0,0-.693-.625,2.747,2.747,0,0,0-1.089-.2Zm8.857,4.492a1.544,1.544,0,0,1,.508-1.177,2.051,2.051,0,0,1,2.622,0,1.628,1.628,0,0,1,0,2.354,2.051,2.051,0,0,1-2.622,0A1.544,1.544,0,0,1,20.283,17.457Zm16.65-3.281H33.4V11.529h3.535a2.448,2.448,0,0,0,1.172-.244,1.509,1.509,0,0,0,.659-.679,2.228,2.228,0,0,0,.21-.981,2.762,2.762,0,0,0-.21-1.084,1.81,1.81,0,0,0-.659-.806,2.035,2.035,0,0,0-1.172-.308H34.688V19H31.26V4.781h5.674a6.452,6.452,0,0,1,2.944.625,4.59,4.59,0,0,1,1.9,1.714,4.677,4.677,0,0,1,.664,2.485,4.321,4.321,0,0,1-.664,2.4,4.39,4.39,0,0,1-1.9,1.6A6.966,6.966,0,0,1,36.934,14.176Zm10.518-3.125V19H44.16V8.434h3.076Zm3.125-2.7-.059,3.057-.527-.049q-.332-.029-.557-.029a3.293,3.293,0,0,0-.991.132,1.715,1.715,0,0,0-.684.391,1.508,1.508,0,0,0-.391.649,2.868,2.868,0,0,0-.112.908l-.6-.391a8.306,8.306,0,0,1,.21-1.938,5.233,5.233,0,0,1,.6-1.514,2.935,2.935,0,0,1,.947-.986,2.316,2.316,0,0,1,1.25-.347,3.974,3.974,0,0,1,.483.029A2.376,2.376,0,0,1,50.576,8.355Zm.371,5.469v-.205a6.651,6.651,0,0,1,.332-2.144,4.873,4.873,0,0,1,.977-1.7,4.438,4.438,0,0,1,1.592-1.128,5.521,5.521,0,0,1,2.188-.405,5.584,5.584,0,0,1,2.2.405,4.429,4.429,0,0,1,1.6,1.128,4.873,4.873,0,0,1,.977,1.7,6.651,6.651,0,0,1,.332,2.144v.205a6.619,6.619,0,0,1-.332,2.134,4.924,4.924,0,0,1-.977,1.709,4.36,4.36,0,0,1-1.592,1.128,5.58,5.58,0,0,1-2.187.4,5.653,5.653,0,0,1-2.2-.4,4.343,4.343,0,0,1-1.6-1.128,4.924,4.924,0,0,1-.977-1.709A6.619,6.619,0,0,1,50.947,13.824Zm3.291-.205v.205a6.655,6.655,0,0,0,.088,1.113,2.976,2.976,0,0,0,.293.9,1.527,1.527,0,0,0,.557.6,1.659,1.659,0,0,0,.879.215,1.613,1.613,0,0,0,.864-.215,1.539,1.539,0,0,0,.552-.6,2.976,2.976,0,0,0,.293-.9,6.655,6.655,0,0,0,.088-1.113v-.205a6.443,6.443,0,0,0-.088-1.089,3.1,3.1,0,0,0-.293-.908,1.583,1.583,0,0,0-.557-.62,1.6,1.6,0,0,0-.879-.225,1.558,1.558,0,0,0-.864.225,1.6,1.6,0,0,0-.552.62,3.1,3.1,0,0,0-.293.908A6.443,6.443,0,0,0,54.238,13.619Zm12.822,3.037a1.679,1.679,0,0,0,.786-.171,1.163,1.163,0,0,0,.5-.488,1.525,1.525,0,0,0,.161-.767h3.1a3.637,3.637,0,0,1-.581,2.085,3.957,3.957,0,0,1-1.6,1.387,5.133,5.133,0,0,1-2.28.493,5.379,5.379,0,0,1-2.168-.405,4.219,4.219,0,0,1-1.548-1.133,4.831,4.831,0,0,1-.928-1.7,7.02,7.02,0,0,1-.308-2.119v-.225a7.067,7.067,0,0,1,.308-2.124,4.825,4.825,0,0,1,.928-1.709,4.228,4.228,0,0,1,1.543-1.133,5.317,5.317,0,0,1,2.153-.405,5.2,5.2,0,0,1,2.329.5,3.765,3.765,0,0,1,1.587,1.445,4.274,4.274,0,0,1,.566,2.295h-3.1a2.13,2.13,0,0,0-.146-.859,1.358,1.358,0,0,0-.483-.61,1.421,1.421,0,0,0-.835-.229,1.275,1.275,0,0,0-1.294.845,3.313,3.313,0,0,0-.215.9,10.326,10.326,0,0,0-.054,1.084v.225a10.569,10.569,0,0,0,.054,1.1,3.081,3.081,0,0,0,.22.9,1.393,1.393,0,0,0,.479.605A1.416,1.416,0,0,0,67.061,16.656ZM78.115,19.2a6.177,6.177,0,0,1-2.3-.405,4.832,4.832,0,0,1-2.778-2.759,5.3,5.3,0,0,1-.366-1.963V13.7a6.928,6.928,0,0,1,.322-2.153,5.024,5.024,0,0,1,.957-1.733,4.32,4.32,0,0,1,1.592-1.157,5.557,5.557,0,0,1,2.227-.415,5.3,5.3,0,0,1,2.012.361,4.137,4.137,0,0,1,1.509,1.035,4.542,4.542,0,0,1,.947,1.631,6.617,6.617,0,0,1,.327,2.148v1.338H73.926V12.691h5.42v-.254a1.871,1.871,0,0,0-.181-.9,1.306,1.306,0,0,0-.552-.566,1.826,1.826,0,0,0-.879-.2,1.45,1.45,0,0,0-1.421.874,3.335,3.335,0,0,0-.269.933,7.6,7.6,0,0,0-.078,1.113v.371a3.321,3.321,0,0,0,.161,1.064,2.262,2.262,0,0,0,.469.815,2.117,2.117,0,0,0,.742.522,2.5,2.5,0,0,0,.991.186,3.644,3.644,0,0,0,1.328-.254,2.654,2.654,0,0,0,1.123-.84l1.494,1.777a3.905,3.905,0,0,1-.913.889,5.056,5.056,0,0,1-1.411.7A5.882,5.882,0,0,1,78.115,19.2Zm11.855-2.617V4h3.311V19H90.313Zm-6.484-2.734v-.205a8.521,8.521,0,0,1,.264-2.192,5.159,5.159,0,0,1,.781-1.709A3.546,3.546,0,0,1,85.82,8.629,3.882,3.882,0,0,1,87.6,8.238a2.937,2.937,0,0,1,1.572.415,3.655,3.655,0,0,1,1.152,1.157,6.905,6.905,0,0,1,.781,1.733,13.62,13.62,0,0,1,.459,2.134v.244a12.725,12.725,0,0,1-.459,2.026,6.868,6.868,0,0,1-.781,1.685,3.668,3.668,0,0,1-1.157,1.147,2.981,2.981,0,0,1-1.587.415,3.774,3.774,0,0,1-1.772-.4,3.588,3.588,0,0,1-1.279-1.123,5.291,5.291,0,0,1-.776-1.7A8.149,8.149,0,0,1,83.486,13.844Zm3.291-.205v.205a7.273,7.273,0,0,0,.078,1.1,3.062,3.062,0,0,0,.269.894,1.517,1.517,0,0,0,.508.6,1.371,1.371,0,0,0,.786.215,1.735,1.735,0,0,0,1.05-.3,1.77,1.77,0,0,0,.615-.859,3.463,3.463,0,0,0,.171-1.309v-.771a4.709,4.709,0,0,0-.088-1.138,2.3,2.3,0,0,0-.337-.825,1.5,1.5,0,0,0-.576-.5,1.824,1.824,0,0,0-.815-.171,1.353,1.353,0,0,0-.776.215,1.554,1.554,0,0,0-.513.6,3.168,3.168,0,0,0-.283.908A6.871,6.871,0,0,0,86.777,13.639ZM98.623,8.434V19h-3.3V8.434Zm-3.5-2.725a1.469,1.469,0,0,1,.508-1.152,2.159,2.159,0,0,1,2.637,0,1.469,1.469,0,0,1,.508,1.152,1.469,1.469,0,0,1-.508,1.152,2.159,2.159,0,0,1-2.637,0A1.469,1.469,0,0,1,95.127,5.709Zm8.838,4.961V19h-3.291V8.434h3.086Zm-.4,2.686-.752.02a7.555,7.555,0,0,1,.264-2.051,4.926,4.926,0,0,1,.781-1.631,3.582,3.582,0,0,1,1.274-1.074,3.85,3.85,0,0,1,1.753-.381,3.6,3.6,0,0,1,1.26.21,2.488,2.488,0,0,1,.977.654,2.966,2.966,0,0,1,.63,1.152,5.755,5.755,0,0,1,.22,1.694V19H106.68V12.369a2.621,2.621,0,0,0-.151-1.016.827.827,0,0,0-.435-.459,1.816,1.816,0,0,0-.693-.117,1.527,1.527,0,0,0-.771.2,1.77,1.77,0,0,0-.581.542,2.556,2.556,0,0,0-.361.815A4.063,4.063,0,0,0,103.564,13.355Zm6.035,0-.918.02a7.974,7.974,0,0,1,.249-2.051,4.882,4.882,0,0,1,.752-1.631,3.466,3.466,0,0,1,1.255-1.074,3.819,3.819,0,0,1,1.748-.381,3.947,3.947,0,0,1,1.328.215,2.563,2.563,0,0,1,1.045.693,3.276,3.276,0,0,1,.684,1.265,6.616,6.616,0,0,1,.244,1.938V19h-3.3V12.35a2.517,2.517,0,0,0-.151-.991.849.849,0,0,0-.435-.459,1.7,1.7,0,0,0-.674-.122,1.607,1.607,0,0,0-.811.2,1.68,1.68,0,0,0-.571.542,2.458,2.458,0,0,0-.337.815A4.59,4.59,0,0,0,109.6,13.355Zm11.748-4.922V19h-3.3V8.434Zm-3.5-2.725a1.469,1.469,0,0,1,.508-1.152,2.159,2.159,0,0,1,2.637,0,1.469,1.469,0,0,1,.508,1.152A1.469,1.469,0,0,1,121,6.861a2.159,2.159,0,0,1-2.637,0A1.469,1.469,0,0,1,117.852,5.709ZM128.486,19.2a6.177,6.177,0,0,1-2.3-.405,4.832,4.832,0,0,1-2.778-2.759,5.3,5.3,0,0,1-.366-1.963V13.7a6.928,6.928,0,0,1,.322-2.153,5.024,5.024,0,0,1,.957-1.733,4.32,4.32,0,0,1,1.592-1.157,5.557,5.557,0,0,1,2.227-.415,5.3,5.3,0,0,1,2.012.361,4.137,4.137,0,0,1,1.509,1.035,4.542,4.542,0,0,1,.947,1.631,6.617,6.617,0,0,1,.327,2.148v1.338H124.3V12.691h5.42v-.254a1.871,1.871,0,0,0-.181-.9,1.306,1.306,0,0,0-.552-.566,1.826,1.826,0,0,0-.879-.2,1.45,1.45,0,0,0-1.421.874,3.335,3.335,0,0,0-.269.933,7.6,7.6,0,0,0-.078,1.113v.371a3.321,3.321,0,0,0,.161,1.064,2.262,2.262,0,0,0,.469.815,2.117,2.117,0,0,0,.742.522,2.5,2.5,0,0,0,.991.186,3.644,3.644,0,0,0,1.328-.254,2.654,2.654,0,0,0,1.123-.84l1.494,1.777a3.906,3.906,0,0,1-.913.889,5.056,5.056,0,0,1-1.411.7A5.882,5.882,0,0,1,128.486,19.2Zm9.014-8.506V19h-3.291V8.434h3.086Zm-.391,2.666-.771.02a7.352,7.352,0,0,1,.293-2.163,4.768,4.768,0,0,1,.83-1.616,3.568,3.568,0,0,1,1.284-1.011,3.908,3.908,0,0,1,1.665-.347,4.02,4.02,0,0,1,1.343.215,2.6,2.6,0,0,1,1.055.693,3.193,3.193,0,0,1,.684,1.265,6.743,6.743,0,0,1,.239,1.938V19H140.42V12.34a2.149,2.149,0,0,0-.176-.972.941.941,0,0,0-.508-.464,2.278,2.278,0,0,0-.811-.127,1.747,1.747,0,0,0-.859.2,1.5,1.5,0,0,0-.562.542,2.5,2.5,0,0,0-.3.815A5.289,5.289,0,0,0,137.109,13.355Zm14.014-4.922v2.285h-6.367V8.434Zm-5.029-2.627h3.291v9.746a1.712,1.712,0,0,0,.1.649.577.577,0,0,0,.337.322,1.809,1.809,0,0,0,.64.093q.283,0,.469-.015t.352-.044v2.354a5.774,5.774,0,0,1-.879.21,6.2,6.2,0,0,1-.977.073,4.419,4.419,0,0,1-1.8-.332,2.353,2.353,0,0,1-1.138-1.045,3.848,3.848,0,0,1-.391-1.855Zm5.635,8.018v-.205a6.651,6.651,0,0,1,.332-2.144,4.873,4.873,0,0,1,.977-1.7,4.438,4.438,0,0,1,1.592-1.128,5.521,5.521,0,0,1,2.188-.405,5.584,5.584,0,0,1,2.2.405,4.429,4.429,0,0,1,1.6,1.128,4.873,4.873,0,0,1,.977,1.7,6.651,6.651,0,0,1,.332,2.144v.205a6.619,6.619,0,0,1-.332,2.134,4.924,4.924,0,0,1-.977,1.709,4.36,4.36,0,0,1-1.592,1.128,5.58,5.58,0,0,1-2.187.4,5.653,5.653,0,0,1-2.2-.4,4.343,4.343,0,0,1-1.6-1.128,4.924,4.924,0,0,1-.977-1.709A6.619,6.619,0,0,1,151.729,13.824Zm3.291-.205v.205a6.655,6.655,0,0,0,.088,1.113,2.976,2.976,0,0,0,.293.9,1.527,1.527,0,0,0,.557.6,1.659,1.659,0,0,0,.879.215,1.613,1.613,0,0,0,.864-.215,1.539,1.539,0,0,0,.552-.6,2.976,2.976,0,0,0,.293-.9,6.655,6.655,0,0,0,.088-1.113v-.205a6.443,6.443,0,0,0-.088-1.089,3.1,3.1,0,0,0-.293-.908A1.583,1.583,0,0,0,157.7,11a1.6,1.6,0,0,0-.879-.225,1.558,1.558,0,0,0-.864.225,1.6,1.6,0,0,0-.552.62,3.1,3.1,0,0,0-.293.908A6.443,6.443,0,0,0,155.02,13.619ZM28.608,41.578V29h3.311V44H28.95Zm-6.484-2.734v-.205a8.521,8.521,0,0,1,.264-2.192,5.159,5.159,0,0,1,.781-1.709,3.546,3.546,0,0,1,1.289-1.108,3.882,3.882,0,0,1,1.777-.391,2.937,2.937,0,0,1,1.572.415,3.655,3.655,0,0,1,1.152,1.157,6.905,6.905,0,0,1,.781,1.733,13.62,13.62,0,0,1,.459,2.134v.244a12.725,12.725,0,0,1-.459,2.026,6.868,6.868,0,0,1-.781,1.685A3.668,3.668,0,0,1,27.8,43.78a2.981,2.981,0,0,1-1.587.415,3.774,3.774,0,0,1-1.772-.4,3.588,3.588,0,0,1-1.279-1.123,5.291,5.291,0,0,1-.776-1.7A8.149,8.149,0,0,1,22.124,38.844Zm3.291-.205v.205a7.273,7.273,0,0,0,.078,1.1,3.062,3.062,0,0,0,.269.894,1.517,1.517,0,0,0,.508.6,1.371,1.371,0,0,0,.786.215,1.735,1.735,0,0,0,1.05-.3,1.77,1.77,0,0,0,.615-.859,3.463,3.463,0,0,0,.171-1.309v-.771a4.709,4.709,0,0,0-.088-1.138,2.3,2.3,0,0,0-.337-.825,1.5,1.5,0,0,0-.576-.5,1.824,1.824,0,0,0-.815-.171,1.353,1.353,0,0,0-.776.215,1.554,1.554,0,0,0-.513.6,3.168,3.168,0,0,0-.283.908A6.871,6.871,0,0,0,25.415,38.639ZM38.9,44.2a6.177,6.177,0,0,1-2.3-.405,4.832,4.832,0,0,1-2.778-2.759,5.3,5.3,0,0,1-.366-1.963V38.7a6.928,6.928,0,0,1,.322-2.153,5.024,5.024,0,0,1,.957-1.733,4.32,4.32,0,0,1,1.592-1.157,5.557,5.557,0,0,1,2.227-.415,5.3,5.3,0,0,1,2.012.361,4.137,4.137,0,0,1,1.509,1.035,4.542,4.542,0,0,1,.947,1.631,6.617,6.617,0,0,1,.327,2.148v1.338H34.712V37.691h5.42v-.254a1.871,1.871,0,0,0-.181-.9,1.306,1.306,0,0,0-.552-.566,1.826,1.826,0,0,0-.879-.2,1.45,1.45,0,0,0-1.421.874,3.335,3.335,0,0,0-.269.933,7.6,7.6,0,0,0-.078,1.113v.371a3.321,3.321,0,0,0,.161,1.064,2.262,2.262,0,0,0,.469.815,2.117,2.117,0,0,0,.742.522,2.5,2.5,0,0,0,.991.186,3.644,3.644,0,0,0,1.328-.254,2.654,2.654,0,0,0,1.123-.84l1.494,1.777a3.905,3.905,0,0,1-.913.889,5.056,5.056,0,0,1-1.411.7A5.882,5.882,0,0,1,38.9,44.2ZM53.14,29V44h-3.3V29Zm7.51,12.344V36.988a2.1,2.1,0,0,0-.127-.771,1.044,1.044,0,0,0-.4-.5,1.312,1.312,0,0,0-.732-.181,1.452,1.452,0,0,0-.635.127.873.873,0,0,0-.4.381,1.351,1.351,0,0,0-.137.645H54.927a2.912,2.912,0,0,1,.327-1.362,3.3,3.3,0,0,1,.938-1.1,4.54,4.54,0,0,1,1.465-.728,6.574,6.574,0,0,1,1.909-.259,5.722,5.722,0,0,1,2.251.42,3.527,3.527,0,0,1,1.567,1.255,3.6,3.6,0,0,1,.576,2.095v4.326a7.826,7.826,0,0,0,.117,1.567,3.607,3.607,0,0,0,.332.933V44h-3.3a4.348,4.348,0,0,1-.347-1.2A9.307,9.307,0,0,1,60.649,41.344Zm.4-3.8.02,1.758H59.614a2.1,2.1,0,0,0-.776.127,1.292,1.292,0,0,0-.508.347,1.34,1.34,0,0,0-.273.493,1.973,1.973,0,0,0-.083.576.965.965,0,0,0,.527.879,1.167,1.167,0,0,0,.547.127,1.926,1.926,0,0,0,.933-.21,1.643,1.643,0,0,0,.591-.513,1.026,1.026,0,0,0,.205-.566L61.5,41.91q-.2.391-.444.791a3.545,3.545,0,0,1-.615.737,2.873,2.873,0,0,1-.894.547,3.463,3.463,0,0,1-1.279.21,4.01,4.01,0,0,1-1.792-.4,3.306,3.306,0,0,1-1.3-1.118,2.872,2.872,0,0,1-.488-1.655,3.454,3.454,0,0,1,.3-1.465,2.827,2.827,0,0,1,.9-1.094,4.327,4.327,0,0,1,1.543-.684,9.176,9.176,0,0,1,2.207-.234ZM75.884,44.2a6.177,6.177,0,0,1-2.3-.405A4.832,4.832,0,0,1,70.8,41.031a5.3,5.3,0,0,1-.366-1.963V38.7a6.928,6.928,0,0,1,.322-2.153,5.024,5.024,0,0,1,.957-1.733,4.32,4.32,0,0,1,1.592-1.157,5.557,5.557,0,0,1,2.227-.415,5.3,5.3,0,0,1,2.012.361,4.137,4.137,0,0,1,1.509,1.035A4.542,4.542,0,0,1,80,36.266a6.617,6.617,0,0,1,.327,2.148v1.338H71.694V37.691h5.42v-.254a1.871,1.871,0,0,0-.181-.9,1.306,1.306,0,0,0-.552-.566,1.826,1.826,0,0,0-.879-.2,1.45,1.45,0,0,0-1.421.874,3.335,3.335,0,0,0-.269.933,7.6,7.6,0,0,0-.078,1.113v.371a3.321,3.321,0,0,0,.161,1.064,2.262,2.262,0,0,0,.469.815,2.117,2.117,0,0,0,.742.522,2.5,2.5,0,0,0,.991.186,3.644,3.644,0,0,0,1.328-.254,2.654,2.654,0,0,0,1.123-.84l1.494,1.777a3.905,3.905,0,0,1-.913.889,5.056,5.056,0,0,1-1.411.7A5.882,5.882,0,0,1,75.884,44.2Zm9.1-8.525V44H81.694V33.434H84.78Zm-.4,2.686-.752.02a7.555,7.555,0,0,1,.264-2.051,4.926,4.926,0,0,1,.781-1.631,3.582,3.582,0,0,1,1.274-1.074,3.85,3.85,0,0,1,1.753-.381,3.6,3.6,0,0,1,1.26.21,2.488,2.488,0,0,1,.977.654,2.966,2.966,0,0,1,.63,1.152,5.755,5.755,0,0,1,.22,1.694V44H87.7V37.369a2.621,2.621,0,0,0-.151-1.016.827.827,0,0,0-.435-.459,1.816,1.816,0,0,0-.693-.117,1.527,1.527,0,0,0-.771.2,1.77,1.77,0,0,0-.581.542,2.556,2.556,0,0,0-.361.815A4.063,4.063,0,0,0,84.585,38.355Zm6.035,0-.918.02a7.974,7.974,0,0,1,.249-2.051,4.882,4.882,0,0,1,.752-1.631,3.466,3.466,0,0,1,1.255-1.074,3.819,3.819,0,0,1,1.748-.381,3.947,3.947,0,0,1,1.328.215,2.563,2.563,0,0,1,1.045.693,3.276,3.276,0,0,1,.684,1.265,6.616,6.616,0,0,1,.244,1.938V44h-3.3V37.35a2.517,2.517,0,0,0-.151-.991.849.849,0,0,0-.435-.459,1.7,1.7,0,0,0-.674-.122,1.607,1.607,0,0,0-.811.2,1.68,1.68,0,0,0-.571.542,2.458,2.458,0,0,0-.337.815A4.59,4.59,0,0,0,90.62,38.355Zm11.592-2.891v12.6H98.921V33.434h3.066ZM108.7,38.59v.205a8.26,8.26,0,0,1-.264,2.139,5.337,5.337,0,0,1-.781,1.719,3.641,3.641,0,0,1-1.284,1.138,3.737,3.737,0,0,1-1.772.405,3.055,3.055,0,0,1-1.631-.42,3.486,3.486,0,0,1-1.143-1.162,6.981,6.981,0,0,1-.742-1.7,15.582,15.582,0,0,1-.449-2.021v-.264a15.928,15.928,0,0,1,.449-2.124,6.722,6.722,0,0,1,.742-1.714,3.439,3.439,0,0,1,1.138-1.143,3.086,3.086,0,0,1,1.626-.41,3.934,3.934,0,0,1,1.772.381,3.545,3.545,0,0,1,1.289,1.089,4.994,4.994,0,0,1,.786,1.694A8.465,8.465,0,0,1,108.7,38.59Zm-3.291.205V38.59a6.7,6.7,0,0,0-.088-1.128,3.2,3.2,0,0,0-.278-.894,1.464,1.464,0,0,0-.5-.586,1.377,1.377,0,0,0-.771-.205,2.144,2.144,0,0,0-.884.161,1.291,1.291,0,0,0-.566.488,2.167,2.167,0,0,0-.293.811,6.185,6.185,0,0,0-.073,1.128v.8a4.217,4.217,0,0,0,.146,1.3,1.648,1.648,0,0,0,.576.874,1.794,1.794,0,0,0,1.113.313,1.325,1.325,0,0,0,.781-.22,1.521,1.521,0,0,0,.5-.615,3.305,3.305,0,0,0,.264-.913A7.469,7.469,0,0,0,105.405,38.795Zm8.066-2.744V44h-3.291V33.434h3.076Zm3.125-2.7-.059,3.057-.527-.049q-.332-.029-.557-.029a3.293,3.293,0,0,0-.991.132,1.715,1.715,0,0,0-.684.391,1.508,1.508,0,0,0-.391.649,2.868,2.868,0,0,0-.112.908l-.6-.391a8.305,8.305,0,0,1,.21-1.938,5.234,5.234,0,0,1,.6-1.514,2.935,2.935,0,0,1,.947-.986,2.316,2.316,0,0,1,1.25-.347,3.974,3.974,0,0,1,.483.029A2.376,2.376,0,0,1,116.6,33.355Zm6.064,10.84a6.177,6.177,0,0,1-2.3-.405,4.832,4.832,0,0,1-2.778-2.759,5.3,5.3,0,0,1-.366-1.963V38.7a6.928,6.928,0,0,1,.322-2.153,5.024,5.024,0,0,1,.957-1.733,4.32,4.32,0,0,1,1.592-1.157,5.557,5.557,0,0,1,2.227-.415,5.3,5.3,0,0,1,2.012.361,4.137,4.137,0,0,1,1.509,1.035,4.542,4.542,0,0,1,.947,1.631,6.617,6.617,0,0,1,.327,2.148v1.338h-8.633V37.691h5.42v-.254a1.871,1.871,0,0,0-.181-.9,1.306,1.306,0,0,0-.552-.566,1.826,1.826,0,0,0-.879-.2,1.45,1.45,0,0,0-1.421.874,3.335,3.335,0,0,0-.269.933,7.6,7.6,0,0,0-.078,1.113v.371a3.321,3.321,0,0,0,.161,1.064,2.262,2.262,0,0,0,.469.815,2.117,2.117,0,0,0,.742.522,2.5,2.5,0,0,0,.991.186A3.644,3.644,0,0,0,124.2,41.4a2.654,2.654,0,0,0,1.123-.84l1.494,1.777a3.905,3.905,0,0,1-.913.889,5.056,5.056,0,0,1-1.411.7A5.882,5.882,0,0,1,122.661,44.2Zm11.318-3.164a.684.684,0,0,0-.181-.474,1.639,1.639,0,0,0-.63-.371,9.208,9.208,0,0,0-1.26-.347,8.864,8.864,0,0,1-1.45-.439,5,5,0,0,1-1.187-.664,2.882,2.882,0,0,1-.8-.928,2.563,2.563,0,0,1-.288-1.23,2.91,2.91,0,0,1,.288-1.274,3.138,3.138,0,0,1,.85-1.064,4.206,4.206,0,0,1,1.372-.732,5.858,5.858,0,0,1,1.846-.269,6.335,6.335,0,0,1,2.461.435,3.658,3.658,0,0,1,1.6,1.211,2.978,2.978,0,0,1,.562,1.792h-3.291a1.611,1.611,0,0,0-.132-.684.916.916,0,0,0-.425-.435,1.71,1.71,0,0,0-.781-.151,1.477,1.477,0,0,0-.62.127,1.115,1.115,0,0,0-.444.352.863.863,0,0,0-.166.527.735.735,0,0,0,.1.386,1,1,0,0,0,.317.313,2.389,2.389,0,0,0,.547.254,5.965,5.965,0,0,0,.8.2,10.9,10.9,0,0,1,1.992.557,3.789,3.789,0,0,1,1.509,1.025,2.618,2.618,0,0,1,.581,1.787,2.658,2.658,0,0,1-.322,1.294,3.166,3.166,0,0,1-.928,1.035,4.568,4.568,0,0,1-1.455.688,6.93,6.93,0,0,1-1.914.244,5.507,5.507,0,0,1-2.559-.542,4.022,4.022,0,0,1-1.577-1.367,3.06,3.06,0,0,1-.532-1.675h3.066a1.466,1.466,0,0,0,.239.8,1.277,1.277,0,0,0,.591.459,2.33,2.33,0,0,0,.859.146,1.913,1.913,0,0,0,.747-.127,1.04,1.04,0,0,0,.454-.347A.862.862,0,0,0,133.979,41.031Zm10.205.313V36.988a2.1,2.1,0,0,0-.127-.771,1.044,1.044,0,0,0-.4-.5,1.312,1.312,0,0,0-.732-.181,1.452,1.452,0,0,0-.635.127.873.873,0,0,0-.4.381,1.351,1.351,0,0,0-.137.645h-3.291a2.912,2.912,0,0,1,.327-1.362,3.3,3.3,0,0,1,.938-1.1,4.54,4.54,0,0,1,1.465-.728,6.574,6.574,0,0,1,1.909-.259,5.722,5.722,0,0,1,2.251.42,3.527,3.527,0,0,1,1.567,1.255,3.6,3.6,0,0,1,.576,2.095v4.326a7.826,7.826,0,0,0,.117,1.567,3.607,3.607,0,0,0,.332.933V44h-3.3a4.348,4.348,0,0,1-.347-1.2A9.307,9.307,0,0,1,144.185,41.344Zm.4-3.8.02,1.758h-1.455a2.1,2.1,0,0,0-.776.127,1.292,1.292,0,0,0-.508.347,1.34,1.34,0,0,0-.273.493,1.973,1.973,0,0,0-.083.576.965.965,0,0,0,.527.879,1.167,1.167,0,0,0,.547.127,1.926,1.926,0,0,0,.933-.21,1.643,1.643,0,0,0,.591-.513,1.026,1.026,0,0,0,.205-.566l.723,1.348q-.2.391-.444.791a3.545,3.545,0,0,1-.615.737,2.873,2.873,0,0,1-.894.547,3.463,3.463,0,0,1-1.279.21,4.01,4.01,0,0,1-1.792-.4,3.306,3.306,0,0,1-1.3-1.118,2.872,2.872,0,0,1-.488-1.655,3.454,3.454,0,0,1,.3-1.465,2.827,2.827,0,0,1,.9-1.094,4.327,4.327,0,0,1,1.543-.684,9.176,9.176,0,0,1,2.207-.234Z" transform="translate(-5470 5434)" fill="#fff"/>
      <g id="Grupo_1183762" data-name="Grupo 1183762" transform="translate(-5427.934 4780.935)">
        <g id="Icon" transform="translate(4.319 6.388)">
          <path id="Trazado_1016765" data-name="Trazado 1016765" d="M72.86,28.923,40.93,41.417,9,28.923,40.34,22.11a2.777,2.777,0,0,1,1.18,0Z" transform="translate(-1.964 0.23)" fill="#c47218"/>
          <path id="Trazado_1016766" data-name="Trazado 1016766" d="M32,39.494V74.2L62.165,62.4a2.777,2.777,0,0,0,1.765-2.586V27Z" transform="translate(6.966 2.153)" fill="#ffa000"/>
          <path id="Trazado_1016767" data-name="Trazado 1016767" d="M9,27V59.812A2.777,2.777,0,0,0,10.765,62.4L40.93,74.2V39.494Z" transform="translate(-1.964 2.153)" fill="#ffb300"/>
          <path id="Trazado_1016768" data-name="Trazado 1016768" d="M69.2,42.08,42.515,52.522a2.776,2.776,0,0,1-3.393-1.157L32,39.494,63.93,27l6.639,11.066A2.777,2.777,0,0,1,69.2,42.08Z" transform="translate(6.966 2.153)" fill="#ffca28"/>
          <path id="Trazado_1016769" data-name="Trazado 1016769" d="M5.7,42.08,32.383,52.522a2.777,2.777,0,0,0,3.393-1.157L42.9,39.494,10.968,27,4.328,38.066A2.777,2.777,0,0,0,5.7,42.08Z" transform="translate(-3.932 2.153)" fill="#ffca28"/>
          <circle id="Elipse_16588" data-name="Elipse 16588" cx="17" cy="17" r="17" transform="translate(21.966 -0.323)" fill="#7cb342"/>
          <path id="Trazado_1016770" data-name="Trazado 1016770" d="M43.047,17.941H37.494V12.388A1.388,1.388,0,0,0,36.106,11H33.33a1.388,1.388,0,0,0-1.388,1.388v5.553H26.388A1.388,1.388,0,0,0,25,19.33v2.777a1.388,1.388,0,0,0,1.388,1.388h5.553v5.553a1.388,1.388,0,0,0,1.388,1.388h2.777a1.388,1.388,0,0,0,1.388-1.388V23.494h5.553a1.388,1.388,0,0,0,1.388-1.388V19.33A1.388,1.388,0,0,0,43.047,17.941Z" transform="translate(4.248 -4.059)" fill="#e0e0e0"/>
        </g>
        <g id="Line" transform="translate(2.934 5)">
          <path id="Trazado_1016771" data-name="Trazado 1016771" d="M83.045,45.893l-6.64-11.066a1.554,1.554,0,0,0-.9-.642l-15.916-3.46a18.047,18.047,0,1,0-32.617,0L11.06,34.185a1.553,1.553,0,0,0-.9.642L3.525,45.893a4.19,4.19,0,0,0,2.054,6.021l4.388,1.717V68.353a4.141,4.141,0,0,0,2.647,3.879l30.165,11.8a1.386,1.386,0,0,0,1.011,0l30.166-11.8A4.141,4.141,0,0,0,76.6,68.353V53.631l4.388-1.717a4.19,4.19,0,0,0,2.054-6.021ZM43.285,7.777A15.271,15.271,0,1,1,28.014,23.047,15.288,15.288,0,0,1,43.285,7.777ZM28.416,33.254a18.019,18.019,0,0,0,29.738,0l12.278,2.669L43.285,46.545,16.138,35.923l12.278-2.669ZM6.591,49.329a1.4,1.4,0,0,1-.685-2.007l6.036-10.059L41.25,48.73,34.973,59.192a1.387,1.387,0,0,1-1.7.579ZM41.9,80.709,13.626,69.646a1.381,1.381,0,0,1-.883-1.293V54.718l19.521,7.639a4.159,4.159,0,0,0,5.089-1.735L41.9,53.048V80.709Zm31.93-12.356a1.382,1.382,0,0,1-.882,1.293L44.674,80.709V53.048l4.544,7.573a4.159,4.159,0,0,0,5.089,1.735l19.521-7.639V68.353ZM79.98,49.329,53.294,59.771a1.387,1.387,0,0,1-1.7-.579L45.321,48.73,74.628,37.262l6.036,10.059a1.4,1.4,0,0,1-.685,2.007ZM34.956,27.212H39.12v4.165A2.78,2.78,0,0,0,41.9,34.153h2.777a2.78,2.78,0,0,0,2.777-2.777V27.212h4.165a2.78,2.78,0,0,0,2.777-2.777V21.659a2.78,2.78,0,0,0-2.777-2.777H47.45V14.718a2.78,2.78,0,0,0-2.777-2.777H41.9a2.78,2.78,0,0,0-2.777,2.777v4.165H34.956a2.78,2.78,0,0,0-2.777,2.777v2.777A2.78,2.78,0,0,0,34.956,27.212Zm0-5.553h5.553A1.388,1.388,0,0,0,41.9,20.271V14.718h2.777v5.553a1.388,1.388,0,0,0,1.388,1.388h5.553v2.777H46.062a1.388,1.388,0,0,0-1.388,1.388v5.553H41.9V25.824a1.388,1.388,0,0,0-1.388-1.388H34.956Z" transform="translate(-2.934 -5)"/>
        </g>
      </g>
      <g id="Grupo_1183772" data-name="Grupo 1183772" transform="translate(-5432.92 5048.913)">
        <g id="Grupo_1183770" data-name="Grupo 1183770" transform="translate(9.993 11.482)">
          <path id="Trazado_1016772" data-name="Trazado 1016772" d="M294.01,19.16a37.554,37.554,0,0,1,31.073,31.076H294.01Z" transform="translate(-250.505 -18.686)" fill="#eb6161" fill-rule="evenodd"/>
          <path id="Trazado_1016773" data-name="Trazado 1016773" d="M321.108,73.1h-27.1V46.26A37.593,37.593,0,0,1,321.108,73.1Z" transform="translate(-250.505 -41.549)" fill="#f57c7c" fill-rule="evenodd"/>
          <path id="Trazado_1016774" data-name="Trazado 1016774" d="M53.307,16.13V53.657H90.835A37.527,37.527,0,1,1,53.307,16.13Z" transform="translate(-15.78 -16.13)" fill="#ebbe57" fill-rule="evenodd"/>
          <path id="Trazado_1016775" data-name="Trazado 1016775" d="M73.019,107.428A37.528,37.528,0,0,1,28.2,47.6a37.351,37.351,0,0,1,19.711-5.59V79.537H85.44A37.43,37.43,0,0,1,73.019,107.428Z" transform="translate(-15.78 -37.963)" fill="#ffd675" fill-rule="evenodd"/>
          <path id="Trazado_1016776" data-name="Trazado 1016776" d="M53.307,16.13V53.657L40.087,88.788A37.533,37.533,0,0,1,53.307,16.13Z" transform="translate(-15.78 -16.13)" fill="#0db87f" fill-rule="evenodd"/>
          <path id="Trazado_1016777" data-name="Trazado 1016777" d="M53.6,42.01V75.491l-13.221,35.13A37.553,37.553,0,0,1,16.13,77.509,37.528,37.528,0,0,1,53.6,42.01Z" transform="translate(-16.075 -37.963)" fill="#00e499" fill-rule="evenodd"/>
          <path id="Trazado_1016778" data-name="Trazado 1016778" d="M339.567,142.682H323.99C323.993,132.511,339.569,132.373,339.567,142.682Z" transform="translate(-275.797 -116.415)" fill="#f2cfba" fill-rule="evenodd"/>
          <circle id="Elipse_16589" data-name="Elipse 16589" cx="3.826" cy="3.826" r="3.826" transform="translate(51.002 16.419) rotate(-67.486)" fill="#f2cfba"/>
          <g id="Grupo_1183769" data-name="Grupo 1183769" transform="translate(5.538 10.57)">
            <path id="Trazado_1016779" data-name="Trazado 1016779" d="M80.366,151.342a3.826,3.826,0,1,0-3.826-3.826A3.833,3.833,0,0,0,80.366,151.342Z" transform="translate(-72.578 -134.314)" fill="#f2cfba" fill-rule="evenodd"/>
            <path id="Trazado_1016780" data-name="Trazado 1016780" d="M160.036,131.512a3.826,3.826,0,1,0-3.826-3.826A3.833,3.833,0,0,0,160.036,131.512Z" transform="translate(-139.79 -117.585)" fill="#f2cfba" fill-rule="evenodd"/>
            <path id="Trazado_1016781" data-name="Trazado 1016781" d="M323.632,346.693l1.542,1.969h13.819c0-9.6-13.491-10.14-15.363-1.969Z" transform="translate(-281.032 -300.756)" fill="#f2cfba" fill-rule="evenodd"/>
            <path id="Trazado_1016782" data-name="Trazado 1016782" d="M351.436,297.072a3.826,3.826,0,1,0-3.826-3.826A3.833,3.833,0,0,0,351.436,297.072Z" transform="translate(-301.262 -257.257)" fill="#f2cfba" fill-rule="evenodd"/>
            <path id="Trazado_1016783" data-name="Trazado 1016783" d="M268.606,321.322a3.826,3.826,0,1,0-3.826-3.826A3.833,3.833,0,0,0,268.606,321.322Z" transform="translate(-231.384 -277.716)" fill="#f2cfba" fill-rule="evenodd"/>
            <path id="Trazado_1016784" data-name="Trazado 1016784" d="M96.807,333.582H81.23C81.233,323.411,96.809,323.273,96.807,333.582Z" transform="translate(-76.534 -288.035)" fill="#f2cfba" fill-rule="evenodd"/>
            <path id="Trazado_1016785" data-name="Trazado 1016785" d="M110.4,281.992a3.826,3.826,0,1,0-3.826-3.826A3.833,3.833,0,0,0,110.4,281.992Z" transform="translate(-97.912 -244.535)" fill="#f2cfba" fill-rule="evenodd"/>
            <path id="Trazado_1016786" data-name="Trazado 1016786" d="M338.394,142.8h-14.4a7.216,7.216,0,1,1,14.4,0Z" transform="translate(-281.335 -127.101)" fill="#faefe8" fill-rule="evenodd"/>
            <path id="Trazado_1016787" data-name="Trazado 1016787" d="M352.57,91.292a3.826,3.826,0,1,1,3.24-3.781A3.826,3.826,0,0,1,352.57,91.292Z" transform="translate(-302.713 -83.73)" fill="#faefe8" fill-rule="evenodd"/>
            <path id="Trazado_1016788" data-name="Trazado 1016788" d="M79.78,151.552a3.826,3.826,0,0,1,0-7.562,3.826,3.826,0,0,1,0,7.562Z" transform="translate(-72.578 -134.567)" fill="#faefe8" fill-rule="evenodd"/>
            <g id="Grupo_1183765" data-name="Grupo 1183765" transform="translate(11.759 14.337)">
              <path id="Trazado_1016789" data-name="Trazado 1016789" d="M133.9,180.243l2.091,2.857H149C149,173.867,136.51,173.013,133.9,180.243Z" transform="translate(-132.727 -175.42)" fill="#f2cfba" fill-rule="evenodd"/>
              <g id="Grupo_1183764" data-name="Grupo 1183764" transform="translate(0 0.02)">
                <path id="Trazado_1016790" data-name="Trazado 1016790" d="M126.661,202.27a6.916,6.916,0,0,1,3,3.482h-1.171L126.4,202.9C126.478,202.68,126.566,202.472,126.661,202.27Z" transform="translate(-126.4 -198.092)" fill="#faefe8" fill-rule="evenodd"/>
                <path id="Trazado_1016791" data-name="Trazado 1016791" d="M133.9,180.354l2.091,2.857h11.838a7.345,7.345,0,0,0-7.157-7.66A7.5,7.5,0,0,0,133.9,180.354Z" transform="translate(-132.727 -175.55)" fill="#faefe8" fill-rule="evenodd"/>
              </g>
            </g>
            <path id="Trazado_1016792" data-name="Trazado 1016792" d="M159.45,131.712a3.826,3.826,0,1,1,3.24-3.781,3.826,3.826,0,0,1-3.24,3.781Z" transform="translate(-139.79 -117.83)" fill="#faefe8" fill-rule="evenodd"/>
            <g id="Grupo_1183766" data-name="Grupo 1183766" transform="translate(41.427 40.245)">
              <path id="Trazado_1016793" data-name="Trazado 1016793" d="M323.64,346.8l1.542,1.969h12.647a7.346,7.346,0,0,0-7.171-7.66A7.423,7.423,0,0,0,323.64,346.8Z" transform="translate(-322.467 -341.11)" fill="#faefe8" fill-rule="evenodd"/>
              <path id="Trazado_1016794" data-name="Trazado 1016794" d="M316.342,372.92a6.907,6.907,0,0,1,2.511,2.686h-1.171l-1.542-1.969C316.2,373.391,316.265,373.151,316.342,372.92Z" transform="translate(-316.14 -367.946)" fill="#faefe8" fill-rule="evenodd"/>
            </g>
            <path id="Trazado_1016795" data-name="Trazado 1016795" d="M350.85,297.282a3.826,3.826,0,1,1,3.24-3.781A3.826,3.826,0,0,1,350.85,297.282Z" transform="translate(-301.262 -257.51)" fill="#faefe8" fill-rule="evenodd"/>
            <g id="Grupo_1183767" data-name="Grupo 1183767" transform="translate(29.434 44.017)">
              <path id="Trazado_1016796" data-name="Trazado 1016796" d="M255.017,372.912H239.44C239.443,362.741,255.019,362.6,255.017,372.912Z" transform="translate(-239.44 -365.232)" fill="#f2cfba" fill-rule="evenodd"/>
              <path id="Trazado_1016797" data-name="Trazado 1016797" d="M253.844,373.029h-14.4a7.216,7.216,0,1,1,14.4,0Z" transform="translate(-239.44 -365.348)" fill="#faefe8" fill-rule="evenodd"/>
            </g>
            <path id="Trazado_1016798" data-name="Trazado 1016798" d="M268.02,321.532a3.826,3.826,0,1,1,3.24-3.781A3.826,3.826,0,0,1,268.02,321.532Z" transform="translate(-231.384 -277.969)" fill="#faefe8" fill-rule="evenodd"/>
            <path id="Trazado_1016799" data-name="Trazado 1016799" d="M95.634,333.7H81.23a7.216,7.216,0,1,1,14.4,0Z" transform="translate(-76.534 -288.151)" fill="#faefe8" fill-rule="evenodd"/>
            <path id="Trazado_1016800" data-name="Trazado 1016800" d="M109.81,282.192a3.826,3.826,0,0,1,0-7.562,3.826,3.826,0,0,1,0,7.562Z" transform="translate(-97.912 -244.78)" fill="#faefe8" fill-rule="evenodd"/>
            <g id="Grupo_1183768" data-name="Grupo 1183768" transform="translate(0 17.44)">
              <path id="Trazado_1016801" data-name="Trazado 1016801" d="M66.775,202.942H51.2c0-10.172,15.579-10.309,15.577,0Z" transform="translate(-51.2 -195.262)" fill="#f2cfba" fill-rule="evenodd"/>
              <path id="Trazado_1016802" data-name="Trazado 1016802" d="M65.6,203.059H51.2a7.216,7.216,0,1,1,14.4,0Z" transform="translate(-51.2 -195.378)" fill="#faefe8" fill-rule="evenodd"/>
            </g>
          </g>
        </g>
        <path id="Trazado_1016803" data-name="Trazado 1016803" d="M53.676,44.67H84.749a1.251,1.251,0,0,0,1.235-1.449A38.806,38.806,0,0,0,53.873,11.108a1.251,1.251,0,0,0-1.449,1.235V43.419a1.251,1.251,0,0,0,1.251,1.251Zm1.251-30.829A36.139,36.139,0,0,1,83.253,42.168H54.927Zm30.3,34.306H48.949V11.871A1.251,1.251,0,0,0,47.7,10.62a38.778,38.778,0,0,0-27.42,66.2,38.778,38.778,0,0,0,66.2-27.42A1.251,1.251,0,0,0,85.226,48.147ZM11.422,49.4A36.322,36.322,0,0,1,46.447,13.142V49.17L33.758,82.887A36.331,36.331,0,0,1,11.422,49.4ZM47.7,85.675a36.144,36.144,0,0,1-11.6-1.9L48.565,50.649h35.39A36.321,36.321,0,0,1,47.7,85.675ZM72.351,31.432A8.73,8.73,0,0,0,69.7,29.843a5.078,5.078,0,1,0-7.075.025,8.481,8.481,0,0,0-5.515,8.267,1.249,1.249,0,0,0,1.251,1.251H73.941a1.251,1.251,0,0,0,1.251-1.251,8.634,8.634,0,0,0-2.841-6.7Zm-6.2-7.787a2.575,2.575,0,1,1-2.575,2.575A2.579,2.579,0,0,1,66.152,23.645ZM59.713,36.886a6.253,6.253,0,0,1,6.48-5.179h0c2.912,0,5.848,1.614,6.4,5.179H59.712ZM32.536,47.56a10.445,10.445,0,0,0-.161-1.851H43.742a1.251,1.251,0,0,0,1.251-1.251,8.512,8.512,0,0,0-5.487-8.3,5.078,5.078,0,1,0-7.075.028,8.409,8.409,0,0,0-4.3,3.573,8.9,8.9,0,0,0-1.08-.5,5.078,5.078,0,1,0-7.075.025,8.481,8.481,0,0,0-5.515,8.267,1.249,1.249,0,0,0,1.251,1.251H31.285a1.251,1.251,0,0,0,1.251-1.251Zm3.418-17.594a2.575,2.575,0,1,1-2.575,2.575A2.579,2.579,0,0,1,35.954,29.965ZM37.3,38.14a6,6,0,0,1,5.1,5.066H31.535a8.015,8.015,0,0,0-1.39-1.92A6.735,6.735,0,0,1,37.3,38.14ZM23.5,33.068a2.575,2.575,0,1,1-2.575,2.575A2.579,2.579,0,0,1,23.5,33.068ZM17.057,46.309a6.253,6.253,0,0,1,6.48-5.179h0a6.909,6.909,0,0,1,4.209,1.348,1.334,1.334,0,0,0,.224.181,5.609,5.609,0,0,1,1.576,2.2c.013.034.025.069.039.1a6.662,6.662,0,0,1,.352,1.345H17.059Zm30.8,15.913a5.061,5.061,0,0,0,1.553,3.65,8.481,8.481,0,0,0-5.515,8.267,1.249,1.249,0,0,0,1.251,1.251H60.719a1.251,1.251,0,0,0,1.251-1.251,10.173,10.173,0,0,0-.311-2.541H73.671a1.251,1.251,0,0,0,1.251-1.251,8.467,8.467,0,0,0-5.5-8.286,5.078,5.078,0,1,0-7.066.019,8.373,8.373,0,0,0-4.7,4.319,8.854,8.854,0,0,0-1.182-.554,5.076,5.076,0,1,0-8.628-3.625ZM46.491,72.887a6.253,6.253,0,0,1,6.48-5.179h0a6.833,6.833,0,0,1,4.4,1.506,1.219,1.219,0,0,0,.213.188,5.571,5.571,0,0,1,1.1,1.421,1.222,1.222,0,0,0,.083.163,6.43,6.43,0,0,1,.6,1.9H46.49ZM65.882,55.855a2.575,2.575,0,1,1-2.575,2.575A2.579,2.579,0,0,1,65.882,55.855Zm.064,8.064a7.329,7.329,0,0,1,.83.047,5.991,5.991,0,0,1,5.551,5.13H60.567a8.149,8.149,0,0,0-.852-1.09,6.389,6.389,0,0,1,6.231-4.087ZM52.93,59.647a2.575,2.575,0,1,1-2.575,2.575A2.579,2.579,0,0,1,52.93,59.647Zm-15.7,8.342a8.634,8.634,0,0,0-2.841-6.7,8.73,8.73,0,0,0-2.647-1.589,5.078,5.078,0,1,0-7.075.025,8.481,8.481,0,0,0-5.515,8.267A1.249,1.249,0,0,0,20.4,69.238H35.98a1.251,1.251,0,0,0,1.251-1.251ZM28.192,53.5a2.575,2.575,0,1,1-2.575,2.575A2.579,2.579,0,0,1,28.192,53.5ZM21.753,66.738a6.253,6.253,0,0,1,6.48-5.179h0c2.912,0,5.848,1.614,6.4,5.179H21.754Z"/>
      </g>
      <g id="Grupo_1183777" data-name="Grupo 1183777" transform="translate(-5455.856 5332.605)">
        <g id="Grupo_1183776" data-name="Grupo 1183776" transform="translate(33.224 16.744)">
          <g id="Grupo_1183773" data-name="Grupo 1183773" transform="translate(12.583 0)">
            <path id="Trazado_1016804" data-name="Trazado 1016804" d="M145.8,63.63a23.022,23.022,0,0,1,6.741,2.794l4.38-1.945,5.162,5.162-1.945,4.379a23.017,23.017,0,0,1,2.795,6.742l4.469,1.72v7.3l-4.47,1.72a23.025,23.025,0,0,1-2.794,6.741l1.945,4.38-5.162,5.162-4.379-1.945a23.017,23.017,0,0,1-6.742,2.795l-1.72,4.469h-7.3l-1.72-4.47a23.022,23.022,0,0,1-6.741-2.794l-4.38,1.945-5.162-5.162,1.945-4.379a23.017,23.017,0,0,1-2.795-6.742l-4.469-1.72v-7.3l4.469-1.72a23.015,23.015,0,0,1,2.795-6.741l-1.945-4.38,5.162-5.162,4.38,1.945a23.022,23.022,0,0,1,6.741-2.794l1.72-4.47h7.3Z" transform="translate(-113.453 -59.16)" fill="#ffe177" fill-rule="evenodd"/>
            <path id="Trazado_1016805" data-name="Trazado 1016805" d="M175.867,105.841l-4.38,1.945-.674-.674,4.107-1.824q.468.288.948.553Zm17.482-42.211a23.022,23.022,0,0,1,6.741,2.794l-1.245.553a30.362,30.362,0,0,0-7.688-3.347l-1.72-4.47h2.193Zm6.742,42.211a23.017,23.017,0,0,1-6.742,2.795l-1.72,4.469h-2.193l1.72-4.469a30.354,30.354,0,0,0,7.69-3.348ZM170.812,65.154l.674-.674,4.38,1.945q-.48.265-.948.553Zm32.138,0,1.519-.674,5.162,5.162-1.945,4.379a23.017,23.017,0,0,1,2.795,6.742l4.469,1.72v7.3l-4.47,1.72a23.025,23.025,0,0,1-2.794,6.741l1.945,4.38-5.162,5.162-1.519-.674,4.488-4.488-1.945-4.38a23.02,23.02,0,0,0,2.795-6.741l4.47-1.72v-7.3l-4.469-1.72a23.014,23.014,0,0,0-2.8-6.742l1.945-4.379Z" transform="translate(-161.005 -59.161)" fill="#ffd064" fill-rule="evenodd"/>
            <ellipse id="Elipse_16590" data-name="Elipse 16590" cx="17.835" cy="17.835" rx="17.835" ry="17.835" transform="translate(1.745 26.973) rotate(-45)" fill="#eceff1"/>
            <path id="Trazado_1016806" data-name="Trazado 1016806" d="M184.734,112.606a17.835,17.835,0,0,0,0,35.67c.361,0,.719-.012,1.075-.033a17.834,17.834,0,0,1,0-35.6c-.356-.021-.714-.033-1.075-.033Z" transform="translate(-157.761 -103.468)" fill="#d1d1d6" fill-rule="evenodd"/>
          </g>
          <g id="Grupo_1183774" data-name="Grupo 1183774" transform="translate(0 46.067)">
            <path id="Trazado_1016807" data-name="Trazado 1016807" d="M67.337,338.134,80.51,330.5c2.472-1.432,4.986-2.448,7.7-1.566,3.03.982,7.977,3.092,13.022,4a3.659,3.659,0,0,1,2.531,4.384c-.509,1.9-2.116,2.882-4.384,2.531l1.764.282a8.212,8.212,0,0,0,5.646-.983l12.665-7.377c9.845-5.734,11.291,3.087,8.018,5.1L104.492,351.03a8.429,8.429,0,0,1-6.825.962L81,347.525l-6.174,3.565a2.493,2.493,0,0,1-3.4-.911l-4.993-8.647a2.494,2.494,0,0,1,.908-3.4Z" transform="translate(-61.611 -328.606)" fill="#f6dccd" fill-rule="evenodd"/>
            <path id="Trazado_1016808" data-name="Trazado 1016808" d="M220.246,368.945a3.614,3.614,0,0,1-4.083,1.743c-2.731-.722-5.459-1.462-8.187-2.194a1.37,1.37,0,1,1,.709-2.647Z" transform="translate(-178.39 -359.441)" fill="#f1cbbc" fill-rule="evenodd"/>
            <path id="Trazado_1016809" data-name="Trazado 1016809" d="M67.337,338.134,80.51,330.5c2.472-1.432,4.986-2.448,7.7-1.566,1.621.526,3.791,1.374,6.231,2.188L68.926,345.857l-2.5-4.325A2.494,2.494,0,0,1,67.337,338.134Z" transform="translate(-61.611 -328.606)" fill="#f1cbbc" fill-rule="evenodd"/>
            <path id="Trazado_1016810" data-name="Trazado 1016810" d="M46.9,355.437,57.344,373.9a1.87,1.87,0,0,1-.7,2.541l-3.554,2.011a1.87,1.87,0,0,1-2.541-.7L40.1,359.285a1.87,1.87,0,0,1,.7-2.541l3.554-2.011A1.87,1.87,0,0,1,46.9,355.437Z" transform="translate(-39.857 -350.066)" fill="#d1d1d6" fill-rule="evenodd"/>
            <path id="Trazado_1016811" data-name="Trazado 1016811" d="M76,368.12l1.849,3.267,1.829,3.231a1.87,1.87,0,0,1-.7,2.538l1.269-.718a1.87,1.87,0,0,0,.7-2.541l-1.835-3.242-3.684-6.51-3.688-6.517-1.24-2.191a1.872,1.872,0,0,0-2.172-.863l2.147,3.794,3.684,6.51L76,368.12Z" transform="translate(-63.462 -350.067)" fill="#b1b1b5" fill-rule="evenodd"/>
          </g>
          <g id="Grupo_1183775" data-name="Grupo 1183775" transform="translate(28.183 19.635)">
            <path id="Trazado_1016812" data-name="Trazado 1016812" d="M205.725,232H208.5a1.028,1.028,0,0,1,1.026,1.026v3.494a1.028,1.028,0,0,1-1.026,1.026h-2.773a1.028,1.028,0,0,1-1.026-1.026v-3.494A1.028,1.028,0,0,1,205.725,232Z" transform="translate(-204.699 -222.083)" fill="#fe646f" fill-rule="evenodd"/>
            <path id="Trazado_1016813" data-name="Trazado 1016813" d="M218.261,232h1.48a1.028,1.028,0,0,1,1.026,1.026v3.494a1.028,1.028,0,0,1-1.026,1.026h-1.48a1.028,1.028,0,0,0,1.026-1.026v-3.494A1.028,1.028,0,0,0,218.261,232Z" transform="translate(-215.942 -222.083)" fill="#fd4755" fill-rule="evenodd"/>
            <path id="Trazado_1016814" data-name="Trazado 1016814" d="M258.131,203.63H260.9a1.028,1.028,0,0,1,1.026,1.026V213a1.028,1.028,0,0,1-1.026,1.026h-2.773A1.028,1.028,0,0,1,257.105,213v-8.344A1.028,1.028,0,0,1,258.131,203.63Z" transform="translate(-248.145 -198.565)" fill="#6cf5c2" fill-rule="evenodd"/>
            <path id="Trazado_1016815" data-name="Trazado 1016815" d="M270.666,203.63h1.48a1.028,1.028,0,0,1,1.026,1.026V213a1.028,1.028,0,0,1-1.026,1.026h-1.48A1.028,1.028,0,0,0,271.692,213v-8.344A1.028,1.028,0,0,0,270.666,203.63Z" transform="translate(-259.388 -198.565)" fill="#00e499" fill-rule="evenodd"/>
            <path id="Trazado_1016816" data-name="Trazado 1016816" d="M310.536,174.005h2.773a1.028,1.028,0,0,1,1.026,1.026V188.44a1.028,1.028,0,0,1-1.026,1.026h-2.773a1.028,1.028,0,0,1-1.026-1.026V175.031A1.028,1.028,0,0,1,310.536,174.005Z" transform="translate(-291.59 -174.005)" fill="#8ac9fe" fill-rule="evenodd"/>
            <path id="Trazado_1016817" data-name="Trazado 1016817" d="M323.072,174.005h1.48a1.028,1.028,0,0,1,1.026,1.026V188.44a1.028,1.028,0,0,1-1.026,1.026h-1.48a1.028,1.028,0,0,0,1.026-1.026V175.031A1.028,1.028,0,0,0,323.072,174.005Z" transform="translate(-302.834 -174.005)" fill="#60b7ff" fill-rule="evenodd"/>
          </g>
        </g>
        <path id="Trazado_1016818" data-name="Trazado 1016818" d="M80.7,50.473h2.089V37.748H80.7ZM77.96,51.841V36.38a1.367,1.367,0,0,1,1.368-1.367h4.824a1.367,1.367,0,0,1,1.367,1.367V51.841a1.367,1.367,0,0,1-1.367,1.368H79.328A1.367,1.367,0,0,1,77.96,51.841Zm-4.136-9.027H71.736v7.659h2.088Zm2.736-1.368v10.4a1.368,1.368,0,0,1-1.368,1.368H70.369A1.368,1.368,0,0,1,69,51.841v-10.4a1.369,1.369,0,0,1,1.368-1.368h4.823A1.369,1.369,0,0,1,76.559,41.445ZM62.776,50.473h2.089V47.663H62.776Zm-1.368,2.736a1.368,1.368,0,0,1-1.368-1.368V46.3a1.368,1.368,0,0,1,1.368-1.368h4.825A1.367,1.367,0,0,1,67.6,46.3v5.545a1.367,1.367,0,0,1-1.367,1.368Zm2.454-10.381a1.367,1.367,0,0,1-.84-2.447L71.088,34.1a1.367,1.367,0,0,1,.455-2.656h0l3.422.006a1.367,1.367,0,0,1,1.323,1.7l-.835,3.318a1.367,1.367,0,0,1-1.325,1.034,1.33,1.33,0,0,1-.335-.042,1.366,1.366,0,0,1-1.028-1.2L64.7,42.54A1.364,1.364,0,0,1,63.861,42.828ZM37.868,70.943a1.269,1.269,0,1,0,1.44,1.072A1.27,1.27,0,0,0,37.868,70.943ZM56.313,43.718A16.467,16.467,0,1,1,72.779,60.185,16.486,16.486,0,0,1,56.313,43.718Zm-2.736,0a19.2,19.2,0,1,1,19.2,19.2A19.224,19.224,0,0,1,53.577,43.718ZM98.936,66.5c-.978-1.633-3.661-1.385-7.176.663L79.093,74.541a9.533,9.533,0,0,1-6.551,1.152l-1.575-.256-.027-.006-.027,0c-1.976-.4-3.806-.927-5.744-1.481-.879-.251-1.79-.511-2.715-.759a1.368,1.368,0,1,1,.708-2.642c.947.253,1.869.517,2.759.771,1.865.533,3.628,1.036,5.479,1.417,1.441.165,2.335-.359,2.658-1.559a2.275,2.275,0,0,0-1.554-2.7A65.916,65.916,0,0,1,62.08,65.382c-1.026-.371-1.911-.691-2.679-.94-2.3-.748-4.532.254-6.6,1.449l-9.234,5.346L49.6,81.889l2.322-1.34a1.362,1.362,0,0,1,1.037-.137L69.631,84.88a7.089,7.089,0,0,0,5.755-.806L98.373,69.92a2.7,2.7,0,0,0,.562-3.42ZM49.524,87.311a.5.5,0,0,1-.187.677L45.782,90a.494.494,0,0,1-.377.044.5.5,0,0,1-.3-.232L34.656,71.35a.5.5,0,0,1,.187-.678L38.4,68.661a.481.481,0,0,1,.239-.064.548.548,0,0,1,.138.018.489.489,0,0,1,.3.233ZM54.8,61.948l-2.042-2.042,1.563-3.52a1.37,1.37,0,0,0-.086-1.273,21.627,21.627,0,0,1-2.629-6.341,1.364,1.364,0,0,0-.838-.96l-3.594-1.382V41.007l3.594-1.383a1.365,1.365,0,0,0,.839-.959,21.64,21.64,0,0,1,2.627-6.34,1.365,1.365,0,0,0,.086-1.272L52.759,27.53,56.592,23.7l3.522,1.564a1.367,1.367,0,0,0,1.272-.085,21.626,21.626,0,0,1,6.34-2.628,1.368,1.368,0,0,0,.961-.839l1.383-3.593h5.421l1.383,3.593a1.37,1.37,0,0,0,.961.839,21.628,21.628,0,0,1,6.34,2.628,1.366,1.366,0,0,0,1.272.085L88.969,23.7,92.8,27.53l-1.564,3.52a1.371,1.371,0,0,0,.085,1.272,21.63,21.63,0,0,1,2.63,6.342,1.366,1.366,0,0,0,.838.96l3.594,1.382v5.422l-3.594,1.383a1.365,1.365,0,0,0-.839.959,21.627,21.627,0,0,1-2.628,6.34,1.367,1.367,0,0,0-.085,1.272L92.8,59.906,88.969,63.74l-3.521-1.564a1.365,1.365,0,0,0-1.272.085,21.625,21.625,0,0,1-6.344,2.629,1.369,1.369,0,0,0-.958.839l-.845,2.194a5.239,5.239,0,0,0-2.761-2.081,1.273,1.273,0,0,0-.178-.045,63.225,63.225,0,0,1-10.08-2.989c-1.006-.364-1.956-.707-2.765-.969A8.555,8.555,0,0,0,54.8,61.948ZM76.373,72.784a5.234,5.234,0,0,0,.277-.744,1.366,1.366,0,0,0,1.057-.858l1.467-3.809a24.365,24.365,0,0,0,5.812-2.409l2.9,1.289-10.17,5.924a6.892,6.892,0,0,1-1.344.608Zm24.96-7.6a5.422,5.422,0,0,1-1.524,7.066L76.821,86.4a9.781,9.781,0,0,1-5.172,1.486,10.52,10.52,0,0,1-2.726-.368L52.8,83.2,50.946,84.27l.958,1.693a3.236,3.236,0,0,1-1.221,4.406L47.128,92.38a3.2,3.2,0,0,1-1.583.419,3.274,3.274,0,0,1-.872-.119,3.221,3.221,0,0,1-1.951-1.521L32.275,72.7A3.237,3.237,0,0,1,33.5,68.292L37.05,66.28A3.24,3.24,0,0,1,41.456,67.5l.767,1.356,9.21-5.333c.226-.13.455-.259.687-.386l-1.96-1.962a1.366,1.366,0,0,1-.284-1.522l1.659-3.732a24.249,24.249,0,0,1-2.409-5.811l-3.809-1.466a1.367,1.367,0,0,1-.877-1.276v-7.3a1.367,1.367,0,0,1,.877-1.276l3.809-1.466a24.313,24.313,0,0,1,2.409-5.81l-1.659-3.733a1.366,1.366,0,0,1,.284-1.522L55.321,21.1a1.371,1.371,0,0,1,1.523-.282l3.732,1.658a24.358,24.358,0,0,1,5.809-2.409l1.467-3.81a1.367,1.367,0,0,1,1.276-.876h7.3a1.369,1.369,0,0,1,1.277.876l1.467,3.81a24.362,24.362,0,0,1,5.809,2.409l3.732-1.658a1.371,1.371,0,0,1,1.523.282L95.4,26.259a1.369,1.369,0,0,1,.284,1.522l-1.659,3.732a24.25,24.25,0,0,1,2.409,5.811l3.809,1.466a1.367,1.367,0,0,1,.877,1.276v7.3a1.367,1.367,0,0,1-.877,1.276L96.435,50.11a24.321,24.321,0,0,1-2.409,5.809l1.659,3.734a1.368,1.368,0,0,1-.284,1.522l-2.287,2.288c2.936-1.137,4.925-.843,6.223-.177a32.606,32.606,0,0,0,6.428-19.569A32.946,32.946,0,0,0,101.3,27.137a1.368,1.368,0,0,1,2.364-1.378A35.7,35.7,0,0,1,108.5,43.718a35.317,35.317,0,0,1-7.168,21.465Zm-59.2-3.113a35.721,35.721,0,0,1,51.224-47.55l-.564-1.979a1.368,1.368,0,0,1,2.631-.751l1.738,6.094a1.369,1.369,0,0,1-1.267,1.742l-6.332.228H89.51a1.368,1.368,0,0,1-.048-2.735l2.694-.1A32.989,32.989,0,0,0,44.476,60.662a1.367,1.367,0,1,1-2.345,1.407Z" fill="#242222" fill-rule="evenodd"/>
      </g>
    </g>
  </g>
</svg>
