<svg xmlns="http://www.w3.org/2000/svg" width="29.875" height="28.215" viewBox="0 0 29.875 28.215">
  <path id="handshake-angle-solid-full" d="M45.947,66.759,39.9,73.481a.676.676,0,0,0,.026.928,4.054,4.054,0,0,0,5.731,0l1.649-1.649a1.217,1.217,0,0,1,.773-.358,1.236,1.236,0,0,1,.985.358l9.16,9.082,3.651-2.9V64l-5.809,3.319-1.234-.825a4.99,4.99,0,0,0-2.764-.835H48.416c-.057,0-.119,0-.176.005A3.334,3.334,0,0,0,45.947,66.759Zm-7.9,5.057,5.539-6.157H41.533a4.977,4.977,0,0,0-3.522,1.457L32,73.958V92.215l7.469-7.054.643.534a6.63,6.63,0,0,0,4.248,1.54h.814l-.363-.363a1.243,1.243,0,0,1,1.758-1.758L48.7,87.241h.467A6.678,6.678,0,0,0,52,86.6l-1.385-1.39a1.243,1.243,0,1,1,1.758-1.758l1.66,1.66.908-.908a1.659,1.659,0,0,0,.394-1.717l-7.152-7.1-.773.773a6.539,6.539,0,0,1-9.253,0,3.165,3.165,0,0,1-.114-4.357Z" transform="translate(-32 -64)" fill="#585a4a"/>
</svg>
