<svg xmlns="http://www.w3.org/2000/svg" width="128" height="128" viewBox="0 0 128 128">
  <g id="Grupo_1178701" data-name="Grupo 1178701" transform="translate(-72.746 -7992)">
    <g id="Elipse_13628" data-name="Elipse 13628" transform="translate(72.746 7992)" fill="#ecf0f1" stroke="#ffa038" stroke-width="6">
      <circle cx="64" cy="64" r="64" stroke="none"/>
      <circle cx="64" cy="64" r="61" fill="none"/>
    </g>
    <g id="Grupo_1182128" data-name="Grupo 1182128" transform="translate(103.407 8022.655)">
      <path id="Trazado_1004209" data-name="Trazado 1004209" d="M184.668,205.622h35.257a3.42,3.42,0,0,1,3.42,3.42v25.522a3.42,3.42,0,0,1-3.42,3.42h-4.736v5.244a1.316,1.316,0,0,1-2.246.93l-6.174-6.174h-22.1a3.42,3.42,0,0,1-3.42-3.42V209.042A3.42,3.42,0,0,1,184.668,205.622Z" transform="translate(-157.644 -178.837)" fill="#528fd8"/>
      <path id="Trazado_1004210" data-name="Trazado 1004210" d="M349.92,205.622h-.762c.456,8.3-4.115,18.79-12.766,27.441a51.838,51.838,0,0,1-5.685,4.922h6.057l6.174,6.174a1.316,1.316,0,0,0,2.246-.93v-5.244h4.736a3.42,3.42,0,0,0,3.42-3.42V209.042A3.421,3.421,0,0,0,349.92,205.622Z" transform="translate(-287.639 -178.837)" fill="#0573ce"/>
      <path id="Trazado_1004211" data-name="Trazado 1004211" d="M184.668,205.622a3.42,3.42,0,0,0-3.42,3.42v7.351H197.3a7.639,7.639,0,0,0,7.63-7.63v-3.141Z" transform="translate(-157.644 -178.837)" fill="#0573ce"/>
      <path id="Trazado_1004212" data-name="Trazado 1004212" d="M46.177,7.507H10.92a3.42,3.42,0,0,0-3.42,3.42V36.449a3.42,3.42,0,0,0,3.42,3.42h4.736v5.244a1.316,1.316,0,0,0,2.246.93l6.174-6.174h22.1a3.42,3.42,0,0,0,3.42-3.42V10.927a3.42,3.42,0,0,0-3.42-3.42Z" transform="translate(-6.523 -6.523)" fill="#fd8087"/>
      <path id="Trazado_1004213" data-name="Trazado 1004213" d="M173.247,7.507h-8.026c4.748,7.831,2.586,19.48-5.7,27.767a29.567,29.567,0,0,1-5.924,4.6h19.651a3.42,3.42,0,0,0,3.42-3.42V10.927a3.421,3.421,0,0,0-3.421-3.42Z" transform="translate(-133.593 -6.523)" fill="#fe646f"/>
      <g id="Grupo_1182122" data-name="Grupo 1182122" transform="translate(19.921 6.64)">
        <g id="Grupo_1182121" data-name="Grupo 1182121" transform="translate(0)">
          <g id="Grupo_1182120" data-name="Grupo 1182120">
            <g id="Grupo_1182119" data-name="Grupo 1182119">
              <path id="Trazado_1004214" data-name="Trazado 1004214" d="M155.068,67.782a2.1,2.1,0,0,1-2.1-2.1V53.048a2.1,2.1,0,1,1,4.21,0V65.677A2.1,2.1,0,0,1,155.068,67.782Z" transform="translate(-152.963 -50.943)" fill="#dff6fd"/>
            </g>
          </g>
        </g>
        <circle id="Elipse_15030" data-name="Elipse 15030" cx="2.105" cy="2.105" r="2.105" transform="translate(0 16.839)" fill="#dff6fd"/>
      </g>
      <g id="Grupo_1182126" data-name="Grupo 1182126" transform="translate(42.548 32.441)">
        <g id="Grupo_1182125" data-name="Grupo 1182125">
          <g id="Grupo_1182124" data-name="Grupo 1182124">
            <g id="Grupo_1182123" data-name="Grupo 1182123">
              <path id="Trazado_1004215" data-name="Trazado 1004215" d="M328.816,265.9a2.1,2.1,0,0,1-2.1-2.1V251.163a2.1,2.1,0,1,1,4.21,0v12.629A2.1,2.1,0,0,1,328.816,265.9Z" transform="translate(-326.711 -249.058)" fill="#dff6fd"/>
            </g>
          </g>
        </g>
        <circle id="Elipse_15031" data-name="Elipse 15031" cx="2.105" cy="2.105" r="2.105" transform="translate(0 16.839)" fill="#dff6fd"/>
      </g>
      <path id="Trazado_1004216" data-name="Trazado 1004216" d="M380.914,28.091a2.105,2.105,0,0,0-3.047-.074l-2.943,2.943V19.713a2.1,2.1,0,0,0-2.1-2.1h-7.637a2.1,2.1,0,1,0,0,4.21h5.532V30.96l-2.9-2.9a2.144,2.144,0,0,0-2.945-.112,2.105,2.105,0,0,0-.074,3.047l6.536,6.536a2.1,2.1,0,0,0,2.977,0l6.495-6.494A2.144,2.144,0,0,0,380.914,28.091Z" transform="translate(-315.793 -15.309)" fill="#a2e62e"/>
      <path id="Trazado_1004217" data-name="Trazado 1004217" d="M8.4,346.752a2.105,2.105,0,0,0,3.047.074l2.943-2.943V355.13a2.1,2.1,0,0,0,2.1,2.1h7.637a2.1,2.1,0,1,0,0-4.21H18.6v-9.142l2.9,2.9a2.144,2.144,0,0,0,2.945.112,2.105,2.105,0,0,0,.074-3.047l-6.536-6.536a2.1,2.1,0,0,0-2.977,0l-6.495,6.494a2.144,2.144,0,0,0-.112,2.945Z" transform="translate(-6.845 -292.841)" fill="#bbec6c"/>
      <g id="Grupo_1182127" data-name="Grupo 1182127" transform="translate(0 0.007)">
        <path id="Trazado_1004218" data-name="Trazado 1004218" d="M65.7,39.558a.977.977,0,0,0,.977-.977V30.205a4.4,4.4,0,0,0-4.4-4.4H44.051V4.4a4.4,4.4,0,0,0-4.4-4.4H4.4A4.4,4.4,0,0,0,0,4.4V7.935a.977.977,0,1,0,1.953,0V4.4A2.446,2.446,0,0,1,4.4,1.96H39.654A2.446,2.446,0,0,1,42.1,4.4V29.926a2.446,2.446,0,0,1-2.443,2.443h-22.1a.977.977,0,0,0-.691.286L10.688,38.83a.339.339,0,0,1-.578-.24V33.346a.977.977,0,0,0-.977-.977H4.4a2.446,2.446,0,0,1-2.443-2.443V12.494a.977.977,0,0,0-1.953,0V29.926a4.4,4.4,0,0,0,4.4,4.4h3.76v4.266a2.291,2.291,0,0,0,3.913,1.622l5.888-5.888h4.671v21.4a4.4,4.4,0,0,0,4.4,4.4h21.7l5.888,5.888a2.292,2.292,0,0,0,3.913-1.621V60.123h3.76a4.4,4.4,0,0,0,4.4-4.4V43.14a.977.977,0,1,0-1.953,0V55.727a2.446,2.446,0,0,1-2.443,2.443H57.546a.977.977,0,0,0-.977.977v5.244a.338.338,0,0,1-.578.239l-6.174-6.174a.977.977,0,0,0-.691-.286h-22.1a2.446,2.446,0,0,1-2.443-2.443v-21.4H39.654a4.368,4.368,0,0,0,2-.483,3.075,3.075,0,0,0-.083.707V47.176a3.069,3.069,0,0,0,.834,2.1,3.082,3.082,0,1,0,4.5,0,3.069,3.069,0,0,0,.834-2.1V34.546a3.081,3.081,0,0,0-4.02-2.935,4.371,4.371,0,0,0,.336-1.685V27.761H62.282a2.447,2.447,0,0,1,2.443,2.444v8.376a.977.977,0,0,0,.977.976ZM44.653,52.513a1.128,1.128,0,1,1,1.128-1.128A1.129,1.129,0,0,1,44.653,52.513Zm0-19.1a1.13,1.13,0,0,1,1.128,1.128V47.176a1.128,1.128,0,0,1-2.256,0V34.546A1.129,1.129,0,0,1,44.653,33.418Z" transform="translate(0 -0.007)"/>
        <path id="Trazado_1004219" data-name="Trazado 1004219" d="M148.545,66.445a3.079,3.079,0,0,0,2.248-5.186,3.069,3.069,0,0,0,.834-2.1V46.525a3.082,3.082,0,1,0-6.163,0V59.154a3.069,3.069,0,0,0,.834,2.1,3.079,3.079,0,0,0,2.248,5.186Zm0-1.953a1.128,1.128,0,1,1,1.128-1.128A1.13,1.13,0,0,1,148.545,64.492Zm-1.128-17.967a1.128,1.128,0,1,1,2.256,0V59.154a1.128,1.128,0,1,1-2.256,0Z" transform="translate(-126.519 -37.786)"/>
        <path id="Trazado_1004220" data-name="Trazado 1004220" d="M358.661,16.27h4.555v5.807l-1.234-1.234a3.106,3.106,0,0,0-4.292-.144,3.057,3.057,0,0,0-1.009,2.207,3.1,3.1,0,0,0,.9,2.254l6.537,6.537a3.087,3.087,0,0,0,4.358,0l6.5-6.5a3.11,3.11,0,0,0,.143-4.293,3.056,3.056,0,0,0-2.208-1.009,3.1,3.1,0,0,0-2.253.9l-1.276,1.276V20.447a.977.977,0,0,0-1.953,0v3.989a.977.977,0,0,0,1.668.691l2.943-2.943a1.128,1.128,0,0,1,1.634.04,1.173,1.173,0,0,1-.08,1.6L367.1,30.315a1.13,1.13,0,0,1-1.6,0l-6.536-6.536a1.129,1.129,0,0,1,.041-1.635,1.171,1.171,0,0,1,1.6.081l2.9,2.9a.977.977,0,0,0,1.667-.691V15.293a.977.977,0,0,0-.977-.977h-5.532a1.128,1.128,0,0,1,0-2.257H366.3a1.129,1.129,0,0,1,1.128,1.128v2.7a.977.977,0,0,0,1.953,0v-2.7a3.085,3.085,0,0,0-3.081-3.081h-7.637a3.082,3.082,0,0,0,0,6.164Z" transform="translate(-309.272 -8.791)"/>
        <path id="Trazado_1004221" data-name="Trazado 1004221" d="M17.581,345.525H13.025v-5.808l1.234,1.234a3.108,3.108,0,0,0,4.293.144,3.057,3.057,0,0,0,1.009-2.208,3.1,3.1,0,0,0-.9-2.252L12.123,330.1a3.081,3.081,0,0,0-4.358,0L1.27,336.593a3.108,3.108,0,0,0-.144,4.293,3.057,3.057,0,0,0,2.208,1.008,3.1,3.1,0,0,0,2.252-.9l1.276-1.276v8.889a3.085,3.085,0,0,0,3.082,3.082h7.637a3.082,3.082,0,1,0,0-6.163Zm0,4.21H9.943a1.13,1.13,0,0,1-1.128-1.128V337.359a.977.977,0,0,0-1.667-.691L4.2,339.612a1.128,1.128,0,0,1-1.634-.04,1.172,1.172,0,0,1,.08-1.6l6.495-6.495a1.128,1.128,0,0,1,1.6,0l6.536,6.536a1.128,1.128,0,0,1-.04,1.634,1.172,1.172,0,0,1-1.6-.081l-2.9-2.9a.977.977,0,0,0-1.667.691V346.5a.977.977,0,0,0,.977.977H17.58a1.128,1.128,0,1,1,0,2.256Z" transform="translate(-0.291 -286.325)"/>
      </g>
    </g>
  </g>
</svg>
