<svg xmlns="http://www.w3.org/2000/svg" width="128" height="128" viewBox="0 0 128 128">
  <g id="Grupo_1181987" data-name="Grupo 1181987" transform="translate(-72.746 -7992)">
    <g id="Elipse_13628" data-name="Elipse 13628" transform="translate(72.746 7992)" fill="#ecf0f1" stroke="#ffa038" stroke-width="6">
      <circle cx="64" cy="64" r="64" stroke="none"/>
      <circle cx="64" cy="64" r="61" fill="none"/>
    </g>
    <g id="Grupo_1182144" data-name="Grupo 1182144" transform="translate(62.305 8012.737)">
      <g id="Grupo_1182143" data-name="Grupo 1182143" transform="translate(38.729 4.125)">
        <path id="Trazado_1004244" data-name="Trazado 1004244" d="M169.848,24.29H133.482L125.9,31.869V81.409h43.944Z" transform="translate(-112.164 -24.29)" fill="#d5e3f2" fill-rule="evenodd"/>
        <path id="Trazado_1004245" data-name="Trazado 1004245" d="M114.706,295.886a3.336,3.336,0,0,0,4.538,0,3.22,3.22,0,0,0,.273-4.227A3.209,3.209,0,0,0,124.3,287.4l.2.2a3.206,3.206,0,0,0,4.811-4.218,3.209,3.209,0,1,0,4.649-4.424c-.326-.364-.757-.794-1.264-1.264l-14.08-14.085-4.83-4.83c-4.188-4.735-19.222-1.216-24.023-1.063L84.32,275.1l8.517,2.447Z" transform="translate(-77.603 -217.127)" fill="#faba7b" fill-rule="evenodd"/>
        <path id="Trazado_1004246" data-name="Trazado 1004246" d="M223.688,274.931l7.861-4.969-5.094-16.426c-4.8-.153-16.622-4.658-21.362-.479l-1.321,1.168-10.466,9.594a3.634,3.634,0,0,0,4.869,5.4l10.015-9.786,15.253,15.258c.086.081.153.163.244.244Z" transform="translate(-167.186 -212.948)" fill="#f5ad65" fill-rule="evenodd"/>
        <path id="Trazado_1004247" data-name="Trazado 1004247" d="M50.85,234.252l8.833,2.37-6.3,23.511-8.833-2.365Z" transform="translate(-44.55 -198.791)" fill="#69a7ff" fill-rule="evenodd"/>
        <path id="Trazado_1004248" data-name="Trazado 1004248" d="M386.68,234.252l-8.833,2.37,6.3,23.511,8.833-2.365Z" transform="translate(-321.556 -198.791)" fill="#ff3d50" fill-rule="evenodd"/>
        <path id="Trazado_1004249" data-name="Trazado 1004249" d="M200.5,438.816a3.213,3.213,0,0,1-4.639-4.447l2.322-2.423a3.213,3.213,0,1,1,4.639,4.448Z" transform="translate(-169.561 -362.275)" fill="#f5ad65" fill-rule="evenodd"/>
        <path id="Trazado_1004250" data-name="Trazado 1004250" d="M173.03,412.483a3.213,3.213,0,1,1-4.639-4.448l2.322-2.423a3.213,3.213,0,1,1,4.639,4.448Z" transform="translate(-146.732 -340.388)" fill="#f5ad65" fill-rule="evenodd"/>
        <path id="Trazado_1004251" data-name="Trazado 1004251" d="M146.611,389.014a3.213,3.213,0,1,1-4.639-4.447l1.556-1.623a3.212,3.212,0,1,1,4.634,4.448Z" transform="translate(-124.775 -321.55)" fill="#f5ad65" fill-rule="evenodd"/>
        <path id="Trazado_1004252" data-name="Trazado 1004252" d="M232.424,464.435a3.211,3.211,0,1,1-4.639-4.442l1.556-1.623a3.213,3.213,0,1,1,4.639,4.448Z" transform="translate(-196.097 -384.236)" fill="#f5ad65" fill-rule="evenodd"/>
        <path id="Trazado_1004253" data-name="Trazado 1004253" d="M133.482,24.29,125.9,31.869h7.578Z" transform="translate(-112.164 -24.29)" fill="#b7cfe8" fill-rule="evenodd"/>
      </g>
      <path id="Trazado_1004254" data-name="Trazado 1004254" d="M154.279,93.456h7.416v7.411h-7.416Z" transform="translate(-97.017 -77.65)" fill="#ffab02"/>
      <path id="Trazado_1004255" data-name="Trazado 1004255" d="M154.279,173.988h7.416V181.4h-7.416Z" transform="translate(-97.017 -144.58)" fill="#ff3d50"/>
      <path id="Trazado_1004256" data-name="Trazado 1004256" d="M319,31.089a12.045,12.045,0,1,0-12.05-12.047A12.045,12.045,0,0,0,319,31.089Z" transform="translate(-223.905 -5.793)" fill="#45bf64" fill-rule="evenodd"/>
      <path id="Trazado_1004257" data-name="Trazado 1004257" d="M127.854,101.818V69.163H125.9V99.041l1.393.373-.689,2.556c.4-.043.814-.1,1.25-.153Z" transform="translate(-73.431 -57.459)" fill="#b7cfe8" fill-rule="evenodd"/>
      <path id="Trazado_1004258" data-name="Trazado 1004258" d="M309.284,19.044A12.037,12.037,0,0,1,320.166,7.056C319.783,7.018,319.4,7,319,7a12.043,12.043,0,0,0-11.835,14.286,11.844,11.844,0,0,0,.7,2.364,11.98,11.98,0,0,0,2.054,3.313,12.176,12.176,0,0,0,2.8,2.364A11.974,11.974,0,0,0,319,31.088c.4,0,.785-.019,1.168-.053a12.064,12.064,0,0,1-10.676-9.752,12.315,12.315,0,0,1-.206-2.241Z" transform="translate(-223.906 -5.794)" fill="#1ca63e" fill-rule="evenodd"/>
      <path id="Trazado_1004259" data-name="Trazado 1004259" d="M47.15,255.911l5.663-21.132-1.963-.527-6.3,23.516,8.833,2.365.637-2.384Z" transform="translate(-5.821 -194.666)" fill="#5f96e6" fill-rule="evenodd"/>
      <path id="Trazado_1004260" data-name="Trazado 1004260" d="M384.937,265.87,380.365,248.8l-.852-3.184-.273.077-1.393.373.665,2.485.728,2.71,4.17,15.574.737,2.743,8.833-2.365-.507-1.881-7.162,1.92Z" transform="translate(-282.827 -204.114)" fill="#e82e41" fill-rule="evenodd"/>
      <path id="Trazado_1004261" data-name="Trazado 1004261" d="M67.33,30.275a1.182,1.182,0,0,1,1.182-1.182h23.1a1.182,1.182,0,0,1,0,2.364h-23.1a1.182,1.182,0,0,1-1.182-1.182ZM91.766,18.313a1.182,1.182,0,0,0,1.672,0l8.45-8.455a1.182,1.182,0,0,0-1.672-1.672L92.6,15.8l-2.63-2.63A1.182,1.182,0,0,0,88.3,14.846ZM68.512,37.13h23.1a1.182,1.182,0,0,0,0-2.364h-23.1a1.182,1.182,0,0,0,0,2.364ZM56.079,23.218V15.807a1.182,1.182,0,0,1,1.182-1.182h7.411a1.182,1.182,0,0,1,1.182,1.182v7.411A1.182,1.182,0,0,1,64.672,24.4H57.261A1.182,1.182,0,0,1,56.079,23.218Zm2.364-1.182h5.046V16.99H58.444ZM56.079,36.819V29.408a1.182,1.182,0,0,1,1.182-1.182h7.411a1.182,1.182,0,0,1,1.182,1.182v7.411A1.182,1.182,0,0,1,64.672,38H57.261a1.182,1.182,0,0,1-1.182-1.182Zm2.364-1.182h5.046V30.591H58.444Zm52.734,28.056a1.182,1.182,0,0,1-.718.551l-8.833,2.364a1.182,1.182,0,0,1-1.448-.836l-.321-1.2L96.8,66.51a4.383,4.383,0,0,1-4.533,5.979,4.382,4.382,0,0,1-4.383,4.228,4.481,4.481,0,0,1-.638-.046,4.38,4.38,0,0,1-4.758,4.048,4.373,4.373,0,0,1-1.284,3,4.234,4.234,0,0,1-3.018,1.237,4.684,4.684,0,0,1-1.758-.35l-.52.54a4.391,4.391,0,0,1-7.521-2.435,4.441,4.441,0,0,1-1.045.125,4.385,4.385,0,0,1-4.389-4.305c0-.051,0-.1,0-.15-.083,0-.167.008-.25.008a4.384,4.384,0,0,1-4.382-4.634l-.077,0a4.392,4.392,0,0,1-3.514-7.028L53.4,65.61l-4.32-1.24-.376,1.4a1.181,1.181,0,0,1-1.448.836l-8.828-2.364a1.182,1.182,0,0,1-.836-1.448l6.3-23.516a1.182,1.182,0,0,1,1.448-.836l5.951,1.593V11.7a1.182,1.182,0,0,1,.346-.836l7.578-7.578a1.182,1.182,0,0,1,.836-.346H86.815A13.224,13.224,0,1,1,97.6,26.238v13.8l5.946-1.593a1.182,1.182,0,0,1,1.448.836L111.3,62.8a1.182,1.182,0,0,1-.119.9ZM84.229,13.25A10.865,10.865,0,1,0,95.093,2.387,10.865,10.865,0,0,0,84.229,13.25Zm-28.9-2.729h3.541V6.981ZM53.652,40.671l.516.138a1.182,1.182,0,0,1,.836,1.449l-.232.865.618-.08c6.56-.849,15.366-1.987,19.515,1.144l.947-.838c3.827-3.375,11.05-1.888,16.855-.693l1.351.275-.181-.674a1.182,1.182,0,0,1,.836-1.448l.517-.138v-14.2c-.047,0-.092,0-.139,0a13.162,13.162,0,0,1-8.307-2.944H68.512a1.182,1.182,0,0,1,0-2.364H84.5a13.216,13.216,0,0,1-1.81-3.313H68.512a1.182,1.182,0,0,1,0-2.364H82.057A13.169,13.169,0,0,1,84.521,5.309H61.231v6.4a1.182,1.182,0,0,1-1.182,1.182h-6.4Zm-1.638,3.608a1.212,1.212,0,0,1,.036-.133l.364-1.358-6.548-1.753L40.178,62.266l6.544,1.753Zm7.7,26.489,1.551-1.618A2.029,2.029,0,0,0,59.8,65.715h-.042a2.019,2.019,0,0,0-1.427.623l-1.55,1.621a2.029,2.029,0,1,0,2.931,2.808Zm6.782,2.214h0a2.029,2.029,0,0,0-1.511-3.435,2.007,2.007,0,0,0-1.419.621,1.189,1.189,0,0,1-.232.187,4.478,4.478,0,0,1-.363.432L61.419,72.4c-.035.037-.072.072-.108.107s-.045.054-.069.08A2.031,2.031,0,1,0,64.175,75.4Zm4.64,4.442A2.029,2.029,0,0,0,68.2,74.614L65.88,77.038h0a2.031,2.031,0,0,0,2.935,2.807l.666-.7c.028-.031.055-.062.084-.092.008-.009.018-.015.027-.024Zm5.184,3.017a2.028,2.028,0,0,0-3.489-1.363c-.008.009-.018.016-.027.024L71.23,80.742A2.03,2.03,0,0,0,74.2,83.507l1.108-1.153c.019-.021.039-.042.06-.062l.388-.4a2.019,2.019,0,0,0,.558-1.448Zm17.89-13.683L94.2,66.75l-.051-.053L79.724,52.27l-9.179,8.968-.032.03a4.818,4.818,0,0,1-6.464-7.146l9.065-8.306c-3.6-2.217-12.133-1.113-17.419-.428l-1.583.2-4.423,16.5,4.6,1.322a1.18,1.18,0,0,1,.433.23l1.621,1.358.278-.292a4.393,4.393,0,0,1,7.542,2.563,4.454,4.454,0,0,1,.767-.084,4.385,4.385,0,0,1,4.489,4.451A4.379,4.379,0,0,1,74.058,76.1c.047,0,.093-.005.14-.006a4.4,4.4,0,0,1,3.952,6.5,1.842,1.842,0,0,0,1.385-.546,2.022,2.022,0,0,0,.205-2.618l-6.094-6.089a1.183,1.183,0,0,1,1.672-1.673l6.151,6.146a2.025,2.025,0,0,0,3.046-2.643l-6.354-6.35a1.183,1.183,0,0,1,1.672-1.673l6.425,6.42.2.2a2.023,2.023,0,0,0,3.069-2.616L82.7,64.277a1.183,1.183,0,0,1,1.677-1.668l6.891,6.93a2.027,2.027,0,0,0,2.942-2.787Zm5.009-4.572L94.739,45.473c-.787-.147-1.629-.32-2.508-.5-5.011-1.032-11.873-2.444-14.813.15l-1.313,1.16L65.648,55.864a2.481,2.481,0,0,0-.183,3.469,2.444,2.444,0,0,0,1.7.8,2.415,2.415,0,0,0,1.74-.608l10-9.768a1.182,1.182,0,0,1,1.663.009L95.4,64.6Zm9.488.082-5.692-21.232-6.544,1.753,5.688,21.231Z" transform="translate(0 0)"/>
    </g>
  </g>
</svg>
