<svg xmlns="http://www.w3.org/2000/svg" width="160" height="160" viewBox="0 0 160 160">
  <g id="Grupo_1183757" data-name="Grupo 1183757" transform="translate(0 -0.42)">
    <circle id="Elipse_13609" data-name="Elipse 13609" cx="80" cy="80" r="80" transform="translate(0 0.42)" fill="#fff"/>
    <path id="Trazado_1004301" data-name="Trazado 1004301" d="M93.623,44.906a1.04,1.04,0,0,1,1.44-.3A41.826,41.826,0,0,1,113.6,73.516l1.875-1.871a1.04,1.04,0,0,1,1.469,1.473l-3.378,3.371a1.036,1.036,0,0,1-.636.3h-.02c-.029,0-.057,0-.086,0a1.035,1.035,0,0,1-.546-.155l-4.033-2.431a1.04,1.04,0,0,1,1.074-1.782l2.215,1.335A39.53,39.53,0,0,0,93.927,46.346a1.041,1.041,0,0,1-.3-1.44ZM31.437,78.492l.057,0a1.04,1.04,0,0,0,1.038-.984A39.53,39.53,0,0,1,47.471,48.547l-.049,2.586a1.04,1.04,0,0,0,2.08.039l.089-4.709a1.036,1.036,0,0,0-.186-.625H49.4a1.035,1.035,0,0,0-.584-.4l-4.607-1.24a1.04,1.04,0,0,0-.541,2.009l2.558.688A41.826,41.826,0,0,0,30.454,77.4,1.041,1.041,0,0,0,31.437,78.492ZM90.218,115.1a39.529,39.529,0,0,1-32.552,1.544l2.264-1.251a1.04,1.04,0,1,0-1.006-1.821L54.8,115.847a1.036,1.036,0,0,0-.438.452h0c-.009.018-.017.036-.025.055a1.035,1.035,0,0,0-.046.682l1.23,4.611a1.04,1.04,0,1,0,2.01-.536l-.683-2.559a41.825,41.825,0,0,0,34.311-1.6,1.04,1.04,0,1,0-.942-1.855ZM58.361,56.83A15.52,15.52,0,0,1,69.309,42.019a8.1,8.1,0,1,1,9.089,0A15.519,15.519,0,0,1,89.346,56.83a1.04,1.04,0,0,1-1.04,1.04H59.4A1.04,1.04,0,0,1,58.361,56.83ZM73.854,41.338a6.017,6.017,0,1,0-6.017-6.017A6.024,6.024,0,0,0,73.854,41.338ZM60.482,55.79H87.225a13.412,13.412,0,0,0-26.744,0Zm-4.537,55.635H27.04a1.04,1.04,0,0,1-1.04-1.04A15.519,15.519,0,0,1,36.948,95.574a8.1,8.1,0,1,1,9.089,0,15.519,15.519,0,0,1,10.948,14.811,1.04,1.04,0,0,1-1.04,1.04ZM41.492,94.893a6.017,6.017,0,1,0-6.017-6.017,6.024,6.024,0,0,0,6.017,6.017Zm13.372,14.452a13.413,13.413,0,0,0-26.744,0Zm66.843,1.04a1.04,1.04,0,0,1-1.04,1.04h-28.9a1.04,1.04,0,0,1-1.04-1.04A15.52,15.52,0,0,1,101.67,95.574a8.1,8.1,0,1,1,9.089,0A15.52,15.52,0,0,1,121.707,110.385ZM106.215,94.893a6.017,6.017,0,1,0-6.017-6.017A6.024,6.024,0,0,0,106.215,94.893Zm13.372,14.452a13.412,13.412,0,0,0-26.744,0ZM88.6,62.187l-2.367.692a1.037,1.037,0,0,0-.57.409h0l-.012.017h0a1.036,1.036,0,0,0-.17.625l.1,2.43a1.04,1.04,0,0,0,2.079-.084l-.01-.235A19.954,19.954,0,0,1,94.65,79.819a1.04,1.04,0,0,0,1.036.962c.026,0,.053,0,.079,0a1.04,1.04,0,0,0,.959-1.116A22.023,22.023,0,0,0,88.8,64.3l.383-.112a1.04,1.04,0,1,0-.584-2ZM52.859,80.518a1.038,1.038,0,0,0,.634.289l.035,0h.056a1.034,1.034,0,0,0,.564-.167l2.056-1.3a1.04,1.04,0,0,0-1.112-1.758l-.2.126a19.952,19.952,0,0,1,8.426-12.955,1.04,1.04,0,0,0-1.173-1.718A22.023,22.023,0,0,0,52.8,77.585l-.288-.276a1.04,1.04,0,0,0-1.438,1.5Zm30.119,23.241a1.039,1.039,0,0,0,1.257-.764l.584-2.4a1.036,1.036,0,0,0-.066-.692l-.018-.037a1.036,1.036,0,0,0-.452-.451l-2.153-1.13a1.04,1.04,0,1,0-.967,1.842l.209.109a19.954,19.954,0,0,1-15.433-.82,1.04,1.04,0,0,0-.9,1.875,22.025,22.025,0,0,0,17.27.818l-.094.387A1.041,1.041,0,0,0,82.978,103.759Z" transform="translate(6.147 4.697)" fill="#484e36" stroke="#484e36" stroke-width="1"/>
    <text id="_" data-name="+" transform="translate(73.857 94.42)" fill="#585a4a" font-size="28" font-family="Roboto-Bold, Roboto" font-weight="700"><tspan x="0" y="0">+</tspan></text>
  </g>
</svg>
