<svg xmlns="http://www.w3.org/2000/svg" width="150" height="150" viewBox="0 0 150 150">
  <g id="Grupo_1177490" data-name="Grupo 1177490" transform="translate(-383.746 -8400)">
    <circle id="Elipse_13609" data-name="Elipse 13609" cx="75" cy="75" r="75" transform="translate(383.746 8400)" fill="#b3c487"/>
    <g id="Grupo_1182200" data-name="Grupo 1182200" transform="translate(411.377 8432.939)">
      <path id="Trazado_1004310" data-name="Trazado 1004310" d="M55.938,25.6H34.418a6.034,6.034,0,0,1-4.274-1.8,5.705,5.705,0,0,1-1.668-4.119,5.845,5.845,0,0,1,5.817-5.717H43.9a1.242,1.242,0,0,0,0-2.483H34.293a8.34,8.34,0,0,0-8.3,8.158,8.17,8.17,0,0,0,2.38,5.9,8.533,8.533,0,0,0,6.045,2.543h21.52A17.733,17.733,0,0,1,73.65,45.9,17.859,17.859,0,0,1,55.73,63.506h-.543a14.99,14.99,0,0,1-.842-3.629h1.594A14.1,14.1,0,0,0,70.021,45.655,14.21,14.21,0,0,0,55.774,31.71H34.293a11.945,11.945,0,0,1-11.93-12.049,12.053,12.053,0,0,1,12.1-11.812H59.849a1.814,1.814,0,0,1,0,3.629H49.682a1.242,1.242,0,0,0,0,2.483H59.849a4.3,4.3,0,0,0,0-8.6H34.461A14.544,14.544,0,0,0,19.88,19.638,14.429,14.429,0,0,0,34.293,34.194H55.774A11.719,11.719,0,0,1,67.537,45.679a11.614,11.614,0,0,1-11.6,11.715h-1.7a20.417,20.417,0,0,0-38.947-7.6,1.242,1.242,0,1,0,2.256,1.038,17.934,17.934,0,0,1,34.23,7.486A17.493,17.493,0,0,0,54.7,68l2.789,4.209A9.372,9.372,0,0,1,58.757,79.7,18.56,18.56,0,0,0,42.938,67.92a11.229,11.229,0,0,0,2.028-4.03c.052,0,.1,0,.157,0a4.4,4.4,0,0,0,.2-8.8,11.272,11.272,0,0,0-1.3-4.545,1.44,1.44,0,0,0-2.374-.051A6.878,6.878,0,0,1,35.7,53.88H23.892a1.241,1.241,0,0,0-1.241,1.227,4.4,4.4,0,0,0,.412,8.786c.052,0,.1,0,.157,0a11.229,11.229,0,0,0,2.028,4.031A18.56,18.56,0,0,0,9.43,79.694a9.378,9.378,0,0,1-.289-2.3v-.183a9.365,9.365,0,0,1,1.4-4.926L13.3,67.817A17.531,17.531,0,0,0,15.917,58.6v-.28a18.1,18.1,0,0,1,.285-3.2,1.242,1.242,0,0,0-2.444-.441,20.587,20.587,0,0,0-.324,3.643v.28a15.049,15.049,0,0,1-2.248,7.915L8.428,70.976a11.847,11.847,0,0,0-1.77,6.231v.183a11.8,11.8,0,0,0,1.736,6.177,18.584,18.584,0,0,0-.214,2.816A2.221,2.221,0,0,0,10.4,88.6H57.788a2.221,2.221,0,0,0,2.219-2.219,18.569,18.569,0,0,0-.214-2.82c.012-.017.025-.033.036-.051a11.86,11.86,0,0,0-.272-12.669l-2.789-4.209c-.142-.215-.276-.433-.407-.654A20.342,20.342,0,0,0,76.134,45.912,20.218,20.218,0,0,0,55.938,25.6ZM29.782,71.364a11.241,11.241,0,0,0,8.623,0V71.9a4.019,4.019,0,0,1-4.014,4.014H33.8A4.019,4.019,0,0,1,29.781,71.9v-.538ZM47.043,59.491a1.922,1.922,0,0,1-1.7,1.906c.005-.144.011-.287.011-.432V57.586A1.921,1.921,0,0,1,47.043,59.491Zm-4.516-6.063a8.815,8.815,0,0,1,.344,2.42v5.116a8.777,8.777,0,0,1-17.553,0v-4.6H35.7a9.464,9.464,0,0,0,6.823-2.936ZM21.144,59.491a1.922,1.922,0,0,1,1.69-1.9v3.378c0,.145.005.289.011.432A1.922,1.922,0,0,1,21.144,59.491ZM10.665,86.117A16.054,16.054,0,0,1,26.7,70.347h.6V71.9a6.505,6.505,0,0,0,6.5,6.5h.595a6.505,6.505,0,0,0,6.5-6.5V70.347h.6a16.054,16.054,0,0,1,16.032,15.77Z" transform="translate(0 -4.478)" fill="#484e36"/>
      <path id="Trazado_1004311" data-name="Trazado 1004311" d="M404.427,0H392.963A4.466,4.466,0,0,0,388.5,4.461V18.64a4.466,4.466,0,0,0,4.461,4.461h3.648v2.223a2.844,2.844,0,0,0,2.84,2.84h1.866a2.844,2.844,0,0,0,2.84-2.84V23.1h.269a2.779,2.779,0,0,0,2.776-2.776V2.776A2.779,2.779,0,0,0,404.427,0Zm-2.752,25.324a.357.357,0,0,1-.357.357h-1.867a.357.357,0,0,1-.357-.357V23.1h2.58Zm3.045-5a.293.293,0,0,1-.293.293H392.963a1.98,1.98,0,0,1-1.977-1.977V4.461a1.98,1.98,0,0,1,1.977-1.977h11.464a.293.293,0,0,1,.293.293Z" transform="translate(-318.626)" fill="#484e36"/>
      <path id="Trazado_1004312" data-name="Trazado 1004312" d="M431.535,39.169h-5.6a1.242,1.242,0,1,0,0,2.483h5.6a1.242,1.242,0,1,0,0-2.483Z" transform="translate(-348.825 -32.684)" fill="#484e36"/>
      <path id="Trazado_1004313" data-name="Trazado 1004313" d="M435.376,65.26h-3.7a1.242,1.242,0,1,0,0,2.483h3.7a1.242,1.242,0,1,0,0-2.483Z" transform="translate(-353.618 -54.456)" fill="#484e36"/>
    </g>
  </g>
</svg>
