<svg xmlns="http://www.w3.org/2000/svg" width="150" height="150" viewBox="0 0 150 150">
  <g id="Grupo_1177489" data-name="Grupo 1177489" transform="translate(-383.746 -8400)">
    <circle id="Elipse_13609" data-name="Elipse 13609" cx="75" cy="75" r="75" transform="translate(383.746 8400)" fill="#b3c487"/>
    <g id="Grupo_1182199" data-name="Grupo 1182199" transform="translate(379.954 8425.679)">
      <path id="Trazado_1004302" data-name="Trazado 1004302" d="M131.768,137.663a1.444,1.444,0,0,0-2.012.356l-4.592,6.568-2.976-2.645a1.445,1.445,0,0,0-1.92,2.16l3.168,2.816a2.663,2.663,0,0,0,3.951-.464l4.739-6.777A1.445,1.445,0,0,0,131.768,137.663Z" transform="translate(-67.234 -110.93)" fill="#484e36"/>
      <path id="Trazado_1004303" data-name="Trazado 1004303" d="M131.769,247.222a1.445,1.445,0,0,0-2.012.356l-4.592,6.568-2.976-2.646a1.445,1.445,0,0,0-1.92,2.16l3.168,2.816a2.663,2.663,0,0,0,3.95-.464l4.739-6.778A1.445,1.445,0,0,0,131.769,247.222Z" transform="translate(-67.235 -199.381)" fill="#484e36"/>
      <path id="Trazado_1004304" data-name="Trazado 1004304" d="M131.768,355.311a1.445,1.445,0,0,0-2.012.356l-4.592,6.568-2.976-2.645a1.445,1.445,0,0,0-1.92,2.16l3.168,2.816a2.663,2.663,0,0,0,3.951-.464l4.739-6.777A1.445,1.445,0,0,0,131.768,355.311Z" transform="translate(-67.234 -286.645)" fill="#484e36"/>
      <path id="Trazado_1004305" data-name="Trazado 1004305" d="M235.557,141.344H215.136a1.445,1.445,0,1,0,0,2.89h20.42a1.445,1.445,0,0,0,0-2.89Z" transform="translate(-143.05 -114.112)" fill="#484e36"/>
      <path id="Trazado_1004306" data-name="Trazado 1004306" d="M235.557,174.675H215.136a1.445,1.445,0,1,0,0,2.89h20.42a1.445,1.445,0,0,0,0-2.89Z" transform="translate(-143.05 -141.022)" fill="#484e36"/>
      <path id="Trazado_1004307" data-name="Trazado 1004307" d="M237,249.945a1.445,1.445,0,0,0-1.445-1.445H215.136a1.445,1.445,0,1,0,0,2.89h20.42A1.445,1.445,0,0,0,237,249.945Z" transform="translate(-143.05 -200.623)" fill="#484e36"/>
      <path id="Trazado_1004308" data-name="Trazado 1004308" d="M215.136,281.831a1.445,1.445,0,0,0,0,2.89h10.21a1.445,1.445,0,1,0,0-2.89Z" transform="translate(-143.05 -227.533)" fill="#484e36"/>
      <path id="Trazado_1004309" data-name="Trazado 1004309" d="M118.875,29.665a5.892,5.892,0,0,0-8.287.913L72.52,78.075c-.183.228.095-.238-4.961,9.888H46.924a.652.652,0,0,1-.651-.651V14.365h9.539v.974a3.635,3.635,0,0,0,3.631,3.631H87.057a3.635,3.635,0,0,0,3.631-3.631v-.974h9.539V36.443a1.445,1.445,0,1,0,2.89,0V14.365h2.256a1.735,1.735,0,0,1,1.733,1.733V27.84a1.445,1.445,0,1,0,2.89,0V16.1a4.628,4.628,0,0,0-4.623-4.623H90.512a6.06,6.06,0,0,0-5.875-4.605H81.857A.868.868,0,0,1,80.99,6a6.009,6.009,0,0,0-6-6H71.513a6.009,6.009,0,0,0-6,6,.868.868,0,0,1-.867.867H61.863a6.06,6.06,0,0,0-5.875,4.605H41.127A4.628,4.628,0,0,0,36.5,16.1V94.02a4.628,4.628,0,0,0,4.623,4.623h64.247A4.628,4.628,0,0,0,110,94.02V57.2a1.445,1.445,0,0,0-2.89,0V94.02a1.735,1.735,0,0,1-1.733,1.733H41.127a1.735,1.735,0,0,1-1.733-1.733V16.1a1.735,1.735,0,0,1,1.733-1.733h2.256V87.312a3.545,3.545,0,0,0,3.541,3.541h19.9a3.454,3.454,0,0,0,5.6,2.179l2.686-2.179H99.576a3.545,3.545,0,0,0,3.541-3.541V65.77a1.445,1.445,0,1,0-2.89,0V87.312a.652.652,0,0,1-.651.651h-20.9a36.608,36.608,0,0,0,3.046-2.514l38.068-47.5a5.9,5.9,0,0,0-.913-8.287ZM58.7,12.92a3.164,3.164,0,0,1,3.16-3.16h2.781A3.761,3.761,0,0,0,68.4,6,3.116,3.116,0,0,1,71.513,2.89h3.475A3.116,3.116,0,0,1,78.1,6a3.761,3.761,0,0,0,3.757,3.757h2.781a3.164,3.164,0,0,1,3.16,3.16v2.419a.742.742,0,0,1-.741.741H59.443a.742.742,0,0,1-.741-.741ZM70.6,90.788a.573.573,0,0,1-.874-.7l4.445-8.926,4.173,3.344Zm9.81-8.33L75.724,78.7l30.93-38.591,4.69,3.759Zm37.119-46.313-4.382,5.467-4.69-3.759,4.382-5.467a3.005,3.005,0,0,1,4.69,3.759Z" transform="translate(0)" fill="#484e36"/>
    </g>
  </g>
</svg>
