<svg xmlns="http://www.w3.org/2000/svg" width="128" height="128" viewBox="0 0 128 128">
  <g id="Grupo_1182002" data-name="Grupo 1182002" transform="translate(-72.746 -7992)">
    <g id="Elipse_13628" data-name="Elipse 13628" transform="translate(72.746 7992)" fill="#ecf0f1" stroke="#ffa038" stroke-width="6">
      <circle cx="64" cy="64" r="64" stroke="none"/>
      <circle cx="64" cy="64" r="61" fill="none"/>
    </g>
    <g id="Grupo_1182371" data-name="Grupo 1182371" transform="translate(100.307 8017.839)">
      <path id="Trazado_1004582" data-name="Trazado 1004582" d="M69.872,447.922v1.636a2.085,2.085,0,0,1-2.085,2.085H17.72a1.947,1.947,0,0,1-1.948-1.948v-1.773H8v2.843a5.592,5.592,0,0,0,5.593,5.591H72.05a5.591,5.591,0,0,0,5.593-5.591v-2.843Zm0,0" transform="translate(-6.382 -381.152)" fill="#4f7693"/>
      <path id="Trazado_1004583" data-name="Trazado 1004583" d="M135.836,452.167H98.469a3.251,3.251,0,0,1-3.251-3.25v-.726a.269.269,0,0,1,.27-.269h43.329a.269.269,0,0,1,.269.269v.726A3.25,3.25,0,0,1,135.836,452.167Zm0,0" transform="translate(-80.599 -381.151)" fill="#ffae85"/>
      <path id="Trazado_1004584" data-name="Trazado 1004584" d="M138.817,447.922H95.488a.269.269,0,0,0-.27.269v.727a3.252,3.252,0,0,0,.058.6h37.9a1.973,1.973,0,0,1,1.94,2.395.934.934,0,0,1-.091.253h.808a3.251,3.251,0,0,0,3.251-3.25v-.727a.269.269,0,0,0-.269-.269Zm0,0" transform="translate(-80.599 -381.152)" fill="#ea9e7d"/>
      <path id="Trazado_1004585" data-name="Trazado 1004585" d="M30.856,334.729H25.727l.415-3.048.261-1.915,3.978.243.162,1.611Zm0,0" transform="translate(-21.466 -280.609)" fill="#fedfc5"/>
      <path id="Trazado_1004586" data-name="Trazado 1004586" d="M28.451,367.711l-5.206.018-7.094-8.493a4.96,4.96,0,0,0-5.508-.252l-.636.384a2.537,2.537,0,0,0-1.218,1.983L8,371.634h7.771v-5.478L21,371.646H31.393v-.241a3.789,3.789,0,0,0-2.942-3.694Zm0,0" transform="translate(-6.382 -304.863)" fill="#ff84a7"/>
      <path id="Trazado_1004587" data-name="Trazado 1004587" d="M32.913,331.62a4.35,4.35,0,0,1-4.4.06l.261-1.914,3.978.243Zm0,0" transform="translate(-23.836 -280.608)" fill="#fecbaa"/>
      <path id="Trazado_1004588" data-name="Trazado 1004588" d="M24.865,261.613v4.138a4.344,4.344,0,1,1-8.689,0v-4.138a3.137,3.137,0,0,1,3.137-3.136h2.415a3.134,3.134,0,0,1,3.1,2.636,3.084,3.084,0,0,1,.041.5Zm0,0" transform="translate(-13.339 -219.947)" fill="#fedfc5"/>
      <path id="Trazado_1004589" data-name="Trazado 1004589" d="M24.824,261.113l-4.6,1.82a1.025,1.025,0,0,0-.649.953v1.092a1.026,1.026,0,0,1-.437.84l-2.547,1.787a4.327,4.327,0,0,1-.415-1.855v-4.138a3.137,3.137,0,0,1,3.137-3.136h2.415A3.134,3.134,0,0,1,24.824,261.113Zm0,0" transform="translate(-13.339 -219.946)" fill="#c97f4c"/>
      <path id="Trazado_1004590" data-name="Trazado 1004590" d="M428.185,334.729h-5.13l.24-2.389.234-2.331,3.978-.243.3,2.223Zm0,0" transform="translate(-359.566 -280.609)" fill="#fedfc5"/>
      <path id="Trazado_1004591" data-name="Trazado 1004591" d="M341.658,371.634l-.788-10.282a2.535,2.535,0,0,0-1.218-1.983l-.636-.384a4.96,4.96,0,0,0-5.508.252l-7.093,8.493-5.207-.018a3.791,3.791,0,0,0-2.942,3.694v.241h10.391l5.23-5.491v5.478Zm0,0" transform="translate(-270.397 -304.864)" fill="#83d9ff"/>
      <path id="Trazado_1004592" data-name="Trazado 1004592" d="M429.184,331.988a4.329,4.329,0,0,1-2.548.825,4.281,4.281,0,0,1-1.968-.473l.235-2.331,3.978-.243Zm0,0" transform="translate(-360.938 -280.609)" fill="#fecbaa"/>
      <path id="Trazado_1004593" data-name="Trazado 1004593" d="M417.42,261.613v4.138a4.344,4.344,0,0,1-8.689,0v-4.138a3.012,3.012,0,0,1,.041-.5,3.134,3.134,0,0,1,3.1-2.637h2.417A3.136,3.136,0,0,1,417.42,261.613Zm0,0" transform="translate(-347.377 -219.947)" fill="#fedfc5"/>
      <path id="Trazado_1004594" data-name="Trazado 1004594" d="M417.653,261.613v4.138a4.327,4.327,0,0,1-.416,1.855l-2.546-1.787a1.026,1.026,0,0,1-.437-.84v-1.092a1.026,1.026,0,0,0-.649-.953l-4.6-1.821a3.134,3.134,0,0,1,3.1-2.636h2.417A3.136,3.136,0,0,1,417.653,261.613Zm0,0" transform="translate(-347.61 -219.947)" fill="#c97f4c"/>
      <path id="Trazado_1004595" data-name="Trazado 1004595" d="M45.14,71.886V89.457a2.072,2.072,0,0,1-2.071,2.069H26.886a.907.907,0,0,0-.833.541,3.631,3.631,0,0,1-6.658,0,.906.906,0,0,0-.832-.541h-.322a2.07,2.07,0,0,1-2.071-2.069V71.886a2.069,2.069,0,0,1,2.071-2.069H43.069a2.069,2.069,0,0,1,2.071,2.069Zm0,0" transform="translate(-13.335 -59.409)" fill="#a7c7d3"/>
      <path id="Trazado_1004596" data-name="Trazado 1004596" d="M301.961,71.886V89.456a2.07,2.07,0,0,1-2.071,2.069h-.322a.907.907,0,0,0-.832.541,3.63,3.63,0,0,1-6.658,0,.906.906,0,0,0-.832-.541H275.063a2.068,2.068,0,0,1-2.071-2.069V71.886a2.069,2.069,0,0,1,2.071-2.069H299.89a2.069,2.069,0,0,1,2.071,2.069Zm0,0" transform="translate(-231.873 -59.409)" fill="#a7c7d3"/>
      <path id="Trazado_1004597" data-name="Trazado 1004597" d="M151.083,7.5H119.953a2.6,2.6,0,0,0-2.6,2.6V31.432a2.6,2.6,0,0,0,2.6,2.6H130.3a1.135,1.135,0,0,1,1.043.678,4.553,4.553,0,0,0,8.349,0,1.135,1.135,0,0,1,1.043-.678h10.348a2.6,2.6,0,0,0,2.6-2.6V10.1A2.6,2.6,0,0,0,151.083,7.5Zm0,0" transform="translate(-99.436 -6.382)" fill="#e9edf1"/>
      <path id="Trazado_1004598" data-name="Trazado 1004598" d="M118.3,71.886V89.456a2.061,2.061,0,0,1-.49,1.335,6.8,6.8,0,0,1-1.141-1.47H107.01a4.87,4.87,0,0,1-4.866-4.863V69.816h14.082a2.069,2.069,0,0,1,2.071,2.069Zm0,0" transform="translate(-86.493 -59.409)" fill="#89b4c9"/>
      <path id="Trazado_1004599" data-name="Trazado 1004599" d="M288.385,69.816V84.459a4.87,4.87,0,0,1-4.866,4.863h-9.655a6.784,6.784,0,0,1-.691.983,2.065,2.065,0,0,1-.182-.849V71.886a2.069,2.069,0,0,1,2.071-2.069Zm0,0" transform="translate(-231.873 -59.409)" fill="#89b4c9"/>
      <path id="Trazado_1004600" data-name="Trazado 1004600" d="M151.083,7.5H119.953a2.6,2.6,0,0,0-2.6,2.6V31.432a2.6,2.6,0,0,0,2.6,2.6H130.3a1.135,1.135,0,0,1,1.043.678,4.553,4.553,0,0,0,8.349,0,1.135,1.135,0,0,1,1.043-.678h10.348a2.6,2.6,0,0,0,2.6-2.6V10.1A2.6,2.6,0,0,0,151.083,7.5Zm0,0" transform="translate(-99.436 -6.382)" fill="#e9edf1"/>
      <path id="Trazado_1004601" data-name="Trazado 1004601" d="M210.145,335.733a3.163,3.163,0,0,0,2.157-3.005V329.8h5.291v2.931a3.167,3.167,0,0,0,.88,2.194,3.129,3.129,0,0,0,1.277.811Zm0,0" transform="translate(-178.394 -280.635)" fill="#fedfc5"/>
      <path id="Trazado_1004602" data-name="Trazado 1004602" d="M229.9,329.8v1.883l-1.2.734a2.77,2.77,0,0,1-2.882,0l-1.2-.734V329.8Zm0,0" transform="translate(-190.705 -280.635)" fill="#fecbaa"/>
      <path id="Trazado_1004603" data-name="Trazado 1004603" d="M218.02,249.189v6.419a2.777,2.777,0,0,1-1.33,2.37l-2.4,1.461a2.77,2.77,0,0,1-2.882,0l-2.4-1.461a2.774,2.774,0,0,1-1.33-2.37v-6.419a3.194,3.194,0,0,1,3.192-3.2h3.954a3.2,3.2,0,0,1,3.194,3.2Zm0,0" transform="translate(-176.296 -209.323)" fill="#fedfc5"/>
      <path id="Trazado_1004604" data-name="Trazado 1004604" d="M237.428,245.992h-2.419a3.2,3.2,0,0,1,3.194,3.2v6.419a2.778,2.778,0,0,1-1.33,2.371l-2.4,1.461a2.617,2.617,0,0,1-.232.125,2.77,2.77,0,0,0,2.651-.125l2.4-1.461a2.777,2.777,0,0,0,1.331-2.371v-6.419A3.2,3.2,0,0,0,237.428,245.992Zm0,0" transform="translate(-198.899 -209.323)" fill="#fecbaa"/>
      <path id="Trazado_1004605" data-name="Trazado 1004605" d="M218.019,249.186v2.982l-6.858-2.207-3.482,1.817v-2.593a3.2,3.2,0,0,1,3.192-3.2h3.954a3.2,3.2,0,0,1,3.194,3.2Zm0,0" transform="translate(-176.296 -209.32)" fill="#618aaa"/>
      <path id="Trazado_1004606" data-name="Trazado 1004606" d="M241.759,245.992H239.34a3.2,3.2,0,0,1,3.194,3.2v2.2l2.419.779v-2.982a3.2,3.2,0,0,0-3.194-3.2Zm0,0" transform="translate(-203.236 -209.323)" fill="#4f7693"/>
      <path id="Trazado_1004607" data-name="Trazado 1004607" d="M169.984,376.664v-5.375a5.959,5.959,0,0,1,4.056-5.649l1.931-.649a3.153,3.153,0,0,0,1.145-.681,10.027,10.027,0,0,0,7.183-.13,3.144,3.144,0,0,0,1.278.811l1.931.649a5.961,5.961,0,0,1,4.056,5.649v5.375Zm0,0" transform="translate(-144.219 -309.893)" fill="#69d998"/>
      <path id="Trazado_1004608" data-name="Trazado 1004608" d="M228.425,369.191l-2.27,8.022a.627.627,0,0,0,.137.589l1.69,1.883a.628.628,0,0,0,.912.023l1.88-1.895a.626.626,0,0,0,.153-.629Zm0,0" transform="translate(-191.997 -314.157)" fill="#3dc5a1"/>
      <path id="Trazado_1004609" data-name="Trazado 1004609" d="M72.377,269.346c0-.013,0-.027,0-.04l-.788-10.279a3.66,3.66,0,0,0-1.754-2.857l-.179-.108-.468-3.436a5.489,5.489,0,0,0,1.443-1.851c.012-.025.024-.05.034-.076a5.425,5.425,0,0,0,.5-2.273v-4.138a4.26,4.26,0,0,0-4.255-4.254H64.49a4.263,4.263,0,0,0-4.127,3.218,1.131,1.131,0,0,0-.049.108,1.113,1.113,0,0,0-.064.587c-.009.112-.015.226-.015.341v4.139a5.46,5.46,0,0,0,2.505,4.588l-.311,3.1a1.112,1.112,0,0,0-.176.167l-6.757,8.09-4.681-.017a1.043,1.043,0,0,0-.254.029,4.917,4.917,0,0,0-2.167,1.112v-1.529a7.076,7.076,0,0,0-4.818-6.71l-1.933-.65a2.023,2.023,0,0,1-.825-.523,2.045,2.045,0,0,1-.569-1.422v-2.081l.657-.4a3.917,3.917,0,0,0,1.867-3.325v-6.42a4.319,4.319,0,0,0-4.312-4.315H34.509a4.318,4.318,0,0,0-4.311,4.315v6.42a3.916,3.916,0,0,0,1.867,3.325l.658.4v2.081a2.067,2.067,0,0,1-.654,1.506,2.013,2.013,0,0,1-.741.44l-1.93.649a7.076,7.076,0,0,0-4.818,6.71v1.614a4.913,4.913,0,0,0-2.26-1.2,1.068,1.068,0,0,0-.254-.029l-4.681.016-6.757-8.09a1.09,1.09,0,0,0-.176-.168l-.311-3.1a5.46,5.46,0,0,0,2.506-4.588v-4.138c0-.115-.006-.228-.015-.341a1.116,1.116,0,0,0-.063-.586,1.07,1.07,0,0,0-.05-.108,4.262,4.262,0,0,0-4.127-3.219H5.974a4.26,4.26,0,0,0-4.255,4.254v4.138a5.423,5.423,0,0,0,.5,2.273c.01.026.022.051.034.076a5.493,5.493,0,0,0,1.443,1.851l-.468,3.437-.179.108a3.658,3.658,0,0,0-1.754,2.854L.5,269.307c0,.013,0,.027,0,.04s0,.03,0,.045v2.843a6.717,6.717,0,0,0,6.711,6.708H65.668a6.717,6.717,0,0,0,6.711-6.709v-2.843c0-.016,0-.03,0-.045ZM64.49,242.27h2.416a2.021,2.021,0,0,1,2.019,2.018v4.135l-1.163-.816v-1.045a2.132,2.132,0,0,0-1.356-1.993l-3.583-1.418a2.018,2.018,0,0,1,1.667-.882Zm-2.019,3.147,3.055,1.209v1.029a2.146,2.146,0,0,0,.912,1.755l1.662,1.166a3.226,3.226,0,0,1-5.63-2.15Zm3.228,8.471a5.445,5.445,0,0,0,1.379-.177l.18,1.32a6.044,6.044,0,0,0-2.474.013l.122-1.214A5.481,5.481,0,0,0,65.7,253.888Zm-14.751,12.7,5.067.018h0a1.116,1.116,0,0,0,.858-.4l7-8.383a3.829,3.829,0,0,1,4.163-.122l.636.384a1.424,1.424,0,0,1,.681,1.112l.7,9.078H64.608v-3.913l.673-.706a1.118,1.118,0,1,0-1.619-1.542l-5.868,6.162H49.137a2.658,2.658,0,0,1,1.81-1.686Zm-8.085-7.215a4.841,4.841,0,0,1,3.3,4.591v4.311H38.25l1.52-1.531a1.117,1.117,0,0,0,.273-1.121l-2.2-7.035a11.1,11.1,0,0,0,1.936-.459,4.273,4.273,0,0,0,1.155.6Zm-7.9-5.479a3.863,3.863,0,0,0,3.056,0v.765a4.3,4.3,0,0,0,.293,1.565,8.777,8.777,0,0,1-3.684.092,4.3,4.3,0,0,0,.335-1.657Zm1.457,7.622,1.293,4.13L36.4,266.961l-1.162-1.294ZM34.51,240.353h3.953a2.08,2.08,0,0,1,2.076,2.079v1.448l-5.4-1.736a1.122,1.122,0,0,0-.86.073l-1.847.964v-.748a2.08,2.08,0,0,1,2.075-2.079Zm-2.075,5.35,2.467-1.287,5.637,1.813v2.623a1.668,1.668,0,0,1-.794,1.416l-2.4,1.462a1.648,1.648,0,0,1-1.719,0l-2.4-1.462a1.668,1.668,0,0,1-.794-1.416Zm-2.324,13.67,1.927-.649a4.222,4.222,0,0,0,1.01-.493,11.121,11.121,0,0,0,1.863.391l-1.99,7.029a1.116,1.116,0,0,0,.243,1.051l1.411,1.572h-7.76v-4.311A4.839,4.839,0,0,1,30.11,259.373ZM7.182,251.652a3.22,3.22,0,0,1-2.4-1.075l1.663-1.166a2.147,2.147,0,0,0,.912-1.755v-1.029l3.055-1.209v3.01a3.23,3.23,0,0,1-3.227,3.225ZM5.974,242.27H8.389a2.019,2.019,0,0,1,1.667.882l-3.583,1.418a2.132,2.132,0,0,0-1.356,1.993v1.045l-1.163.816v-4.135a2.021,2.021,0,0,1,2.019-2.018Zm1.208,11.618a5.473,5.473,0,0,0,.793-.058l.122,1.214a6.044,6.044,0,0,0-2.474-.012l.18-1.32a5.471,5.471,0,0,0,1.379.176Zm-3.66,5.305a1.421,1.421,0,0,1,.681-1.109l.636-.384A3.83,3.83,0,0,1,9,257.821l7,8.383a1.118,1.118,0,0,0,.858.4h0l5.067-.018a2.656,2.656,0,0,1,1.81,1.686H15.087l-5.869-6.162A1.118,1.118,0,1,0,7.6,263.654l.673.706v3.913H2.825Zm66.622,13.042a4.479,4.479,0,0,1-4.474,4.473H7.211a4.479,4.479,0,0,1-4.475-4.473V270.51H8.272v.274A4.507,4.507,0,0,0,9.5,273.878a1.118,1.118,0,0,0,1.63-1.531,2.275,2.275,0,0,1-.62-1.563v-4.075l2.994,3.143v.536a4.373,4.373,0,0,0,4.37,4.368H22.58a1.118,1.118,0,1,0,0-2.236H17.871a2.135,2.135,0,0,1-2.128-2h9.268a1.137,1.137,0,0,0,.161-.013H47.707a1.13,1.13,0,0,0,.161.013h9.5a2.135,2.135,0,0,1-2.128,2H27.366a1.118,1.118,0,1,0,0,2.236h27.87a4.373,4.373,0,0,0,4.369-4.368v-.727c0-.015,0-.03,0-.045l2.769-2.907v4.075a2.274,2.274,0,0,1-.619,1.563,1.118,1.118,0,0,0,1.63,1.531,4.506,4.506,0,0,0,1.225-3.095v-.274h5.535Zm0,0" transform="translate(0 -202.622)"/>
      <path id="Trazado_1004610" data-name="Trazado 1004610" d="M11.861,33.235h.187a4.749,4.749,0,0,0,8.59,0h16.05a3.191,3.191,0,0,0,3.01-2.146,5.659,5.659,0,0,0,7.3-.53,3.191,3.191,0,0,0,3.144,2.677h16.05a4.748,4.748,0,0,0,8.589,0h.188a3.192,3.192,0,0,0,3.189-3.188V12.477a3.192,3.192,0,0,0-3.189-3.188H65.909a1.118,1.118,0,1,0,0,2.236h9.062a.954.954,0,0,1,.953.952V30.047a.953.953,0,0,1-.953.951h-.322a2.022,2.022,0,0,0-1.856,1.213,2.513,2.513,0,0,1-4.608,0A2.023,2.023,0,0,0,66.328,31H50.144a.953.953,0,0,1-.953-.951V28.764H58.6a3.719,3.719,0,0,0,3.715-3.714V3.714A3.719,3.719,0,0,0,58.6,0H27.471a3.719,3.719,0,0,0-3.716,3.714V9.289H11.861a3.192,3.192,0,0,0-3.189,3.188v1.587a1.118,1.118,0,1,0,2.236,0V12.477a.954.954,0,0,1,.953-.952H23.755V25.05a3.719,3.719,0,0,0,3.716,3.714h10.17v1.283a.953.953,0,0,1-.953.951H20.5a2.024,2.024,0,0,0-1.858,1.213,2.513,2.513,0,0,1-4.608,0A2.023,2.023,0,0,0,12.183,31h-.322a.953.953,0,0,1-.953-.951V18.772a1.118,1.118,0,0,0-2.236,0V30.047a3.192,3.192,0,0,0,3.189,3.187Zm14.13-8.185V3.714a1.481,1.481,0,0,1,1.48-1.478H58.6A1.48,1.48,0,0,1,60.08,3.714V25.05A1.48,1.48,0,0,1,58.6,26.528H48.253a2.259,2.259,0,0,0-.383.034l-.032.006a2.248,2.248,0,0,0-1.653,1.311,3.434,3.434,0,0,1-6.3,0,2.252,2.252,0,0,0-2.068-1.35H27.471a1.481,1.481,0,0,1-1.48-1.478Zm0,0" transform="translate(-6.954)"/>
      <path id="Trazado_1004611" data-name="Trazado 1004611" d="M149.673,44.99h24.18a1.118,1.118,0,0,0,0-2.236h-24.18a1.118,1.118,0,0,0,0,2.236Zm0,0" transform="translate(-125.985 -36.381)"/>
      <path id="Trazado_1004612" data-name="Trazado 1004612" d="M149.673,83.525h24.18a1.118,1.118,0,0,0,0-2.236h-24.18a1.118,1.118,0,0,0,0,2.236Zm0,0" transform="translate(-125.985 -69.172)"/>
      <path id="Trazado_1004613" data-name="Trazado 1004613" d="M163.84,120.946a1.118,1.118,0,0,0-1.118-1.118H149.673a1.118,1.118,0,0,0,0,2.236h13.049A1.118,1.118,0,0,0,163.84,120.946Zm0,0" transform="translate(-125.985 -101.966)"/>
    </g>
  </g>
</svg>
