<svg xmlns="http://www.w3.org/2000/svg" xmlns:xlink="http://www.w3.org/1999/xlink" width="292" height="153.125" viewBox="0 0 292 153.125">
  <defs>
    <clipPath id="clip-path">
      <path id="Trazado_1004789" data-name="Trazado 1004789" d="M1062.01,391.214c-15.824,14.552-35.51,14.524-55.536,6.455h0c-11.72-4.72-24.116-12.91-30.854-23.466-9.113-14.083-5.934-26.2,1.094-41.348,9.327-20.123,24.424-32.052,46.646-29.591,28.512,3.157,46.512,23.894,51.437,51.437C1077.277,368.576,1072.043,381.989,1062.01,391.214Z" transform="translate(-970.009 -302.945)"/>
    </clipPath>
  </defs>
  <g id="Grupo_1183841" data-name="Grupo 1183841" transform="translate(-186 -11740.831)">
    <rect id="Rectángulo_456616" data-name="Rectángulo 456616" width="292" height="153.125" rx="10" transform="translate(186 11740.831)" fill="#e8eddb"/>
    <g id="_7732595_5222" data-name="7732595_5222" transform="translate(-17.036 11455.913)">
      <g id="Grupo_1182426" data-name="Grupo 1182426" transform="translate(203.036 296.663)">
        <path id="Trazado_1004677" data-name="Trazado 1004677" d="M1062.01,391.214c-15.824,14.552-35.51,14.524-55.536,6.455h0c-11.72-4.72-24.116-12.91-30.854-23.466-9.113-14.083-5.934-26.2,1.094-41.348,9.327-20.123,24.424-32.052,46.646-29.591,28.512,3.157,46.512,23.894,51.437,51.437C1077.277,368.576,1072.043,381.989,1062.01,391.214Z" transform="translate(-883.663 -302.238)" fill="#ffe2c3"/>
        <path id="Trazado_1004678" data-name="Trazado 1004678" d="M267.58,810.027s-17.43-58.842,14.556-76.666,51.268,10.613,62.515,25.456,59.83,44.228,89.291,16.593c31.037-29.114,46.435-37.377,68.579-38.08s13.005,23.08,31.634,32.278,9.589,38.685-7.683,40.813Z" transform="translate(-256.107 -679.151)" fill="#ffe2c3"/>
        <g id="Grupo_1182381" data-name="Grupo 1182381" transform="translate(197.437 1.267)">
          <path id="Trazado_1004679" data-name="Trazado 1004679" d="M2012.086,1388.332s-.376,6.06-1.548,6.147c-.156.011-5.946.011-5.946.011l-7.392-.043a2.4,2.4,0,0,1,2.209-2.157c2.161-.377,5.777-1.9,7.086-4.751C2007.871,1384.535,2012.086,1388.332,2012.086,1388.332Z" transform="translate(-1992.649 -1264.969)" fill="#163560"/>
          <path id="Trazado_1004680" data-name="Trazado 1004680" d="M2055.7,767.1s-3.49,1.984-4.467,1.984-4.811-.741-5.88-.195a12.5,12.5,0,0,0-3.367,3.461c-.653,1.291,2.628.721,4.179-.379a.977.977,0,0,1,.774-.16,7.683,7.683,0,0,0,3.277.18,58.274,58.274,0,0,1,6.79-.846Z" transform="translate(-2032.321 -715.409)" fill="#ed975d"/>
          <path id="Trazado_1004681" data-name="Trazado 1004681" d="M2161.917,498.753s-3.617,25.711-9.607,28.014c-2.956,1.136-16.018,3.712-19.882,3.971,0,0-.947-.768-.716-3.893,0,0,13.686-5.024,15.63-7.757,2.893-4.066-1.8-16.613,1.834-20.432S2158.922,493.194,2161.917,498.753Z" transform="translate(-2111.986 -474.083)" fill="#ed7d2b"/>
          <path id="Trazado_1004682" data-name="Trazado 1004682" d="M2100.028,889.2a45.025,45.025,0,0,1-3.534,5.056c-3.888,4.908-8.12,8.955-8.857,12.781a17.331,17.331,0,0,1-.684,2.449c-.308.876-.688,1.8-1.128,2.75a84.718,84.718,0,0,1-6.581,11.25c-4.259,6.31-7.744,10.544-7.744,10.544s-1.116.871-4.311.87c-.889,0-3.881-.487-3.881-.487.294-.736,3.826-9.113,8.111-19.761L2076.8,901.3q.357-.888.711-1.766c.546-1.357,1.083-2.693,1.607-3.993,4.023-10,7.228-17.959,7.228-17.959s16.08-6.091,17.75-2.144C2105.469,878.69,2104.347,881.879,2100.028,889.2Z" transform="translate(-2051.316 -810.364)" fill="#599dad"/>
          <path id="Trazado_1004683" data-name="Trazado 1004683" d="M2250.17,1249.92s5.108,3.282,4.613,4.348c-.066.142-2.889,5.2-2.889,5.2l-3.641,6.433a2.4,2.4,0,0,1-.807-2.981c.724-2.07,1.162-5.968-.694-8.5C2244.8,1251.75,2250.17,1249.92,2250.17,1249.92Z" transform="translate(-2213.728 -1143.869)" fill="#163560"/>
          <path id="Trazado_1004684" data-name="Trazado 1004684" d="M2045.242,928.728s3.6-3.339,4.158-5.405c0,0-13.154-15.76-16.007-19.293-.131-.162-.1-.34.075-.535,2.154-2.429,26.088-7.367,29.216-12.234a15.084,15.084,0,0,0,2.021-4.66,11.018,11.018,0,0,0,.148-5.021l-23.9-.691s-19.9,12.392-22.155,20.841S2045.242,928.728,2045.242,928.728Z" transform="translate(-2011.702 -816.384)" fill="#6bb7bf"/>
          <path id="Trazado_1004685" data-name="Trazado 1004685" d="M2150.11,912.078c2.154-2.429,26.088-7.367,29.216-12.233a15.087,15.087,0,0,0,2.021-4.66V892.16l-10.159-1.6s-2.881,8.865-11.414,12.189C2151.784,905.865,2150.27,911.39,2150.11,912.078Z" transform="translate(-2128.345 -824.968)" fill="#5aa9ad"/>
          <path id="Trazado_1004686" data-name="Trazado 1004686" d="M2274.68,424.712c4.836,1.25,12.852-3.23,12.852-3.23a11.868,11.868,0,0,1-4.266-6.687c-.059-.232-.111-.469-.158-.713l-2.483-.526-3.693,3.309a31.715,31.715,0,0,0,.546,3.735q.119.618.278,1.325A11.4,11.4,0,0,0,2274.68,424.712Z" transform="translate(-2238.891 -401.663)" fill="#ffb27d"/>
          <path id="Trazado_1004687" data-name="Trazado 1004687" d="M2238.288,492.148c-.692,9.315.218,23.484-.567,25.937-.678,2.117-8.4.858-11.489.152-1.141-.261-2.524-.635-3.952-1.077-3.983-1.233-8.323-2.995-8.789-4.3a1.151,1.151,0,0,1-.043-.15,1.2,1.2,0,0,1,.009-.548,9.333,9.333,0,0,0,.824-3.038c.079-1.842.067-4.012.136-6.345,0-.263.007-.549.036-.811v-.1l0-.149c.067-2.6.2-5.337.361-8.05.1-1.7.216-3.391.35-5.008a66.915,66.915,0,0,1,1.435-10.23,16.425,16.425,0,0,1,5.277-8.147l1.47-1.261a8.5,8.5,0,0,0,5.333-.71c1.9-.9,2.554-1.547,2.885-1.3C2235.953,470.394,2239.106,480.759,2238.288,492.148Z" transform="translate(-2184.528 -449.055)" fill="#f99746"/>
          <path id="Trazado_1004688" data-name="Trazado 1004688" d="M2222.5,629.453c-3.983-1.233-8.323-2.995-8.789-4.3a1.151,1.151,0,0,1-.043-.15q0-.274.009-.548a9.325,9.325,0,0,0,.824-3.038c.079-1.842.067-4.012.136-6.345,0-.263.007-.549.036-.811v-.1l0-.149,16.1-20.515S2241.606,616.039,2222.5,629.453Z" transform="translate(-2184.748 -561.348)" fill="#ed7d2b"/>
          <path id="Trazado_1004689" data-name="Trazado 1004689" d="M2294.67,416.865a31.715,31.715,0,0,0,.546,3.735,9.8,9.8,0,0,0,5.789-5.805c-.059-.232-.111-.469-.158-.713l-2.483-.526Z" transform="translate(-2256.63 -401.663)" fill="#ed975d"/>
          <path id="Trazado_1004690" data-name="Trazado 1004690" d="M2256,351.194s7.865-1.313,6.973-6.2-.479-8.345-5.539-7.714-5.692,2.674-5.79,4.377S2253.927,351.409,2256,351.194Z" transform="translate(-2218.442 -333.91)" fill="#ffb27d"/>
          <path id="Trazado_1004691" data-name="Trazado 1004691" d="M1982.69,688.188l-19.635.419-5.582-17.18-.693.225,5.9,18.162,20.036-.428Z" transform="translate(-1956.78 -630.503)" fill="#4a75cb"/>
          <path id="Trazado_1004692" data-name="Trazado 1004692" d="M2073.582,810.734s-6.438,1.7-8.852,1.519-4.422-1.326-4.726-1.926-.942-1.663.7-1.466,3.887.546,3.957.23-1.34-.286-1.34-.286-.426-.62.111-.642,2.1-.447,2.682-.156,1.118,1.364,1.542,1.319,5.387-2.235,5.387-2.235Z" transform="translate(-2048.046 -750.893)" fill="#ffb27d"/>
          <path id="Trazado_1004693" data-name="Trazado 1004693" d="M2173.885,512.82s-.761,25.953-6.46,28.9c-2.812,1.455-15.511,5.455-19.323,6.138,0,0-1.025-.659-1.141-3.791,0,0,13.048-6.5,14.679-9.433,2.427-4.361-3.617-16.314-.429-20.51S2170.295,507.625,2173.885,512.82Z" transform="translate(-2125.55 -487.095)" fill="#f99746"/>
          <path id="Trazado_1004694" data-name="Trazado 1004694" d="M2239.554,321.049a3.721,3.721,0,0,0-.944-2.637s.36-1.681-.3-1.958-.8,1.136-1.108.914a6.789,6.789,0,0,1-2.244-2.826c-.582-1.551-5.906.328-6.527.607s-2.615-.746-3-1.577a11.667,11.667,0,0,0,1.607-1.551c.5-.665,3.989-5.153,8.865-3.878s5.541,3.6,5.264,5.6S2241.551,320.38,2239.554,321.049Z" transform="translate(-2195.179 -307.918)" fill="#2b478b"/>
        </g>
        <path id="Trazado_1004695" data-name="Trazado 1004695" d="M494.706,1459.175H203.367a.332.332,0,0,1-.331-.331v-.113a.332.332,0,0,1,.331-.331H494.705a.332.332,0,0,1,.331.331v.113A.331.331,0,0,1,494.706,1459.175Z" transform="translate(-203.036 -1327.612)" fill="#2e3552"/>
        <g id="Grupo_1182388" data-name="Grupo 1182388" transform="translate(63.59 85.651)">
          <g id="Grupo_1182383" data-name="Grupo 1182383" transform="translate(24.024 17.942)">
            <path id="Trazado_1004696" data-name="Trazado 1004696" d="M1016.987,1224.439s-3.144-3.668-.194-6a8.368,8.368,0,0,1,3.912-1.2s-2.49,4.175-1.684,4.59,2.439-4.852,2.439-4.852,4.9-.475,6.481.283c0,0-4.192,3.431-3.309,3.635s5.411-3.163,5.411-3.163,4.564.777,4.321,3.561-1.816,3.644-2.507,3.57-4.735-1.617-4.823-1.051,2.346,2.417,4.05,2.5c0,0-3.218,3.549-5.356,2.525s-2.321-2.648-3.654-3.257-2.471-.607-1.921.014,2.963,1.225,3.726,2.573,1.446,2.258-.766,1.925-5.809-1.952-5.967-3.806Z" transform="translate(-1011.674 -1216.834)" fill="#82b378"/>
            <g id="Grupo_1182382" data-name="Grupo 1182382" transform="translate(0 4.517)">
              <path id="Trazado_1004697" data-name="Trazado 1004697" d="M1021.858,1256.98s-12.4-.478-15.134,3.068a8.964,8.964,0,0,1-2.469,3.464l-.29.792s2.148-2.265,2.917-2.4C1006.883,1261.9,1005.68,1257.508,1021.858,1256.98Z" transform="translate(-1001.411 -1256.959)" fill="#82b378"/>
              <path id="Trazado_1004698" data-name="Trazado 1004698" d="M984.12,1312.7a7.784,7.784,0,0,0-2.845,5.484l.483.043s.85-3.635,2.386-5.057S984.12,1312.7,984.12,1312.7Z" transform="translate(-981.275 -1306.151)" fill="#82b378"/>
            </g>
          </g>
          <g id="Grupo_1182385" data-name="Grupo 1182385" transform="translate(0 7.984)">
            <path id="Trazado_1004699" data-name="Trazado 1004699" d="M786.225,1141.33s5-2.8,2.667-6.6a9.93,9.93,0,0,0-3.868-2.934s1.067,5.668,0,5.8-.734-6.4-.734-6.4-5.268-2.534-7.335-2.334c0,0,3.267,5.535,2.2,5.4s-4.735-5.735-4.735-5.735-5.4-1-6.268,2.2.533,4.8,1.334,5,5.935.134,5.8.8-3.6,1.734-5.535,1.134c0,0,2.134,5.268,4.935,5s3.667-2,5.4-2.134,3,.333,2.134.8-3.8.153-5.2,1.344-2.534,1.924.067,2.458,7.269.2,8.2-1.8Z" transform="translate(-767.88 -1128.379)" fill="#a8d29f"/>
            <g id="Grupo_1182384" data-name="Grupo 1182384" transform="translate(2.741 3.348)">
              <path id="Trazado_1004700" data-name="Trazado 1004700" d="M792.226,1158.12s14,4.535,15.6,9.6a10.638,10.638,0,0,0,1.334,4.868v1s-1.467-3.4-2.267-3.868C806.9,1169.724,810.031,1165.322,792.226,1158.12Z" transform="translate(-792.226 -1158.12)" fill="#82b378"/>
              <path id="Trazado_1004701" data-name="Trazado 1004701" d="M937.4,1281.753a9.236,9.236,0,0,1,.928,7.272l-.556-.149s.539-4.4-.591-6.608S937.4,1281.753,937.4,1281.753Z" transform="translate(-920.465 -1267.282)" fill="#82b378"/>
            </g>
          </g>
          <g id="Grupo_1182387" data-name="Grupo 1182387" transform="translate(21.968)">
            <path id="Trazado_1004702" data-name="Trazado 1004702" d="M967.346,1074.537s-6.593-3.692-3.516-8.7c0,0,2.461-3.076,5.1-3.868,0,0-1.406,7.472,0,7.647s.967-8.439.967-8.439,6.944-3.34,9.669-3.076c0,0-4.307,7.3-2.9,7.12s6.241-7.56,6.241-7.56,7.12-1.318,8.263,2.9-.7,6.329-1.758,6.593-7.823.176-7.648,1.055,4.747,2.286,7.3,1.494c0,0-2.813,6.944-6.5,6.593s-4.835-2.637-7.12-2.813-3.956.439-2.813,1.055,5.01.2,6.857,1.771,3.34,2.536-.088,3.24-9.581.264-10.812-2.373Z" transform="translate(-963.012 -1057.464)" fill="#a8d29f"/>
            <g id="Grupo_1182386" data-name="Grupo 1182386" transform="translate(0.852 4.414)">
              <path id="Trazado_1004703" data-name="Trazado 1004703" d="M1008.215,1096.67s-18.459,5.977-20.569,12.658a14.023,14.023,0,0,1-1.758,6.417v1.318s1.934-4.483,2.989-5.1C988.877,1111.965,984.745,1106.164,1008.215,1096.67Z" transform="translate(-984.164 -1096.67)" fill="#82b378"/>
              <path id="Trazado_1004704" data-name="Trazado 1004704" d="M972.3,1259.64a12.174,12.174,0,0,0-1.224,9.585l.732-.2s-.711-5.8.778-8.711S972.3,1259.64,972.3,1259.64Z" transform="translate(-970.578 -1240.565)" fill="#82b378"/>
            </g>
          </g>
          <path id="Trazado_1004705" data-name="Trazado 1004705" d="M897.737,1350.815a12.914,12.914,0,0,0,12.914-12.914H884.823A12.914,12.914,0,0,0,897.737,1350.815Z" transform="translate(-871.658 -1306.329)" fill="#f1a34f"/>
          <path id="Trazado_1004706" data-name="Trazado 1004706" d="M913.322,1350.712A12.922,12.922,0,0,1,898.8,1337.9h3.208A12.916,12.916,0,0,0,913.322,1350.712Z" transform="translate(-884.065 -1306.326)" fill="#ffb973"/>
          <path id="Trazado_1004707" data-name="Trazado 1004707" d="M909.425,1445.892H883.24a1.593,1.593,0,0,1,1.593-1.593h23a1.593,1.593,0,0,1,1.594,1.593Z" transform="translate(-870.253 -1400.749)" fill="#f1a34f"/>
          <rect id="Rectángulo_456742" data-name="Rectángulo 456742" width="26.546" height="0.396" transform="translate(12.741 31.571)" fill="#d86713"/>
        </g>
        <g id="Grupo_1182389" data-name="Grupo 1182389" transform="translate(233.023 85.062)">
          <path id="Trazado_1004708" data-name="Trazado 1004708" d="M2305.459,1097.263c-3.072-3.138-8.483-5.3-14.734-5.552v-10.375h9.657c.239,0,.453-.209.589-.53a2.128,2.128,0,0,0,.151-.81v-.468c0-.737-.333-1.34-.739-1.34h-9.658v-24.712a1.244,1.244,0,0,0-1.241-1.241h0a1.244,1.244,0,0,0-1.241,1.241v24.712h-9.658c-.406,0-.74.6-.74,1.34V1080a2.1,2.1,0,0,0,.161.832c.135.309.345.508.579.508h9.657v10.375c-6.251.254-11.662,2.414-14.734,5.552q-.335.342-.631.7h33.211C2305.893,1097.724,2305.682,1097.491,2305.459,1097.263Z" transform="translate(-2272.879 -1052.235)" fill="#d39e7a"/>
          <path id="Trazado_1004709" data-name="Trazado 1004709" d="M2322.469,1402.74a14.247,14.247,0,0,0-10.28,5.506q-.248.342-.467.7h-3.073q.219-.356.467-.7a14.522,14.522,0,0,1,11.816-5.577C2321.451,1402.668,2321.965,1402.693,2322.469,1402.74Z" transform="translate(-2304.623 -1363.217)" fill="#e0b594"/>
        </g>
        <path id="Trazado_1004710" data-name="Trazado 1004710" d="M2291.643,978.44h-32.887a1.494,1.494,0,0,0-1.49,1.49v6.233a1.494,1.494,0,0,0,1.49,1.49h32.887a1.494,1.494,0,0,0,1.49-1.49V979.93A1.494,1.494,0,0,0,2291.643,978.44Z" transform="translate(-2026 -901.685)" fill="#ed7d2b"/>
        <g id="Grupo_1182393" data-name="Grupo 1182393" transform="translate(13.715 0)">
          <g id="man_4_">
            <path id="Trazado_1004711" data-name="Trazado 1004711" d="M897.162,530.515c-.551,1.483-1.507,3.2-2.51,3.632a3.885,3.885,0,0,0-1.612,1.171l-.918-.533-1.1-.638s.026-.122.08-.32.135-.473.247-.777a1.062,1.062,0,0,0,.13-.976,2.266,2.266,0,0,1,.187-1.893c.352-.511.691-1.771.9-1.733.513.088-.252,1.82-.032,2.141a.379.379,0,0,0,.493.169l.009,0c1.439-.633,3.184-4.044,3.957-3.583C897.286,527.34,897.4,529.883,897.162,530.515Z" transform="translate(-827.286 -501.18)" fill="#ffb27d"/>
            <g id="Grupo_1182390" data-name="Grupo 1182390" transform="translate(64.778 24.315)">
              <path id="Trazado_1004712" data-name="Trazado 1004712" d="M900.375,519.732l1.8,1.267a.284.284,0,0,0,.394-.069l4.618-6.571a.284.284,0,0,0-.069-.394l-1.8-1.267a.284.284,0,0,0-.394.069l-4.618,6.571A.284.284,0,0,0,900.375,519.732Z" transform="translate(-900.255 -512.647)" fill="#2b478b"/>
              <path id="Trazado_1004713" data-name="Trazado 1004713" d="M915.26,530.13l1.057.743a.216.216,0,0,0,.3-.052l4.7-6.682a.216.216,0,0,0-.052-.3L920.2,523.1a.216.216,0,0,0-.3.052l-4.7,6.682A.216.216,0,0,0,915.26,530.13Z" transform="translate(-913.49 -521.885)" fill="#233862"/>
            </g>
            <path id="Trazado_1004714" data-name="Trazado 1004714" d="M632.259,491.828s9.173,16,12.5,18.943l12.2-9.1a4.454,4.454,0,0,1,2.546,2.32s-7.41,15.1-14.705,15.736-17.535-18.094-17.535-18.094Z" transform="translate(-593.222 -469.856)" fill="#233862"/>
            <g id="Grupo_1182391" data-name="Grupo 1182391" transform="translate(8.889 58.944)">
              <path id="Trazado_1004715" data-name="Trazado 1004715" d="M413.21,1373.606h-5.3a3.213,3.213,0,0,1-1.45-2.428c-.259-1.707-2.172-2.638-2.587-4.035s1.708-3.361,1.708-3.361l.355-.458.369-.474,3.518.828s.087.838.14,1.905a24.363,24.363,0,0,1,.015,2.44c-.1,1.862.521,3.868,2.175,4.23C413.377,1372.52,413.323,1373.246,413.21,1373.606Z" transform="translate(-403.821 -1301.761)" fill="#233862"/>
              <path id="Trazado_1004716" data-name="Trazado 1004716" d="M661.807,1409.543h-12.12c-.583-.711-.368-3.337-.28-4.193.018-.173.031-.273.031-.273s4.139-3.311,4.707-.776c.017.08.038.157.061.234.716,2.371,3.929,3.448,5.784,3.749A2.1,2.1,0,0,1,661.807,1409.543Z" transform="translate(-621.659 -1337.699)" fill="#233862"/>
              <path id="Trazado_1004717" data-name="Trazado 1004717" d="M601.508,848.889s-.629,7.841-1.367,17.266c-1,12.8-2.211,28.531-2.331,31.51-.206,5.174-1.035,13.449-1.035,13.449s-1.965,1.966-5.9,1.137a135.38,135.38,0,0,1-4.5-24.313c-.016-.2-.031-.411-.047-.618-.931-12.724-2.379-39.519-2.379-39.519Z" transform="translate(-563.669 -844.699)" fill="#f99746"/>
              <path id="Trazado_1004718" data-name="Trazado 1004718" d="M601.508,848.888s-.629,7.841-1.367,17.267l-13.767,21.784c-.016-.2-.031-.411-.047-.618-.931-12.724-2.379-39.519-2.379-39.519Z" transform="translate(-563.669 -844.699)" fill="#ed7d2b"/>
              <path id="Trazado_1004719" data-name="Trazado 1004719" d="M452.669,825.356s-11.328,28.4-18.776,41.743-9.776,17.069-9.776,17.069-4.267-1.707-4.655-2.871c0,0,2.848-25.764,7.836-32.044,2.818-3.549,6.129-14.2,6.285-17.923s1.009-11.1,1.009-11.1Z" transform="translate(-417.7 -820.235)" fill="#f99746"/>
            </g>
            <path id="Trazado_1004720" data-name="Trazado 1004720" d="M594.116,404.952c-4.426,1.4-12.086-2.373-12.086-2.373a11.527,11.527,0,0,0,3.867-9.432l3.423,2.758,2.325,1.873a27.848,27.848,0,0,1-.264,3.04c-.067.509-.15,1.077-.256,1.7A10.59,10.59,0,0,1,594.116,404.952Z" transform="translate(-553.078 -382.285)" fill="#ffb27d"/>
            <path id="Trazado_1004721" data-name="Trazado 1004721" d="M622.018,419a27.848,27.848,0,0,1-.264,3.04c-2.576-.442-5.5-4.606-5.5-4.606a8.2,8.2,0,0,1,3.437-.308Z" transform="translate(-583.451 -403.504)" fill="#ed975d"/>
            <path id="Trazado_1004722" data-name="Trazado 1004722" d="M610.522,338s-7.312,1.215-8-3.35-2.092-7.483,2.547-8.451,5.81.637,6.41,2.1S612.406,337.571,610.522,338Z" transform="translate(-570.601 -322.616)" fill="#ffb27d"/>
            <path id="Trazado_1004723" data-name="Trazado 1004723" d="M568.48,506.534a.716.716,0,0,1-.465.177c-1.662-.023-6.51.9-10.611.479a30.552,30.552,0,0,1-9.8-2.83c-.437-.2-1.441-.732-1.418-1.22.015-.534.068-1.309.134-2.285a122.229,122.229,0,0,0,.243-15.959c-.071-1.253-.108-2.5-.113-3.721-.034-9.123,1.775-17.148,5.411-19.864.311-.223,2.217.709,3.968,1.573a7.249,7.249,0,0,0,4.766.577l1.529,1.352a15.278,15.278,0,0,1,4.788,7.647c.754,3.037,1.2,8.513,1.441,14.187.111,2.571.2,5.165.223,7.626v.088c.021.244.021.51.021.754C568.68,501.435,568.591,506.444,568.48,506.534Z" transform="translate(-521.264 -442.747)" fill="#2b478b"/>
            <path id="Trazado_1004724" data-name="Trazado 1004724" d="M547.378,607.742a122.229,122.229,0,0,0,.243-15.959c-.071-1.253-.108-2.5-.113-3.721,1.514-3.674,2.752-6.337,2.752-6.337h3.817S556.875,600.839,547.378,607.742Z" transform="translate(-522.327 -549.633)" fill="#233862"/>
            <g id="Grupo_1182392" data-name="Grupo 1182392" transform="translate(0 62.859)">
              <path id="Trazado_1004725" data-name="Trazado 1004725" d="M365.741,876.164l-16.279-2.32a3.9,3.9,0,0,0-4.4,3.3l-1.005,7.055a3.9,3.9,0,0,0,3.3,4.4l16.279,2.32a3.9,3.9,0,0,0,4.4-3.3l1.005-7.055A3.9,3.9,0,0,0,365.741,876.164Z" transform="translate(-341.859 -871.69)" fill="#233862"/>
              <path id="Trazado_1004726" data-name="Trazado 1004726" d="M349.66,861.591h0a3.92,3.92,0,0,0-2.7-2.356h0c-.123-.03-.247-.055-.376-.073l-3.241-.461.217-1.522a1.289,1.289,0,0,0-1.094-1.457l-.846-.121-3.4-.485-.614-.087a1.29,1.29,0,0,0-1.457,1.094l-.217,1.522-5.6-.8a3.918,3.918,0,0,0-4.418,3.315L324.9,867.3a3.916,3.916,0,0,0,3.315,4.417l16.25,2.316a3.81,3.81,0,0,0,.847.027h0a3.845,3.845,0,0,0,1.268-.32,3.913,3.913,0,0,0,2.3-3.023l1.017-7.136A3.875,3.875,0,0,0,349.66,861.591Zm-12.716-5.357a.482.482,0,0,1,.4-.406.488.488,0,0,1,.145,0l.723.1,2.679.383,1.46.208a.482.482,0,0,1,.408.544l-.217,1.522-5.815-.829Z" transform="translate(-324.86 -855.014)" fill="#2b478b"/>
            </g>
            <path id="Trazado_1004727" data-name="Trazado 1004727" d="M443.8,811.751q.006-.13.016-.268a5.655,5.655,0,0,1,.889-1.594l-2.143-1.113-.849,1.4c-1.282,1.02-1.305,1.038-1.072,2.991.2,1.693-.9,1.713-.878,2.922s1.584.615,1.584.615c2.414-1.133,2.614-1.7,2.539-2.853.229.325.485.514.7.373.192-.124-.191-.62-.358-1.766A2.058,2.058,0,0,0,443.8,811.751Z" transform="translate(-426.827 -751.123)" fill="#ffb27d"/>
            <path id="Trazado_1004728" data-name="Trazado 1004728" d="M449.457,507.432a12.506,12.506,0,0,0,2.864.159s4.08-12.606,4.606-13.757,12.12-14.781,12.12-14.781l-4.83-12.089s-12.542,20.949-13.815,23.893c-2.1,4.864-2.835,15.77-2.835,15.77A5.253,5.253,0,0,0,449.457,507.432Z" transform="translate(-433.753 -447.792)" fill="#2b478b"/>
            <path id="Trazado_1004729" data-name="Trazado 1004729" d="M594.341,308.263s.75-.125.629-1.159-.12-2.384.721-2.133.882.924,1.227.532.352-2.048,2.852-2.163,3.516.755,4.679.244,1.224-2.271,1.224-2.271a2,2,0,0,1-.83.828s1.94-2.653-.306-4.472-4.536-.628-5.835-.549c-2.863.173-4.713.345-5.649,2.227S592.5,306.452,594.341,308.263Z" transform="translate(-562.424 -296.663)" fill="#2b478b"/>
          </g>
        </g>
        <g id="Grupo_1182425" data-name="Grupo 1182425" transform="translate(86.346 0.707)">
          <g id="Grupo_1182424" data-name="Grupo 1182424" clip-path="url(#clip-path)">
            <g id="Grupo_1182400" data-name="Grupo 1182400" transform="translate(-0.232 22.297)">
              <g id="Grupo_1182396" data-name="Grupo 1182396" transform="translate(45.591 1.798)">
                <path id="Trazado_1004730" data-name="Trazado 1004730" d="M1390.39,829.456s-7.4-1.489-8.634-1.372-5.518,2.042-5.566,2.394.164.633.914.664,3.2-.35,3.056-.048-7.2,1.883-7.246,3.312,3.915,3.981,7.2,4.073,9.644-3.892,10.2-3.955C1394.995,833.992,1390.39,829.456,1390.39,829.456Z" transform="translate(-1372.912 -793.053)" fill="#ed975d"/>
                <g id="Grupo_1182394" data-name="Grupo 1182394" transform="translate(13.588)">
                  <path id="Trazado_1004731" data-name="Trazado 1004731" d="M1537.912,536.931a61.579,61.579,0,0,1-6.569,7.4,28.617,28.617,0,0,1-3.75,2.457c-10.548,5.953-30.836,11.993-30.836,11.993l-.04-.029a8.87,8.87,0,0,1-2.533-3.045,3.523,3.523,0,0,1-.384-3.04,1.34,1.34,0,0,1,.305-.449s24.312-15.538,26.256-17.156c1.1-.918,5.1-10.214,8.348-18.1q.682.989,1.321,2.009A68.692,68.692,0,0,1,1537.912,536.931Z" transform="translate(-1493.61 -516.971)" fill="#ed7d2b"/>
                </g>
                <g id="Grupo_1182395" data-name="Grupo 1182395" transform="translate(46.818 46.588)">
                  <path id="Trazado_1004732" data-name="Trazado 1004732" d="M1800.015,931.678q-.23.652-.482,1.3a40.444,40.444,0,0,1-2.84,5.82h0q-.979,1.662-2.115,3.233a43.223,43.223,0,0,1-5.8,6.523c.012-.163.024-.325.035-.487.017-.251.035-.5.053-.746q.059-.821.115-1.612.023-.307.044-.609l.263-3.7q.036-.5.07-.983c.007-.1.013-.19.02-.285.014-.188.027-.376.04-.561.012-.167.024-.332.035-.5,0-.017,0-.034,0-.05q.017-.25.034-.494c.02-.275.04-.543.058-.806.011-.164.023-.324.034-.483q.026-.372.051-.724c0-.057.009-.114.012-.17.009-.112.016-.224.024-.333q.005-.083.011-.164a.141.141,0,0,0,0-.02c.015-.211.03-.416.044-.615,0-.011,0-.021,0-.032.01-.145.021-.288.031-.427,0-.047.007-.093.01-.138.006-.079.012-.158.016-.235s.01-.126.013-.188c.031-.434.06-.832.084-1.188,0-.051.008-.1.011-.15s.008-.1.01-.149c.007-.094.013-.185.019-.272.045-.629.077-1.087.1-1.356,0-.028,0-.054.006-.078,0-.008,0-.015,0-.023,0-.025,0-.047,0-.066l.009-.115Z" transform="translate(-1788.777 -930.793)" fill="#6bb7bf"/>
                  <path id="Trazado_1004733" data-name="Trazado 1004733" d="M1800.015,931.678q-.23.652-.482,1.3a40.444,40.444,0,0,1-2.84,5.82h0q-.979,1.662-2.115,3.233a43.223,43.223,0,0,1-5.8,6.523c.012-.163.024-.325.035-.487.017-.251.035-.5.053-.746q.059-.821.115-1.612.023-.307.044-.609l.263-3.7q.036-.5.07-.983c.007-.1.013-.19.02-.285.014-.188.027-.376.04-.561.012-.167.024-.332.035-.5,0-.017,0-.034,0-.05q.017-.25.034-.494c.02-.275.04-.543.058-.806.011-.164.023-.324.034-.483q.026-.372.051-.724c0-.057.009-.114.012-.17.009-.112.016-.224.024-.333q.005-.083.011-.164a.141.141,0,0,0,0-.02c.015-.211.03-.416.044-.615,0-.011,0-.021,0-.032.01-.145.021-.288.031-.427,0-.047.007-.093.01-.138.006-.079.012-.158.016-.235s.01-.126.013-.188c.031-.434.06-.832.084-1.188,0-.051.008-.1.011-.15s.008-.1.01-.149c.007-.094.013-.185.019-.272.045-.629.077-1.087.1-1.356,0-.028,0-.054.006-.078,0-.008,0-.015,0-.023,0-.025,0-.047,0-.066l.009-.115Z" transform="translate(-1788.777 -930.793)" fill="#599dad"/>
                </g>
                <path id="Trazado_1004734" data-name="Trazado 1004734" d="M1799.918,560.474a38.719,38.719,0,0,1-1.6,19.8q-.229.652-.482,1.3a40.424,40.424,0,0,1-2.84,5.82h0q-.979,1.662-2.115,3.232c-2.168-.313-3.931-.569-5.018-.6a1.394,1.394,0,0,1-.273-.037,1.424,1.424,0,0,1-.644-.349c-.215-.187-.011-10.2.649-22.814.019-.486.038-1.021.1-1.5l.005-.178q.062-1.249.131-2.521.042-.734.085-1.474c.2-3.364.456-6.8.731-10.236q.04-.494.078-.986c.433-5.281.943-10.473,1.543-15.117a68.736,68.736,0,0,1,7.881,17.951Q1799.213,556.526,1799.918,560.474Z" transform="translate(-1740.257 -532.804)" fill="#f99746"/>
              </g>
              <g id="Grupo_1182399" data-name="Grupo 1182399">
                <path id="Trazado_1004735" data-name="Trazado 1004735" d="M982.421,549.1c-.121-3.531-.3-7.737-.538-12.279-.019-.486-.04-1.021-.1-1.5l-.008-.178c-.019-.4-.038-.808-.059-1.214-.011-.23-.024-.459-.036-.69q-.054-1.038-.12-2.091c-.2-3.364-.457-6.8-.729-10.236-.029-.329-.055-.658-.081-.986-.4-4.893-.866-9.708-1.411-14.082v0c0-.025-.007-.049-.01-.074-.068-.549-.14-1.095-.211-1.63-.143-1.078-.291-2.126-.445-3.136q-.316.517-.622,1.043-1.809,3.092-3.373,6.48a103.513,103.513,0,0,0-5.45,14.8l-.029.1a32.087,32.087,0,0,0-1.033,5.06h0c-.03.236-.056.474-.078.71h0a32.245,32.245,0,0,0,5.491,20.865c.139.217.282.434.428.649q.431.642.891,1.273.323.447.661.887c.046.062.094.123.143.186a51.555,51.555,0,0,0,5.222,5.767q.465.444.943.88l.238.216a1.532,1.532,0,0,0,.429-.279A104.38,104.38,0,0,0,982.421,549.1Z" transform="translate(-967.948 -501)" fill="#2a4e96"/>
                <path id="Trazado_1004736" data-name="Trazado 1004736" d="M984.141,608.4a91.054,91.054,0,0,1-14.255-20.621h0a32.087,32.087,0,0,1,1.033-5.06l.029-.1a103.537,103.537,0,0,1,5.45-14.8c3.481,4.976,5.922,9.556,6.072,11.4.027.327.053.656.081.986.272,3.432.525,6.873.729,10.236q.065,1.052.12,2.091c.012.231.025.46.036.69.021.407.04.811.059,1.214l.008.178c.061.483.082,1.018.1,1.5C983.84,600.667,984.019,604.873,984.141,608.4Z" transform="translate(-969.667 -560.302)" fill="#1e3d70"/>
                <g id="Grupo_1182398" data-name="Grupo 1182398" transform="translate(1.279 1.043)">
                  <path id="Trazado_1004737" data-name="Trazado 1004737" d="M1303.948,844.264s7.547.007,8.735.368,5,3.1,4.981,3.45-.287.587-1.027.469-3.071-.978-2.985-.652,6.689,3.274,6.445,4.683-4.626,3.126-7.867,2.564-8.681-5.727-9.21-5.9C1298.535,847.8,1303.948,844.264,1303.948,844.264Z" transform="translate(-1264.998 -806.662)" fill="#ffb27d"/>
                  <g id="Grupo_1182397" data-name="Grupo 1182397">
                    <path id="Trazado_1004738" data-name="Trazado 1004738" d="M1019.623,550.441a8.875,8.875,0,0,1-2.182,2.468,6.29,6.29,0,0,1-.6.421,234.728,234.728,0,0,1-25.05-11.184,45.305,45.305,0,0,1-8.46-5.613,39.859,39.859,0,0,1-4.028-4.992,103.534,103.534,0,0,1,5.45-14.8q1.567-3.382,3.373-6.48c.42,1.251.852,2.529,1.287,3.8v0c2.306,6.727,4.67,13.176,5.512,13.981,1.828,1.749,25.012,18.923,25.012,18.923a1.616,1.616,0,0,1,.382.915A4.072,4.072,0,0,1,1019.623,550.441Z" transform="translate(-979.307 -510.263)" fill="#2a4e96"/>
                  </g>
                </g>
              </g>
            </g>
            <rect id="Rectángulo_456743" data-name="Rectángulo 456743" width="39.596" height="35.915" transform="translate(30.326 10.155)" fill="#ddebfd"/>
            <rect id="Rectángulo_456744" data-name="Rectángulo 456744" width="39.596" height="2.154" transform="translate(30.326 8.001)" fill="#739af0"/>
            <g id="Grupo_1182401" data-name="Grupo 1182401" transform="translate(31.223 8.647)">
              <path id="Trazado_1004739" data-name="Trazado 1004739" d="M1247.781,379.75a.431.431,0,1,0,.431.431A.431.431,0,0,0,1247.781,379.75Z" transform="translate(-1247.35 -379.75)" fill="#ddebfd"/>
              <path id="Trazado_1004740" data-name="Trazado 1004740" d="M1262.771,379.75a.431.431,0,1,0,.431.431A.431.431,0,0,0,1262.771,379.75Z" transform="translate(-1260.652 -379.75)" fill="#ddebfd"/>
              <path id="Trazado_1004741" data-name="Trazado 1004741" d="M1277.861,379.75a.431.431,0,1,0,.431.431A.431.431,0,0,0,1277.861,379.75Z" transform="translate(-1274.044 -379.75)" fill="#ddebfd"/>
            </g>
            <g id="Grupo_1182402" data-name="Grupo 1182402" transform="translate(36.382 13.398)">
              <path id="Trazado_1004742" data-name="Trazado 1004742" d="M1339.34,423.386h15.127a.72.72,0,0,0,.718-.718h0a.72.72,0,0,0-.718-.718H1339.34a.72.72,0,0,0-.718.718h0A.721.721,0,0,0,1339.34,423.386Z" transform="translate(-1333.505 -421.95)" fill="#a8c3f7"/>
              <path id="Trazado_1004743" data-name="Trazado 1004743" d="M1308.73,445.282h22.021a.718.718,0,0,0,0-1.436H1308.73a.718.718,0,0,0,0,1.436Z" transform="translate(-1306.341 -441.381)" fill="#a8c3f7"/>
              <path id="Trazado_1004744" data-name="Trazado 1004744" d="M1293.7,505.92h26.541a.527.527,0,1,0,0-1.053H1293.7a.527.527,0,1,0,0,1.053Z" transform="translate(-1293.171 -495.532)" fill="#a8c3f7"/>
              <path id="Trazado_1004745" data-name="Trazado 1004745" d="M1320.239,526.447H1293.7a.528.528,0,0,0-.527.527h0a.528.528,0,0,0,.527.527h26.541a.528.528,0,0,0,.527-.527h0A.528.528,0,0,0,1320.239,526.447Z" transform="translate(-1293.171 -514.683)" fill="#a8c3f7"/>
              <path id="Trazado_1004746" data-name="Trazado 1004746" d="M1320.239,548.027H1293.7a.527.527,0,0,0,0,1.053h26.541a.527.527,0,1,0,0-1.053Z" transform="translate(-1293.171 -533.833)" fill="#a8c3f7"/>
            </g>
            <g id="Grupo_1182403" data-name="Grupo 1182403" transform="translate(36.382 36.424)">
              <path id="Trazado_1004747" data-name="Trazado 1004747" d="M1296.363,626.481H1293.7a.527.527,0,0,0,0,1.053h2.665a.527.527,0,0,0,0-1.053Z" transform="translate(-1293.171 -626.481)" fill="#a8c3f7"/>
              <path id="Trazado_1004748" data-name="Trazado 1004748" d="M1335.9,626.481h-2.665a.527.527,0,0,0,0,1.053h2.665a.527.527,0,0,0,0-1.053Z" transform="translate(-1328.26 -626.481)" fill="#a8c3f7"/>
            </g>
            <g id="Grupo_1182404" data-name="Grupo 1182404" transform="translate(55.806 36.424)">
              <path id="Trazado_1004749" data-name="Trazado 1004749" d="M1468.9,626.481h-2.665a.527.527,0,1,0,0,1.053h2.665a.527.527,0,0,0,0-1.053Z" transform="translate(-1465.712 -626.481)" fill="#a8c3f7"/>
              <path id="Trazado_1004750" data-name="Trazado 1004750" d="M1508.443,626.481h-2.665a.527.527,0,1,0,0,1.053h2.665a.527.527,0,1,0,0-1.053Z" transform="translate(-1500.801 -626.481)" fill="#a8c3f7"/>
            </g>
            <g id="Grupo_1182405" data-name="Grupo 1182405" transform="translate(37.503 38.117)">
              <path id="Trazado_1004751" data-name="Trazado 1004751" d="M1305.942,641.525a2.807,2.807,0,1,0,2.807,2.807A2.81,2.81,0,0,0,1305.942,641.525Zm0,5.473a2.666,2.666,0,1,1,2.666-2.665A2.669,2.669,0,0,1,1305.942,647Z" transform="translate(-1303.135 -641.525)" fill="#a8c3f7"/>
              <path id="Trazado_1004752" data-name="Trazado 1004752" d="M1310.241,646.368a2.262,2.262,0,1,0,2.262,2.262A2.264,2.264,0,0,0,1310.241,646.368Zm0,4.382a2.12,2.12,0,1,1,2.12-2.12A2.123,2.123,0,0,1,1310.241,650.75Z" transform="translate(-1307.434 -645.823)" fill="#a8c3f7"/>
              <path id="Trazado_1004753" data-name="Trazado 1004753" d="M1316.9,659.363c-.3-.025-.457-.167-.464-.421a.662.662,0,0,1,.213-.507.77.77,0,0,0,.384.595.237.237,0,0,0,.264-.093,1.634,1.634,0,0,0,.2-.333.171.171,0,0,0,.113.05c.1.005.208-.078.3-.24a1.282,1.282,0,0,0,.067-.139.1.1,0,0,0,.022.018.087.087,0,0,0,.1-.015.926.926,0,0,0,.174-.259.126.126,0,0,0,.047.054.1.1,0,0,0,.129-.028.066.066,0,0,0,.018-.083c-.016-.028-.065-.049-.138-.061h0a.828.828,0,0,0,.1-.436.067.067,0,0,0-.07-.043c-.051,0-.088.057-.11.159a1.009,1.009,0,0,0-.014.307l0,0c-.053,0-.112,0-.176,0a.213.213,0,0,0-.027-.107.066.066,0,0,0-.071-.037c-.04.01-.054.057-.06.1,0,.015,0,.034-.005.055a3.284,3.284,0,0,0-.575.1,1.875,1.875,0,0,0-.611.273c-.005-.089,0-.2.065-.237s.206.011.251.037l.045-.076c-.008,0-.208-.119-.342-.036-.083.052-.119.163-.106.33,0,.016,0,.032,0,.048a.765.765,0,0,0-.285.612c.008.3.2.478.545.507a2.577,2.577,0,0,0,2.187-1.2A2.737,2.737,0,0,1,1316.9,659.363Zm1.456-1.821a.69.69,0,0,1-.021.092A.611.611,0,0,1,1318.354,657.543Zm-.295.433c.052,0,.1,0,.141,0a.825.825,0,0,1-.157.239s-.012-.008-.026-.05A1.1,1.1,0,0,0,1318.059,657.976Zm-.474.049c.11-.02.216-.033.314-.041a.876.876,0,0,0,.025.179,1.179,1.179,0,0,1-.091.206c-.073.128-.153.2-.22.2a.1.1,0,0,1-.078-.053A.665.665,0,0,0,1317.585,658.025Zm-.087.027a.434.434,0,0,1-.011.33A.678.678,0,0,1,1317.5,658.052Zm-.512.158a2.211,2.211,0,0,1,.416-.145.833.833,0,0,0,0,.338.533.533,0,0,0,.036.115,1.52,1.52,0,0,1-.213.363.15.15,0,0,1-.169.065.724.724,0,0,1-.333-.578A1.323,1.323,0,0,1,1316.986,658.209Z" transform="translate(-1314.859 -655.631)" fill="#a8c3f7"/>
              <path id="Trazado_1004754" data-name="Trazado 1004754" d="M1340.61,664.4a.393.393,0,0,0,.014-.052A.407.407,0,0,1,1340.61,664.4Z" transform="translate(-1336.391 -661.776)" fill="#a8c3f7"/>
            </g>
            <g id="Grupo_1182406" data-name="Grupo 1182406" transform="translate(56.939 38.192)">
              <path id="Trazado_1004755" data-name="Trazado 1004755" d="M1478.647,642.19a2.875,2.875,0,1,0,2.875,2.875A2.878,2.878,0,0,0,1478.647,642.19Zm0,5.605a2.73,2.73,0,1,1,2.73-2.73A2.733,2.733,0,0,1,1478.647,647.8Z" transform="translate(-1475.772 -642.19)" fill="#a8c3f7"/>
              <path id="Trazado_1004756" data-name="Trazado 1004756" d="M1483.049,647.15a2.317,2.317,0,1,0,2.317,2.317A2.319,2.319,0,0,0,1483.049,647.15Zm0,4.489a2.172,2.172,0,1,1,2.172-2.172A2.174,2.174,0,0,1,1483.049,651.639Z" transform="translate(-1480.174 -646.592)" fill="#a8c3f7"/>
              <path id="Trazado_1004757" data-name="Trazado 1004757" d="M1514.15,665.617a.388.388,0,0,0,.015-.053A.438.438,0,0,1,1514.15,665.617Z" transform="translate(-1509.829 -662.932)" fill="#a8c3f7"/>
              <path id="Trazado_1004758" data-name="Trazado 1004758" d="M1489.859,660.459c-.308-.026-.468-.171-.475-.431a.677.677,0,0,1,.218-.519.787.787,0,0,0,.393.609.242.242,0,0,0,.27-.1,1.671,1.671,0,0,0,.207-.341.174.174,0,0,0,.115.051c.107.005.214-.08.308-.246a1.218,1.218,0,0,0,.069-.142.1.1,0,0,0,.023.018.089.089,0,0,0,.105-.015.946.946,0,0,0,.178-.265.129.129,0,0,0,.048.056.107.107,0,0,0,.132-.029.067.067,0,0,0,.018-.085c-.016-.029-.067-.05-.142-.062h0a.847.847,0,0,0,.106-.446.069.069,0,0,0-.072-.044c-.053.005-.09.058-.113.163a1.033,1.033,0,0,0-.014.315l0,0c-.054,0-.115-.005-.18,0a.22.22,0,0,0-.028-.11.068.068,0,0,0-.073-.038c-.041.01-.056.059-.062.1a.56.56,0,0,0-.005.056,3.374,3.374,0,0,0-.589.1,1.918,1.918,0,0,0-.626.28c-.006-.091,0-.2.067-.243s.211.011.257.038l.046-.078c-.009-.005-.213-.122-.35-.037-.085.053-.121.167-.109.338,0,.016,0,.033,0,.049a.783.783,0,0,0-.292.627c.008.306.206.49.558.519a2.638,2.638,0,0,0,2.24-1.228A2.8,2.8,0,0,1,1489.859,660.459Zm1.492-1.865a.687.687,0,0,1-.021.095A.537.537,0,0,1,1491.351,658.594Zm-.3.443c.053,0,.1,0,.144,0a.848.848,0,0,1-.161.244s-.013-.008-.027-.051A1.058,1.058,0,0,0,1491.048,659.037Zm-.485.051c.112-.02.222-.034.322-.042a.884.884,0,0,0,.025.184,1.186,1.186,0,0,1-.093.211c-.075.131-.157.2-.225.2a.1.1,0,0,1-.079-.054A.68.68,0,0,0,1490.563,659.088Zm-.089.027a.445.445,0,0,1-.012.338A.7.7,0,0,1,1490.474,659.116Zm-.525.161a2.288,2.288,0,0,1,.426-.148.849.849,0,0,0,0,.346.558.558,0,0,0,.037.118,1.548,1.548,0,0,1-.218.372.154.154,0,0,1-.173.066.741.741,0,0,1-.341-.592A1.41,1.41,0,0,1,1489.949,659.277Z" transform="translate(-1487.771 -656.636)" fill="#a8c3f7"/>
            </g>
            <g id="Grupo_1182409" data-name="Grupo 1182409" transform="translate(54.303 74.127)">
              <g id="Grupo_1182408" data-name="Grupo 1182408">
                <path id="Trazado_1004759" data-name="Trazado 1004759" d="M1471.458,961.386l-3.446,4.65-.339.457-.165.222-.424.573-.231.311-.425.573-.447.6-.418.564-.007.008v0l-.392.529,0,.007-.058.078-.007.009s0,0,0,0l-.074.1h0l-.424.526v.045l-.4.536h0l-.512.692h0l-.387.521h0l-.424.571h0l-.709.956h0l-.07.095-.241.325h0l-.558.752-.74.952v.046l-.384.518-.04.054h0l-.533.72h0l-.5.671,0,.007h0l-1.23,1.661h0l-1.833,2.472-3.069,4.141-.382.516-.225.3c.118.017.234.034.351.049h0q.611.081,1.221.147c.114.013.229.026.343.037l.214.021c.172.017.344.032.516.047l.217.019.1.009.343.026.065,0c.251.019.5.035.752.049.114.007.229.012.343.017.089.006.178.01.267.014l.051,0c.148.007.3.013.444.017.115,0,.229.008.343.01.129,0,.259.008.387.009l.343.006.362,0h.343c.063,0,.125,0,.188,0s.139,0,.208,0l.135,0,.134,0,.19,0h.047l.1,0,.137,0q1.331-.036,2.64-.145h0q1.509-.124,2.986-.344,1.6-.237,3.156-.581l.052-.012a.065.065,0,0,1,0,.013l.977-.24c.136-.032.272-.066.407-.1q1.925-.488,3.776-1.133.31-.108.617-.219l.153-.056q.576-.21,1.142-.436l.307-.123h0l.062-.024h0l.359-.148.268-.113q.158-.066.314-.135l.2-.088h0l.35-.156h0q1.718-.772,3.352-1.679.172-.095.344-.192h0l6-8.093Z" transform="translate(-1452.357 -961.386)" fill="#a8d29f"/>
                <g id="Grupo_1182407" data-name="Grupo 1182407" transform="translate(2.649 3.609)">
                  <path id="Trazado_1004760" data-name="Trazado 1004760" d="M1483.271,1006.511v.479l.349-.471.005-.007h-.354Zm-.656.632a2.617,2.617,0,0,0-.356.175l-.766,1.032-.587.791v1.039l.695-.936,1.669-2.253A1.972,1.972,0,0,0,1482.615,1007.143Zm-2.828,3.509-.087.118-.334.451-1.508,2.034v1.039l1.066-1.438.854-1.151.447-.6.332-.449h-.769Zm12.752-17.2-3.589,4.842-.032.043-.217.293-.279.376-.145.193v0l-.665.9-.276.327v.045l-.181.245-.243.327-.99,1.336h0l-.021.028-.05.067h0l-.315.425v.045l-.942,1.225-.365.492-.06.081-1.011,1.364-.3.407,0,.007-.592.8-.766,1.032-.587.79-.424.573-.7.938-.087.118-.334.451-1.508,2.034-.423.571-.717.966-.83,1.12.217.019.1.009c.114.01.229.018.343.026l.065,0,.872-1.177h0l.369-.5,1.066-1.438.854-1.151.447-.6.332-.449h0l.349-.472.695-.936,1.669-2.253,0,0,.349-.471,0-.007h0l.543-.686v-.045l.424-.572.338-.457.6-.814.424-.572.479-.645.183-.247.071-.095h0l.22-.3.425-.572.448-.6.449-.606.045-.058v0l.424-.572.325-.439.152-.2v0l.39-.527.034-.045.085-.115,1.635-2.207a2.257,2.257,0,0,1,3.158-.47l8.355,6.192a2.485,2.485,0,0,1,.517,3.478l-5.041,6.8-.3.4.268-.113c.105-.044.209-.089.314-.135l.2-.088h0l.35-.156h0l6.548-8.834Zm-12.752,17.2-.087.118-.334.451-1.508,2.034v1.039l1.066-1.438.854-1.151.447-.6.332-.449h-.769Zm2.828-3.509a2.617,2.617,0,0,0-.356.175l-.766,1.032-.587.791v1.039l.695-.936,1.669-2.253A1.972,1.972,0,0,0,1482.615,1007.143Zm.656-.632v.479l.349-.471.005-.007h-.354Z" transform="translate(-1475.889 -993.447)" fill="#82b378"/>
                </g>
                <path id="Trazado_1004761" data-name="Trazado 1004761" d="M1531.226,1150.746a.072.072,0,0,0,0-.013l-.053.012q-1.557.343-3.156.581-1.477.218-2.986.344h0q-1.309.11-2.64.145l-.137,0-.1,0h-.047q-.013-.192-.01-.385a4.99,4.99,0,0,1,.092-.9,5.074,5.074,0,0,1,.91-2.067l.01-.013a5.128,5.128,0,0,1,.753-.811,4.938,4.938,0,0,1,.423-.328,5.053,5.053,0,0,1,1.3-.649c.14-.047.281-.087.424-.12a4.983,4.983,0,0,1,1.01-.138c.142-.006.283,0,.424,0a5.081,5.081,0,0,1,.942.133q.214.05.423.121a4.922,4.922,0,0,1,.479.187c.144.064.284.136.423.214a4.892,4.892,0,0,1,.446.285q.04.027.081.057.169.125.324.261h0a.137.137,0,0,1,.019.016c.08.071.157.143.232.217a5.723,5.723,0,0,1,.424.477v.006q.086.109.164.224v.007a4.909,4.909,0,0,1,.423.726v.006c.055.118.105.239.151.361h0a5.056,5.056,0,0,1,.228.8Z" transform="translate(-1514.251 -1125.573)" fill="#82b378"/>
              </g>
              <path id="Trazado_1004762" data-name="Trazado 1004762" d="M1465.019,1037.767h0l-.424.532v.039l-.4.536-.512.692h0l-.387.521h0l-.424.571h0l-.709.956h0l-.07.095-.241.325h0l-.558.752-.74.959v.039l-.384.518-.04.054h0l-.534.719-.5.671,0,.007h0l-1.231,1.661h0l-1.832,2.472-3.069,4.141-.382.516-.225.3c.118.017.234.034.351.049h0c.408.054.815.1,1.221.147.114.013.229.026.343.037l.214.021c.172.017.345.033.516.047l.217.019.1.009c.114.01.229.018.343.026l.065,0c.251.019.5.035.752.049l.343.017c.089.006.178.01.267.013l.051,0q.132-.623.3-1.258c.172-.641.371-1.289.592-1.938.17-.5.352-1,.545-1.5q.113-.3.232-.589l.047-.118h0c.234-.58.481-1.155.735-1.723v-.038c.14-.311.281-.582.425-.888q.354-.758.718-1.486l0-.007c.327-.658.656-1.3.979-1.906.043-.08.085-.131.128-.2v-.038c.143-.269.284-.533.424-.789q.311-.574.607-1.1c.018-.031.035-.064.054-.1.124-.222.244-.4.362-.607v-.038c.285-.507.548-.971.782-1.385q.211-.375.386-.69.068-.121.128-.232c.187-.341.331-.617.424-.82.031-.067.056-.126.074-.177Z" transform="translate(-1452.357 -1029.081)" fill="#82b378" opacity="0.5"/>
            </g>
            <g id="Grupo_1182420" data-name="Grupo 1182420" transform="translate(31.121 78.459)">
              <g id="Grupo_1182411" data-name="Grupo 1182411" transform="translate(5.271 16.466)">
                <path id="Trazado_1004763" data-name="Trazado 1004763" d="M1328.9,1147.043l0,2.34c0,.024,0,.047,0,.07h0a.885.885,0,0,1-.152.433.9.9,0,0,1-.423.337.8.8,0,0,1-.124.038l-.04.009c-.027,0-.053.009-.079.011a.78.78,0,0,1-.08,0h-9.844l-1.89,0h-1.612l-2.872,0h-5.095q-.718-.155-1.437-.326l-.343-.083q-.478-.115-.958-.238c-.141-.035-.282-.072-.423-.109q-.363-.093-.726-.192-.393-.106-.786-.216l-.343-.1q-.975-.279-1.948-.583h0l-.076-.024q-.294-.09-.587-.187c-.115-.035-.229-.073-.343-.11-1.831-.6-3.652-1.259-5.453-1.984h.52l9.745.007h.424l2.622,0h21.469a.859.859,0,0,1,.12.014.821.821,0,0,1,.164.046.9.9,0,0,1,.577.841Z" transform="translate(-1293.261 -1146.118)" fill="#ffb93e"/>
                <path id="Trazado_1004764" data-name="Trazado 1004764" d="M1310.6,1150.275h-3.916q-.718-.155-1.437-.326l-.343-.083q-.478-.115-.958-.238c-.141-.036-.282-.072-.423-.109q-.363-.093-.726-.192-.393-.106-.786-.216l-.343-.1q-.974-.279-1.948-.583h0l-.075-.024q-.294-.09-.587-.187c-.115-.035-.229-.073-.343-.11-1.831-.6-3.653-1.259-5.453-1.984h.52l9.744.007h.424l2.622,0h1.58a8.467,8.467,0,0,0,.717,1.985,6.8,6.8,0,0,0,1.463,1.928c.039.036.08.072.121.107l.025.022C1310.514,1150.208,1310.555,1150.242,1310.6,1150.275Z" transform="translate(-1293.257 -1146.121)" fill="#ffa412"/>
                <g id="Grupo_1182410" data-name="Grupo 1182410" transform="translate(10.263 0.007)">
                  <rect id="Rectángulo_456745" data-name="Rectángulo 456745" width="0.424" height="4.143" transform="translate(20.419 0.015)" fill="#ffa412"/>
                  <rect id="Rectángulo_456746" data-name="Rectángulo 456746" width="0.424" height="4.143" transform="translate(18.986 0.014)" fill="#ffa412"/>
                  <rect id="Rectángulo_456747" data-name="Rectángulo 456747" width="0.424" height="4.143" transform="translate(17.273 0.006) rotate(0.057)" fill="#ffa412"/>
                  <rect id="Rectángulo_456748" data-name="Rectángulo 456748" width="0.424" height="4.143" transform="translate(14.631 0.01)" fill="#ffa412"/>
                  <rect id="Rectángulo_456749" data-name="Rectángulo 456749" width="0.424" height="4.143" transform="translate(11.844 0.009)" fill="#ffa412"/>
                  <rect id="Rectángulo_456750" data-name="Rectángulo 456750" width="0.424" height="4.143" transform="translate(7.573 0.006)" fill="#ffa412"/>
                  <rect id="Rectángulo_456751" data-name="Rectángulo 456751" width="0.424" height="4.143" transform="translate(3.573 0.003)" fill="#ffa412"/>
                  <path id="Trazado_1004765" data-name="Trazado 1004765" d="M1384.843,1146.18l0,3.5c-.141-.036-.282-.072-.423-.109l0-3.388Z" transform="translate(-1384.417 -1146.18)" fill="#ffa412"/>
                  <rect id="Rectángulo_456752" data-name="Rectángulo 456752" width="0.424" height="4.143" transform="translate(21.784 0.016)" fill="#ffa412"/>
                  <rect id="Rectángulo_456753" data-name="Rectángulo 456753" width="0.424" height="4.143" transform="translate(22.685 0.016)" fill="#ffa412"/>
                  <rect id="Rectángulo_456754" data-name="Rectángulo 456754" width="0.424" height="4.143" transform="translate(23.562 0.01) rotate(0.057)" fill="#ffa412"/>
                  <path id="Trazado_1004766" data-name="Trazado 1004766" d="M1599.879,1146.343l0,4.114a.866.866,0,0,1-.159.014h-.265l0-4.143h.265A.925.925,0,0,1,1599.879,1146.343Z" transform="translate(-1575.243 -1146.311)" fill="#ffa412"/>
                  <path id="Trazado_1004767" data-name="Trazado 1004767" d="M1605.114,1147.208l0,3.346a.907.907,0,0,1-.423.337l0-4.021A.915.915,0,0,1,1605.114,1147.208Z" transform="translate(-1579.89 -1146.792)" fill="#ffa412"/>
                </g>
              </g>
              <g id="Grupo_1182413" data-name="Grupo 1182413" transform="translate(4.889 12.323)">
                <path id="Trazado_1004768" data-name="Trazado 1004768" d="M1328.94,1110.246l0,2.34a.9.9,0,0,1-.155.5.908.908,0,0,1-.424.337.823.823,0,0,1-.165.046.874.874,0,0,1-.159.014l-37.265-.026a.9.9,0,0,1-.9-.856c0-.016,0-.031,0-.047l0-2.339c0-.016,0-.031,0-.046a.906.906,0,0,1,.795-.848.857.857,0,0,1,.107-.006l37.265.026a.893.893,0,0,1,.159.015.851.851,0,0,1,.165.047.908.908,0,0,1,.423.338A.894.894,0,0,1,1328.94,1110.246Z" transform="translate(-1289.87 -1109.318)" fill="#ffb93e"/>
                <path id="Trazado_1004769" data-name="Trazado 1004769" d="M1310.641,1113.476l-19.964-.014a.855.855,0,0,1-.8-.856c0-.016,0-.031,0-.047l0-2.339c0-.015,0-.031,0-.046a.87.87,0,0,1,.709-.848.7.7,0,0,1,.1-.006l17.513.012,0,.006A7.42,7.42,0,0,0,1310.641,1113.476Z" transform="translate(-1289.872 -1109.32)" fill="#ffa412"/>
                <g id="Grupo_1182412" data-name="Grupo 1182412" transform="translate(13.693 0.01)">
                  <rect id="Rectángulo_456755" data-name="Rectángulo 456755" width="0.424" height="4.143" transform="translate(20.419 0.014)" fill="#ffa412"/>
                  <rect id="Rectángulo_456756" data-name="Rectángulo 456756" width="0.424" height="4.143" transform="translate(18.984 0.012)" fill="#ffa412"/>
                  <rect id="Rectángulo_456757" data-name="Rectángulo 456757" width="0.424" height="4.143" transform="translate(17.265 0.011)" fill="#ffa412"/>
                  <rect id="Rectángulo_456758" data-name="Rectángulo 456758" width="0.424" height="4.143" transform="translate(14.63 0.009)" fill="#ffa412"/>
                  <rect id="Rectángulo_456759" data-name="Rectángulo 456759" width="0.424" height="4.143" transform="translate(11.843 0.008)" fill="#ffa412"/>
                  <rect id="Rectángulo_456760" data-name="Rectángulo 456760" width="0.424" height="4.143" transform="translate(7.571 0.004)" fill="#ffa412"/>
                  <rect id="Rectángulo_456761" data-name="Rectángulo 456761" width="0.424" height="4.143" transform="translate(3.571 0.002)" fill="#ffa412"/>
                  <rect id="Rectángulo_456762" data-name="Rectángulo 456762" width="0.424" height="4.143" fill="#ffa412"/>
                  <rect id="Rectángulo_456763" data-name="Rectángulo 456763" width="0.424" height="4.143" transform="translate(21.783 0.015)" fill="#ffa412"/>
                  <rect id="Rectángulo_456764" data-name="Rectángulo 456764" width="0.424" height="4.143" transform="translate(22.684 0.015)" fill="#ffa412"/>
                  <rect id="Rectángulo_456765" data-name="Rectángulo 456765" width="0.424" height="4.143" transform="translate(23.555 0.016)" fill="#ffa412"/>
                  <path id="Trazado_1004770" data-name="Trazado 1004770" d="M1626.958,1109.564l0,4.114a.88.88,0,0,1-.159.014h-.265l0-4.143h.265A.91.91,0,0,1,1626.958,1109.564Z" transform="translate(-1602.324 -1109.533)" fill="#ffa412"/>
                  <path id="Trazado_1004771" data-name="Trazado 1004771" d="M1632.184,1110.428l0,3.346a.909.909,0,0,1-.424.337l0-4.021A.916.916,0,0,1,1632.184,1110.428Z" transform="translate(-1606.961 -1110.013)" fill="#ffa412"/>
                </g>
              </g>
              <g id="Grupo_1182415" data-name="Grupo 1182415" transform="translate(0 8.183)">
                <path id="Trazado_1004772" data-name="Trazado 1004772" d="M1285.509,1073.486l0,2.339a.894.894,0,0,1-.155.5.907.907,0,0,1-.423.337.855.855,0,0,1-.165.046l-.052.008-.042,0h-.065l-37.265-.026a.9.9,0,0,1-.9-.856c0-.016,0-.031,0-.046v-2.339c0-.016,0-.031,0-.047a.9.9,0,0,1,.9-.855l37.265.026.048,0a.893.893,0,0,1,.111.013.85.85,0,0,1,.165.046.781.781,0,0,1,.078.035l.046.025.005,0,.045.028.007.005a.446.446,0,0,1,.04.029.794.794,0,0,1,.09.078l.025.026,0,.005.015.017,0,0,.026.033c.012.016.024.032.036.049A.886.886,0,0,1,1285.509,1073.486Z" transform="translate(-1246.439 -1072.557)" fill="#ffb93e"/>
                <path id="Trazado_1004773" data-name="Trazado 1004773" d="M1267.211,1076.706l-19.964-.014a.855.855,0,0,1-.8-.856c0-.015,0-.031,0-.046v-2.34c0-.015,0-.031,0-.047a.855.855,0,0,1,.8-.855l17.513.012c.007.031.014.063.023.1a7.386,7.386,0,0,0,2.418,4.042Z" transform="translate(-1246.443 -1072.55)" fill="#ffa412"/>
                <g id="Grupo_1182414" data-name="Grupo 1182414" transform="translate(13.695 0.004)">
                  <rect id="Rectángulo_456766" data-name="Rectángulo 456766" width="0.424" height="4.143" transform="translate(20.416 0.019)" fill="#ffa412"/>
                  <rect id="Rectángulo_456767" data-name="Rectángulo 456767" width="0.424" height="4.143" transform="translate(18.983 0.018)" fill="#ffa412"/>
                  <rect id="Rectángulo_456768" data-name="Rectángulo 456768" width="0.424" height="4.143" transform="translate(17.264 0.017)" fill="#ffa412"/>
                  <rect id="Rectángulo_456769" data-name="Rectángulo 456769" width="0.424" height="4.143" transform="translate(14.628 0.015)" fill="#ffa412"/>
                  <rect id="Rectángulo_456770" data-name="Rectángulo 456770" width="0.424" height="4.143" transform="translate(11.842 0.014)" fill="#ffa412"/>
                  <rect id="Rectángulo_456771" data-name="Rectángulo 456771" width="0.424" height="4.143" transform="translate(7.57 0.01)" fill="#ffa412"/>
                  <rect id="Rectángulo_456772" data-name="Rectángulo 456772" width="0.424" height="4.143" transform="translate(3.57 0.008)" fill="#ffa412"/>
                  <rect id="Rectángulo_456773" data-name="Rectángulo 456773" width="0.424" height="4.143" transform="translate(0.004 0) rotate(0.057)" fill="#ffa412"/>
                  <rect id="Rectángulo_456774" data-name="Rectángulo 456774" width="0.424" height="4.143" transform="translate(21.782 0.02)" fill="#ffa412"/>
                  <rect id="Rectángulo_456775" data-name="Rectángulo 456775" width="0.424" height="4.143" transform="translate(22.682 0.02)" fill="#ffa412"/>
                  <rect id="Rectángulo_456776" data-name="Rectángulo 456776" width="0.424" height="4.143" transform="translate(23.554 0.022)" fill="#ffa412"/>
                  <path id="Trazado_1004774" data-name="Trazado 1004774" d="M1583.528,1072.793l0,4.114a.9.9,0,0,1-.159.014h-.265l0-4.143h.265A.924.924,0,0,1,1583.528,1072.793Z" transform="translate(-1558.894 -1072.757)" fill="#ffa412"/>
                  <path id="Trazado_1004775" data-name="Trazado 1004775" d="M1588.755,1073.658l0,3.346a.908.908,0,0,1-.424.337l0-4.021A.916.916,0,0,1,1588.755,1073.658Z" transform="translate(-1563.533 -1073.238)" fill="#ffa412"/>
                </g>
              </g>
              <g id="Grupo_1182417" data-name="Grupo 1182417" transform="translate(2.743 4.138)">
                <path id="Trazado_1004776" data-name="Trazado 1004776" d="M1309.871,1037.547l0,2.34a.894.894,0,0,1-.155.5.909.909,0,0,1-.424.337.859.859,0,0,1-.165.046.9.9,0,0,1-.159.014l-37.265-.026a.891.891,0,0,1-.4-.1.905.905,0,0,1-.495-.723c0-.012,0-.024,0-.037s0-.031,0-.046l0-2.339c0-.016,0-.031,0-.046a.9.9,0,0,1,.795-.848.786.786,0,0,1,.106-.006l37.265.026a.89.89,0,0,1,.159.014.862.862,0,0,1,.165.047.908.908,0,0,1,.423.338A.893.893,0,0,1,1309.871,1037.547Z" transform="translate(-1270.801 -1036.619)" fill="#ffb93e"/>
                <path id="Trazado_1004777" data-name="Trazado 1004777" d="M1291.571,1040.776l-19.964-.014a.726.726,0,0,1-.359-.1.911.911,0,0,1-.442-.723c0-.012,0-.024,0-.037s0-.031,0-.046l0-2.339c0-.016,0-.031,0-.046a.87.87,0,0,1,.709-.848.659.659,0,0,1,.1-.006l17.513.012v.007a7.465,7.465,0,0,0,2.333,4.042C1291.494,1040.713,1291.532,1040.745,1291.571,1040.776Z" transform="translate(-1270.803 -1036.62)" fill="#ffa412"/>
                <g id="Grupo_1182416" data-name="Grupo 1182416" transform="translate(13.693 0.009)">
                  <rect id="Rectángulo_456777" data-name="Rectángulo 456777" width="0.424" height="4.143" transform="translate(20.418 0.015)" fill="#ffa412"/>
                  <rect id="Rectángulo_456778" data-name="Rectángulo 456778" width="0.424" height="4.143" transform="translate(18.984 0.014)" fill="#ffa412"/>
                  <rect id="Rectángulo_456779" data-name="Rectángulo 456779" width="0.424" height="4.143" transform="translate(17.265 0.012)" fill="#ffa412"/>
                  <rect id="Rectángulo_456780" data-name="Rectángulo 456780" width="0.424" height="4.143" transform="translate(14.63 0.01)" fill="#ffa412"/>
                  <rect id="Rectángulo_456781" data-name="Rectángulo 456781" width="0.424" height="4.143" transform="translate(11.843 0.008)" fill="#ffa412"/>
                  <rect id="Rectángulo_456782" data-name="Rectángulo 456782" width="0.424" height="4.143" transform="translate(7.571 0.006)" fill="#ffa412"/>
                  <rect id="Rectángulo_456783" data-name="Rectángulo 456783" width="0.424" height="4.143" transform="translate(3.571 0.002)" fill="#ffa412"/>
                  <rect id="Rectángulo_456784" data-name="Rectángulo 456784" width="0.424" height="4.143" fill="#ffa412"/>
                  <rect id="Rectángulo_456785" data-name="Rectángulo 456785" width="0.424" height="4.143" transform="translate(21.783 0.015)" fill="#ffa412"/>
                  <rect id="Rectángulo_456786" data-name="Rectángulo 456786" width="0.424" height="4.143" transform="translate(22.684 0.016)" fill="#ffa412"/>
                  <rect id="Rectángulo_456787" data-name="Rectángulo 456787" width="0.424" height="4.143" transform="translate(23.555 0.016)" fill="#ffa412"/>
                  <path id="Trazado_1004778" data-name="Trazado 1004778" d="M1607.888,1036.864l0,4.114a.876.876,0,0,1-.159.014h-.265l0-4.143h.265A.826.826,0,0,1,1607.888,1036.864Z" transform="translate(-1583.254 -1036.832)" fill="#ffa412"/>
                  <path id="Trazado_1004779" data-name="Trazado 1004779" d="M1613.114,1037.729l0,3.346a.907.907,0,0,1-.423.337l0-4.021A.9.9,0,0,1,1613.114,1037.729Z" transform="translate(-1587.891 -1037.313)" fill="#ffa412"/>
                </g>
              </g>
              <g id="Grupo_1182419" data-name="Grupo 1182419" transform="translate(0.006)">
                <path id="Trazado_1004780" data-name="Trazado 1004780" d="M1285.559,1000.8l0,2.339a.9.9,0,0,1-.155.5.908.908,0,0,1-.423.337.835.835,0,0,1-.165.046l-.052.008-.029,0-.03,0-.048,0-37.265-.026a.9.9,0,0,1-.9-.856c0-.016,0-.031,0-.046v-2.339c0-.015,0-.031,0-.046a.9.9,0,0,1,.9-.855l37.265.026a.872.872,0,0,1,.159.015.85.85,0,0,1,.165.047.907.907,0,0,1,.423.338A.888.888,0,0,1,1285.559,1000.8Z" transform="translate(-1246.489 -999.867)" fill="#ffb93e"/>
                <path id="Trazado_1004781" data-name="Trazado 1004781" d="M1267.261,1004.017,1247.3,1004a.855.855,0,0,1-.8-.856c0-.016,0-.031,0-.046l0-2.339c0-.016,0-.031,0-.046a.854.854,0,0,1,.8-.855l17.513.012a7.424,7.424,0,0,0,2.441,4.138S1267.258,1004.016,1267.261,1004.017Z" transform="translate(-1246.492 -999.861)" fill="#ffa412"/>
                <g id="Grupo_1182418" data-name="Grupo 1182418" transform="translate(13.692 0.009)">
                  <rect id="Rectángulo_456788" data-name="Rectángulo 456788" width="0.424" height="4.143" transform="translate(20.425 0.008) rotate(0.057)" fill="#ffa412"/>
                  <rect id="Rectángulo_456789" data-name="Rectángulo 456789" width="0.424" height="4.143" transform="translate(18.986 0.013)" fill="#ffa412"/>
                  <rect id="Rectángulo_456790" data-name="Rectángulo 456790" width="0.424" height="4.143" transform="translate(17.266 0.012)" fill="#ffa412"/>
                  <rect id="Rectángulo_456791" data-name="Rectángulo 456791" width="0.424" height="4.143" transform="translate(14.631 0.01)" fill="#ffa412"/>
                  <rect id="Rectángulo_456792" data-name="Rectángulo 456792" width="0.424" height="4.143" transform="translate(11.845 0.009)" fill="#ffa412"/>
                  <rect id="Rectángulo_456793" data-name="Rectángulo 456793" width="0.424" height="4.143" transform="translate(7.572 0.005)" fill="#ffa412"/>
                  <rect id="Rectángulo_456794" data-name="Rectángulo 456794" width="0.424" height="4.143" transform="translate(3.572 0.002)" fill="#ffa412"/>
                  <rect id="Rectángulo_456795" data-name="Rectángulo 456795" width="0.424" height="4.143" fill="#ffa412"/>
                  <rect id="Rectángulo_456796" data-name="Rectángulo 456796" width="0.424" height="4.143" transform="translate(21.783 0.015)" fill="#ffa412"/>
                  <rect id="Rectángulo_456797" data-name="Rectángulo 456797" width="0.424" height="4.143" transform="translate(22.685 0.015)" fill="#ffa412"/>
                  <rect id="Rectángulo_456798" data-name="Rectángulo 456798" width="0.424" height="4.143" transform="translate(23.555 0.016)" fill="#ffa412"/>
                  <path id="Trazado_1004782" data-name="Trazado 1004782" d="M1583.578,1000.1l0,4.114a.889.889,0,0,1-.159.014h-.265l0-4.143h.265A.916.916,0,0,1,1583.578,1000.1Z" transform="translate(-1558.943 -1000.073)" fill="#ffa412"/>
                  <path id="Trazado_1004783" data-name="Trazado 1004783" d="M1588.8,1000.969l0,3.346a.908.908,0,0,1-.423.337l0-4.021A.914.914,0,0,1,1588.8,1000.969Z" transform="translate(-1563.58 -1000.554)" fill="#ffa412"/>
                </g>
              </g>
            </g>
            <path id="Trazado_1004784" data-name="Trazado 1004784" d="M1422.2,1060.948q-1.269.4-2.571.733-.2.052-.407.1-.484.119-.973.227l-.052.011q-1.557.343-3.156.581-1.477.218-2.986.344h0q-1.309.11-2.64.145l-.137,0-.1,0h-.047l-.19,0-.134,0-.135,0c-.069,0-.138,0-.208,0s-.124,0-.187,0h-.343l-.362,0c-.114,0-.229,0-.343-.006q-.194,0-.388-.009c-.114,0-.228-.006-.343-.01-.147,0-.3-.011-.444-.017l-.051,0c-.089,0-.178-.008-.267-.014-.114,0-.229-.01-.343-.017-.25-.014-.5-.03-.752-.049l-.065,0-.343-.026-.1-.009-.217-.019c-.171-.014-.344-.03-.516-.047l-.214-.021c-.114-.012-.229-.024-.343-.037q-.608-.064-1.221-.147h0c-.117-.015-.234-.031-.351-.049l-.118-.017c-.032,0-.064-.008-.1-.013-.08-.011-.162-.023-.242-.036l-.067-.01-.013,0h0l-.02,0c-.3-.045-.609-.095-.914-.147l-.32-.055-.32-.058-.359-.068-.343-.065q-.837-.164-1.675-.345h0q-.718-.155-1.437-.326l-.343-.083-.164-.04a13.232,13.232,0,0,1,6.8-12.726c.169-.093.341-.182.512-.267s.33-.2.5-.29a13.231,13.231,0,0,1,19.549,12.883Z" transform="translate(-1346.97 -962.721)" fill="#e2810e"/>
            <g id="Grupo_1182423" data-name="Grupo 1182423" transform="translate(51.948 82.013)">
              <path id="Trazado_1004785" data-name="Trazado 1004785" d="M1465.271,1038.28a13.159,13.159,0,0,0-4.851-5.007l-.155-.09q-.209-.121-.423-.232c-.055-.03-.11-.058-.166-.085-.14-.072-.281-.141-.423-.206-.076-.035-.153-.071-.231-.1-.141-.062-.281-.122-.424-.178s-.3-.116-.447-.171l-.034-.011q-.194-.069-.391-.132l-.09-.028h-.038a.545.545,0,0,0-.1-.043c-.087-.027-.175-.052-.263-.077l-.133-.036c-.056-.015-.11-.03-.166-.043-.141-.036-.282-.07-.424-.1-.077-.017-.153-.034-.231-.048-.141-.029-.282-.055-.424-.078s-.3-.048-.447-.068-.277-.034-.417-.048h-.007c-.159-.016-.318-.029-.478-.039q-.211-.013-.424-.02-.469-.014-.941,0c-.141.006-.282.013-.424.024q-.505.036-1.01.113c-.141.02-.282.044-.423.07a12.879,12.879,0,0,0-1.3.307c-.086.025-.172.051-.258.078h0l-.021.007-.039.013a13.258,13.258,0,0,0-2.364,1.016l-.01.006c-.14.078-.279.157-.414.238l-.074.045a13.159,13.159,0,0,0-3.2,2.719c-.028.032-.054.064-.08.1a13.223,13.223,0,0,0-2.31,4.039.018.018,0,0,0,0,.007l-.034.1a13.113,13.113,0,0,0-.425,1.5v.038a12.758,12.758,0,0,0-.308,2.5h0a13.1,13.1,0,0,0,.495,3.911c.021.077.044.154.068.232q.113.373.251.743l.067.011c.081.013.162.025.242.036.031.006.064.01.1.013l.118.017.351.049h0q.611.082,1.221.147l.343.037.214.021c.172.017.345.033.516.047l.217.019.1.009.343.026.065,0c.251.019.5.035.752.049.114.007.229.012.343.017.089.006.178.01.267.013l.051,0c.148.007.3.013.444.017.115,0,.229.008.343.01.129,0,.259.008.387.009s.229,0,.343.006l.362,0h.343c.063,0,.125,0,.188,0s.139,0,.208,0l.135,0,.134,0,.19,0h.047l.1,0,.137,0q1.331-.036,2.64-.145h0q1.509-.124,2.986-.344,1.6-.237,3.156-.581l.053-.012a.065.065,0,0,1,0,.013l.977-.24q.2-.049.407-.1,1.925-.488,3.776-1.133.31-.108.617-.219l.153-.057q.575-.21,1.142-.436l.307-.123h0l.062-.024h0c.121-.049.24-.1.359-.148l.268-.113c.01-.1.021-.191.029-.288A13.165,13.165,0,0,0,1465.271,1038.28Z" transform="translate(-1439.435 -1031.428)" fill="#e2810e"/>
              <path id="Trazado_1004786" data-name="Trazado 1004786" d="M1456.266,1043.231a13.162,13.162,0,0,0-3.841-4.346c-.051-.037-.1-.074-.155-.11q-.208-.146-.422-.284l-.166-.105c-.14-.086-.281-.17-.424-.252-.077-.044-.153-.087-.231-.128-.14-.078-.281-.151-.424-.223s-.3-.144-.447-.212-.281-.125-.424-.184l-.152-.062c-.108-.043-.216-.084-.325-.124-.093-.035-.185-.067-.278-.1l-.145-.048q-.465-.155-.941-.274-.211-.053-.424-.1-.461-.1-.929-.167c-.027,0-.055-.009-.081-.012-.141-.02-.281-.036-.423-.051-.056-.007-.111-.012-.167-.016h-.041a.16.16,0,0,0-.032-.007h-.084c-.18-.019-.387-.032-.56-.039-.142-.006-.282-.009-.424-.009q-.5,0-1.011.034l-.159.012h-.055l-.022.007h-.052a12.089,12.089,0,0,0-1.327.2c-.142.028-.282.059-.424.092a13.084,13.084,0,0,0-2.364.793c-.142.062-.283.128-.424.2l-.074.036q-.264.129-.523.273a13.224,13.224,0,0,0-3.185,2.445l-.068.072-.023.024h0a13.176,13.176,0,0,0-2.588,4.038.045.045,0,0,0,0,.007,13.289,13.289,0,0,0-.955,4.136,13.16,13.16,0,0,0,.382,4.142c.045.18.095.358.149.536l.32.056q.458.079.914.147l.02,0h0l.013,0,.067.011c.08.012.162.025.242.035.031.006.064.01.1.013l.118.017.351.049h0c.407.054.815.1,1.221.147l.343.037.214.021c.172.017.344.032.516.047l.217.019.1.009.343.026.065,0c.251.019.5.035.752.049.114.007.229.012.343.017.089.006.178.01.267.014l.051,0c.148.007.3.013.444.017.115,0,.229.008.343.01.129,0,.259.008.387.009l.343.006.362,0h.343c.063,0,.125,0,.188,0s.139,0,.208,0l.135,0,.134,0,.19,0h.047l.1,0,.137,0q1.331-.036,2.64-.145h0q1.509-.124,2.986-.344,1.6-.237,3.156-.581l.053-.012a.07.07,0,0,1,0,.013l.977-.24c.136-.033.272-.066.407-.1q1.925-.488,3.776-1.133.31-.108.617-.219l.153-.057q.575-.209,1.142-.436A13.127,13.127,0,0,0,1456.266,1043.231Z" transform="translate(-1431.441 -1035.823)" fill="#ffb93e"/>
              <g id="Grupo_1182421" data-name="Grupo 1182421" transform="translate(1.251 1.874)">
                <path id="Trazado_1004787" data-name="Trazado 1004787" d="M1465.171,1054.316a11.974,11.974,0,0,0-3.114-3.665q-.173-.136-.351-.265c-.054-.04-.11-.079-.166-.117-.139-.1-.28-.193-.423-.284-.077-.049-.153-.1-.231-.144q-.21-.128-.424-.246t-.447-.235c-.141-.071-.281-.138-.424-.2q-.237-.108-.478-.2c-.14-.057-.281-.111-.423-.162l-.045-.016q-.307-.109-.62-.2c-.092-.028-.184-.054-.276-.078-.141-.038-.281-.074-.424-.106q-.5-.116-1.011-.19c-.141-.02-.281-.037-.423-.053l-.128-.013c-.089-.009-.179-.016-.268-.023h0q-.448-.035-.9-.035c-.142,0-.283,0-.424.008a11.929,11.929,0,0,0-2.212.284c-.141.032-.283.066-.424.1a12.036,12.036,0,0,0-2.364.9c-.126.064-.252.13-.377.2l-.047.027a12.024,12.024,0,0,0-1.835,1.253c-.039.031-.077.062-.116.1-.124.1-.246.213-.365.323-.145.133-.286.269-.424.41a11.887,11.887,0,0,0-2.3,3.306.011.011,0,0,0,0,.007.216.216,0,0,0-.014.031,12,12,0,0,0-.64,1.7v.025a.14.14,0,0,0-.017.032,11.183,11.183,0,0,0-.409,1.962v.092c-.011.1-.021.2-.03.3q-.045.511-.044,1.021a11.876,11.876,0,0,0,.384,3c.011.042.022.083.034.124.068.254.145.5.231.754.08.012.162.025.242.036.031.005.064.01.1.013l.118.017c.118.017.234.034.351.049-.044-.117-.087-.234-.126-.352-.059-.17-.114-.343-.165-.516s-.1-.3-.138-.477v-.045a11.2,11.2,0,0,1-.26-3.621,11.46,11.46,0,0,1,.407-2.151q.129-.445.291-.873h0a11.006,11.006,0,0,1,.49-1.11.011.011,0,0,1,0-.007,11.147,11.147,0,0,1,1.5-2.244c.136-.159.277-.314.424-.465a11.062,11.062,0,0,1,1.531-1.329h0c.045-.033.089-.065.135-.1h.01c.211-.148.418-.289.64-.422.129-.079.261-.155.394-.229l.031-.016a11.214,11.214,0,0,1,2.363-.965c.141-.04.282-.077.424-.111a11.214,11.214,0,0,1,2.212-.3q.21-.008.419-.009h0c.128,0,.257,0,.386.007h0c.131,0,.263.012.394.021.172.011.345.028.515.047q.212.024.422.057c.34.052.678.119,1.011.2q.122.03.243.063l.181.051c.15.043.3.09.448.139.166.056.33.115.493.177.143.055.283.113.424.172q.241.1.478.22.214.1.424.218c.151.082.3.167.446.255s.284.175.424.268c.078.051.154.1.231.157.05.034.1.07.149.106h0a11.333,11.333,0,0,1,4.524,11.061q.31-.108.617-.219l.153-.057A11.963,11.963,0,0,0,1465.171,1054.316Z" transform="translate(-1442.552 -1048.078)" fill="#ffa412"/>
              </g>
              <g id="Grupo_1182422" data-name="Grupo 1182422" transform="translate(7.756 5.227)">
                <path id="Trazado_1004788" data-name="Trazado 1004788" d="M1505.545,1090.681a2.885,2.885,0,0,1-.589-.957l-2.17.88q0,.192.01.385h.047l.1,0,.137,0q1.331-.036,2.64-.146C1505.658,1090.789,1505.6,1090.738,1505.545,1090.681Zm0,0a2.885,2.885,0,0,1-.589-.957l-2.17.88q0,.192.01.385h.047l.1,0,.137,0q1.331-.036,2.64-.146C1505.658,1090.789,1505.6,1090.738,1505.545,1090.681Zm0,0a2.885,2.885,0,0,1-.589-.957l-2.17.88q0,.192.01.385h.047l.1,0,.137,0q1.331-.036,2.64-.146C1505.658,1090.789,1505.6,1090.738,1505.545,1090.681Zm0,0a2.885,2.885,0,0,1-.589-.957l-2.17.88q0,.192.01.385h.047l.1,0,.137,0q1.331-.036,2.64-.146C1505.658,1090.789,1505.6,1090.738,1505.545,1090.681Zm0,0a2.885,2.885,0,0,1-.589-.957l-2.17.88q0,.192.01.385h.047l.1,0,.137,0q1.331-.036,2.64-.146C1505.658,1090.789,1505.6,1090.738,1505.545,1090.681Zm0,0a2.885,2.885,0,0,1-.589-.957l-2.17.88q0,.192.01.385h.047l.1,0,.137,0q1.331-.036,2.64-.146C1505.658,1090.789,1505.6,1090.738,1505.545,1090.681Zm6.374-2.351a4.129,4.129,0,0,0-.2-.623,4.792,4.792,0,0,0-.224-.476,3.893,3.893,0,0,0-.232-.371.247.247,0,0,0-.019-.026h0a2.934,2.934,0,0,0-.4-.458l0,0a3.615,3.615,0,0,0-.441-.345,3.844,3.844,0,0,0-.423-.237,3.659,3.659,0,0,0-.4-.163c-.026-.008-.053-.018-.079-.026-.042-.014-.084-.028-.127-.04h0l-.047-.012a6.142,6.142,0,0,0-1.3-.219l-.054,0c-.121-.008-.244-.013-.37-.019q-.729-.028-1.557-.007-.356.012-.655,0c-.152,0-.294-.012-.424-.024l-.023,0a2.753,2.753,0,0,1-.774-.169,1.371,1.371,0,0,1-.517-.35,1.846,1.846,0,0,1-.329-.542c-.009-.022-.017-.044-.025-.066a2.024,2.024,0,0,1-.124-.57,1.375,1.375,0,0,1,.095-.6,1.467,1.467,0,0,1,.368-.522,1.78,1.78,0,0,1,.32-.235,2.648,2.648,0,0,1,.356-.175,1.976,1.976,0,0,1,.655-.151h0a1.567,1.567,0,0,1,.424.037,1.613,1.613,0,0,1,.365.128,2.456,2.456,0,0,1,1.093,1.368l.753-.305.424-.172,1.3-.525.222-.09c-.069-.17-.143-.332-.221-.486v-.045c-.077-.144-.158-.247-.244-.381a.018.018,0,0,0,0-.007c-.024-.038-.049-.076-.074-.112a4.315,4.315,0,0,0-.337-.433c-.036-.04-.071-.078-.11-.117v0a4.078,4.078,0,0,0-.423-.386,3.577,3.577,0,0,0-.478-.32c-.06-.036-.122-.068-.185-.1-.078-.038-.159-.074-.239-.106a3.867,3.867,0,0,0-.6-.187c-.111-.025-.223-.044-.338-.059-.088-.012-.177-.021-.267-.028l-.1,0-.06,0a4.871,4.871,0,0,0-1.01.073q-.209.036-.424.092l-.036.009-.091-.225-.429-1.056-.243-.6-.5.2-.424.171-.573.233.572,1.411.04.1.14.344c-.061.032-.121.064-.18.1a5.615,5.615,0,0,0-.533.332h0a5.057,5.057,0,0,0-.656.545c-.042.042-.083.084-.123.126l-.007.007a4.087,4.087,0,0,0-.736,1.07,3.382,3.382,0,0,0-.212.591h0a3.365,3.365,0,0,0-.105.767,3.643,3.643,0,0,0,.284,1.449c.036.088.074.174.113.256h0a3.972,3.972,0,0,0,.326.568c.033.048.066.095.1.139a2.829,2.829,0,0,0,.309.345l.037.035a3.363,3.363,0,0,0,.409.32,3.405,3.405,0,0,0,.423.244,3.55,3.55,0,0,0,.43.175,5.444,5.444,0,0,0,1.03.237q.278.039.577.055l.175.008c.138.006.279.011.423.013q.615.011,1.3-.02l.038,0c.134-.008.263-.012.386-.014a6.288,6.288,0,0,1,.666.022,3,3,0,0,1,.344.049,2.33,2.33,0,0,1,.424.122h0a1.442,1.442,0,0,1,.539.366,1.99,1.99,0,0,1,.363.6.41.41,0,0,0,.037.054v.045a1.63,1.63,0,0,1,.092.541,1.336,1.336,0,0,1-.023.247,1.375,1.375,0,0,1-.121.362,1.638,1.638,0,0,1-.312.428q1.6-.237,3.156-.581l.053-.011c.018-.072.034-.145.046-.218a3.423,3.423,0,0,0,.051-.5A3.267,3.267,0,0,0,1511.919,1088.331Zm-6.374,2.351a2.885,2.885,0,0,1-.589-.957l-2.17.88q0,.192.01.385h.047l.1,0,.137,0q1.331-.036,2.64-.146C1505.658,1090.789,1505.6,1090.738,1505.545,1090.681Zm0,0a2.885,2.885,0,0,1-.589-.957l-2.17.88q0,.192.01.385h.047l.1,0,.137,0q1.331-.036,2.64-.146C1505.658,1090.789,1505.6,1090.738,1505.545,1090.681Zm0,0a2.885,2.885,0,0,1-.589-.957l-2.17.88q0,.192.01.385h.047l.1,0,.137,0q1.331-.036,2.64-.146C1505.658,1090.789,1505.6,1090.738,1505.545,1090.681Zm0,0a2.885,2.885,0,0,1-.589-.957l-2.17.88q0,.192.01.385h.047l.1,0,.137,0q1.331-.036,2.64-.146C1505.658,1090.789,1505.6,1090.738,1505.545,1090.681Zm0,0a2.885,2.885,0,0,1-.589-.957l-2.17.88q0,.192.01.385h.047l.1,0,.137,0q1.331-.036,2.64-.146C1505.658,1090.789,1505.6,1090.738,1505.545,1090.681Zm0,0a2.885,2.885,0,0,1-.589-.957l-2.17.88q0,.192.01.385h.047l.1,0,.137,0q1.331-.036,2.64-.146C1505.658,1090.789,1505.6,1090.738,1505.545,1090.681Zm0,0a2.885,2.885,0,0,1-.589-.957l-2.17.88-.525.212c.025.061.05.122.077.18l.135,0,.134,0,.189,0h.047l.1,0,.137,0q1.331-.036,2.64-.146C1505.658,1090.789,1505.6,1090.738,1505.545,1090.681Z" transform="translate(-1500.335 -1077.853)" fill="#ffa412"/>
              </g>
            </g>
          </g>
        </g>
      </g>
    </g>
  </g>
</svg>
