<svg xmlns="http://www.w3.org/2000/svg" width="128" height="128" viewBox="0 0 128 128">
  <g id="Grupo_1182008" data-name="Grupo 1182008" transform="translate(-72.746 -7992)">
    <g id="Elipse_13628" data-name="Elipse 13628" transform="translate(72.746 7992)" fill="#ecf0f1" stroke="#ffa038" stroke-width="6">
      <circle cx="64" cy="64" r="64" stroke="none"/>
      <circle cx="64" cy="64" r="61" fill="none"/>
    </g>
    <g id="Grupo_1182380" data-name="Grupo 1182380" transform="translate(79.2 7998.096)">
      <path id="Trazado_1004671" data-name="Trazado 1004671" d="M103.755,31.414h45.158V67.341H103.755Z" transform="translate(-68.788 -6.818)" fill="#eceff1" fill-rule="evenodd"/>
      <path id="Trazado_1004672" data-name="Trazado 1004672" d="M117.537,243.817l-8.442-3.016-8.321,14.412,5.565,6.95,22.832,13.63c3.117,1.815,5.862-2.9,2.746-4.713l1.238.721c3.118,1.815,5.862-2.9,2.746-4.714l1.553.9c3.118,1.816,5.863-2.9,2.745-4.714l-1.254-.73c3.118,1.812,5.859-2.9,2.742-4.715Z" transform="translate(-66.249 -185.151)" fill="#f1cbbc" fill-rule="evenodd"/>
      <path id="Trazado_1004673" data-name="Trazado 1004673" d="M172.165,255.214,163.844,240.8a22.784,22.784,0,0,1-12.442.385c-3.945-.868-5.646-.044-8.516,2.63-1.052.98-2.261,2.209-3.794,3.695l-.314,6.613c-.1,2.179,1.686,2.511,3.921,1.3,1.508-.814,2.338-3.339,3.264-5.082,2.147-.99,4.254-2.247,6.4-1.008l14.674,8.494Zm-33.9,7.084,1.085-1.542c2.076-2.951,6.537.187,4.462,3.138l-.579.823c2.076-2.949,6.536.189,4.461,3.14l-1.576,2.241c2.076-2.951,6.537.188,4.462,3.138l-1.366,1.942c-2.076,2.951-6.538-.187-4.462-3.138l-.865,1.23c-2.076,2.951-6.537-.187-4.462-3.138l-.232.329c-2.076,2.951-6.538-.187-4.462-3.138l.808-1.149c-2.076,2.95-6.537-.188-4.461-3.139l2.725-3.874C135.875,256.212,140.335,259.347,138.263,262.3Z" transform="translate(-91.598 -185.152)" fill="#dbb598" fill-rule="evenodd"/>
      <path id="Trazado_1004674" data-name="Trazado 1004674" d="M358.211,194.77l-5.247,3.029a2.363,2.363,0,0,0-.862,3.218l9.208,15.949a2.363,2.363,0,0,0,3.218.862l5.247-3.029a2.363,2.363,0,0,0,.862-3.218l-9.208-15.949a2.363,2.363,0,0,0-3.218-.862Z" transform="translate(-280.036 -145.679)" fill="#fd4755" fill-rule="evenodd"/>
      <path id="Trazado_1004675" data-name="Trazado 1004675" d="M43.74,194.77l5.247,3.029a2.363,2.363,0,0,1,.862,3.218l-9.208,15.949a2.363,2.363,0,0,1-3.218.862L32.176,214.8a2.363,2.363,0,0,1-.862-3.218l9.208-15.949A2.363,2.363,0,0,1,43.74,194.77Z" transform="translate(-6.823 -145.679)" fill="#60b7ff" fill-rule="evenodd"/>
      <path id="Trazado_1004676" data-name="Trazado 1004676" d="M89.574,66.493,80.366,50.546a1.173,1.173,0,0,0-1.6-.429l-5.247,3.029a1.178,1.178,0,0,0-.429,1.6L82.3,70.693a1.177,1.177,0,0,0,1.6.428l5.248-3.028a1.174,1.174,0,0,0,.429-1.6ZM78.915,69.572,75.473,71.33,61.357,63.159c-2.467-1.423-4.794-.318-6.847.656q-.32.153-.642.3a1.186,1.186,0,0,0-.552.521c-.234.442-.461.929-.683,1.4-.6,1.3-1.293,2.764-2.1,3.2-1.1.593-1.827.614-2.027.488-.085-.054-.165-.29-.145-.692l.292-6.146c.5-.483.963-.943,1.384-1.357,4.308-4.245,5.332-5.252,9.508-4.334a24.377,24.377,0,0,0,12.142-.133Zm-4.074,4.133a1.542,1.542,0,0,1-1.55,2.665L68.5,73.578A1.187,1.187,0,1,0,67.3,75.629l4.8,2.791v0h0l1.252.729a1.381,1.381,0,0,1,.783,1.234,1.815,1.815,0,0,1-.873,1.5,1.387,1.387,0,0,1-1.461-.072l-1.55-.9h0L65.4,78.091a1.186,1.186,0,0,0-1.194,2.05l4.842,2.819h0A1.541,1.541,0,0,1,67.5,85.623L66.267,84.9h0l-3.95-2.3a1.187,1.187,0,0,0-1.194,2.051l3.951,2.3h0a1.542,1.542,0,0,1-1.553,2.663l-3.065-1.784a3.791,3.791,0,0,0-1.469-4.5,4.214,4.214,0,0,0-1.5-.668,3.782,3.782,0,0,0-1.38-4.71,4.128,4.128,0,0,0-2.158-.758,3.931,3.931,0,0,0-1.723-3.206,3.836,3.836,0,0,0-4.289-.195,4.171,4.171,0,0,0-1.261-1.4,3.78,3.78,0,0,0-5.44.933l-1.2,1.708-4.071-5.083L43.378,57.1l5.707,2.038c-.23.225-.466.458-.71.7-.535.526-1.09,1.072-1.707,1.669a1.183,1.183,0,0,0-.359.8l-.315,6.613a2.919,2.919,0,0,0,1.252,2.812c1.09.687,2.659.541,4.418-.408,1.494-.806,2.358-2.652,3.121-4.279.154-.331.3-.648.449-.945l.3-.14c2.017-.956,3.321-1.507,4.64-.744ZM57.622,85.272a1.443,1.443,0,0,0-2.134.356L54.12,87.571a1.383,1.383,0,0,0-.2,1.448,1.817,1.817,0,0,0,1.422,1,1.383,1.383,0,0,0,1.3-.675L58.007,87.4a1.444,1.444,0,0,0-.385-2.129Zm-5.445.937s0,0,0,0l1.366-1.941,1.577-2.241a1.542,1.542,0,0,0-2.52-1.777h0l-3.809,5.416a1.541,1.541,0,0,0,2.521,1.772ZM46.853,84.3l3.808-5.415.579-.823a1.541,1.541,0,0,0-2.52-1.774l-1.084,1.541h0l-2.726,3.877L44.1,82.853a1.541,1.541,0,0,0,2.52,1.774ZM42.967,80.34l2.727-3.877a1.541,1.541,0,0,0-2.522-1.771l-2.725,3.873a1.541,1.541,0,0,0,2.518,1.776ZM32.79,70.693,42,54.744a1.177,1.177,0,0,0-.429-1.6l-5.248-3.029a1.152,1.152,0,0,0-.581-.157,1.173,1.173,0,0,0-1.016.586L25.519,66.5a1.171,1.171,0,0,0,.427,1.6l5.247,3.028a1.177,1.177,0,0,0,1.6-.428Zm3.363-44.911H78.939V47.613a3.54,3.54,0,0,0-1.357.449l-5.247,3.03a3.554,3.554,0,0,0-1.7,3.8,21.754,21.754,0,0,1-10.582-.01c-4.221-.93-6.267-.049-9.042,2.431l-6.578-2.349a3.557,3.557,0,0,0-1.681-3.867l-5.247-3.03a3.539,3.539,0,0,0-1.356-.449ZM90.332,70.146l-5.248,3.03a3.515,3.515,0,0,1-1.761.473,3.622,3.622,0,0,1-.926-.122,3.525,3.525,0,0,1-2.152-1.648l-.143-.249-2.654,1.355A3.874,3.874,0,0,1,77.431,77a4.194,4.194,0,0,1-1.452,1.48,3.629,3.629,0,0,1,.529,1.92,4.176,4.176,0,0,1-2.067,3.552,3.617,3.617,0,0,1-2.235.464,4.193,4.193,0,0,1-.564,1.842,3.894,3.894,0,0,1-3.415,2,4.163,4.163,0,0,1-.571,1.993,3.894,3.894,0,0,1-3.312,2,4,4,0,0,1-2.02-.578l-3.134-1.824-.61.866a3.773,3.773,0,0,1-3.11,1.69c-.113,0-.225-.006-.339-.017A4.181,4.181,0,0,1,51.808,90.1a3.868,3.868,0,0,1-3.992-.363A4.08,4.08,0,0,1,46.246,87.6a4,4,0,0,1-3.126-.678,3.885,3.885,0,0,1-1.7-3.548,4.186,4.186,0,0,1-1.95-.74,3.782,3.782,0,0,1-.961-5.436l.1-.144-3.933-4.912a3.521,3.521,0,0,1-1.98,1.382,3.621,3.621,0,0,1-.927.122,3.518,3.518,0,0,1-1.76-.473l-5.248-3.03a3.546,3.546,0,0,1-1.3-4.838l9.209-15.949a3.49,3.49,0,0,1,1.109-1.179V24.6a1.187,1.187,0,0,1,1.186-1.186H80.125A1.188,1.188,0,0,1,81.312,24.6V48.181a3.515,3.515,0,0,1,1.109,1.179l9.207,15.949a3.543,3.543,0,0,1-1.3,4.838ZM43.274,49.1a1.187,1.187,0,0,0,1.677,0l3.636-3.639a1.186,1.186,0,0,0-1.677-1.677l-2.8,2.8-.98-.981a1.187,1.187,0,1,0-1.677,1.679Zm10.967-1.471H72.8a1.186,1.186,0,1,0,0-2.373H54.241a1.186,1.186,0,0,0,0,2.373ZM43.274,36.317a1.182,1.182,0,0,0,1.677,0l3.636-3.636A1.186,1.186,0,0,0,46.911,31l-2.8,2.8-.98-.979A1.186,1.186,0,0,0,41.456,34.5Zm9.78-2.53a1.186,1.186,0,0,0,1.186,1.186H72.8a1.186,1.186,0,1,0,0-2.373H54.241A1.186,1.186,0,0,0,53.055,33.787Z" fill-rule="evenodd"/>
    </g>
  </g>
</svg>
