<svg xmlns="http://www.w3.org/2000/svg" width="128" height="128" viewBox="0 0 128 128">
  <g id="Grupo_1182006" data-name="Grupo 1182006" transform="translate(-72.746 -7992)">
    <g id="Elipse_13628" data-name="Elipse 13628" transform="translate(72.746 7992)" fill="#ecf0f1" stroke="#ffa038" stroke-width="6">
      <circle cx="64" cy="64" r="64" stroke="none"/>
      <circle cx="64" cy="64" r="61" fill="none"/>
    </g>
    <g id="Grupo_1182379" data-name="Grupo 1182379" transform="translate(100.223 8019.476)">
      <g id="Grupo_1182377" data-name="Grupo 1182377" transform="translate(1.07 1.07)">
        <g id="Grupo_1182375" data-name="Grupo 1182375">
          <path id="Trazado_1004644" data-name="Trazado 1004644" d="M24.958,209.552c-10.308.2-17.458,7.075-17.458,17.492a17.693,17.693,0,0,0,5.556,12.839c3.467,3.3,3.462,6.46,3.462,8.9v2.842H33.113v-5.657l4.957.045a2.687,2.687,0,0,0,2.66-2.66l.143-4.971,2.726-1.139c2.369-.99,2.3-3.278,1.6-4.8l-2.472-5.4c0-11.026-7.4-17.69-17.766-17.492Zm0,10.7a5.351,5.351,0,0,1,2.14,10.255v2.586a2.14,2.14,0,0,1-4.28,0v-2.585a5.351,5.351,0,0,1,2.14-10.255Z" transform="translate(-7.5 -180.722)" fill="#fbf2e1" fill-rule="evenodd"/>
          <path id="Trazado_1004645" data-name="Trazado 1004645" d="M21.36,212.11c-8.336,1.555-13.86,7.976-13.86,17.13a17.693,17.693,0,0,0,5.556,12.839c3.467,3.3,3.462,6.46,3.462,8.9v2.842h3.21v-2.876c0-4.635-.982-7.881-4.458-11.194a14.482,14.482,0,0,1-4.56-10.515c0-8.179,4.256-13.233,10.65-17.13Z" transform="translate(-7.5 -182.918)" fill="#fbdfba" fill-rule="evenodd"/>
          <circle id="Elipse_15101" data-name="Elipse 15101" cx="5.35" cy="5.35" r="5.35" transform="translate(12.108 39.531)" fill="#fdef8e"/>
          <path id="Trazado_1004646" data-name="Trazado 1004646" d="M119.148,356.454a5.364,5.364,0,0,1-4.28,0v2.586a2.14,2.14,0,1,0,4.28,0Z" transform="translate(-99.55 -306.668)" fill="#acc5e3" fill-rule="evenodd"/>
          <path id="Trazado_1004647" data-name="Trazado 1004647" d="M244.839,43.968l4.957-.045V49.58h16.595V46.738c0-2.444-.005-5.6,3.462-8.9A17.693,17.693,0,0,0,275.409,25c0-10.416-7.151-17.294-17.458-17.492C247.58,7.305,240.185,13.97,240.185,25l-2.472,5.4c-.7,1.527-.771,3.815,1.6,4.8l2.726,1.139.143,4.971a2.687,2.687,0,0,0,2.66,2.66Zm13.112-10.783a2.146,2.146,0,0,1-2.14-2.14V28.459a5.351,5.351,0,1,1,4.28,0v2.586A2.146,2.146,0,0,1,257.951,33.184Z" transform="translate(-204.502 -7.5)" fill="#f6d9ad" fill-rule="evenodd"/>
          <path id="Trazado_1004648" data-name="Trazado 1004648" d="M244.839,46.61l.517,0-.17-9.789-4.4-1.838c-.3-.124-.274-.4-.155-.605l2.763-6.034c0-8.308,2.909-13.461,9.765-17.756-7.783,1.643-12.976,7.819-12.976,17.056l-2.472,5.4c-.7,1.527-.771,3.815,1.6,4.8l2.726,1.139.143,4.971a2.688,2.688,0,0,0,2.66,2.66Zm4.957-1.115,3.21-.029v6.756H249.8Z" transform="translate(-204.502 -10.141)" fill="#eeae7e" fill-rule="evenodd"/>
          <path id="Trazado_1004649" data-name="Trazado 1004649" d="M97.718,284.578a5.35,5.35,0,1,0,1.605,10.455,5.352,5.352,0,0,1,0-10.209A5.344,5.344,0,0,0,97.718,284.578Z" transform="translate(-80.26 -245.047)" fill="#fee026" fill-rule="evenodd"/>
          <circle id="Elipse_15102" data-name="Elipse 15102" cx="5.35" cy="5.35" r="5.35" transform="translate(45.876 16.059) rotate(-45)" fill="#fdef8e"/>
          <path id="Trazado_1004650" data-name="Trazado 1004650" d="M371.411,154.406a5.364,5.364,0,0,1-4.28,0v2.586a2.14,2.14,0,1,0,4.28,0Z" transform="translate(-315.823 -133.447)" fill="#acc5e3" fill-rule="evenodd"/>
          <path id="Trazado_1004651" data-name="Trazado 1004651" d="M349.981,82.53a5.35,5.35,0,1,0,1.605,10.455,5.352,5.352,0,0,1,0-10.209A5.345,5.345,0,0,0,349.981,82.53Z" transform="translate(-296.533 -71.825)" fill="#fee026" fill-rule="evenodd"/>
        </g>
        <g id="Grupo_1182376" data-name="Grupo 1182376" transform="translate(50.238 3.601)">
          <path id="Trazado_1004652" data-name="Trazado 1004652" d="M366.051,34.881h-2.14v-2.14h2.14Zm-4.28,0h-2.14v-2.14h2.14Z" transform="translate(-359.631 -32.741)" fill="#fff"/>
        </g>
      </g>
      <g id="Grupo_1182378" data-name="Grupo 1182378" transform="translate(0 0.001)">
        <path id="Trazado_1004653" data-name="Trazado 1004653" d="M37.364,220.377c-.05-5.462-1.845-10.081-5.2-13.371-3.412-3.347-8.135-5.063-13.658-4.955a18.993,18.993,0,0,0-13.327,5.223A18.262,18.262,0,0,0,0,220.613a18.666,18.666,0,0,0,5.888,13.614c3.13,2.983,3.13,5.711,3.13,8.129v3.912h8.3v-2.14H11.158v-1.784c0-2.554,0-6.051-3.794-9.667A16.545,16.545,0,0,1,2.14,220.613,16.173,16.173,0,0,1,6.687,208.8a16.9,16.9,0,0,1,11.862-4.6c4.934-.093,9.125,1.407,12.118,4.343s4.558,7.1,4.558,12.079v.233l2.569,5.61a2.967,2.967,0,0,1,.189,2.233,2.064,2.064,0,0,1-1.226,1.138l-3.363,1.4-.163,5.661a1.628,1.628,0,0,1-1.581,1.62l-6.036-.054v5.667H19.456v2.14h8.3V240.62l3.877.035h.032a3.778,3.778,0,0,0,3.707-3.7l.123-4.28,2.089-.873a4.2,4.2,0,0,0,2.394-2.334,5.057,5.057,0,0,0-.236-3.9Z" transform="translate(0 -173.221)"/>
        <path id="Trazado_1004654" data-name="Trazado 1004654" d="M91.288,294.2a3.214,3.214,0,0,0,3.21-3.21v-1.934a6.42,6.42,0,1,0-6.42,0v1.934A3.214,3.214,0,0,0,91.288,294.2Zm1.07-3.21a1.07,1.07,0,1,1-2.14,0v-1.161a6.345,6.345,0,0,0,2.14,0Zm-1.07-11.77a4.28,4.28,0,1,1-4.28,4.28A4.285,4.285,0,0,1,91.288,279.217Z" transform="translate(-72.76 -237.547)"/>
        <path id="Trazado_1004655" data-name="Trazado 1004655" d="M0,0H2.14V3.21H0Z" transform="translate(25.254 50.488) rotate(-45)"/>
        <path id="Trazado_1004656" data-name="Trazado 1004656" d="M193.351,314.577h3.21v2.14h-3.21Z" transform="translate(-165.766 -269.696)"/>
        <path id="Trazado_1004657" data-name="Trazado 1004657" d="M0,0H3.21V2.14H0Z" transform="translate(8.006 51.243) rotate(-45)"/>
        <path id="Trazado_1004658" data-name="Trazado 1004658" d="M0,0H2.14V3.21H0Z" transform="translate(8.007 40.651) rotate(-45)"/>
        <path id="Trazado_1004659" data-name="Trazado 1004659" d="M43.886,314.577H47.1v2.14h-3.21Z" transform="translate(-37.625 -269.696)"/>
        <path id="Trazado_1004660" data-name="Trazado 1004660" d="M0,0H3.21V2.14H0Z" transform="translate(25.255 41.409) rotate(-45)"/>
        <path id="Trazado_1004661" data-name="Trazado 1004661" d="M264.867,5.228A18.993,18.993,0,0,0,251.54.005C245.5-.111,240.311,2.018,236.915,6l1.628,1.389c2.973-3.484,7.572-5.346,12.956-5.243a16.9,16.9,0,0,1,11.862,4.6,16.174,16.174,0,0,1,4.546,11.817,16.544,16.544,0,0,1-5.224,12.064c-3.794,3.616-3.794,7.113-3.794,9.678v1.772H244.434V36.414l-6.036.054a1.631,1.631,0,0,1-1.581-1.621l-.163-5.661-3.363-1.4a2.065,2.065,0,0,1-1.226-1.139,2.968,2.968,0,0,1,.189-2.233l2.569-5.61v-.233a17.617,17.617,0,0,1,2.5-9.523L235.514,7.9a19.62,19.62,0,0,0-2.83,10.426l-2.376,5.188a5.058,5.058,0,0,0-.236,3.9,4.2,4.2,0,0,0,2.394,2.334l2.089.873.123,4.28a3.778,3.778,0,0,0,3.707,3.7h.032l3.877-.035v5.647h18.735V40.3c0-2.407,0-5.135,3.13-8.118a18.666,18.666,0,0,0,5.888-13.614,18.262,18.262,0,0,0-5.181-13.338Z" transform="translate(-197 -0.001)"/>
        <path id="Trazado_1004662" data-name="Trazado 1004662" d="M343.552,92.15a3.214,3.214,0,0,0,3.21-3.21V87.007a6.42,6.42,0,1,0-6.42,0V88.94A3.214,3.214,0,0,0,343.552,92.15Zm1.07-3.21a1.07,1.07,0,1,1-2.14,0V87.779a6.345,6.345,0,0,0,2.14,0Zm-1.07-11.77a4.28,4.28,0,1,1-4.28,4.28A4.285,4.285,0,0,1,343.552,77.17Z" transform="translate(-289.033 -64.326)"/>
        <path id="Trazado_1004663" data-name="Trazado 1004663" d="M0,0H3.21V2.14H0Z" transform="translate(61.244 12.59) rotate(-45)"/>
        <path id="Trazado_1004664" data-name="Trazado 1004664" d="M296.149,112.53h3.21v2.14h-3.21Z" transform="translate(-253.897 -96.475)"/>
        <path id="Trazado_1004665" data-name="Trazado 1004665" d="M0,0H3.21V2.14H0Z" transform="translate(43.995 22.423) rotate(-45)"/>
        <path id="Trazado_1004666" data-name="Trazado 1004666" d="M445.614,112.53h3.21v2.14h-3.21Z" transform="translate(-382.038 -96.475)"/>
        <path id="Trazado_1004667" data-name="Trazado 1004667" d="M0,0H2.14V3.21H0Z" transform="translate(61.243 21.669) rotate(-45)"/>
        <path id="Trazado_1004668" data-name="Trazado 1004668" d="M0,0H2.14V3.21H0Z" transform="translate(43.996 11.832) rotate(-45)"/>
        <path id="Trazado_1004669" data-name="Trazado 1004669" d="M124.509,52.833h6.863l-1.2,1.2,1.513,1.513,3.783-3.783-3.783-3.783-1.513,1.513,1.2,1.2h-9V65.685h2.14Z" transform="translate(-104.911 -41.135)"/>
        <path id="Trazado_1004670" data-name="Trazado 1004670" d="M309.772,352.8h-6.863l1.2-1.2L302.6,350.09l-3.783,3.783,3.783,3.783,1.513-1.513-1.2-1.2h9V339.951h-2.14Z" transform="translate(-256.181 -291.45)"/>
      </g>
    </g>
  </g>
</svg>
