<svg xmlns="http://www.w3.org/2000/svg" width="98" height="98" viewBox="0 0 98 98">
  <g id="Grupo_1177473" data-name="Grupo 1177473" transform="translate(-289.609 -11611.898)">
    <g id="Grupo_1177473-2" data-name="Grupo 1177473" transform="translate(289.609 11611.898)">
      <ellipse id="Elipse_13609" data-name="Elipse 13609" cx="49" cy="49" rx="49" ry="49" transform="translate(0)" fill="#fff"/>
      <g id="Grupo_1182145" data-name="Grupo 1182145" transform="translate(-9.324 20.241)">
        <path id="Trazado_1004262" data-name="Trazado 1004262" d="M370.038,233.022a4.281,4.281,0,0,0-1.2,2.954.846.846,0,0,0,.842.816h.03a.839.839,0,0,0,.812-.868,2.6,2.6,0,0,1,.705-1.71.843.843,0,1,0-1.191-1.192Z" transform="translate(-297.838 -206.625)" fill="#484e36"/>
        <path id="Trazado_1004263" data-name="Trazado 1004263" d="M96.415,233.022a.842.842,0,0,0,0,1.191,2.6,2.6,0,0,1,.705,1.709.843.843,0,0,0,.812.866h.031a.843.843,0,0,0,.841-.812,4.282,4.282,0,0,0-1.2-2.954A.842.842,0,0,0,96.415,233.022Z" transform="translate(-55.799 -206.626)" fill="#484e36"/>
        <path id="Trazado_1004264" data-name="Trazado 1004264" d="M218.122,329.237a3.023,3.023,0,0,0-4.276,0,.843.843,0,1,1-1.192-1.191,4.708,4.708,0,0,1,6.659,0,.843.843,0,0,1-1.192,1.191Z" transform="translate(-158.98 -289.97)" fill="#484e36"/>
        <path id="Trazado_1004265" data-name="Trazado 1004265" d="M158.132,260.709a.842.842,0,0,0-1.191,0,3.259,3.259,0,0,1-4.61,0,.842.842,0,0,0-1.191,1.191,4.944,4.944,0,0,0,6.993,0A.842.842,0,0,0,158.132,260.709Z" transform="translate(-104.375 -231.202)" fill="#484e36"/>
        <path id="Trazado_1004266" data-name="Trazado 1004266" d="M274.032,260.709a3.259,3.259,0,0,1-4.61,0,.843.843,0,0,0-1.192,1.191,4.945,4.945,0,0,0,6.993,0,.843.843,0,0,0-1.192-1.191Z" transform="translate(-208.313 -231.202)" fill="#484e36"/>
        <path id="Trazado_1004267" data-name="Trazado 1004267" d="M81.988,7.367a.843.843,0,0,0-.679,1.542.577.577,0,0,1,.347.551.571.571,0,0,1-.375.538l-4.565,1.793a.842.842,0,0,0-.476.476l-1.793,4.566a.57.57,0,0,1-.551.376h0a.572.572,0,0,1-.552-.376l-1.792-4.565a.842.842,0,0,0-.476-.476L66.509,10a.592.592,0,0,1,0-1.1L71.076,7.1a.842.842,0,0,0,.476-.477l1.792-4.566a.572.572,0,0,1,.552-.376h0a.571.571,0,0,1,.551.375l1.793,4.567a.843.843,0,0,0,.476.476l.967.38A.843.843,0,1,0,78.3,5.915l-.625-.245L76.015,1.445A2.264,2.264,0,0,0,73.9,0h0a2.266,2.266,0,0,0-2.12,1.445l-1.648,4.2A18.083,18.083,0,0,0,42.278,7.589l-.855-2.177a1.769,1.769,0,0,0-1.656-1.129h0a1.769,1.769,0,0,0-1.656,1.129L37.076,8.051,34.437,9.087a1.779,1.779,0,0,0,0,3.312l2.639,1.036,1.036,2.639a1.77,1.77,0,0,0,.846.935c-.021.357-.033.715-.033,1.07v5.478a4.832,4.832,0,0,0-1.718,3.695,6.941,6.941,0,0,0,.808,3.273A7.538,7.538,0,0,0,36,32.408a.842.842,0,1,0,1.357,1,5.844,5.844,0,0,1,1.623-1.5,7.067,7.067,0,0,0,2.9,1.948,15.272,15.272,0,0,0,3.261,7.188,15.43,15.43,0,0,0,1.553,1.633H42.048a5.824,5.824,0,0,1-5.823-5.823c0-.068,0-.136,0-.2a.843.843,0,0,0-1.684-.071c0,.092-.005.183-.005.275a7.509,7.509,0,0,0,7.508,7.508h6.876A15.267,15.267,0,0,0,51.389,45.6v.6q0,.143.007.284a19.829,19.829,0,0,0-11.93,9.795.843.843,0,0,0,.746,1.234h33.58a.843.843,0,0,0,.746-1.235,19.869,19.869,0,0,0-2.16-3.276.843.843,0,0,0-1.308,1.062,18.136,18.136,0,0,1,1.264,1.763H41.67a18.137,18.137,0,0,1,10.059-7.686A5.65,5.65,0,0,0,56.908,51.9H57a5.625,5.625,0,0,0,5.3-3.744,17.9,17.9,0,0,1,6.114,3.259.843.843,0,1,0,1.063-1.307,19.575,19.575,0,0,0-6.864-3.616c0-.068.005-.137.005-.206V45.6a15.276,15.276,0,0,0,2.466-1.24h6.875a7.507,7.507,0,0,0,4.029-13.842,6.988,6.988,0,0,0,.812-3.271,4.81,4.81,0,0,0-1.418-3.423c-.1-.1-.2-.187-.3-.274V18.562a2.27,2.27,0,0,0,.933-1.113l1.659-4.223L81.9,11.567a2.241,2.241,0,0,0,1.444-2.072,2.266,2.266,0,0,0-1.353-2.128ZM38.034,12l-2.981-1.17a.094.094,0,0,1,0-.175l2.981-1.17a.843.843,0,0,0,.476-.476l1.17-2.981a.094.094,0,0,1,.175,0l1.17,2.981a.842.842,0,0,0,.476.476l2.981,1.17a.094.094,0,0,1,0,.175L41.5,12a.843.843,0,0,0-.476.476l-1.17,2.981a.094.094,0,0,1-.175,0l-1.17-2.981A.842.842,0,0,0,38.034,12ZM76.705,33.483a5.822,5.822,0,0,1-4.746,9.2H67.314a15.3,15.3,0,0,0,4.813-8.821,6.982,6.982,0,0,0,2.9-1.948,5.858,5.858,0,0,1,1.679,1.574Zm-5.548-1.088a.843.843,0,0,0-.621.707A13.658,13.658,0,0,1,61.5,44.222a.842.842,0,0,0-.565.8v1.266a3.931,3.931,0,0,1-4,3.929A3.987,3.987,0,0,1,53.075,46.2V45.016a.842.842,0,0,0-.566-.8A13.655,13.655,0,0,1,43.47,33.1a.843.843,0,0,0-.621-.707,5.354,5.354,0,0,1-2.834-1.872,5.262,5.262,0,0,1-1.123-3.271,3.16,3.16,0,0,1,3.157-3.157h.427a30.46,30.46,0,0,0,7.111-.371A23.858,23.858,0,0,0,58.639,20.4l2.084.818,1.036,2.639a1.779,1.779,0,0,0,3.312,0l.306-.78a18.309,18.309,0,0,0,6.116,1.017h.465a3.158,3.158,0,0,1,3.158,3.157,5.322,5.322,0,0,1-3.958,5.144Zm-6.009-12.61a.843.843,0,0,0-.476.476L63.5,23.242a.094.094,0,0,1-.175,0l-1.17-2.981a.843.843,0,0,0-.476-.476L58.7,18.614a.094.094,0,0,1,0-.175l2.981-1.17a.843.843,0,0,0,.476-.476l1.17-2.981a.094.094,0,0,1,.175,0l1.17,2.981a.843.843,0,0,0,.476.476l2.981,1.17a.094.094,0,0,1,0,.175Zm6.809,2.625h-.465a16.647,16.647,0,0,1-5.5-.9l.113-.289,2.639-1.036a1.779,1.779,0,0,0,0-3.312l-2.639-1.036L65.07,13.2a1.779,1.779,0,0,0-3.312,0l-1.036,2.639-2.639,1.036a1.781,1.781,0,0,0-.933,2.47,22.676,22.676,0,0,1-7.84,2.721,29.056,29.056,0,0,1-6.716.352c-.027,0-.053,0-.08,0h-.465a4.828,4.828,0,0,0-1.439.218V18.079c0-.367.013-.738.038-1.108a1.772,1.772,0,0,0,.775-.9l1.036-2.639L45.1,12.4a1.779,1.779,0,0,0,0-3.312l-1.42-.558a16.526,16.526,0,0,1,1.734-2.043A16.391,16.391,0,0,1,68.435,6.33l-2.542,1a2.277,2.277,0,0,0,0,4.239l4.224,1.659,1.658,4.224a2.263,2.263,0,0,0,1.622,1.39v3.787a4.859,4.859,0,0,0-1.44-.217Z" fill="#484e36"/>
      </g>
    </g>
  </g>
</svg>
