<svg xmlns="http://www.w3.org/2000/svg" width="98" height="98" viewBox="0 0 98 98">
  <g id="Grupo_1177476" data-name="Grupo 1177476" transform="translate(-289.609 -11611.898)">
    <g id="Grupo_1177473" data-name="Grupo 1177473" transform="translate(289.609 11611.898)">
      <ellipse id="Elipse_13609" data-name="Elipse 13609" cx="49" cy="49" rx="49" ry="49" transform="translate(0)" fill="#fff"/>
      <path id="Trazado_1004269" data-name="Trazado 1004269" d="M120.749,72.273a22.33,22.33,0,0,0-2.653,4.814c-1.544,4.656-1.577,10.772-1.61,16.688-.017,2.637-.033,5.357-.175,7.918h-6.183a1.185,1.185,0,1,1,0-2.37h1.494a1,1,0,0,0,.993-1.043l-1.535-27.618h3.254a4.342,4.342,0,0,0,3.112-1.252l4.4-4.239V70.5A14.846,14.846,0,0,1,120.749,72.273Zm-2.461,29.42h1.377l-1-16.062C118.331,90.878,118.595,96.43,118.288,101.693Zm-16.9-33.008h12.941a2.407,2.407,0,0,0,1.736-.7l5.774-5.557V61.4c0-2.478.207-4.139-.9-6.517-1.06-2.278-2.57-3.363-4.748-3.413-2.311-.05-3.663.893-4.522,3.146a11.118,11.118,0,0,0-.651,3.154V63.7h.6l4.406-6a.99.99,0,1,1,1.594,1.176l-4.706,6.4a.992.992,0,0,1-.793.4h-10.73Zm3.6,4.5a.4.4,0,0,1-.392.392H86.74a.4.4,0,0,1-.4-.392v-2.52h4.589a.973.973,0,0,0,.776-.376c.563.07,2.293.317,2.762.317a3.121,3.121,0,0,0,1.2-.242,3.159,3.159,0,0,0,1.619.217l2.336-.292a.985.985,0,0,0,.776.376h4.589v2.52Zm-3.121,28.511H89.46V75.552h12.407ZM81.3,68.685H76.994a2.421,2.421,0,0,1-1.736-.7l-5.774-5.557-.008-1.986a11.233,11.233,0,0,1,.909-5.557c1.06-2.278,2.57-3.363,4.748-3.413a4.223,4.223,0,0,1,4.522,3.146,10.833,10.833,0,0,1,.651,3.154V63.7h-.592l-4.406-6a.994.994,0,0,0-1.6,1.176l4.706,6.4a1,1,0,0,0,.8.4h10.73v3H81.3Zm-.384,30.639h-1.5a.986.986,0,0,1-.985-1.051l1.811-27.61H76.994a4.309,4.309,0,0,1-3.1-1.252l-4.406-4.239v5.4c0,2.89,3.414,7.1,3.8,10.6L75.5,101.693h5.415a1.185,1.185,0,0,0,0-2.37Zm-8.578-8.386,1.168,10.755H71.662ZM75.359,42.36A3.563,3.563,0,1,1,71.8,45.923,3.566,3.566,0,0,1,75.359,42.36Zm6.925,15.311V63.7h4.973l.718-8.778-6.4-.818A13.041,13.041,0,0,1,82.284,57.671ZM91.921,66.1l2.361-.292a1.247,1.247,0,0,1,1.01.317,1.263,1.263,0,0,1,.442,1.085,1.243,1.243,0,0,1-.442,1.085,1.219,1.219,0,0,1-1.01.317l-2.361-.292Zm5.557,2.461a3.979,3.979,0,0,0,0-2.7l1.927.234v2.219Zm11.565-10.889V63.7H104.07l-.709-8.778,6.391-.818A13.365,13.365,0,0,0,109.043,57.671ZM92.6,48.493a5.539,5.539,0,0,0,6.133,0l12.783.718a5.34,5.34,0,0,0,1.093,1.118,5.7,5.7,0,0,0-1.769,1.644l-8.669,1.11a.99.99,0,0,0-.859,1.068l.776,9.554H100.4a1,1,0,0,0-.809.417l-2.3-.275a3.218,3.218,0,0,0-1.619.209,3.136,3.136,0,0,0-1.627-.209l-2.3.275a.991.991,0,0,0-.809-.417H89.251l.776-9.554a1,1,0,0,0-.868-1.068l-8.669-1.11a5.7,5.7,0,0,0-1.769-1.644,5.594,5.594,0,0,0,1.1-1.118Zm3.071-8.177A3.563,3.563,0,1,1,92.1,43.878a3.572,3.572,0,0,1,3.563-3.563Zm20.3,2.044a3.563,3.563,0,1,0,3.563,3.563A3.572,3.572,0,0,0,115.968,42.36Zm6.767,11.69a7.758,7.758,0,0,0-3.338-3.771,5.542,5.542,0,1,0-8.828-3.1l-10.088-.567a5.538,5.538,0,1,0-9.637,0l-10.088.567a5.541,5.541,0,1,0-8.828,3.1,7.758,7.758,0,0,0-3.338,3.771c-1.291,2.774-1.085,4.71-1.085,7.351v9.17c0,1.936,1.026,4.038,2.019,6.074a26.645,26.645,0,0,1,1.51,3.5l-1.41,22.478a.987.987,0,0,0,.985,1.06h10.3a3.167,3.167,0,0,0,0-6.333h-.442l1.752-26.684h2.136v2.52a2.375,2.375,0,0,0,2.378,2.37h.743v27.134a.994.994,0,0,0,.985.993H102.86a1,1,0,0,0,.993-.993V75.552h.743a2.368,2.368,0,0,0,2.37-2.37v-2.52h2.128l1.485,26.684h-.451a3.167,3.167,0,1,0,0,6.333h10.6a1,1,0,0,0,.985-1.06L120.124,77.3a23.628,23.628,0,0,1,2.278-3.938c.985-1.477,1.427-2.161,1.427-2.8v-10.1A12.882,12.882,0,0,0,122.735,54.05Z" transform="translate(-46.665 -22.009)" fill="#585a4a" fill-rule="evenodd"/>
    </g>
  </g>
</svg>
