<svg xmlns="http://www.w3.org/2000/svg" width="150" height="150" viewBox="0 0 150 150">
  <g id="Grupo_1182015" data-name="Grupo 1182015" transform="translate(-383.746 -8400)">
    <circle id="Elipse_13609" data-name="Elipse 13609" cx="75" cy="75" r="75" transform="translate(383.746 8400)" fill="#b3c487"/>
    <g id="Grupo_1182539" data-name="Grupo 1182539" transform="translate(415.035 8431.288)">
      <path id="Trazado_1005062" data-name="Trazado 1005062" d="M2.111,52.037A1.389,1.389,0,0,0,3.2,53.286l4.845,1.046A21.965,21.965,0,0,0,8.7,56.767L5.032,60.09a1.39,1.39,0,0,0-.321,1.628A27.8,27.8,0,0,0,6.93,65.59a1.39,1.39,0,0,0,1.57.533l4.709-1.517A22.278,22.278,0,0,0,15,66.4l-1.517,4.709a1.39,1.39,0,0,0,.533,1.57A27.8,27.8,0,0,0,17.89,74.9a1.392,1.392,0,0,0,1.628-.321l3.323-3.668a22.384,22.384,0,0,0,2.437.651L26.324,76.4A1.392,1.392,0,0,0,27.572,77.5c.74.058,1.481.111,2.236.111s1.5-.053,2.236-.111A1.389,1.389,0,0,0,33.292,76.4l1.046-4.845a21.99,21.99,0,0,0,2.437-.651L40.1,74.576a1.389,1.389,0,0,0,1.628.321A27.942,27.942,0,0,0,45.6,72.678a1.39,1.39,0,0,0,.533-1.57L44.613,66.4a22.489,22.489,0,0,0,1.794-1.792l4.709,1.517a1.388,1.388,0,0,0,1.57-.533A27.8,27.8,0,0,0,54.9,61.72a1.39,1.39,0,0,0-.321-1.628l-3.668-3.323a22.384,22.384,0,0,0,.651-2.437l4.845-1.046A1.392,1.392,0,0,0,57.5,52.038c.057-.741.11-1.482.11-2.237s-.053-1.5-.111-2.236a1.389,1.389,0,0,0-1.093-1.249l-4.845-1.046a21.99,21.99,0,0,0-.651-2.437l3.668-3.323a1.39,1.39,0,0,0,.321-1.628,27.942,27.942,0,0,0-2.219-3.872,1.388,1.388,0,0,0-1.57-.533L46.405,35A22.277,22.277,0,0,0,44.612,33.2l1.517-4.709a1.39,1.39,0,0,0-.533-1.57A27.8,27.8,0,0,0,41.724,24.7a1.387,1.387,0,0,0-1.628.321l-3.323,3.668a22.383,22.383,0,0,0-2.437-.651L33.29,23.2A1.392,1.392,0,0,0,32.043,22.1a28.258,28.258,0,0,0-4.473,0A1.389,1.389,0,0,0,26.322,23.2l-1.046,4.845a21.965,21.965,0,0,0-2.436.651l-3.323-3.668a1.389,1.389,0,0,0-1.628-.321,27.8,27.8,0,0,0-3.872,2.219,1.39,1.39,0,0,0-.533,1.57L15,33.2A22.278,22.278,0,0,0,13.208,35L8.5,33.478a1.387,1.387,0,0,0-1.57.533,27.8,27.8,0,0,0-2.219,3.872,1.39,1.39,0,0,0,.321,1.628L8.7,42.834a22.384,22.384,0,0,0-.651,2.437L3.2,46.317a1.392,1.392,0,0,0-1.093,1.247C2.053,48.305,2,49.046,2,49.8s.053,1.5.111,2.236Zm2.7-3.221,4.73-1.022a1.391,1.391,0,0,0,1.079-1.136,19.383,19.383,0,0,1,1-3.741,1.389,1.389,0,0,0-.367-1.522L7.68,38.157c.311-.6.637-1.168.973-1.709l4.583,1.477a1.4,1.4,0,0,0,1.5-.442,19.549,19.549,0,0,1,2.75-2.75,1.389,1.389,0,0,0,.442-1.5l-1.477-4.583q.811-.507,1.709-.973L21.4,31.247a1.392,1.392,0,0,0,1.524.367,19.289,19.289,0,0,1,3.74-1A1.391,1.391,0,0,0,27.8,29.535l1.021-4.73a18.312,18.312,0,0,1,1.973,0l1.022,4.73a1.391,1.391,0,0,0,1.136,1.079,19.383,19.383,0,0,1,3.741,1,1.388,1.388,0,0,0,1.522-.367l3.237-3.572c.6.311,1.168.637,1.709.973l-1.477,4.583a1.392,1.392,0,0,0,.442,1.5,19.549,19.549,0,0,1,2.75,2.75,1.385,1.385,0,0,0,1.5.442l4.583-1.477q.507.811.973,1.707l-3.573,3.237a1.39,1.39,0,0,0-.367,1.524,19.289,19.289,0,0,1,1,3.74,1.391,1.391,0,0,0,1.079,1.136l4.73,1.021c.018.327.031.656.031.987s-.011.66-.029.986l-4.73,1.022A1.391,1.391,0,0,0,49,52.945a19.382,19.382,0,0,1-1,3.741,1.389,1.389,0,0,0,.367,1.522l3.572,3.237c-.311.6-.637,1.168-.973,1.709l-4.583-1.477a1.384,1.384,0,0,0-1.5.442,19.623,19.623,0,0,1-2.75,2.75,1.39,1.39,0,0,0-.442,1.5l1.477,4.583q-.811.507-1.707.973l-3.237-3.573a1.4,1.4,0,0,0-1.524-.367,19.29,19.29,0,0,1-3.74,1,1.391,1.391,0,0,0-1.136,1.079L30.8,74.8a18.311,18.311,0,0,1-1.973,0L27.8,70.066a1.391,1.391,0,0,0-1.136-1.079,19.383,19.383,0,0,1-3.741-1,1.387,1.387,0,0,0-1.522.367l-3.237,3.572c-.6-.311-1.168-.637-1.709-.973l1.477-4.583a1.392,1.392,0,0,0-.442-1.5,19.549,19.549,0,0,1-2.75-2.75,1.388,1.388,0,0,0-1.5-.442L8.654,63.152q-.507-.811-.973-1.709l3.573-3.237a1.39,1.39,0,0,0,.367-1.524,19.289,19.289,0,0,1-1-3.74,1.391,1.391,0,0,0-1.079-1.136L4.81,50.788c-.017-.327-.029-.656-.029-.987S4.792,49.141,4.81,48.816Z" transform="translate(0 7.813)" fill="#484e36"/>
      <path id="Trazado_1005063" data-name="Trazado 1005063" d="M63.283,21.792a1.389,1.389,0,0,0,.964-1.167,16.352,16.352,0,0,0,.122-1.941,16.634,16.634,0,0,0-.121-1.941,1.389,1.389,0,0,0-.964-1.167l-3.855-1.211q-.173-.473-.384-.929l1.869-3.58a1.393,1.393,0,0,0-.142-1.506A16.833,16.833,0,0,0,58.02,5.6a1.394,1.394,0,0,0-1.506-.143L52.932,7.325q-.455-.209-.929-.382L50.792,3.087a1.389,1.389,0,0,0-1.167-.964,15.381,15.381,0,0,0-3.883,0,1.389,1.389,0,0,0-1.167.964L43.365,6.943q-.473.173-.929.384l-3.58-1.869A1.4,1.4,0,0,0,37.35,5.6,16.834,16.834,0,0,0,34.6,8.351a1.391,1.391,0,0,0-.143,1.506l1.867,3.58q-.209.455-.382.929l-3.855,1.211a1.389,1.389,0,0,0-.964,1.167,15.632,15.632,0,0,0,0,3.882,1.389,1.389,0,0,0,.964,1.167L35.94,23q.173.473.384.929l-1.869,3.58a1.394,1.394,0,0,0,.142,1.506,16.833,16.833,0,0,0,2.752,2.752,1.393,1.393,0,0,0,1.506.143l3.58-1.867q.455.209.929.382l1.211,3.855a1.389,1.389,0,0,0,1.167.964,16.433,16.433,0,0,0,1.944.122,16.634,16.634,0,0,0,1.941-.121,1.389,1.389,0,0,0,1.167-.964L52,30.429q.473-.173.929-.384l3.58,1.869a1.391,1.391,0,0,0,1.506-.142,16.834,16.834,0,0,0,2.752-2.752,1.391,1.391,0,0,0,.143-1.506l-1.869-3.58q.211-.455.384-.929Zm-5.367-1.229A1.394,1.394,0,0,0,57,21.49a9.793,9.793,0,0,1-.742,1.8,1.387,1.387,0,0,0-.008,1.3l1.764,3.381a14.189,14.189,0,0,1-1.043,1.043L53.591,27.25a1.391,1.391,0,0,0-1.3.008,9.793,9.793,0,0,1-1.8.742,1.394,1.394,0,0,0-.927.915l-1.146,3.648a11.712,11.712,0,0,1-1.465,0l-1.146-3.648A1.394,1.394,0,0,0,44.879,28a9.661,9.661,0,0,1-1.8-.742,1.389,1.389,0,0,0-1.3-.008L38.4,29.015a14.19,14.19,0,0,1-1.043-1.043l1.764-3.381a1.391,1.391,0,0,0-.008-1.3,9.794,9.794,0,0,1-.742-1.8,1.394,1.394,0,0,0-.915-.927L33.8,19.417c-.017-.254-.024-.5-.024-.733s.007-.478.024-.733l3.648-1.146a1.394,1.394,0,0,0,.915-.927,9.662,9.662,0,0,1,.742-1.8,1.389,1.389,0,0,0,.008-1.3L37.354,9.4A14.19,14.19,0,0,1,38.4,8.354l3.381,1.764a1.4,1.4,0,0,0,1.3-.008,9.793,9.793,0,0,1,1.8-.742,1.394,1.394,0,0,0,.927-.915L46.952,4.8a11.713,11.713,0,0,1,1.465,0l1.146,3.648a1.394,1.394,0,0,0,.927.915,9.661,9.661,0,0,1,1.8.742,1.389,1.389,0,0,0,1.3.008l3.381-1.764A14.19,14.19,0,0,1,58.015,9.4L56.25,12.778a1.391,1.391,0,0,0,.008,1.3,9.793,9.793,0,0,1,.742,1.8,1.394,1.394,0,0,0,.915.927l3.648,1.146c.017.254.024.5.024.733s-.007.478-.024.733Z" transform="translate(11.321)" fill="#484e36"/>
      <path id="Trazado_1005064" data-name="Trazado 1005064" d="M68.781,38.073l-2.389-.848a11.269,11.269,0,0,0-.469-1.136L67.01,33.8a1.384,1.384,0,0,0-.161-1.452,13.993,13.993,0,0,0-2.39-2.391,1.391,1.391,0,0,0-1.453-.161l-2.289,1.086a11.1,11.1,0,0,0-1.135-.467l-.85-2.389a1.394,1.394,0,0,0-1.143-.915,12.812,12.812,0,0,0-3.374,0,1.389,1.389,0,0,0-1.143.915l-.848,2.389a11.269,11.269,0,0,0-1.136.469L48.8,29.8a1.391,1.391,0,0,0-1.452.161,13.993,13.993,0,0,0-2.391,2.39A1.393,1.393,0,0,0,44.8,33.8l1.086,2.289a11.1,11.1,0,0,0-.467,1.135l-2.389.85a1.394,1.394,0,0,0-.915,1.143A13.622,13.622,0,0,0,42,40.9a13.936,13.936,0,0,0,.111,1.687,1.389,1.389,0,0,0,.915,1.143l2.389.848a11.267,11.267,0,0,0,.469,1.136L44.8,48a1.384,1.384,0,0,0,.161,1.452,13.993,13.993,0,0,0,2.39,2.391,1.393,1.393,0,0,0,1.453.161l2.289-1.086a11.105,11.105,0,0,0,1.135.467l.85,2.389a1.394,1.394,0,0,0,1.143.915,13.429,13.429,0,0,0,1.687.114A13.936,13.936,0,0,0,57.59,54.7a1.389,1.389,0,0,0,1.143-.915l.848-2.389a11.269,11.269,0,0,0,1.136-.469L63,52.01a1.381,1.381,0,0,0,1.452-.161,13.993,13.993,0,0,0,2.391-2.39,1.393,1.393,0,0,0,.161-1.453l-1.086-2.289a11.1,11.1,0,0,0,.467-1.135l2.389-.85a1.394,1.394,0,0,0,.915-1.143,13.429,13.429,0,0,0,.114-1.687,13.936,13.936,0,0,0-.111-1.687,1.391,1.391,0,0,0-.915-1.144Zm-1.769,3.338-2.2.783a1.39,1.39,0,0,0-.875.938A8.273,8.273,0,0,1,63.163,45a1.394,1.394,0,0,0-.046,1.281l1,2.1q-.346.38-.724.724l-2.1-1a1.394,1.394,0,0,0-1.281.046,8.278,8.278,0,0,1-1.871.772,1.4,1.4,0,0,0-.94.875l-.783,2.2a9.506,9.506,0,0,1-1.015,0l-.783-2.2a1.39,1.39,0,0,0-.938-.875,8.273,8.273,0,0,1-1.873-.772,1.4,1.4,0,0,0-1.281-.046l-2.1,1q-.38-.346-.724-.724l1-2.1A1.389,1.389,0,0,0,48.647,45a8.278,8.278,0,0,1-.772-1.871,1.4,1.4,0,0,0-.875-.94l-2.2-.783c-.011-.168-.017-.336-.017-.507s.006-.341.014-.507l2.2-.784a1.385,1.385,0,0,0,.873-.938,8.314,8.314,0,0,1,.773-1.873,1.394,1.394,0,0,0,.046-1.281l-1-2.1q.346-.38.724-.724l2.1,1a1.385,1.385,0,0,0,1.281-.046,8.277,8.277,0,0,1,1.871-.772,1.4,1.4,0,0,0,.94-.875l.783-2.2a9.506,9.506,0,0,1,1.015,0l.783,2.2a1.39,1.39,0,0,0,.938.875A8.273,8.273,0,0,1,60,33.644a1.386,1.386,0,0,0,1.281.046l2.1-1q.38.346.724.724l-1,2.1A1.389,1.389,0,0,0,63.16,36.8a8.278,8.278,0,0,1,.772,1.871,1.4,1.4,0,0,0,.875.94l2.2.783c.011.17.017.338.017.509s-.006.339-.014.507Z" transform="translate(15.615 9.759)" fill="#484e36"/>
      <path id="Trazado_1005065" data-name="Trazado 1005065" d="M26.294,61.588A15.294,15.294,0,1,0,11,46.294,15.312,15.312,0,0,0,26.294,61.588Zm0-27.807A12.513,12.513,0,1,1,13.781,46.294,12.529,12.529,0,0,1,26.294,33.781Z" transform="translate(3.513 11.32)" fill="#484e36"/>
      <path id="Trazado_1005066" data-name="Trazado 1005066" d="M2.022,30.069,4.158,31.85A33.3,33.3,0,0,1,29.8,19.837c.708,0,1.414.04,2.12.085l-1.713,1.713L32.172,23.6l4.171-4.171a1.389,1.389,0,0,0,0-1.966l-4.171-4.171-1.966,1.966,1.89,1.89c-.765-.049-1.531-.092-2.3-.092A36.076,36.076,0,0,0,2.022,30.069Z" transform="translate(0.009 4.408)" fill="#484e36"/>
      <path id="Trazado_1005067" data-name="Trazado 1005067" d="M44.952,9A6.952,6.952,0,1,0,51.9,15.952,6.96,6.96,0,0,0,44.952,9Zm0,11.123a4.171,4.171,0,1,1,4.171-4.171A4.176,4.176,0,0,1,44.952,20.123Z" transform="translate(14.053 2.732)" fill="#484e36"/>
      <path id="Trazado_1005068" data-name="Trazado 1005068" d="M53.561,33a5.561,5.561,0,1,0,5.561,5.561A5.567,5.567,0,0,0,53.561,33Zm0,8.342a2.781,2.781,0,1,1,2.781-2.781A2.784,2.784,0,0,1,53.561,41.342Z" transform="translate(17.957 12.101)" fill="#484e36"/>
      <path id="Trazado_1005069" data-name="Trazado 1005069" d="M64,5.418l-6.952-1.39a1.387,1.387,0,0,0-1.636,1.09l-1.39,6.952,2.727.546.749-3.743a20.862,20.862,0,0,1,2.059,9.03A20.632,20.632,0,0,1,54.98,30.938l2.17,1.739A23.655,23.655,0,0,0,59.893,7.433l3.559.712Z" transform="translate(20.306 0.78)" fill="#484e36"/>
    </g>
  </g>
</svg>
