<svg xmlns="http://www.w3.org/2000/svg" width="128" height="128" viewBox="0 0 128 128">
  <g id="Grupo_1181985" data-name="Grupo 1181985" transform="translate(-72.746 -7992)">
    <g id="Elipse_13628" data-name="Elipse 13628" transform="translate(72.746 7992)" fill="#ecf0f1" stroke="#ffa038" stroke-width="6">
      <circle cx="64" cy="64" r="64" stroke="none"/>
      <circle cx="64" cy="64" r="61" fill="none"/>
    </g>
    <g id="Grupo_1182142" data-name="Grupo 1182142" transform="translate(79.266 8010.964)">
      <g id="Grupo_1182141" data-name="Grupo 1182141" transform="translate(23.69 9.424)">
        <path id="Trazado_1004238" data-name="Trazado 1004238" d="M39.595,90.284a.75.75,0,0,1,.75.75v9.205a.75.75,0,0,1-.75.75h-9.2a.75.75,0,0,1-.75-.75V91.034a.75.75,0,0,1,.75-.75Z" transform="translate(-29.64 -79.371)" fill="#c6ea94" fill-rule="evenodd"/>
        <path id="Trazado_1004239" data-name="Trazado 1004239" d="M214.433,17.875a.75.75,0,0,1,1.3,0l4.882,8.455a.75.75,0,0,1-.649,1.125H210.2a.75.75,0,0,1-.649-1.125l4.882-8.455Z" transform="translate(-182.49 -17.5)" fill="#66d4f1" fill-rule="evenodd"/>
        <circle id="Elipse_15032" data-name="Elipse 15032" cx="6.391" cy="6.391" r="6.391" transform="translate(54.8 10.913)" fill="#f76c82"/>
        <path id="Trazado_1004240" data-name="Trazado 1004240" d="M90.867,172.371v7.815a.749.749,0,0,0,.75.75h17.73a.749.749,0,0,0,.75-.75v-7.815c-.084-7.8,11.226-10.863,10.4-28.827-.461-10.055-6.692-18.276-20.872-17.516C88.6,126.619,81.4,134.723,81.4,145.313l-6.27,11.515a1.614,1.614,0,0,0,1.392,2.4H81.4v2.743C81.4,167.327,84.311,172.371,90.867,172.371Z" transform="translate(-68.135 -109.714)" fill="#d5a889" fill-rule="evenodd"/>
        <g id="Grupo_1182140" data-name="Grupo 1182140" transform="translate(20.666 21.37)">
          <path id="Trazado_1004241" data-name="Trazado 1004241" d="M193.271,175.569a2.954,2.954,0,0,0-2.087,5.04.878.878,0,0,1,0,1.24l-1.886,1.886a.878.878,0,0,1-1.24,0,2.954,2.954,0,0,0-5.04,2.087.875.875,0,0,1-.876.876h-2.667a.875.875,0,0,1-.876-.876,2.953,2.953,0,0,0-5.04-2.087.876.876,0,0,1-1.238,0l-1.887-1.886a.878.878,0,0,1,0-1.24,2.953,2.953,0,0,0-2.087-5.04.876.876,0,0,1-.876-.876v-2.667a.876.876,0,0,1,.876-.876,2.953,2.953,0,0,0,2.087-5.04.876.876,0,0,1,0-1.238l1.887-1.887a.876.876,0,0,1,1.238,0,2.953,2.953,0,0,0,5.04-2.087.876.876,0,0,1,.876-.876h2.667a.876.876,0,0,1,.876.876,2.953,2.953,0,0,0,5.04,2.087.878.878,0,0,1,1.24,0l1.886,1.887a.876.876,0,0,1,0,1.238,2.954,2.954,0,0,0,2.087,5.04.875.875,0,0,1,.876.876v2.667A.875.875,0,0,1,193.271,175.569Z" transform="translate(-167.47 -160.021)" fill="#fdcd56" fill-rule="evenodd"/>
          <path id="Trazado_1004242" data-name="Trazado 1004242" d="M220.1,219.06a6.409,6.409,0,1,0-6.409-6.409A6.423,6.423,0,0,0,220.1,219.06Z" transform="translate(-206.76 -199.312)" fill="#f4f6f8" fill-rule="evenodd"/>
        </g>
      </g>
      <path id="Trazado_1004243" data-name="Trazado 1004243" d="M35.444,20.713v10.7a1.05,1.05,0,0,1-1.05,1.05H23.69a1.05,1.05,0,0,1-1.05-1.05v-10.7a1.05,1.05,0,0,1,1.05-1.05h10.7a1.05,1.05,0,0,1,1.05,1.05Zm-2.1,1.05H24.739v8.605h8.605ZM57.191,8.525l6.18,10.7a1.05,1.05,0,0,1-.909,1.574H50.1a1.05,1.05,0,0,1-.909-1.574l6.18-10.7a1.05,1.05,0,0,1,1.818,0Zm-.909,2.624L51.92,18.7h8.725Zm28.6,8.514a7.44,7.44,0,1,1-7.44,7.44A7.444,7.444,0,0,1,84.881,19.663Zm0,2.1A5.341,5.341,0,1,0,90.222,27.1,5.344,5.344,0,0,0,84.881,21.762Zm-39.509,51.7c-6.514-.51-9.47-5.782-9.47-11.411V60.362H32.073a2.663,2.663,0,0,1-2.314-3.95h0L35.9,45.129c.121-11.034,7.688-19.445,19.219-20.063,7.451-.4,12.8,1.609,16.36,4.99,3.579,3.4,5.374,8.215,5.617,13.526.513,11.13-3.477,16.724-6.74,21.156C68.4,67.393,66.67,69.551,66.7,72.445v8.576a1.05,1.05,0,0,1-1.05,1.05H46.422a1.05,1.05,0,0,1-1.05-1.05Zm2.1-1.009v7.515H64.6V72.465c-.035-3.341,1.809-5.906,4.067-8.972,3.057-4.152,6.813-9.388,6.333-19.815h0c-.217-4.743-1.769-9.065-4.966-12.1-3.215-3.053-8.073-4.776-14.8-4.416C44.809,27.72,38,35.385,38,45.4a1.048,1.048,0,0,1-.128.5L31.6,57.415a.564.564,0,0,0,.47.847h4.878A1.05,1.05,0,0,1,38,59.312v2.743c0,4.794,2.556,9.352,8.421,9.352a1.05,1.05,0,0,1,1.05,1.05Zm22.686-24.69a1.9,1.9,0,0,0-1.345,3.248,1.928,1.928,0,0,1,0,2.724l-1.886,1.886a1.929,1.929,0,0,1-2.724,0,1.9,1.9,0,0,0-3.248,1.345A1.924,1.924,0,0,1,59.028,58.9H56.361a1.924,1.924,0,0,1-1.926-1.926,1.9,1.9,0,0,0-3.248-1.345,1.925,1.925,0,0,1-2.722,0l-1.888-1.886a1.928,1.928,0,0,1,0-2.724,1.9,1.9,0,0,0-1.345-3.248,1.926,1.926,0,0,1-1.926-1.926V43.174a1.926,1.926,0,0,1,1.926-1.926A1.9,1.9,0,0,0,46.577,38a1.926,1.926,0,0,1,0-2.723l1.887-1.887a1.926,1.926,0,0,1,2.723,0,1.9,1.9,0,0,0,3.248-1.345,1.926,1.926,0,0,1,1.926-1.926h2.667a1.926,1.926,0,0,1,1.926,1.926A1.9,1.9,0,0,0,64.2,33.39a1.929,1.929,0,0,1,2.724,0l1.886,1.887a1.925,1.925,0,0,1,0,2.723,1.9,1.9,0,0,0,1.345,3.248,1.924,1.924,0,0,1,1.926,1.926v2.667A1.924,1.924,0,0,1,70.157,47.767ZM45.406,43.344v2.327a4,4,0,0,1,2.776,6.7l1.647,1.645a4,4,0,0,1,6.7,2.777h2.327a4,4,0,0,1,6.7-2.776l1.646-1.646a4,4,0,0,1,2.776-6.7V43.344a4,4,0,0,1-2.776-6.7l-1.645-1.647a4,4,0,0,1-6.7-2.776H56.531A4,4,0,0,1,49.828,35l-1.646,1.646a4,4,0,0,1-2.777,6.7ZM57.7,51.967a7.458,7.458,0,1,1,7.459-7.459A7.473,7.473,0,0,1,57.7,51.967Zm0-2.1a5.359,5.359,0,1,0-5.359-5.359A5.371,5.371,0,0,0,57.7,49.868Z" fill-rule="evenodd"/>
    </g>
  </g>
</svg>
