<svg xmlns="http://www.w3.org/2000/svg" width="53.196" height="50" viewBox="0 0 53.196 50">
  <g id="Grupo_1182019" data-name="Grupo 1182019" transform="translate(1.918)">
    <g id="Grupo_1099618" data-name="Grupo 1099618" transform="translate(-0.023 0)">
      <rect id="Rectángulo_401104" data-name="Rectángulo 401104" width="49.405" height="50" transform="translate(0)" fill="none"/>
    </g>
    <g id="Grupo_1182849" data-name="Grupo 1182849" transform="translate(-1.918 0.85)">
      <path id="Trazado_1015138" data-name="Trazado 1015138" d="M53.2,26.333a2.777,2.777,0,0,0-2.774-2.774H39.281a.779.779,0,0,0,0,1.558h11.14a1.217,1.217,0,0,1,1.216,1.216v3.5H1.558v-3.5a1.217,1.217,0,0,1,1.216-1.216H35.625a.779.779,0,0,0,0-1.558H2.774A2.778,2.778,0,0,0,0,26.333V61.1a2.777,2.777,0,0,0,2.774,2.774H4.343L2.364,65.853a2.447,2.447,0,0,0,0,3.46L4.2,71.144a2.449,2.449,0,0,0,3.46,0l4.2-4.2a.779.779,0,1,0-1.1-1.1l-4.2,4.2a.889.889,0,0,1-1.256,0L3.466,68.21a.889.889,0,0,1,0-1.256l6.808-6.808a.779.779,0,0,0-.122-1.2L7.38,57.117a.509.509,0,0,1,.263-.933l8.817-.3a1.124,1.124,0,0,1,1.161,1.161l-.3,8.817a.509.509,0,0,1-.933.263l-1.828-2.772a.779.779,0,1,0-1.3.858l1.828,2.772a2.067,2.067,0,0,0,3.792-1.068l.069-2.044H50.422A2.777,2.777,0,0,0,53.2,61.1ZM51.638,61.1a1.217,1.217,0,0,1-1.216,1.216H19l.176-5.214a2.682,2.682,0,0,0-2.771-2.771l-8.817.3a2.067,2.067,0,0,0-1.068,3.792L8.5,59.72,5.9,62.315H2.774A1.217,1.217,0,0,1,1.558,61.1V31.4H51.638Z" transform="translate(0 -23.559)" fill="#484e36"/>
      <path id="Trazado_1015139" data-name="Trazado 1015139" d="M27.779,53.772a.779.779,0,0,0,0,1.558h8.332a.779.779,0,0,0,0-1.558Z" transform="translate(-24.195 -50.633)" fill="#484e36"/>
      <path id="Trazado_1015140" data-name="Trazado 1015140" d="M27.779,114.988h2.885a.779.779,0,1,0,0-1.558H27.779a.779.779,0,0,0,0,1.558Z" transform="translate(-24.195 -104.093)" fill="#484e36"/>
      <path id="Trazado_1015141" data-name="Trazado 1015141" d="M94.008,114.988h2.885a.779.779,0,0,0,0-1.558H94.008a.779.779,0,0,0,0,1.558Z" transform="translate(-83.543 -104.093)" fill="#484e36"/>
      <path id="Trazado_1015142" data-name="Trazado 1015142" d="M160.237,114.988h2.885a.779.779,0,0,0,0-1.558h-2.885a.779.779,0,0,0,0,1.558Z" transform="translate(-142.891 -104.093)" fill="#484e36"/>
      <path id="Trazado_1015143" data-name="Trazado 1015143" d="M371.352,114.988h10.33a.779.779,0,0,0,0-1.558h-10.33a.779.779,0,0,0,0,1.558Z" transform="translate(-332.071 -104.093)" fill="#484e36"/>
      <path id="Trazado_1015144" data-name="Trazado 1015144" d="M217.981,175.662h8.467a1.539,1.539,0,0,0,1.524-1.754l-1.048-7.434a1.546,1.546,0,0,0-1.524-1.324h-.624V164.5a2.562,2.562,0,0,0-5.123,0v.651h-.624a1.546,1.546,0,0,0-1.524,1.324l-1.048,7.435a1.539,1.539,0,0,0,1.524,1.754Zm3.23-11.164a1,1,0,0,1,2.006,0v.651h-2.006V164.5Zm-2.166,2.21h.607v.624a.779.779,0,1,0,1.558,0v-.624h2.006v.624a.779.779,0,1,0,1.558,0v-.624h.607l1.042,7.4H218Z" transform="translate(-193.954 -147.56)" fill="#484e36"/>
      <path id="Trazado_1015145" data-name="Trazado 1015145" d="M201.6,332.681a1.469,1.469,0,0,0,1.467,1.467h11.245a1.469,1.469,0,0,0,1.467-1.467v-2.143a1.469,1.469,0,0,0-1.467-1.467H203.068a1.469,1.469,0,0,0-1.467,1.467v2.143Zm1.558-2.051h11.063v1.96H203.16Z" transform="translate(-180.655 -297.329)" fill="#484e36"/>
      <path id="Trazado_1015146" data-name="Trazado 1015146" d="M352.219,334.148h2.2a1.469,1.469,0,0,0,1.467-1.467v-2.143a1.469,1.469,0,0,0-1.467-1.467h-2.2a1.469,1.469,0,0,0-1.467,1.467v2.143A1.469,1.469,0,0,0,352.219,334.148Zm.091-3.519h2.021v1.96H352.31Z" transform="translate(-314.309 -297.329)" fill="#484e36"/>
      <path id="Trazado_1015147" data-name="Trazado 1015147" d="M417.021,329.071h-2.2a1.469,1.469,0,0,0-1.467,1.467v2.143a1.469,1.469,0,0,0,1.467,1.467h2.2a1.469,1.469,0,0,0,1.467-1.467v-2.143A1.469,1.469,0,0,0,417.021,329.071Zm-.091,3.519h-2.021v-1.96h2.021Z" transform="translate(-370.404 -297.329)" fill="#484e36"/>
      <path id="Trazado_1015148" data-name="Trazado 1015148" d="M53.807,171.788l-4.2,2.289a.779.779,0,0,0-.359.953l1.138,3.1a.779.779,0,0,0,.918.488l.841-.208v5.12a.779.779,0,0,0,.779.779H59.5a.779.779,0,0,0,.779-.779v-5.12l.841.208a.779.779,0,0,0,.918-.488l1.138-3.1a.779.779,0,0,0-.359-.953l-4.2-2.289a.78.78,0,0,0-.373-.095H54.18a.78.78,0,0,0-.373.095Zm4.24,1.464,3.436,1.872-.665,1.811-1.129-.279a.779.779,0,0,0-.966.756v5.336H53.7v-5.336a.779.779,0,0,0-.966-.756l-1.129.279-.665-1.811,3.436-1.872Z" transform="translate(-44.088 -156.302)" fill="#484e36"/>
      <path id="Trazado_1015149" data-name="Trazado 1015149" d="M372.443,188.958h5.842a1.872,1.872,0,0,0,1.87-1.87v-8.444a1.872,1.872,0,0,0-1.87-1.87h-5.842a1.872,1.872,0,0,0-1.87,1.87v8.444A1.872,1.872,0,0,0,372.443,188.958Zm-.311-10.314a.312.312,0,0,1,.311-.311h5.842a.312.312,0,0,1,.311.311v8.444a.312.312,0,0,1-.311.311h-5.842a.312.312,0,0,1-.311-.311Z" transform="translate(-332.071 -160.855)" fill="#484e36"/>
      <path id="Trazado_1015150" data-name="Trazado 1015150" d="M404.953,254.344h1.042a.779.779,0,0,0,0-1.558h-1.042a.779.779,0,1,0,0,1.558Z" transform="translate(-362.181 -228.97)" fill="#484e36"/>
      <circle id="Elipse_15117" data-name="Elipse 15117" cx="0.779" cy="0.779" r="0.779" transform="translate(48.832 3.139)" fill="#484e36"/>
    </g>
  </g>
</svg>
