<svg xmlns="http://www.w3.org/2000/svg" width="128" height="128" viewBox="0 0 128 128">
  <g id="Grupo_1178702" data-name="Grupo 1178702" transform="translate(-72.746 -7992)">
    <g id="Elipse_13628" data-name="Elipse 13628" transform="translate(72.746 7992)" fill="#ecf0f1" stroke="#ffa038" stroke-width="6">
      <circle cx="64" cy="64" r="64" stroke="none"/>
      <circle cx="64" cy="64" r="61" fill="none"/>
    </g>
    <g id="Grupo_1182139" data-name="Grupo 1182139" transform="translate(78.583 8011.829)">
      <g id="Grupo_1182138" data-name="Grupo 1182138" transform="translate(25.423 9.034)">
        <g id="Grupo_1182136" data-name="Grupo 1182136" transform="translate(9.169 42.686)">
          <path id="Trazado_1004232" data-name="Trazado 1004232" d="M132.9,311.454a4.9,4.9,0,1,0,4.9-4.894A4.9,4.9,0,0,0,132.9,311.454Z" transform="translate(-127.208 -306.56)" fill="#d5a889" fill-rule="evenodd"/>
          <path id="Trazado_1004233" data-name="Trazado 1004233" d="M115.182,403.284c0,5.849-21.182,5.849-21.182,0a10.591,10.591,0,1,1,21.182,0Z" transform="translate(-94 -380.082)" fill="#66d4f1" fill-rule="evenodd"/>
          <path id="Trazado_1004234" data-name="Trazado 1004234" d="M312.9,311.454a4.9,4.9,0,1,0,4.9-4.894,4.9,4.9,0,0,0-4.9,4.894Z" transform="translate(-280.855 -306.56)" fill="#d5a889" fill-rule="evenodd"/>
          <path id="Trazado_1004235" data-name="Trazado 1004235" d="M295.182,403.284c0,5.849-21.182,5.849-21.182,0a10.591,10.591,0,1,1,21.182,0Z" transform="translate(-247.647 -380.082)" fill="#4fc0e8" fill-rule="evenodd"/>
        </g>
        <g id="Grupo_1182137" data-name="Grupo 1182137" transform="translate(0 0)">
          <path id="Trazado_1004236" data-name="Trazado 1004236" d="M64.11,24.132A20.742,20.742,0,0,1,69.4,18.753c8.431-5.927,19.52-4.7,24.748,2.735S96.78,39.774,88.35,45.7a20.239,20.239,0,0,1-11.256,3.751l-5.536,5.834a.732.732,0,0,1-1.261-.454c-.168-2.465-.462-6.8-.462-6.8a14.923,14.923,0,0,1-5.723-4.387,14.923,14.923,0,0,1-5.723,4.387s-.295,4.332-.462,6.8a.732.732,0,0,1-1.261.454l-5.536-5.834A20.239,20.239,0,0,1,39.871,45.7c-8.431-5.927-11.031-16.777-5.8-24.213s16.317-8.662,24.748-2.735a20.743,20.743,0,0,1,5.294,5.379Z" transform="translate(-31.37 -15)" fill="#c6ea94" fill-rule="evenodd"/>
        </g>
      </g>
      <path id="Trazado_1004237" data-name="Trazado 1004237" d="M39.263,56.613a5.92,5.92,0,1,1,5.921,5.921A5.92,5.92,0,0,1,39.263,56.613Zm2.05,0a3.87,3.87,0,1,0,3.871-3.869A3.87,3.87,0,0,0,41.312,56.613ZM56.8,74.92c0,1.517-1,2.807-2.757,3.718a20.662,20.662,0,0,1-8.859,1.694,20.663,20.663,0,0,1-8.859-1.694c-1.758-.91-2.757-2.2-2.757-3.718a11.616,11.616,0,1,1,23.231,0Zm-2.05,0a9.566,9.566,0,1,0-19.132,0c0,.824.694,1.4,1.649,1.9a18.523,18.523,0,0,0,7.917,1.464A18.522,18.522,0,0,0,53.1,76.818C54.054,76.323,54.749,75.744,54.749,74.92ZM65.616,56.613a5.92,5.92,0,1,1,5.921,5.921A5.92,5.92,0,0,1,65.616,56.613Zm2.05,0a3.87,3.87,0,1,0,3.871-3.869A3.87,3.87,0,0,0,67.665,56.613ZM83.151,74.92c0,1.517-1,2.807-2.757,3.718a20.663,20.663,0,0,1-8.859,1.694,20.662,20.662,0,0,1-8.859-1.694c-1.758-.91-2.757-2.2-2.757-3.718a11.616,11.616,0,1,1,23.231,0Zm-2.05,0a9.566,9.566,0,1,0-19.132,0c0,.824.694,1.4,1.649,1.9a18.523,18.523,0,0,0,7.917,1.464,18.522,18.522,0,0,0,7.917-1.464C80.407,76.323,81.1,75.744,81.1,74.92Zm-22.938-58.5a21.912,21.912,0,0,1,4.7-4.47c8.921-6.272,20.644-4.885,26.176,2.983S91.912,34.3,82.992,40.572A21.315,21.315,0,0,1,71.6,44.5l-6.392,6.737a1.025,1.025,0,0,1-1.766-.636L62.9,42.743a15.967,15.967,0,0,1-4.742-3.491,15.967,15.967,0,0,1-4.742,3.491L52.887,50.6a1.025,1.025,0,0,1-1.766.636L44.729,44.5a21.315,21.315,0,0,1-11.394-3.925C24.414,34.3,21.751,22.8,27.282,14.931s17.255-9.255,26.176-2.983a21.912,21.912,0,0,1,4.7,4.47Zm-.85,2.319a19.719,19.719,0,0,0-5.033-5.112c-7.941-5.583-18.4-4.519-23.32,2.486s-2.387,17.2,5.554,22.785A19.214,19.214,0,0,0,45.2,42.46a1.025,1.025,0,0,1,.726.319L51,48.13,51.418,42a1.025,1.025,0,0,1,.61-.869,13.9,13.9,0,0,0,5.333-4.085,1.025,1.025,0,0,1,1.606,0A13.9,13.9,0,0,0,64.3,41.13a1.025,1.025,0,0,1,.61.869l.417,6.131,5.077-5.35a1.025,1.025,0,0,1,.726-.319A19.214,19.214,0,0,0,81.813,38.9c7.941-5.583,10.479-15.781,5.554-22.785s-15.379-8.068-23.32-2.486a19.719,19.719,0,0,0-5.033,5.112,1.025,1.025,0,0,1-1.7,0ZM49.008,30.088H62.019a1.025,1.025,0,0,1,0,2.05H49.008l2.142,1.237a1.025,1.025,0,1,1-1.025,1.775L44.67,32a1.025,1.025,0,0,1,0-1.775l5.455-3.149a1.025,1.025,0,1,1,1.025,1.775Zm18.7-6.3-2.143-1.237a1.025,1.025,0,0,1,1.025-1.775l5.455,3.149a1.025,1.025,0,0,1,0,1.775l-5.455,3.149a1.025,1.025,0,1,1-1.025-1.775l2.143-1.237H54.7a1.025,1.025,0,0,1,0-2.05Z" transform="translate(0 0)" fill-rule="evenodd"/>
    </g>
  </g>
</svg>
