<svg xmlns="http://www.w3.org/2000/svg" width="128" height="128" viewBox="0 0 128 128">
  <g id="Grupo_1182135" data-name="Grupo 1182135" transform="translate(-72.746 -7992)">
    <g id="Elipse_13628" data-name="Elipse 13628" transform="translate(72.746 7992)" fill="#ecf0f1" stroke="#ffa038" stroke-width="6">
      <circle cx="64" cy="64" r="64" stroke="none"/>
      <circle cx="64" cy="64" r="61" fill="none"/>
    </g>
    <g id="Grupo_1182134" data-name="Grupo 1182134" transform="translate(89.864 8014.109)">
      <g id="Grupo_1182133" data-name="Grupo 1182133" transform="translate(9.102 9.106)">
        <g id="Grupo_1182129" data-name="Grupo 1182129" transform="translate(0 0)">
          <path id="Trazado_1004222" data-name="Trazado 1004222" d="M26.08,37.41l-5.119,7.566a.787.787,0,0,1-1.439-.441V37.41H17.458A2.677,2.677,0,0,1,15,34.567V17.84A2.677,2.677,0,0,1,17.458,15H43.711a2.677,2.677,0,0,1,2.458,2.842V34.567a2.677,2.677,0,0,1-2.458,2.842Z" transform="translate(-15 -14.998)" fill="#c6ea94" fill-rule="evenodd"/>
        </g>
        <g id="Grupo_1182131" data-name="Grupo 1182131" transform="translate(44.391 0)">
          <path id="Trazado_1004223" data-name="Trazado 1004223" d="M317.089,37.41l5.119,7.566a.787.787,0,0,0,1.439-.441V37.41h2.064a2.677,2.677,0,0,0,2.458-2.842V17.84A2.677,2.677,0,0,0,325.711,15H299.458A2.677,2.677,0,0,0,297,17.84V34.567a2.677,2.677,0,0,0,2.458,2.842Z" transform="translate(-297 -14.998)" fill="#afe269" fill-rule="evenodd"/>
          <g id="Grupo_1182130" data-name="Grupo 1182130" transform="translate(9.162 5.5)">
            <path id="Trazado_1004224" data-name="Trazado 1004224" d="M413.551,96.661a2.643,2.643,0,1,1,1.986-2.56A2.329,2.329,0,0,1,413.551,96.661Z" transform="translate(-402.693 -84.992)" fill="#f76c82" fill-rule="evenodd"/>
            <path id="Trazado_1004225" data-name="Trazado 1004225" d="M357.189,55.058a2.642,2.642,0,1,1,1.986-2.56A2.328,2.328,0,0,1,357.189,55.058Z" transform="translate(-355.203 -49.939)" fill="#f76c82" fill-rule="evenodd"/>
          </g>
        </g>
        <g id="Grupo_1182132" data-name="Grupo 1182132" transform="translate(4.77 34.804)">
          <path id="Trazado_1004226" data-name="Trazado 1004226" d="M124.123,263.039l-15.651.018L104.2,282.54l16.189,16.032a3.368,3.368,0,0,0,4.8-4.727l4.436,4.436a3.368,3.368,0,0,0,4.807-4.718l2.638,2.638a3.368,3.368,0,0,0,4.763-4.763l-.393-.392a3.368,3.368,0,0,0,5.265-4.119l.909-.4Z" transform="translate(-94.927 -258.797)" fill="#efc7a4" fill-rule="evenodd"/>
          <path id="Trazado_1004227" data-name="Trazado 1004227" d="M179.417,379.642a3.374,3.374,0,0,0-.266-.3l-.393-.392a3.378,3.378,0,0,0,4.76,0L172.43,367.859a1.7,1.7,0,0,0-2.4,2.4Zm-7.445,2.08a3.263,3.263,0,0,0-.223-.256l2.638,2.638a3.378,3.378,0,0,0,4.763,0l-11.086-11.086a1.7,1.7,0,1,0-2.4,2.4Zm-9.236.289L158.22,377.5a1.7,1.7,0,0,1,0-2.4h0a1.7,1.7,0,0,1,2.4,0L171.7,386.183a3.378,3.378,0,0,1-4.763,0l-4.436-4.436a3.381,3.381,0,0,1,.23.263m-8.4,1.125,3.371,3.339a3.378,3.378,0,0,0,4.763,0l-11.086-11.086a1.7,1.7,0,1,0-2.4,2.4Z" transform="translate(-132.247 -346.7)" fill="#d5a889" fill-rule="evenodd"/>
          <path id="Trazado_1004228" data-name="Trazado 1004228" d="M54.373,261.8l4.956-21.64a2.585,2.585,0,0,0-1.937-3.088l-3.983-.912a2.586,2.586,0,0,0-3.089,1.937l-4.956,21.64a2.585,2.585,0,0,0,1.937,3.088l3.983.912a2.586,2.586,0,0,0,3.088-1.937" transform="translate(-45.3 -236.092)" fill="#e6e6e6" fill-rule="evenodd"/>
          <path id="Trazado_1004229" data-name="Trazado 1004229" d="M202.873,250.052l-2.73,1.176a5.389,5.389,0,0,1-4.912-.273c-6.619-3.7-8.845-5.823-12.625-4.41a9.413,9.413,0,0,0-3.045,2.225c-2.726,2.708-5.823,7.113-9.336,10.227a.688.688,0,0,0-.043.988c3.8,4,7.878,1.812,11.923-.989a5.569,5.569,0,0,1,7.159.645l12.369,12.37a3.338,3.338,0,0,1,.505.647l5.376-2.351Z" transform="translate(-150.365 -244.528)" fill="#d5a889" fill-rule="evenodd"/>
          <path id="Trazado_1004230" data-name="Trazado 1004230" d="M380.184,261.8a2.585,2.585,0,0,0,3.088,1.937l3.983-.912a2.586,2.586,0,0,0,1.937-3.088l-4.956-21.64a2.586,2.586,0,0,0-3.088-1.937l-3.983.912a2.585,2.585,0,0,0-1.937,3.088Z" transform="translate(-323.237 -236.092)" fill="#e4e8eb" fill-rule="evenodd"/>
        </g>
      </g>
      <path id="Trazado_1004231" data-name="Trazado 1004231" d="M23.974,70.046a3.692,3.692,0,0,1-4.36,2.579l-3.984-.912a3.69,3.69,0,0,1-2.767-4.408l4.955-21.637A3.69,3.69,0,0,1,22.227,42.9l3.984.912a3.694,3.694,0,0,1,2.841,3.235H42.633a9.9,9.9,0,0,1,3.094-2.156h0a7.328,7.328,0,0,1,6.076.314c1.879.827,4.12,2.3,7.471,4.169a4.329,4.329,0,0,0,3.937.224l1.719-.748-.144-.631h0a3.691,3.691,0,0,1,2.766-4.407l3.985-.912a3.69,3.69,0,0,1,4.408,2.766L80.9,67.306a3.69,3.69,0,0,1-2.766,4.408l-3.981.912h0a3.7,3.7,0,0,1-3.893-1.561l-3.223,1.424a4.46,4.46,0,0,1-4.233,5.75,4.465,4.465,0,0,1-7.53,3.892,4.434,4.434,0,0,1-1.163,2.04,4.485,4.485,0,0,1-6.323,0l-1.75-1.75a4.434,4.434,0,0,1-1.163,2.042,4.48,4.48,0,0,1-6.316,0Zm4.767-20.793-4.184,18.27L40.109,82.9l.006.006a2.265,2.265,0,0,0,3.2-3.207l-3.852-3.852a1.1,1.1,0,0,1,1.558-1.558l8.324,8.324a2.266,2.266,0,0,0,3.212-3.2L44.98,71.839a1.1,1.1,0,1,1,1.558-1.558L56.792,80.535a2.269,2.269,0,0,0,3.2,0h0a2.274,2.274,0,0,0,0-3.206L50.068,67.4a1.1,1.1,0,0,1,1.558-1.558l9.532,9.532a2.265,2.265,0,0,0,3.2-3.206L51.994,59.8h0a4.478,4.478,0,0,0-5.755-.519c-3.242,2.246-6.548,4-9.7,3.145a8.267,8.267,0,0,1-4.175-2.9,1.1,1.1,0,0,1,.139-1.549c2.965-2.487,5.63-6,8.033-8.728Zm36.691,1.785-1.341.584h0A6.471,6.471,0,0,1,58.2,51.3h0c-3.269-1.827-5.451-3.27-7.284-4.077a5.331,5.331,0,0,0-4.416-.266c-1.284.481-2.641,1.872-4.148,3.572a109.575,109.575,0,0,1-7.562,8.378A5.436,5.436,0,0,0,37.117,60.3a5.718,5.718,0,0,0,3.661-.4,22.243,22.243,0,0,0,4.205-2.433h0a6.666,6.666,0,0,1,8.568.774l12.34,12.34,3.647-1.612Zm6.462,18.342a1.484,1.484,0,0,0,1.769,1.1l3.98-.912h0A1.479,1.479,0,0,0,78.752,67.8L73.8,46.159h0a1.479,1.479,0,0,0-1.768-1.109l-3.985.912a1.481,1.481,0,0,0-1.109,1.768l4.958,21.65ZM21.735,45.05a1.479,1.479,0,0,0-1.768,1.109L15.012,67.8a1.479,1.479,0,0,0,1.109,1.768l3.985.912a1.482,1.482,0,0,0,1.768-1.111l4.955-21.635a1.481,1.481,0,0,0-1.109-1.768Zm-.968-12.43-6.23,9.208a1.1,1.1,0,0,1-2.015-.618V32.62H11.56A3.78,3.78,0,0,1,8,28.676V11.949A3.78,3.78,0,0,1,11.56,8.005H37.813a3.78,3.78,0,0,1,3.559,3.944V28.676a3.78,3.78,0,0,1-3.559,3.944Zm-.585-2.2H37.813a1.579,1.579,0,0,0,1.356-1.74V11.949a1.579,1.579,0,0,0-1.356-1.74H11.56a1.579,1.579,0,0,0-1.356,1.74V28.676a1.579,1.579,0,0,0,1.356,1.74h2.064a1.1,1.1,0,0,1,1.1,1.1v6.1L19.269,30.9a1.1,1.1,0,0,1,.913-.484Zm3.383-16.094-.015-.623a1.1,1.1,0,0,1,2.2-.053l.017.7a5.858,5.858,0,0,1,1.144.452A3.514,3.514,0,0,1,28.2,15.877a1.1,1.1,0,1,1-1.841,1.211,1.28,1.28,0,0,0-.471-.34,2.928,2.928,0,0,0-1.2-.368,1.677,1.677,0,0,0-1.816,1.5,1.677,1.677,0,0,0,1.816,1.5,3.875,3.875,0,0,1,4.02,3.707,3.774,3.774,0,0,1-2.9,3.561l.013.527a1.1,1.1,0,1,1-2.2.054l-.014-.553a4.626,4.626,0,0,1-2.117-1.3A1.1,1.1,0,1,1,23,23.778a2.232,2.232,0,0,0,1.686.82,1.677,1.677,0,0,0,1.816-1.5,1.676,1.676,0,0,0-1.816-1.5,3.875,3.875,0,0,1-4.02-3.707,3.773,3.773,0,0,1,2.9-3.562ZM73,32.62H55.951a3.78,3.78,0,0,1-3.559-3.944V11.949a3.78,3.78,0,0,1,3.559-3.944H82.2a3.78,3.78,0,0,1,3.559,3.944V28.676A3.78,3.78,0,0,1,82.2,32.62h-.962v8.591a1.1,1.1,0,0,1-2.015.618Zm1.5-1.719,4.544,6.715v-6.1a1.1,1.1,0,0,1,1.1-1.1H82.2a1.579,1.579,0,0,0,1.356-1.74V11.949a1.579,1.579,0,0,0-1.356-1.74H55.951a1.579,1.579,0,0,0-1.356,1.74V28.676a1.579,1.579,0,0,0,1.356,1.74H73.582A1.1,1.1,0,0,1,74.495,30.9Zm-.981-3.523a3.426,3.426,0,0,1-3.088-3.662,3.133,3.133,0,1,1,6.176,0A3.426,3.426,0,0,1,73.514,27.378Zm0-2.2a.705.705,0,0,0,.534-.323,2.012,2.012,0,0,0,0-2.269.6.6,0,0,0-1.067,0,2.011,2.011,0,0,0,0,2.269A.705.705,0,0,0,73.514,25.174Zm-8.872-4.346a3.425,3.425,0,0,1-3.088-3.662,3.425,3.425,0,0,1,3.088-3.661,3.425,3.425,0,0,1,3.088,3.661A3.425,3.425,0,0,1,64.641,20.828Zm0-2.2a.706.706,0,0,0,.534-.323,2.011,2.011,0,0,0,0-2.269.6.6,0,0,0-1.068,0,2.012,2.012,0,0,0,0,2.269.706.706,0,0,0,.534.323Zm7.39-5.5a1.1,1.1,0,1,1,1.909,1.1L66.124,27.761a1.1,1.1,0,1,1-1.909-1.1Z" fill-rule="evenodd"/>
    </g>
  </g>
</svg>
