<svg xmlns="http://www.w3.org/2000/svg" width="400" height="402.684" viewBox="0 0 400 402.684">
  <g id="Grupo_1183837" data-name="Grupo 1183837" transform="translate(5555 8850)">
    <rect id="Image_Place_Holder" data-name="Image Place Holder" width="400" height="402.684" rx="10" transform="translate(-5155 -8447.316) rotate(180)" fill="#f4f6ea"/>
    <g id="Grupo_1183481" data-name="Grupo 1183481" transform="translate(-5)">
      <g id="Grupo_1183480" data-name="Grupo 1183480">
        <path id="Trazado_1017101" data-name="Trazado 1017101" d="M75,0A75,75,0,1,1,0,75,75,75,0,0,1,75,0Z" transform="translate(-5527 -8728)" fill="#ffa038"/>
        <path id="Trazado_1017102" data-name="Trazado 1017102" d="M36.1,10.347v.519a7.919,7.919,0,0,1-.409,2.632,5.734,5.734,0,0,1-1.156,1.986,5.027,5.027,0,0,1-1.767,1.257,6.07,6.07,0,0,1-4.513,0,5.06,5.06,0,0,1-1.775-1.257,5.7,5.7,0,0,1-1.16-1.986,7.919,7.919,0,0,1-.409-2.632v-.519a7.958,7.958,0,0,1,.409-2.637,5.765,5.765,0,0,1,1.151-1.991,4.975,4.975,0,0,1,1.767-1.257,6.081,6.081,0,0,1,4.518,0,5.017,5.017,0,0,1,1.771,1.257,5.782,5.782,0,0,1,1.16,1.991A7.881,7.881,0,0,1,36.1,10.347Zm-3.129.519v-.536a7.7,7.7,0,0,0-.163-1.674,3.761,3.761,0,0,0-.479-1.217,2.136,2.136,0,0,0-.778-.743,2.166,2.166,0,0,0-1.05-.25,2.2,2.2,0,0,0-1.072.25,2.081,2.081,0,0,0-.765.743,3.757,3.757,0,0,0-.461,1.217,8.13,8.13,0,0,0-.154,1.674v.536a8.08,8.08,0,0,0,.154,1.666,3.8,3.8,0,0,0,.466,1.226,2.118,2.118,0,0,0,.773.756,2.191,2.191,0,0,0,1.077.255,2.028,2.028,0,0,0,1.815-1.011,3.938,3.938,0,0,0,.475-1.226A7.658,7.658,0,0,0,32.974,10.865ZM41.191,17H38.212V6.717a3.6,3.6,0,0,1,.448-1.863,2.88,2.88,0,0,1,1.266-1.147,4.439,4.439,0,0,1,1.934-.391,4.8,4.8,0,0,1,.729.053q.343.053.668.132l.009,2.18a1.992,1.992,0,0,0-.325-.062,4.051,4.051,0,0,0-.413-.018,1.859,1.859,0,0,0-.729.127.95.95,0,0,0-.453.378,1.146,1.146,0,0,0-.154.611Zm1.846-9.51V9.547h-6.2V7.49Zm5.449,9.686a5.559,5.559,0,0,1-2.074-.365,4.348,4.348,0,0,1-2.5-2.483,4.768,4.768,0,0,1-.33-1.767v-.334a6.235,6.235,0,0,1,.29-1.938,4.522,4.522,0,0,1,.861-1.56,3.888,3.888,0,0,1,1.433-1.042,5,5,0,0,1,2-.374,4.771,4.771,0,0,1,1.811.325,3.724,3.724,0,0,1,1.358.932,4.088,4.088,0,0,1,.853,1.468,5.955,5.955,0,0,1,.294,1.934v1.2h-7.77V11.322h4.878v-.229a1.684,1.684,0,0,0-.163-.809,1.176,1.176,0,0,0-.5-.51,1.644,1.644,0,0,0-.791-.176,1.3,1.3,0,0,0-1.279.787,3,3,0,0,0-.242.839,6.838,6.838,0,0,0-.07,1v.334a2.989,2.989,0,0,0,.145.958,2.036,2.036,0,0,0,.422.734,1.905,1.905,0,0,0,.668.47,2.253,2.253,0,0,0,.892.167,3.279,3.279,0,0,0,1.2-.229,2.389,2.389,0,0,0,1.011-.756l1.345,1.6a3.515,3.515,0,0,1-.822.8,4.55,4.55,0,0,1-1.27.628A5.294,5.294,0,0,1,48.486,17.176Zm8.191-7.33V17H53.716V7.49h2.769ZM59.49,7.42l-.053,2.751-.475-.044q-.3-.026-.5-.026a2.964,2.964,0,0,0-.892.119,1.543,1.543,0,0,0-.615.352,1.357,1.357,0,0,0-.352.584,2.581,2.581,0,0,0-.1.817l-.536-.352a7.475,7.475,0,0,1,.189-1.745A4.71,4.71,0,0,1,56.7,8.514a2.641,2.641,0,0,1,.853-.888,2.084,2.084,0,0,1,1.125-.312,3.576,3.576,0,0,1,.435.026A2.138,2.138,0,0,1,59.49,7.42Zm5.458,9.756a5.559,5.559,0,0,1-2.074-.365,4.348,4.348,0,0,1-2.5-2.483,4.768,4.768,0,0,1-.33-1.767v-.334a6.235,6.235,0,0,1,.29-1.938,4.522,4.522,0,0,1,.861-1.56,3.888,3.888,0,0,1,1.433-1.042,5,5,0,0,1,2-.374,4.771,4.771,0,0,1,1.811.325,3.724,3.724,0,0,1,1.358.932,4.088,4.088,0,0,1,.853,1.468,5.955,5.955,0,0,1,.294,1.934v1.2h-7.77V11.322h4.878v-.229a1.684,1.684,0,0,0-.163-.809,1.176,1.176,0,0,0-.5-.51,1.644,1.644,0,0,0-.791-.176,1.3,1.3,0,0,0-1.279.787,3,3,0,0,0-.242.839,6.838,6.838,0,0,0-.07,1v.334a2.989,2.989,0,0,0,.145.958,2.036,2.036,0,0,0,.422.734,1.905,1.905,0,0,0,.668.47,2.253,2.253,0,0,0,.892.167,3.279,3.279,0,0,0,1.2-.229,2.389,2.389,0,0,0,1.011-.756l1.345,1.6a3.515,3.515,0,0,1-.822.8,4.55,4.55,0,0,1-1.27.628A5.294,5.294,0,0,1,64.948,17.176Zm8.112-7.655V17H70.1V7.49h2.777Zm-.352,2.4-.694.018a6.617,6.617,0,0,1,.264-1.947,4.292,4.292,0,0,1,.747-1.455,3.211,3.211,0,0,1,1.156-.91,3.517,3.517,0,0,1,1.5-.312,3.618,3.618,0,0,1,1.208.193,2.336,2.336,0,0,1,.949.624,2.873,2.873,0,0,1,.615,1.138,6.069,6.069,0,0,1,.215,1.745V17H75.688V11.006a1.934,1.934,0,0,0-.158-.875.846.846,0,0,0-.457-.417,2.05,2.05,0,0,0-.729-.114,1.572,1.572,0,0,0-.773.176,1.346,1.346,0,0,0-.505.488,2.248,2.248,0,0,0-.272.734A4.759,4.759,0,0,0,72.709,11.92ZM85.321,7.49V9.547h-5.73V7.49ZM80.795,5.126h2.962V13.9a1.541,1.541,0,0,0,.088.584.519.519,0,0,0,.3.29,1.628,1.628,0,0,0,.576.083q.255,0,.422-.013t.316-.04v2.118a5.2,5.2,0,0,1-.791.189,5.579,5.579,0,0,1-.879.066,3.977,3.977,0,0,1-1.622-.3,2.117,2.117,0,0,1-1.024-.94,3.463,3.463,0,0,1-.352-1.67ZM91.1,17.176a5.559,5.559,0,0,1-2.074-.365,4.348,4.348,0,0,1-2.5-2.483,4.768,4.768,0,0,1-.33-1.767v-.334a6.235,6.235,0,0,1,.29-1.938,4.522,4.522,0,0,1,.861-1.56,3.888,3.888,0,0,1,1.433-1.042,5,5,0,0,1,2-.374A4.771,4.771,0,0,1,92.6,7.64a3.724,3.724,0,0,1,1.358.932,4.088,4.088,0,0,1,.853,1.468,5.955,5.955,0,0,1,.294,1.934v1.2h-7.77V11.322h4.878v-.229a1.684,1.684,0,0,0-.163-.809,1.176,1.176,0,0,0-.5-.51,1.644,1.644,0,0,0-.791-.176,1.3,1.3,0,0,0-1.279.787,3,3,0,0,0-.242.839,6.838,6.838,0,0,0-.07,1v.334a2.989,2.989,0,0,0,.145.958,2.036,2.036,0,0,0,.422.734,1.905,1.905,0,0,0,.668.47,2.253,2.253,0,0,0,.892.167,3.279,3.279,0,0,0,1.2-.229,2.389,2.389,0,0,0,1.011-.756l1.345,1.6a3.515,3.515,0,0,1-.822.8,4.55,4.55,0,0,1-1.27.628A5.294,5.294,0,0,1,91.1,17.176Zm10.187-2.848a.615.615,0,0,0-.163-.426,1.475,1.475,0,0,0-.567-.334,8.287,8.287,0,0,0-1.134-.312,7.978,7.978,0,0,1-1.305-.4,4.5,4.5,0,0,1-1.068-.6,2.594,2.594,0,0,1-.716-.835,2.306,2.306,0,0,1-.259-1.107,2.619,2.619,0,0,1,.259-1.147,2.824,2.824,0,0,1,.765-.958,3.786,3.786,0,0,1,1.235-.659A5.272,5.272,0,0,1,100,7.314a5.7,5.7,0,0,1,2.215.391,3.293,3.293,0,0,1,1.437,1.09,2.68,2.68,0,0,1,.505,1.613h-2.962a1.449,1.449,0,0,0-.119-.615.825.825,0,0,0-.382-.391,1.539,1.539,0,0,0-.7-.136,1.329,1.329,0,0,0-.558.114,1,1,0,0,0-.4.316.777.777,0,0,0-.149.475.662.662,0,0,0,.092.347.9.9,0,0,0,.286.281,2.15,2.15,0,0,0,.492.229,5.368,5.368,0,0,0,.721.18,9.807,9.807,0,0,1,1.793.5,3.41,3.41,0,0,1,1.358.923,2.356,2.356,0,0,1,.523,1.608,2.392,2.392,0,0,1-.29,1.165,2.849,2.849,0,0,1-.835.932,4.111,4.111,0,0,1-1.31.62,6.237,6.237,0,0,1-1.723.22,4.956,4.956,0,0,1-2.3-.488,3.619,3.619,0,0,1-1.419-1.23,2.754,2.754,0,0,1-.479-1.507h2.76a1.32,1.32,0,0,0,.215.721,1.15,1.15,0,0,0,.532.413,2.1,2.1,0,0,0,.773.132,1.722,1.722,0,0,0,.672-.114.936.936,0,0,0,.409-.312A.776.776,0,0,0,101.291,14.328Z" transform="translate(-5516 -8664)" fill="#12263f"/>
      </g>
      <g id="Grupo_1183479" data-name="Grupo 1183479">
        <circle id="Elipse_15566" data-name="Elipse 15566" cx="75" cy="75" r="75" transform="translate(-5322 -8728)" fill="#ffa038"/>
        <path id="Trazado_1017103" data-name="Trazado 1017103" d="M13.256,17H10.417l.018-2.373h2.821a2.557,2.557,0,0,0,1.49-.422,2.608,2.608,0,0,0,.932-1.261A5.83,5.83,0,0,0,16,10.874V10.32a6.531,6.531,0,0,0-.18-1.622,3.312,3.312,0,0,0-.532-1.169,2.226,2.226,0,0,0-.875-.708,2.875,2.875,0,0,0-1.2-.237H10.365V4.2h2.848a6.247,6.247,0,0,1,2.386.444,5.464,5.464,0,0,1,1.881,1.266,5.75,5.75,0,0,1,1.23,1.942,6.808,6.808,0,0,1,.435,2.483v.536a6.818,6.818,0,0,1-.435,2.479,5.728,5.728,0,0,1-1.226,1.942,5.468,5.468,0,0,1-1.868,1.261A6.133,6.133,0,0,1,13.256,17ZM12.184,4.2V17H9.1V4.2ZM25.209,17.176a5.559,5.559,0,0,1-2.074-.365,4.348,4.348,0,0,1-2.5-2.483,4.768,4.768,0,0,1-.33-1.767v-.334a6.235,6.235,0,0,1,.29-1.938,4.522,4.522,0,0,1,.861-1.56,3.888,3.888,0,0,1,1.433-1.042,5,5,0,0,1,2-.374A4.771,4.771,0,0,1,26.7,7.64a3.724,3.724,0,0,1,1.358.932,4.088,4.088,0,0,1,.853,1.468,5.955,5.955,0,0,1,.294,1.934v1.2h-7.77V11.322h4.878v-.229a1.684,1.684,0,0,0-.163-.809,1.176,1.176,0,0,0-.5-.51,1.644,1.644,0,0,0-.791-.176,1.3,1.3,0,0,0-1.279.787,3,3,0,0,0-.242.839,6.838,6.838,0,0,0-.07,1v.334a2.989,2.989,0,0,0,.145.958,2.036,2.036,0,0,0,.422.734,1.905,1.905,0,0,0,.668.47,2.253,2.253,0,0,0,.892.167,3.279,3.279,0,0,0,1.2-.229,2.389,2.389,0,0,0,1.011-.756l1.345,1.6a3.515,3.515,0,0,1-.822.8,4.55,4.55,0,0,1-1.27.628A5.294,5.294,0,0,1,25.209,17.176ZM33.4,9.5V17H30.439V7.49h2.777Zm-.36,2.417-.677.018a6.8,6.8,0,0,1,.237-1.846,4.433,4.433,0,0,1,.7-1.468,3.224,3.224,0,0,1,1.147-.967,3.465,3.465,0,0,1,1.578-.343,3.241,3.241,0,0,1,1.134.189,2.239,2.239,0,0,1,.879.589,2.669,2.669,0,0,1,.567,1.037,5.179,5.179,0,0,1,.2,1.525V17H35.844V11.032a2.359,2.359,0,0,0-.136-.914.745.745,0,0,0-.391-.413,1.634,1.634,0,0,0-.624-.105A1.374,1.374,0,0,0,34,9.775a1.593,1.593,0,0,0-.523.488A2.3,2.3,0,0,0,33.15,11,3.656,3.656,0,0,0,33.041,11.92Zm5.432,0-.826.018a7.177,7.177,0,0,1,.224-1.846,4.394,4.394,0,0,1,.677-1.468,3.12,3.12,0,0,1,1.129-.967,3.437,3.437,0,0,1,1.573-.343,3.552,3.552,0,0,1,1.2.193,2.307,2.307,0,0,1,.94.624A2.949,2.949,0,0,1,44,9.27a5.954,5.954,0,0,1,.22,1.745V17H41.25V11.015a2.265,2.265,0,0,0-.136-.892.764.764,0,0,0-.391-.413,1.525,1.525,0,0,0-.606-.11,1.446,1.446,0,0,0-.729.176,1.512,1.512,0,0,0-.514.488,2.212,2.212,0,0,0-.3.734A4.131,4.131,0,0,0,38.472,11.92Zm12.384,2.689v-3.92A1.894,1.894,0,0,0,50.742,10a.94.94,0,0,0-.36-.453,1.18,1.18,0,0,0-.659-.163,1.307,1.307,0,0,0-.571.114.786.786,0,0,0-.36.343,1.216,1.216,0,0,0-.123.58H45.706A2.621,2.621,0,0,1,46,9.191a2.968,2.968,0,0,1,.844-.989,4.086,4.086,0,0,1,1.318-.655,5.917,5.917,0,0,1,1.718-.233,5.15,5.15,0,0,1,2.026.378,3.175,3.175,0,0,1,1.411,1.129,3.243,3.243,0,0,1,.519,1.885V14.6a7.043,7.043,0,0,0,.105,1.411,3.246,3.246,0,0,0,.3.839V17H51.269a3.913,3.913,0,0,1-.312-1.077A8.377,8.377,0,0,1,50.856,14.609Zm.36-3.419.018,1.582h-1.31a1.886,1.886,0,0,0-.7.114,1.163,1.163,0,0,0-.457.312,1.206,1.206,0,0,0-.246.444,1.776,1.776,0,0,0-.075.519.868.868,0,0,0,.475.791,1.051,1.051,0,0,0,.492.114,1.733,1.733,0,0,0,.839-.189,1.479,1.479,0,0,0,.532-.461.923.923,0,0,0,.185-.51l.65,1.213q-.176.352-.4.712a3.19,3.19,0,0,1-.554.664,2.586,2.586,0,0,1-.8.492,3.117,3.117,0,0,1-1.151.189,3.609,3.609,0,0,1-1.613-.36,2.975,2.975,0,0,1-1.173-1.006,2.585,2.585,0,0,1-.439-1.49A3.108,3.108,0,0,1,45.754,13a2.545,2.545,0,0,1,.813-.984,3.894,3.894,0,0,1,1.389-.615,8.259,8.259,0,0,1,1.986-.211Zm7.172-1.67V17H55.426V7.49H58.2Zm-.352,2.4-.694.018a6.617,6.617,0,0,1,.264-1.947,4.292,4.292,0,0,1,.747-1.455,3.211,3.211,0,0,1,1.156-.91,3.517,3.517,0,0,1,1.5-.312,3.618,3.618,0,0,1,1.208.193,2.336,2.336,0,0,1,.949.624A2.873,2.873,0,0,1,63.78,9.27,6.069,6.069,0,0,1,64,11.015V17H61.016V11.006a1.934,1.934,0,0,0-.158-.875.846.846,0,0,0-.457-.417,2.05,2.05,0,0,0-.729-.114,1.572,1.572,0,0,0-.773.176,1.346,1.346,0,0,0-.505.488A2.248,2.248,0,0,0,58.12,11,4.759,4.759,0,0,0,58.037,11.92Zm13.069,2.9V3.5h2.979V17H71.414ZM65.27,12.359v-.185a7.669,7.669,0,0,1,.237-1.973,4.643,4.643,0,0,1,.7-1.538,3.191,3.191,0,0,1,1.16-1,3.494,3.494,0,0,1,1.6-.352,2.643,2.643,0,0,1,1.415.374,3.289,3.289,0,0,1,1.037,1.042,6.215,6.215,0,0,1,.7,1.56,12.258,12.258,0,0,1,.413,1.92v.22a11.452,11.452,0,0,1-.413,1.824,6.181,6.181,0,0,1-.7,1.516A3.3,3.3,0,0,1,70.381,16.8a2.683,2.683,0,0,1-1.428.374,3.4,3.4,0,0,1-1.6-.36A3.229,3.229,0,0,1,66.206,15.8a4.762,4.762,0,0,1-.7-1.529A7.334,7.334,0,0,1,65.27,12.359Zm2.962-.185v.185a6.546,6.546,0,0,0,.07.993,2.756,2.756,0,0,0,.242.8A1.365,1.365,0,0,0,69,14.7a1.234,1.234,0,0,0,.708.193,1.562,1.562,0,0,0,.945-.272,1.593,1.593,0,0,0,.554-.773,3.116,3.116,0,0,0,.154-1.178v-.694a4.238,4.238,0,0,0-.079-1.024,2.068,2.068,0,0,0-.3-.743,1.348,1.348,0,0,0-.519-.453,1.642,1.642,0,0,0-.734-.154,1.217,1.217,0,0,0-.7.193,1.4,1.4,0,0,0-.461.541,2.852,2.852,0,0,0-.255.817A6.184,6.184,0,0,0,68.232,12.175ZM80.7,14.609v-3.92A1.894,1.894,0,0,0,80.589,10a.94.94,0,0,0-.36-.453,1.18,1.18,0,0,0-.659-.163A1.307,1.307,0,0,0,79,9.494a.786.786,0,0,0-.36.343,1.216,1.216,0,0,0-.123.58H75.553a2.621,2.621,0,0,1,.294-1.226,2.968,2.968,0,0,1,.844-.989,4.086,4.086,0,0,1,1.318-.655,5.917,5.917,0,0,1,1.718-.233,5.15,5.15,0,0,1,2.026.378,3.175,3.175,0,0,1,1.411,1.129,3.243,3.243,0,0,1,.519,1.885V14.6a7.043,7.043,0,0,0,.105,1.411,3.246,3.246,0,0,0,.3.839V17H81.117a3.913,3.913,0,0,1-.312-1.077A8.377,8.377,0,0,1,80.7,14.609Zm.36-3.419.018,1.582h-1.31a1.886,1.886,0,0,0-.7.114,1.163,1.163,0,0,0-.457.312,1.206,1.206,0,0,0-.246.444,1.776,1.776,0,0,0-.075.519.868.868,0,0,0,.475.791,1.051,1.051,0,0,0,.492.114,1.733,1.733,0,0,0,.839-.189,1.479,1.479,0,0,0,.532-.461.923.923,0,0,0,.185-.51l.65,1.213q-.176.352-.4.712a3.19,3.19,0,0,1-.554.664,2.586,2.586,0,0,1-.8.492,3.117,3.117,0,0,1-1.151.189,3.609,3.609,0,0,1-1.613-.36,2.975,2.975,0,0,1-1.173-1.006,2.585,2.585,0,0,1-.439-1.49A3.108,3.108,0,0,1,75.6,13a2.545,2.545,0,0,1,.813-.984A3.894,3.894,0,0,1,77.8,11.4a8.259,8.259,0,0,1,1.986-.211Zm7.172-1.67V17H85.274V7.49h2.777Zm-.352,2.4-.694.018a6.617,6.617,0,0,1,.264-1.947A4.292,4.292,0,0,1,88.2,8.536a3.211,3.211,0,0,1,1.156-.91,3.517,3.517,0,0,1,1.5-.312,3.618,3.618,0,0,1,1.208.193,2.336,2.336,0,0,1,.949.624,2.873,2.873,0,0,1,.615,1.138,6.069,6.069,0,0,1,.215,1.745V17H90.864V11.006a1.934,1.934,0,0,0-.158-.875.846.846,0,0,0-.457-.417,2.05,2.05,0,0,0-.729-.114,1.572,1.572,0,0,0-.773.176,1.346,1.346,0,0,0-.505.488,2.248,2.248,0,0,0-.272.734A4.759,4.759,0,0,0,87.884,11.92ZM100.5,7.49V9.547h-5.73V7.49ZM95.97,5.126h2.962V13.9a1.541,1.541,0,0,0,.088.584.519.519,0,0,0,.3.29,1.628,1.628,0,0,0,.576.083q.255,0,.422-.013t.316-.04v2.118a5.2,5.2,0,0,1-.791.189,5.579,5.579,0,0,1-.879.066,3.977,3.977,0,0,1-1.622-.3,2.117,2.117,0,0,1-1.024-.94,3.463,3.463,0,0,1-.352-1.67Zm10.31,12.05a5.559,5.559,0,0,1-2.074-.365,4.348,4.348,0,0,1-2.5-2.483,4.768,4.768,0,0,1-.33-1.767v-.334a6.235,6.235,0,0,1,.29-1.938,4.522,4.522,0,0,1,.861-1.56,3.888,3.888,0,0,1,1.433-1.042,5,5,0,0,1,2-.374,4.771,4.771,0,0,1,1.811.325,3.724,3.724,0,0,1,1.358.932,4.088,4.088,0,0,1,.853,1.468,5.955,5.955,0,0,1,.294,1.934v1.2h-7.77V11.322h4.878v-.229a1.684,1.684,0,0,0-.163-.809,1.176,1.176,0,0,0-.5-.51,1.644,1.644,0,0,0-.791-.176,1.3,1.3,0,0,0-1.279.787,3,3,0,0,0-.242.839,6.838,6.838,0,0,0-.07,1v.334a2.989,2.989,0,0,0,.145.958,2.036,2.036,0,0,0,.422.734,1.905,1.905,0,0,0,.668.47,2.253,2.253,0,0,0,.892.167,3.279,3.279,0,0,0,1.2-.229,2.389,2.389,0,0,0,1.011-.756l1.345,1.6a3.515,3.515,0,0,1-.822.8,4.55,4.55,0,0,1-1.27.628A5.294,5.294,0,0,1,106.28,17.176Zm10.187-2.848a.615.615,0,0,0-.163-.426,1.475,1.475,0,0,0-.567-.334,8.287,8.287,0,0,0-1.134-.312,7.978,7.978,0,0,1-1.305-.4,4.5,4.5,0,0,1-1.068-.6,2.594,2.594,0,0,1-.716-.835,2.306,2.306,0,0,1-.259-1.107,2.619,2.619,0,0,1,.259-1.147,2.824,2.824,0,0,1,.765-.958,3.786,3.786,0,0,1,1.235-.659,5.272,5.272,0,0,1,1.661-.242,5.7,5.7,0,0,1,2.215.391,3.293,3.293,0,0,1,1.437,1.09,2.68,2.68,0,0,1,.505,1.613H116.37a1.449,1.449,0,0,0-.119-.615.825.825,0,0,0-.382-.391,1.539,1.539,0,0,0-.7-.136,1.329,1.329,0,0,0-.558.114,1,1,0,0,0-.4.316.777.777,0,0,0-.149.475.662.662,0,0,0,.092.347.9.9,0,0,0,.286.281,2.15,2.15,0,0,0,.492.229,5.368,5.368,0,0,0,.721.18,9.807,9.807,0,0,1,1.793.5,3.41,3.41,0,0,1,1.358.923,2.356,2.356,0,0,1,.523,1.608,2.392,2.392,0,0,1-.29,1.165,2.849,2.849,0,0,1-.835.932,4.111,4.111,0,0,1-1.31.62,6.237,6.237,0,0,1-1.723.22,4.956,4.956,0,0,1-2.3-.488,3.619,3.619,0,0,1-1.419-1.23,2.754,2.754,0,0,1-.479-1.507h2.76a1.32,1.32,0,0,0,.215.721,1.15,1.15,0,0,0,.532.413,2.1,2.1,0,0,0,.773.132,1.722,1.722,0,0,0,.672-.114.936.936,0,0,0,.409-.312A.776.776,0,0,0,116.466,14.328Z" transform="translate(-5311 -8664)" fill="#12263f"/>
      </g>
    </g>
    <g id="Grupo_1183465" data-name="Grupo 1183465" transform="translate(-6154.711 -11619.706)">
      <g id="Grupo_1183463" data-name="Grupo 1183463" transform="translate(670.711 3045)">
        <path id="Trazado_1016180" data-name="Trazado 1016180" d="M15.383,3.076A1,1,0,0,1,16,4V9h3a1,1,0,0,1,1,1V22a1,1,0,0,1-1,1H16v5a1,1,0,0,1-1.707.707l-12-12a1,1,0,0,1,0-1.414l12-12a1,1,0,0,1,1.09-.217ZM4.414,16,14,25.586V22a1,1,0,0,1,1-1h3V11H15a1,1,0,0,1-1-1V6.414Z" fill="#b3c487" fill-rule="evenodd"/>
        <path id="Trazado_1016181" data-name="Trazado 1016181" d="M27,9a1,1,0,0,1,1,1V22a1,1,0,0,1-2,0V10A1,1,0,0,1,27,9Z" fill="#b3c487" fill-rule="evenodd"/>
        <path id="Trazado_1016182" data-name="Trazado 1016182" d="M23,9a1,1,0,0,1,1,1V22a1,1,0,0,1-2,0V10A1,1,0,0,1,23,9Z" fill="#b3c487" fill-rule="evenodd"/>
        <rect id="Rectángulo_456916" data-name="Rectángulo 456916" width="226" height="14" rx="2" transform="translate(30 9)" fill="#b3c487"/>
      </g>
      <g id="Grupo_1183464" data-name="Grupo 1183464" transform="translate(672.711 2853)">
        <path id="Trazado_1016180-2" data-name="Trazado 1016180" d="M6.617,3.076A1,1,0,0,0,6,4V9H3a1,1,0,0,0-1,1V22a1,1,0,0,0,1,1H6v5a1,1,0,0,0,1.707.707l12-12a1,1,0,0,0,0-1.414l-12-12a1,1,0,0,0-1.09-.217ZM17.586,16,8,25.586V22a1,1,0,0,0-1-1H4V11H7a1,1,0,0,0,1-1V6.414Z" transform="translate(234 -3)" fill="#b3c487" fill-rule="evenodd"/>
        <path id="Trazado_1016181-2" data-name="Trazado 1016181" d="M27,9a1,1,0,0,0-1,1V22a1,1,0,0,0,2,0V10A1,1,0,0,0,27,9Z" transform="translate(202 -3)" fill="#b3c487" fill-rule="evenodd"/>
        <path id="Trazado_1016182-2" data-name="Trazado 1016182" d="M23,9a1,1,0,0,0-1,1V22a1,1,0,0,0,2,0V10A1,1,0,0,0,23,9Z" transform="translate(210 -3)" fill="#b3c487" fill-rule="evenodd"/>
        <rect id="Rectángulo_456916-2" data-name="Rectángulo 456916" width="226" height="14" rx="2" transform="translate(0 6)" fill="#b3c487"/>
      </g>
    </g>
    <g id="Grupo_1183477" data-name="Grupo 1183477" transform="translate(-5387 -8539.576)">
      <g id="Grupo_1183475" data-name="Grupo 1183475">
        <g id="Grupo_1183466" data-name="Grupo 1183466">
          <path id="Trazado_1016183" data-name="Trazado 1016183" d="M35.76,6.28,39,16H36l-6-6a3.4,3.4,0,0,1,2.98-3.37l2.77-.35Z" fill="#d3a06c"/>
        </g>
        <g id="Grupo_1183467" data-name="Grupo 1183467">
          <path id="Trazado_1016184" data-name="Trazado 1016184" d="M49,3,48,6.25,45,16H39L35.76,6.28,35,4l5-1,2,3,3-4Z" fill="#d3a06c"/>
        </g>
        <g id="Grupo_1183468" data-name="Grupo 1183468">
          <path id="Trazado_1016185" data-name="Trazado 1016185" d="M54,10l-6,6H45l3-9.75,3.02.38A3.4,3.4,0,0,1,54,10Z" fill="#d3a06c"/>
        </g>
        <g id="Grupo_1183469" data-name="Grupo 1183469">
          <path id="Trazado_1016186" data-name="Trazado 1016186" d="M50,16a2.006,2.006,0,0,1,2,2,2.015,2.015,0,0,1-2,2H34a2.006,2.006,0,0,1-2-2,2.015,2.015,0,0,1,2-2H50Z" fill="#ccd1d9"/>
        </g>
        <g id="Grupo_1183470" data-name="Grupo 1183470">
          <path id="Trazado_1016187" data-name="Trazado 1016187" d="M40,50V42H22.2a19.281,19.281,0,0,1-.2-2.76,18.779,18.779,0,0,1,8.61-15.78L36,20H48l5.39,3.46A18.762,18.762,0,0,1,43.24,58H40.76c-.26,0-.51-.01-.76-.02Z" fill="#cf9e76"/>
        </g>
        <g id="Grupo_1183471" data-name="Grupo 1183471">
          <path id="Trazado_1016188" data-name="Trazado 1016188" d="M40,57.98V62H17a10,10,0,0,0,0-20H40V57.98Z" fill="#b4dd7f"/>
        </g>
        <g id="Grupo_1183472" data-name="Grupo 1183472">
          <circle id="Elipse_15567" data-name="Elipse 15567" cx="10" cy="10" r="10" transform="translate(7 42)" fill="#fcd770"/>
        </g>
        <g id="Grupo_1183473" data-name="Grupo 1183473">
          <path id="Trazado_1016189" data-name="Trazado 1016189" d="M12,42h5a10,10,0,0,0,0,20H6a4,4,0,0,1-4-4V38a4,4,0,0,0,4,4Z" fill="#b4dd7f"/>
        </g>
        <g id="Grupo_1183474" data-name="Grupo 1183474">
          <path id="Trazado_1016190" data-name="Trazado 1016190" d="M12,34v8H6a4,4,0,1,1,0-8Z" fill="#a0d468"/>
        </g>
      </g>
      <g id="Grupo_1183476" data-name="Grupo 1183476">
        <path id="Trazado_1016191" data-name="Trazado 1016191" d="M25,38.984l2,.031a13.939,13.939,0,0,1,.156-1.868l-1.978-.3A15.942,15.942,0,0,0,25,38.984Z"/>
        <path id="Trazado_1016192" data-name="Trazado 1016192" d="M32.237,25.985a15.738,15.738,0,0,0-6.576,8.721l1.916.572a13.741,13.741,0,0,1,5.742-7.611l1.275-.819-1.081-1.682Z"/>
        <path id="Trazado_1016193" data-name="Trazado 1016193" d="M59,38.981l-2,.037,0,.223a13.768,13.768,0,0,1-.091,1.585l1.987.229a15.931,15.931,0,0,0,.1-1.813Z"/>
        <path id="Trazado_1016194" data-name="Trazado 1016194" d="M47.677,52.267l.646,1.893A15.742,15.742,0,0,0,58.47,43.3l-1.933-.516a13.744,13.744,0,0,1-8.86,9.486Z"/>
        <path id="Trazado_1016195" data-name="Trazado 1016195" d="M53.926,22.621l-2.847-1.83a2.986,2.986,0,0,0-.7-5.753L55,10.414V10a4.4,4.4,0,0,0-3.853-4.364l-1.841-.23.96-3.119L44.6.87l-2.551,3.4L40.46,1.888,33.692,3.242l.733,2.2-1.573.2A4.4,4.4,0,0,0,29,10v.414l4.624,4.624a2.986,2.986,0,0,0-.7,5.753l-2.847,1.83A19.674,19.674,0,0,0,21,39.241c0,.587.035,1.174.086,1.759H13V33H6a5.006,5.006,0,0,0-5,5V58a5.006,5.006,0,0,0,5,5H41V59h2.241A19.759,19.759,0,0,0,53.926,22.621ZM50.9,7.62a2.4,2.4,0,0,1,2.07,2L47.586,15H46.354l2.355-7.654ZM39.54,4.112,41.953,7.73l3.45-4.6,2.332.583L44.262,15H39.721L36.307,4.759ZM33.1,7.62l1.969-.246L37.612,15h-1.2L31.031,9.616a2.4,2.4,0,0,1,2.07-2ZM34,17H50a1,1,0,1,1,0,2H34a1,1,0,0,1,0-2ZM6,35h5v6H6a3,3,0,0,1,0-6ZM6,61a3,3,0,0,1-3-3V42a4.973,4.973,0,0,0,3,1h4.695a10.974,10.974,0,0,0,0,18ZM17,43a9,9,0,1,1-9,9A9.01,9.01,0,0,1,17,43ZM39,61H23.3a10.974,10.974,0,0,0,0-18H39Zm2-18.424A4.95,4.95,0,0,0,43,43a3,3,0,1,1,0,6H41ZM43.241,57H41V51h2a5,5,0,1,0,0-10,3,3,0,0,1,0-6h3v3h2V33H44V31H42v2.1A5.009,5.009,0,0,0,38,38a4.948,4.948,0,0,0,1.026,3H23.1c-.057-.584-.1-1.171-.1-1.759A17.687,17.687,0,0,1,31.155,24.3L36.293,21H47.707l5.138,3.3a17.759,17.759,0,0,1-9.6,32.7Z"/>
        <path id="Trazado_1016196" data-name="Trazado 1016196" d="M16,59h2V57a3,3,0,0,0,0-6H16a1,1,0,0,1,0-2h3v1h2V47H18V45H16v2a3,3,0,0,0,0,6h2a1,1,0,0,1,0,2H15V54H13v3h3Z"/>
        <path id="Trazado_1016197" data-name="Trazado 1016197" d="M35,50h2V45H32v2h3Z"/>
        <path id="Trazado_1016198" data-name="Trazado 1016198" d="M37,54H35v3H32v2h5Z"/>
      </g>
    </g>
    <g id="layer1" transform="translate(-5383.53 -9108.31)">
      <path id="rect7775" d="M2.654,280.86H52.888a1.856,1.856,0,0,1,1.861,1.861v50.234a1.856,1.856,0,0,1-1.861,1.861H2.654a1.856,1.856,0,0,1-1.861-1.861V282.721a1.856,1.856,0,0,1,1.861-1.861Z" transform="translate(0.664 0.664)" fill="#e6b57c"/>
      <path id="path7777" d="M6.085,280.86v13.954L8.876,297.6l2.791-2.791,2.791,2.791,2.791-2.791,2.791,2.791,2.791-2.791V280.86Z" transform="translate(13.978 0.664)" fill="#fdd5a6"/>
      <path id="rect13139-2" d="M3.319,280.6A2.8,2.8,0,0,0,.53,283.385v50.24a2.8,2.8,0,0,0,2.789,2.787H53.551a2.805,2.805,0,0,0,2.794-2.787v-50.24a2.807,2.807,0,0,0-2.794-2.789Zm0,1.862H35.874v12.635l-1.861,1.861-2.128-2.129a.931.931,0,0,0-1.319,0l-2.137,2.137L26.3,294.824a.931.931,0,0,0-1.319,0l-2.128,2.129-1.862-1.861v-9.848a.93.93,0,1,0-1.861,0v10.231a.931.931,0,0,0,.274.66l2.789,2.8a.929.929,0,0,0,1.317,0l2.129-2.137,2.135,2.137a.93.93,0,0,0,1.312,0l2.137-2.137,2.135,2.137a.93.93,0,0,0,1.312,0l2.794-2.8a.932.932,0,0,0,.269-.66V282.458H53.551a.909.909,0,0,1,.934.927v50.24a.909.909,0,0,1-.934.927H3.319a.9.9,0,0,1-.927-.927v-50.24a.9.9,0,0,1,.927-.927ZM37.733,315.01a.931.931,0,0,0-.649.278l-2.8,2.789a.933.933,0,0,0,1.319,1.319l1.2-1.206v7.057a.93.93,0,1,0,1.861,0v-7.053l1.2,1.2a.933.933,0,0,0,1.319-1.319L38.4,315.288a.92.92,0,0,0-.663-.278Zm9.3,0a.931.931,0,0,0-.649.278l-2.8,2.789a.932.932,0,1,0,1.317,1.319l1.2-1.206v7.057a.93.93,0,1,0,1.861,0v-7.053l1.2,1.2a.933.933,0,0,0,1.319-1.319L47.7,315.288a.916.916,0,0,0-.661-.278Zm-40,6.514H18.207a.93.93,0,1,0,0-1.853H6.992a.928.928,0,0,0,.048,1.853Zm0,4.657h7.444a.93.93,0,1,0,0-1.861H6.992a.931.931,0,1,0,.048,1.861Zm0,2.787a.93.93,0,1,0,0,1.86H18.207a.93.93,0,1,0,0-1.86Zm27.908,0a.93.93,0,1,0,0,1.86H49.828a.93.93,0,1,0,0-1.86Z"/>
    </g>
  </g>
</svg>
