<svg xmlns="http://www.w3.org/2000/svg" width="80" height="80" viewBox="0 0 80 80">
  <g id="Grupo_1182205" data-name="Grupo 1182205" transform="translate(-761.711 -2630)">
    <circle id="Elipse_15016" data-name="Elipse 15016" cx="40" cy="40" r="40" transform="translate(761.711 2630)" fill="#ffa038"/>
    <g id="Grupo_1182197" data-name="Grupo 1182197" transform="translate(776.825 2645.925)">
      <path id="Trazado_1004295" data-name="Trazado 1004295" d="M245.983,6.119a.947.947,0,0,0,.947-.947V.947a.947.947,0,1,0-1.894,0V5.172A.947.947,0,0,0,245.983,6.119Z" transform="translate(-221.181)" fill="#585a4a"/>
      <path id="Trazado_1004296" data-name="Trazado 1004296" d="M47.953,106.966,46.28,105.3a3.172,3.172,0,0,0-3.753-.535l-3.153-3.149.154-.153a3.287,3.287,0,0,0,0-4.642,3.251,3.251,0,0,0-1.649-.892A3.308,3.308,0,0,0,38.01,95,3.28,3.28,0,0,0,35.4,91.792a3.307,3.307,0,0,0,.131-.921,3.277,3.277,0,0,0-2.609-3.211,3.278,3.278,0,0,0-3.5-4.183l-6.248-1.183a3.375,3.375,0,0,0-2.894.385,1.709,1.709,0,0,0-.143.148,3.294,3.294,0,0,0-3.456.76,3.259,3.259,0,0,0-.96,2.322,3.312,3.312,0,0,0,.13.922,3.28,3.28,0,0,0-2.608,3.209,3.3,3.3,0,0,0,.131.924,3.284,3.284,0,0,0-2.036,5.068,3.282,3.282,0,0,0-1.261,5.43l.153.152-3.153,3.148a3.167,3.167,0,0,0-3.583.621l-1.674,1.67a3.164,3.164,0,0,0,0,4.468l2.089,2.087a.947.947,0,1,0,1.339-1.34l-2.089-2.087a1.27,1.27,0,0,1,0-1.787l1.674-1.67a1.268,1.268,0,0,1,1.545-.189.955.955,0,0,0,.119.146.943.943,0,0,0,.272.189l9.6,9.587a.933.933,0,0,0,.457.461,1.268,1.268,0,0,1-.053,1.729L15.1,120.317a1.272,1.272,0,0,1-1.791,0l-2.089-2.09a.947.947,0,0,0-1.339,1.339l2.091,2.091a3.171,3.171,0,0,0,4.466,0l1.674-1.672a3.167,3.167,0,0,0,.443-3.911l3.549-3.545.011-.012c.406-.42,1.538-.341,2.632-.265a13.623,13.623,0,0,0,2.491.017l3.886,3.882a3.165,3.165,0,0,0,.537,3.75l1.674,1.672a3.167,3.167,0,0,0,4.467,0l10.151-10.139a3.164,3.164,0,0,0,0-4.468ZM22.819,84.155l4.109.778-2.459,2.458a5.97,5.97,0,0,1-1.474-1.071A4.357,4.357,0,0,1,21.6,84.167h0a.827.827,0,0,1,0-.093A3.21,3.21,0,0,1,22.819,84.155Zm-4.8.772a1.4,1.4,0,0,1,1.767-.167,6.775,6.775,0,0,0,1.9,2.929,7.014,7.014,0,0,0,2.729,1.691,1.39,1.39,0,0,1-2.125,1.775h0L18.017,86.89a1.395,1.395,0,0,1,0-1.963ZM15.542,89.06a1.4,1.4,0,0,1,1.968,0l3.439,3.433a1.392,1.392,0,0,1-1.97,1.967h0L16.37,91.852l-.013-.012-.816-.816a1.39,1.39,0,0,1,0-1.964Zm-2.48,4.132a1.4,1.4,0,0,1,1.962-.007L17.641,95.8a1.39,1.39,0,0,1-1.97,1.962l-.949-.948h0l-1.66-1.658a1.393,1.393,0,0,1,0-1.966Zm-1.65,4.964a1.4,1.4,0,0,1,1.971,0l.95.949a1.39,1.39,0,0,1-1.971,1.961l-.119-.119,0,0-.005,0-.821-.818a1.391,1.391,0,0,1,0-1.964Zm19.3,10.764a.947.947,0,0,0-1.339,0l-.843.842c-.8.8-2.252.7-3.655.6-1.524-.106-3.1-.215-4.119.832L17.27,114.68l-8.724-8.711,3.087-3.082a3.285,3.285,0,0,0,5-2.8c0-.008,0-.016,0-.024h.025a3.276,3.276,0,0,0,3.283-3.28c0-.008,0-.016,0-.024h.025a3.273,3.273,0,0,0,3.283-3.3h.025a3.286,3.286,0,0,0,2.8-4.994l2.706-2.7a1.389,1.389,0,0,1,.711-.379c.028,0,.056-.008.084-.013a1.388,1.388,0,0,1,1.179,2.356l-.824.821-.008.008-.949.948a.947.947,0,1,0,1.339,1.34l.827-.826h0l.125-.125a1.4,1.4,0,0,1,1.966,0,1.39,1.39,0,0,1,0,1.963l-.829.831h0l-.949.945a.947.947,0,1,0,1.337,1.342l.953-.95a1.39,1.39,0,0,1,1.967,1.965l-1.652,1.653a.947.947,0,1,0,1.34,1.339l.81-.81.014-.013a1.39,1.39,0,0,1,1.968,1.964l-.823.822h0l-1.307,1.305a.947.947,0,0,0,1.339,1.34l.639-.638,3.064,3.06-8.723,8.713L29.249,111.6a3.725,3.725,0,0,0,.622-.5l.842-.841A.947.947,0,0,0,30.714,108.921Zm15.9,1.173L36.464,120.233a1.273,1.273,0,0,1-1.79,0L33,118.561a1.266,1.266,0,0,1,0-1.785l10.151-10.139a1.273,1.273,0,0,1,1.791,0l1.673,1.668a1.27,1.27,0,0,1,0,1.788Z" transform="translate(0 -74.427)" fill="#585a4a"/>
      <path id="Trazado_1004297" data-name="Trazado 1004297" d="M85.453,7.807a.947.947,0,0,0,1.338-1.341L83.339,3.022A.947.947,0,1,0,82,4.362Z" transform="translate(-73.228 -2.487)" fill="#585a4a"/>
      <path id="Trazado_1004298" data-name="Trazado 1004298" d="M372.6,8.084a.944.944,0,0,0,.669-.277l3.449-3.445a.947.947,0,1,0-1.339-1.34l-3.449,3.445a.947.947,0,0,0,.669,1.617Z" transform="translate(-335.889 -2.487)" fill="#585a4a"/>
      <path id="Trazado_1004299" data-name="Trazado 1004299" d="M60.2,430.476a.947.947,0,0,0,.011,1.339l0,0a.947.947,0,1,0-.014-1.342Z" transform="translate(-53.484 -389.735)" fill="#585a4a"/>
      <path id="Trazado_1004300" data-name="Trazado 1004300" d="M333.459,334.013a.947.947,0,1,0-.426-1.793l-.005,0a.947.947,0,0,0,.431,1.791Z" transform="translate(-300.428 -300.883)" fill="#585a4a"/>
    </g>
  </g>
</svg>
