<svg xmlns="http://www.w3.org/2000/svg" width="70.289" height="70.288" viewBox="0 0 70.289 70.288">
  <g id="Grupo_1182856" data-name="Grupo 1182856" transform="translate(-0.007 -0.004)">
    <g id="Grupo_1182855" data-name="Grupo 1182855" transform="translate(1.106 1.102)">
      <g id="Grupo_1182852" data-name="Grupo 1182852">
        <path id="Trazado_1015160" data-name="Trazado 1015160" d="M42.055,67.559a4.267,4.267,0,1,1-4.267,4.267A4.267,4.267,0,0,1,42.055,67.559ZM67.566,42.048a4.267,4.267,0,1,1,4.267,4.267A4.267,4.267,0,0,1,67.566,42.048Zm-59.557,0a4.267,4.267,0,1,1,4.267,4.267A4.267,4.267,0,0,1,8.009,42.048ZM42.055,8a4.267,4.267,0,1,1-4.267,4.267A4.267,4.267,0,0,1,42.055,8Z" transform="translate(-8.009 -8.002)" fill="#ffe177" fill-rule="evenodd"/>
        <path id="Trazado_1015161" data-name="Trazado 1015161" d="M64.559,67.559a4.267,4.267,0,1,1-.686,8.48,4.268,4.268,0,0,0,0-8.424,4.3,4.3,0,0,1,.686-.055ZM93.651,37.836a4.267,4.267,0,1,1,0,8.424,4.268,4.268,0,0,0,0-8.424Zm-59.557,0a4.267,4.267,0,1,1,0,8.424,4.268,4.268,0,0,0,0-8.424ZM64.559,8a4.267,4.267,0,1,1-.686,8.479,4.268,4.268,0,0,0,0-8.424A4.283,4.283,0,0,1,64.559,8Z" transform="translate(-30.513 -8.002)" fill="#ffd064" fill-rule="evenodd"/>
        <path id="Trazado_1015162" data-name="Trazado 1015162" d="M18.524,22.816a7.112,7.112,0,1,1,7.112,7.112A7.112,7.112,0,0,1,18.524,22.816ZM82.94,73.922a7.112,7.112,0,1,1-7.112-7.112,7.112,7.112,0,0,1,7.112,7.112ZM25.179,80.577a7.112,7.112,0,1,1,7.112-7.112A7.112,7.112,0,0,1,25.179,80.577ZM76.285,16.161a7.112,7.112,0,1,1-7.112,7.112A7.112,7.112,0,0,1,76.285,16.161Z" transform="translate(-16.686 -14.647)" fill="#6cf5c2" fill-rule="evenodd"/>
        <path id="Trazado_1015163" data-name="Trazado 1015163" d="M65.333,15.737q.339-.033.686-.033a7.112,7.112,0,0,1,0,14.225q-.347,0-.686-.033a7.113,7.113,0,0,0,0-14.159Zm57.99,58.185a7.112,7.112,0,0,1-7.112,7.112q-.347,0-.686-.033a7.112,7.112,0,0,0,0-14.158q.339-.033.686-.033a7.112,7.112,0,0,1,7.112,7.112ZM65.562,80.577q-.347,0-.686-.033a7.112,7.112,0,0,0,0-14.158q.339-.033.686-.033a7.112,7.112,0,1,1,0,14.225Zm51.106-64.416a7.112,7.112,0,1,1,0,14.225q-.347,0-.686-.033a7.112,7.112,0,0,0,0-14.158Q116.32,16.162,116.668,16.161Z" transform="translate(-57.069 -14.647)" fill="#00e499" fill-rule="evenodd"/>
      </g>
      <g id="Grupo_1182853" data-name="Grupo 1182853" transform="translate(7.022 6.706)">
        <circle id="Elipse_15118" data-name="Elipse 15118" cx="19.106" cy="19.106" r="19.106" transform="translate(0 27.016) rotate(-45)" fill="#8ac9fe"/>
        <path id="Trazado_1015164" data-name="Trazado 1015164" d="M247.383,114.471a19.106,19.106,0,1,1,0,38.212c-.462,0-.919-.017-1.373-.05a19.106,19.106,0,0,0,0-38.113C246.463,114.488,246.921,114.471,247.383,114.471Z" transform="translate(-220.359 -106.561)" fill="#60b7ff" fill-rule="evenodd"/>
      </g>
      <g id="Grupo_1182854" data-name="Grupo 1182854" transform="translate(22.034 22.844)">
        <path id="Trazado_1015165" data-name="Trazado 1015165" d="M274.073,199.834a2.47,2.47,0,0,0-3.493,0c-.029.029-.264.265-.29.295l3.489,3.489c.03-.027.266-.262.295-.29A2.47,2.47,0,0,0,274.073,199.834Z" transform="translate(-256.317 -195.719)" fill="#a79ba7" fill-rule="evenodd"/>
        <path id="Trazado_1015166" data-name="Trazado 1015166" d="M230.393,302.742l-6.079-6.079-2.193,2.193,4.455,4.455a2.3,2.3,0,0,0,3.249,0Z" transform="translate(-214.761 -279.879)" fill="#a79ba7" fill-rule="evenodd"/>
        <path id="Trazado_1015167" data-name="Trazado 1015167" d="M178.749,191.873l-3.106,3.106a4.18,4.18,0,0,1-5.912-5.912l3.106-3.106c2.1-3.182,2.976-7.308,3.906-10.627a1.269,1.269,0,0,1,2.12-.555l10.952,10.952a1.269,1.269,0,0,1-.62,2.136c-3.558.8-7.265,1.74-10.446,4.006Z" transform="translate(-168.511 -174.405)" fill="#eceff1" fill-rule="evenodd"/>
        <path id="Trazado_1015168" data-name="Trazado 1015168" d="M183.615,256.952l-3.106,3.106a4.179,4.179,0,0,1-6.357-.526,4.2,4.2,0,0,0,5.386-.445l3.106-3.106c3.182-2.265,6.888-3.208,10.447-4.006a1.269,1.269,0,0,0,.62-2.136l.971.971a1.269,1.269,0,0,1-.62,2.136c-3.558.8-7.265,1.741-10.446,4.006Z" transform="translate(-173.378 -239.483)" fill="#d1d1d6" fill-rule="evenodd"/>
        <path id="Trazado_1015169" data-name="Trazado 1015169" d="M178.064,263.813l-5.227-5.227-3.106,3.106a4.18,4.18,0,1,0,5.912,5.912l.913-.913,2.193-2.193Z" transform="translate(-168.512 -247.029)" fill="#fe646f" fill-rule="evenodd"/>
        <path id="Trazado_1015170" data-name="Trazado 1015170" d="M182.931,294.866l-.286-.286-3.106,3.106a4.2,4.2,0,0,1-5.386.445l.012.017.04.054.011.015.006.009.006.009.034.044.037.046.023.029.051.061.013.015.061.069.006.007.068.074h0l.075.077.077.075.078.073.08.07.081.068.082.066.084.063.085.061.086.058.087.056.088.054.09.051.09.049.091.046.092.044.093.042.094.039.095.037.1.035.1.032.1.03.1.027.1.025.1.023.1.02.1.018.1.016.1.013.1.011q.1.009.2.014t.2,0h.1l.1,0,.1-.006.1-.008.1-.011.1-.013.1-.016q.149-.025.3-.061.2-.048.388-.114l.1-.035.095-.037.094-.039.093-.042.092-.044q.092-.045.182-.1l.09-.051.088-.054.087-.056a4.116,4.116,0,0,0,.419-.316l.08-.07.078-.073.077-.075.535-.535.378-.378,2.193-2.193Z" transform="translate(-173.378 -278.082)" fill="#fd4755" fill-rule="evenodd"/>
        <path id="Trazado_1015171" data-name="Trazado 1015171" d="M231.532,178.608,227.7,174.78a1.269,1.269,0,0,0-2.12.555c-.153.545-.3,1.112-.46,1.692l11.231,11.231c.562-.137,1.123-.265,1.681-.39a1.269,1.269,0,0,0,.62-2.136l-3.635-3.635Z" transform="translate(-217.352 -174.405)" fill="#fe646f" fill-rule="evenodd"/>
        <path id="Trazado_1015172" data-name="Trazado 1015172" d="M299.864,252.378l.971.971h0l.022-.005.105-.026.026-.006.015,0,.012,0,.026-.006.053-.013.026-.006.026-.006.025-.006h0l.026-.006.105-.025.026-.006.009,0,.018,0,.026-.006.026-.006.026-.006.026-.006.026-.006.019,0,.008,0,.105-.024.026-.006.026-.006h0l.024-.005.026-.006.026-.006.026-.006.026-.006.026-.006.012,0,.014,0,.026-.006.026-.006.026-.006.026-.006.026-.006.022-.005h0l.026-.006.026-.006.1-.024h.006l.02,0,.026-.006.1-.024.016,0,.01,0,.026-.006.026-.006.026-.006.026-.006.026-.006.026-.006.022-.005.021-.005.021-.006.021-.006h0l.021-.006h0l.021-.007.021-.007.02-.007.02-.008h0l.02-.008.02-.008.02-.008.019-.009.019-.009h0l.019-.009.019-.01.019-.01.018-.01.018-.011.018-.011.018-.011.018-.011.017-.012.017-.012.017-.012.017-.012.016-.013.016-.013.016-.013.016-.014.015-.014.015-.014.015-.014.015-.015.014-.015.014-.015.014-.015.014-.016.013-.016h0l.013-.016.013-.016.013-.017.012-.017.012-.017.012-.017.012-.018.011-.018.011-.018.011-.018.01-.018.01-.019.01-.019.01-.019.009-.019.009-.019.009-.02.009-.02.008-.02.008-.02.008-.02.007-.021.007-.021.007-.021.007-.021.006-.021.006-.021.005-.021,0-.021,0-.021,0-.021,0-.021,0-.021,0-.021,0-.021h0l0-.021,0-.021,0-.021v-.168l0-.021,0-.021,0-.021,0-.021,0-.021,0-.02,0-.02,0-.02,0-.02,0-.02,0-.02-.005-.02-.006-.02-.006-.02-.006-.02-.007-.02-.007-.019-.007-.019-.008-.019-.008-.019-.008-.019-.009-.019-.009-.019-.009-.019-.01-.019-.01-.019-.01-.018-.011-.018-.011-.018-.011-.018-.012-.018-.012-.018-.012-.017-.013-.017-.013-.017-.013-.017-.014-.017-.014-.017-.014-.016-.015-.016-.015-.016-.015-.016-.016-.016-.971-.971a1.269,1.269,0,0,1-.62,2.136q-.838.185-1.682.388Z" transform="translate(-281.832 -239.495)" fill="#fd4755" fill-rule="evenodd"/>
      </g>
    </g>
    <path id="Trazado_1015173" data-name="Trazado 1015173" d="M45.1,28.834h2.066a1.1,1.1,0,1,1,0,2.2H45.1a1.1,1.1,0,1,1,0-2.2Zm-7.092-5.167V21.6a1.1,1.1,0,0,1,2.2,0v2.068a1.1,1.1,0,0,1-2.2,0Zm4.378,2.906a1.1,1.1,0,0,1,0-1.552l1.461-1.461A1.1,1.1,0,1,1,45.4,25.113l-1.461,1.461a1.1,1.1,0,0,1-1.552,0ZM33.377,42.967l3.816,3.816a1.2,1.2,0,0,1-1.462-.183l-2.994-2.993Zm-8.242.777a3.088,3.088,0,0,1,0-4.359l2.33-2.329,4.359,4.358-2.33,2.33A3.087,3.087,0,0,1,25.135,43.745Zm6.337-15.063a28.88,28.88,0,0,1-2.618,6.657L33.516,40a24.473,24.473,0,0,1,6.5-2.775Zm1.078-3.63a.146.146,0,0,0-.121.12c-.1.347-.194.7-.293,1.068l10.35,10.35c.367-.087.733-.17,1.1-.253a.172.172,0,0,0,.083-.288L32.715,25.1a.147.147,0,0,0-.109-.053.245.245,0,0,0-.056.008Zm7.57,3.785a1.376,1.376,0,0,1,.4.96l-1.359-1.359a1.364,1.364,0,0,1,.958.4ZM36.578,49.148a3.388,3.388,0,0,0,2.4-.994l.569-.569a1.1,1.1,0,0,0,0-1.553L35.111,41.6a29.937,29.937,0,0,1,8.953-3.116A2.367,2.367,0,0,0,45.22,34.5l-2.953-2.953a3.568,3.568,0,0,0-4.853-4.853l-3.146-3.146a2.367,2.367,0,0,0-3.953,1.035c-.144.515-.284,1.038-.433,1.59-.767,2.865-1.635,6.106-3.273,8.637l-3.026,3.026A5.279,5.279,0,0,0,31.048,45.3l.135-.136,2.994,2.993a3.38,3.38,0,0,0,2.4.994ZM60.7,65.934a6.014,6.014,0,1,1,6.014-6.014A6.021,6.021,0,0,1,60.7,65.934ZM38.321,64.927a3.169,3.169,0,1,1-3.17-3.17A3.174,3.174,0,0,1,38.321,64.927Zm-21.177-30.1A18.008,18.008,0,1,0,35.152,16.817,18.028,18.028,0,0,0,17.144,34.824ZM10.056,65.934A6.014,6.014,0,1,1,16.07,59.92,6.021,6.021,0,0,1,10.056,65.934Zm0-50.192A6.014,6.014,0,1,1,16.07,9.729,6.021,6.021,0,0,1,10.056,15.743ZM31.983,5.369a3.169,3.169,0,1,1,3.168,3.17A3.172,3.172,0,0,1,31.983,5.369ZM60.7,3.714a6.014,6.014,0,1,1-6.013,6.014A6.021,6.021,0,0,1,60.7,3.714ZM5.374,37.993a3.169,3.169,0,1,1,3.168-3.17A3.174,3.174,0,0,1,5.374,37.993Zm59.557-6.338a3.169,3.169,0,1,1-3.17,3.168A3.172,3.172,0,0,1,64.931,31.655ZM60.7,51.71a8.171,8.171,0,0,0-5.42,2.051l-5.223-5.317a20.129,20.129,0,0,0,5.245-12.2h4.45a5.366,5.366,0,1,0-.135-2.2H55.34a20.116,20.116,0,0,0-5.034-12.572l5.363-5.269a8.2,8.2,0,1,0-1.536-1.561l-5.362,5.266A20.129,20.129,0,0,0,36.25,14.65V10.621a5.365,5.365,0,1,0-2.2,0V14.65A20.119,20.119,0,0,0,21.8,19.67L16.73,14.5a8.221,8.221,0,1,0-1.5,1.6l5.014,5.106a20.119,20.119,0,0,0-5.278,12.844h-4.28a5.367,5.367,0,1,0-.136,2.2H15a20.107,20.107,0,0,0,5,11.925l-5.168,5.075a8.222,8.222,0,1,0,1.6,1.5l5.1-5.013A20.14,20.14,0,0,0,34.053,55v4.676a5.367,5.367,0,1,0,2.2,0V55A20.126,20.126,0,0,0,48.5,49.978l5.343,5.44A8.207,8.207,0,1,0,60.7,51.71Z" transform="translate(0)" fill-rule="evenodd"/>
  </g>
</svg>
