<svg xmlns="http://www.w3.org/2000/svg" width="128" height="128" viewBox="0 0 128 128">
  <g id="Grupo_1182032" data-name="Grupo 1182032" transform="translate(-72.746 -7992)">
    <g id="Elipse_13628" data-name="Elipse 13628" transform="translate(72.746 7992)" fill="#ecf0f1" stroke="#ffa038" stroke-width="6">
      <circle cx="64" cy="64" r="64" stroke="none"/>
      <circle cx="64" cy="64" r="61" fill="none"/>
    </g>
    <g id="Grupo_1182877" data-name="Grupo 1182877" transform="translate(93.997 8013.259)">
      <g id="Grupo_1182875" data-name="Grupo 1182875" transform="translate(9.127 9.118)">
        <path id="Trazado_1015232" data-name="Trazado 1015232" d="M67.609,170.461h0a13.444,13.444,0,0,1-17.276,0h0A5.306,5.306,0,0,1,54.486,168h2.241a2.241,2.241,0,1,0,4.483,0h2.241A5.306,5.306,0,0,1,67.609,170.461Z" transform="translate(-45.52 -146.705)" fill="#006df0"/>
        <path id="Trazado_1015233" data-name="Trazado 1015233" d="M42.892,29.439a13.418,13.418,0,0,1-4.809,10.306,5.306,5.306,0,0,0-4.156-2.461H31.685a2.241,2.241,0,1,1-4.483,0H24.961A5.306,5.306,0,0,0,20.8,39.745,13.449,13.449,0,1,1,42.892,29.439Z" transform="translate(-15.995 -15.989)" fill="#ffda44"/>
        <g id="Grupo_1182869" data-name="Grupo 1182869" transform="translate(7.846 3.364)">
          <path id="Trazado_1015234" data-name="Trazado 1015234" d="M83.052,44.42C76.414,47.688,72,46.584,72,46.584V45.6A5.606,5.606,0,0,1,77.6,40a5.506,5.506,0,0,1,3.962,1.712,5.842,5.842,0,0,1,1.475,2.664C83.045,44.39,83.049,44.406,83.052,44.42Z" transform="translate(-72 -40)" fill="#3e3d42"/>
          <path id="Trazado_1015235" data-name="Trazado 1015235" d="M83.207,72.874v4.343a5.6,5.6,0,1,1-11.207,0v-3.5s4.414,1.1,11.052-2.164A5.686,5.686,0,0,1,83.207,72.874Z" transform="translate(-72 -67.13)" fill="#ffdaaa"/>
          <path id="Trazado_1015236" data-name="Trazado 1015236" d="M150.977,71l-.156.077c0-.014-.007-.029-.011-.043Z" transform="translate(-139.77 -66.657)" fill="#787680"/>
          <path id="Trazado_1015237" data-name="Trazado 1015237" d="M100.483,152v2.241a2.241,2.241,0,1,1-4.483,0V152Z" transform="translate(-92.638 -136.31)" fill="#ffdaaa"/>
        </g>
        <rect id="Rectángulo_456804" data-name="Rectángulo 456804" width="26.897" height="6.724" rx="3.362" transform="translate(20.174 30.261)" fill="#787680"/>
        <path id="Trazado_1015238" data-name="Trazado 1015238" d="M240,208h4.483v3.362H240Z" transform="translate(-208.619 -181.101)" fill="#ffda44"/>
        <path id="Trazado_1015239" data-name="Trazado 1015239" d="M240,280h4.483v3.362H240Z" transform="translate(-208.619 -243.015)" fill="#ffda44"/>
        <path id="Trazado_1015240" data-name="Trazado 1015240" d="M67.609,170.461h0a13.444,13.444,0,0,1-17.276,0h0A5.306,5.306,0,0,1,54.486,168h2.241a2.241,2.241,0,1,0,4.483,0h2.241A5.306,5.306,0,0,1,67.609,170.461Z" transform="translate(-45.52 -146.705)" fill="#006df0"/>
        <path id="Trazado_1015241" data-name="Trazado 1015241" d="M42.892,29.439a13.418,13.418,0,0,1-4.809,10.306,5.306,5.306,0,0,0-4.156-2.461H31.685a2.241,2.241,0,1,1-4.483,0H24.961A5.306,5.306,0,0,0,20.8,39.745,13.449,13.449,0,1,1,42.892,29.439Z" transform="translate(-15.995 -15.989)" fill="#ffda44"/>
        <g id="Grupo_1182870" data-name="Grupo 1182870" transform="translate(7.846 3.364)">
          <path id="Trazado_1015242" data-name="Trazado 1015242" d="M83.052,44.42C76.414,47.688,72,46.584,72,46.584V45.6A5.606,5.606,0,0,1,77.6,40a5.506,5.506,0,0,1,3.962,1.712,5.842,5.842,0,0,1,1.475,2.664C83.045,44.39,83.049,44.406,83.052,44.42Z" transform="translate(-72 -40)" fill="#3e3d42"/>
          <path id="Trazado_1015243" data-name="Trazado 1015243" d="M83.207,72.874v4.343a5.6,5.6,0,1,1-11.207,0v-3.5s4.414,1.1,11.052-2.164A5.686,5.686,0,0,1,83.207,72.874Z" transform="translate(-72 -67.13)" fill="#ffdaaa"/>
          <path id="Trazado_1015244" data-name="Trazado 1015244" d="M150.977,71l-.156.077c0-.014-.007-.029-.011-.043Z" transform="translate(-139.77 -66.657)" fill="#787680"/>
          <path id="Trazado_1015245" data-name="Trazado 1015245" d="M100.483,152v2.241a2.241,2.241,0,1,1-4.483,0V152Z" transform="translate(-92.638 -136.31)" fill="#ffdaaa"/>
        </g>
        <path id="Trazado_1015246" data-name="Trazado 1015246" d="M353.609,170.461h0a13.444,13.444,0,0,1-17.276,0h0A5.306,5.306,0,0,1,340.486,168h2.241a2.241,2.241,0,1,0,4.483,0h2.241A5.306,5.306,0,0,1,353.609,170.461Z" transform="translate(-291.455 -146.705)" fill="#006df0"/>
        <path id="Trazado_1015247" data-name="Trazado 1015247" d="M328.892,29.439a13.417,13.417,0,0,1-4.809,10.306,5.306,5.306,0,0,0-4.156-2.461h-2.241a2.241,2.241,0,0,1-4.483,0h-2.241a5.306,5.306,0,0,0-4.156,2.461,13.449,13.449,0,1,1,22.088-10.306Z" transform="translate(-261.929 -15.989)" fill="#ff5023"/>
        <g id="Grupo_1182871" data-name="Grupo 1182871" transform="translate(47.911 3.364)">
          <path id="Trazado_1015248" data-name="Trazado 1015248" d="M369.052,44.42C362.414,47.688,358,46.584,358,46.584V45.6a5.606,5.606,0,0,1,5.6-5.6,5.506,5.506,0,0,1,3.962,1.712,5.842,5.842,0,0,1,1.475,2.664C369.045,44.39,369.049,44.406,369.052,44.42Z" transform="translate(-358 -40)" fill="#3e3d42"/>
          <path id="Trazado_1015249" data-name="Trazado 1015249" d="M369.207,72.874v4.343a5.6,5.6,0,1,1-11.207,0v-3.5s4.414,1.1,11.052-2.164a5.685,5.685,0,0,1,.156,1.324Z" transform="translate(-358 -67.13)" fill="#ffdaaa"/>
          <path id="Trazado_1015250" data-name="Trazado 1015250" d="M436.977,71l-.156.077c0-.014-.007-.029-.011-.043Z" transform="translate(-425.77 -66.657)" fill="#787680"/>
          <path id="Trazado_1015251" data-name="Trazado 1015251" d="M386.483,152v2.241a2.241,2.241,0,1,1-4.483,0V152Z" transform="translate(-378.638 -136.31)" fill="#ffdaaa"/>
        </g>
        <path id="Trazado_1015252" data-name="Trazado 1015252" d="M67.609,458.461h0a13.444,13.444,0,0,1-17.276,0h0A5.306,5.306,0,0,1,54.486,456h2.241a2.241,2.241,0,1,0,4.483,0h2.241A5.306,5.306,0,0,1,67.609,458.461Z" transform="translate(-45.52 -394.359)" fill="#006df0"/>
        <path id="Trazado_1015253" data-name="Trazado 1015253" d="M42.892,317.439a13.418,13.418,0,0,1-4.809,10.306,5.306,5.306,0,0,0-4.156-2.461H31.685a2.241,2.241,0,1,1-4.483,0H24.961a5.306,5.306,0,0,0-4.156,2.461,13.449,13.449,0,1,1,22.088-10.306Z" transform="translate(-15.995 -263.643)" fill="#ffda44"/>
        <g id="Grupo_1182872" data-name="Grupo 1182872" transform="translate(7.846 43.709)">
          <path id="Trazado_1015254" data-name="Trazado 1015254" d="M83.052,332.42C76.414,335.688,72,334.584,72,334.584V333.6a5.606,5.606,0,0,1,5.6-5.6,5.506,5.506,0,0,1,3.962,1.712,5.842,5.842,0,0,1,1.475,2.664C83.045,332.39,83.049,332.406,83.052,332.42Z" transform="translate(-72 -328)" fill="#3e3d42"/>
          <path id="Trazado_1015255" data-name="Trazado 1015255" d="M83.207,360.874v4.343a5.6,5.6,0,0,1-11.207,0v-3.5s4.414,1.1,11.052-2.164A5.686,5.686,0,0,1,83.207,360.874Z" transform="translate(-72 -355.13)" fill="#ffdaaa"/>
          <path id="Trazado_1015256" data-name="Trazado 1015256" d="M150.977,359l-.156.077c0-.014-.007-.029-.011-.043Z" transform="translate(-139.77 -354.657)" fill="#787680"/>
          <path id="Trazado_1015257" data-name="Trazado 1015257" d="M100.483,440v2.241a2.241,2.241,0,1,1-4.483,0V440Z" transform="translate(-92.638 -424.31)" fill="#ffdaaa"/>
        </g>
        <path id="Trazado_1015258" data-name="Trazado 1015258" d="M67.609,458.461h0a13.444,13.444,0,0,1-17.276,0h0A5.306,5.306,0,0,1,54.486,456h2.241a2.241,2.241,0,1,0,4.483,0h2.241A5.306,5.306,0,0,1,67.609,458.461Z" transform="translate(-45.52 -394.359)" fill="#006df0"/>
        <path id="Trazado_1015259" data-name="Trazado 1015259" d="M42.892,317.439a13.418,13.418,0,0,1-4.809,10.306,5.306,5.306,0,0,0-4.156-2.461H31.685a2.241,2.241,0,1,1-4.483,0H24.961a5.306,5.306,0,0,0-4.156,2.461,13.449,13.449,0,1,1,22.088-10.306Z" transform="translate(-15.995 -263.643)" fill="#78b9eb"/>
        <g id="Grupo_1182873" data-name="Grupo 1182873" transform="translate(7.846 43.709)">
          <path id="Trazado_1015260" data-name="Trazado 1015260" d="M83.052,332.42C76.414,335.688,72,334.584,72,334.584V333.6a5.606,5.606,0,0,1,5.6-5.6,5.506,5.506,0,0,1,3.962,1.712,5.842,5.842,0,0,1,1.475,2.664C83.045,332.39,83.049,332.406,83.052,332.42Z" transform="translate(-72 -328)" fill="#3e3d42"/>
          <path id="Trazado_1015261" data-name="Trazado 1015261" d="M83.207,360.874v4.343a5.6,5.6,0,0,1-11.207,0v-3.5s4.414,1.1,11.052-2.164A5.686,5.686,0,0,1,83.207,360.874Z" transform="translate(-72 -355.13)" fill="#ffdaaa"/>
          <path id="Trazado_1015262" data-name="Trazado 1015262" d="M150.977,359l-.156.077c0-.014-.007-.029-.011-.043Z" transform="translate(-139.77 -354.657)" fill="#787680"/>
          <path id="Trazado_1015263" data-name="Trazado 1015263" d="M100.483,440v2.241a2.241,2.241,0,1,1-4.483,0V440Z" transform="translate(-92.638 -424.31)" fill="#ffdaaa"/>
        </g>
        <path id="Trazado_1015264" data-name="Trazado 1015264" d="M353.609,458.461h0a13.444,13.444,0,0,1-17.276,0h0A5.306,5.306,0,0,1,340.486,456h2.241a2.241,2.241,0,1,0,4.483,0h2.241A5.306,5.306,0,0,1,353.609,458.461Z" transform="translate(-291.455 -394.359)" fill="#006df0"/>
        <path id="Trazado_1015265" data-name="Trazado 1015265" d="M328.892,317.439a13.418,13.418,0,0,1-4.809,10.306,5.306,5.306,0,0,0-4.156-2.461h-2.241a2.241,2.241,0,1,1-4.483,0h-2.241a5.306,5.306,0,0,0-4.156,2.461,13.449,13.449,0,1,1,22.088-10.306Z" transform="translate(-261.929 -263.643)" fill="#ff9811"/>
        <g id="Grupo_1182874" data-name="Grupo 1182874" transform="translate(47.911 43.709)">
          <path id="Trazado_1015266" data-name="Trazado 1015266" d="M369.052,332.42c-6.637,3.268-11.052,2.164-11.052,2.164V333.6a5.606,5.606,0,0,1,5.6-5.6,5.506,5.506,0,0,1,3.962,1.712,5.842,5.842,0,0,1,1.475,2.664C369.045,332.39,369.049,332.406,369.052,332.42Z" transform="translate(-358 -328)" fill="#3e3d42"/>
          <path id="Trazado_1015267" data-name="Trazado 1015267" d="M369.207,360.874v4.343a5.6,5.6,0,1,1-11.207,0v-3.5s4.414,1.1,11.052-2.164a5.685,5.685,0,0,1,.156,1.324Z" transform="translate(-358 -355.13)" fill="#ffdaaa"/>
          <path id="Trazado_1015268" data-name="Trazado 1015268" d="M436.977,359l-.156.077c0-.014-.007-.029-.011-.043Z" transform="translate(-425.77 -354.657)" fill="#787680"/>
          <path id="Trazado_1015269" data-name="Trazado 1015269" d="M386.483,440v2.241a2.241,2.241,0,1,1-4.483,0V440Z" transform="translate(-378.638 -424.31)" fill="#ffdaaa"/>
        </g>
      </g>
      <g id="Grupo_1182876" data-name="Grupo 1182876" transform="translate(8.008 7.999)">
        <path id="Trazado_1015270" data-name="Trazado 1015270" d="M62.922,48.344A14.59,14.59,0,0,0,48.395,61.793H43.87V50.586H44.99a1.121,1.121,0,0,0,1.121-1.121V47.224h8.405a2.8,2.8,0,0,0,2.8-2.8V41.06a2.8,2.8,0,0,0-2.8-2.8H46.111V36.017A1.121,1.121,0,0,0,44.99,34.9H43.87V23.689h4.525a14.569,14.569,0,1,0,0-2.241H37.1a14.569,14.569,0,1,0,0,2.241h4.525V34.9H40.508a1.121,1.121,0,0,0-1.121,1.121v2.241H30.982a2.8,2.8,0,0,0-2.8,2.8v3.362a2.8,2.8,0,0,0,2.8,2.8h8.405v2.241a1.121,1.121,0,0,0,1.121,1.121h1.121V61.793H37.1a14.569,14.569,0,1,0,0,2.241H48.395a14.569,14.569,0,1,0,14.527-15.69Zm0-13.449A12.253,12.253,0,0,1,55.9,32.7a3.711,3.711,0,0,1,2.534-1.164h1.314a3.361,3.361,0,0,0,6.338,0H67.4A3.711,3.711,0,0,1,69.939,32.7,12.253,12.253,0,0,1,62.922,34.9Zm-3.593-14.53A20.842,20.842,0,0,0,67.4,18.574v3.994a4.483,4.483,0,1,1-8.966,0v-2.23C58.7,20.355,59,20.366,59.329,20.366Zm-.89-2.275v-.006A4.487,4.487,0,0,1,62.922,13.6a4.542,4.542,0,0,1,4.064,2.709,20.17,20.17,0,0,1-6.544,1.768,12.94,12.94,0,0,1-2,.011Zm5.6,11.106v1.216a1.121,1.121,0,1,1-2.241,0V29.2A6.64,6.64,0,0,0,64.043,29.2ZM62.922,10.24a12.322,12.322,0,0,1,8.742,21.012,6,6,0,0,0-4.259-1.96H66.284v-.9a6.726,6.726,0,0,0,3.362-5.819V18.085c0-.032,0-.063,0-.1a6.891,6.891,0,0,0-1.951-4.575,6.592,6.592,0,0,0-4.769-2.054A6.731,6.731,0,0,0,56.2,18.085v4.483a6.726,6.726,0,0,0,3.362,5.819v.9H58.439a6,6,0,0,0-4.259,1.96A12.322,12.322,0,0,1,62.922,10.24ZM22.576,34.9a12.253,12.253,0,0,1-7.017-2.2,3.711,3.711,0,0,1,2.534-1.164h1.314a3.361,3.361,0,0,0,6.338,0h1.314A3.711,3.711,0,0,1,29.593,32.7,12.253,12.253,0,0,1,22.576,34.9Zm-3.593-14.53a20.842,20.842,0,0,0,8.076-1.792v3.994a4.483,4.483,0,1,1-8.966,0v-2.23C18.357,20.355,18.652,20.366,18.983,20.366Zm-.89-2.275v-.006A4.487,4.487,0,0,1,22.576,13.6a4.542,4.542,0,0,1,4.064,2.709A20.17,20.17,0,0,1,20.1,18.08a12.94,12.94,0,0,1-2,.011ZM23.7,29.2v1.216a1.121,1.121,0,1,1-2.241,0V29.2a6.64,6.64,0,0,0,2.241,0Zm7.621,2.055a6,6,0,0,0-4.259-1.96H25.938v-.9A6.726,6.726,0,0,0,29.3,22.568V18.085c0-.032,0-.063,0-.1a6.891,6.891,0,0,0-1.951-4.575,6.592,6.592,0,0,0-4.769-2.054,6.731,6.731,0,0,0-6.724,6.724v4.483a6.726,6.726,0,0,0,3.362,5.819v.9H18.093a6,6,0,0,0-4.259,1.96,12.328,12.328,0,1,1,17.483,0ZM22.576,75.241a12.253,12.253,0,0,1-7.017-2.2,3.711,3.711,0,0,1,2.534-1.164h1.314a3.361,3.361,0,0,0,6.338,0h1.314a3.711,3.711,0,0,1,2.534,1.164,12.253,12.253,0,0,1-7.017,2.2Zm-3.593-14.53a20.842,20.842,0,0,0,8.076-1.792v3.994a4.483,4.483,0,1,1-8.966,0v-2.23c.263.017.559.028.89.028Zm-.89-2.275v-.006a4.488,4.488,0,0,1,4.483-4.483,4.542,4.542,0,0,1,4.064,2.709A20.17,20.17,0,0,1,20.1,58.425,12.94,12.94,0,0,1,18.093,58.436Zm5.6,11.106v1.216a1.121,1.121,0,1,1-2.241,0V69.543a6.64,6.64,0,0,0,2.241,0ZM31.318,71.6a6,6,0,0,0-4.259-1.96H25.938v-.9A6.726,6.726,0,0,0,29.3,62.914V58.431c0-.032,0-.063,0-.1a6.891,6.891,0,0,0-1.951-4.575,6.6,6.6,0,0,0-4.769-2.054,6.731,6.731,0,0,0-6.724,6.724v4.483a6.726,6.726,0,0,0,3.362,5.819v.9H18.093a6,6,0,0,0-4.259,1.96,12.328,12.328,0,1,1,17.483,0Zm10.311-34.46H43.87v1.121H41.628ZM30.982,44.982a.56.56,0,0,1-.56-.56V41.06a.56.56,0,0,1,.56-.56H54.516a.56.56,0,0,1,.56.56v3.362a.56.56,0,0,1-.56.56Zm10.647,2.241H43.87v1.121H41.628ZM62.922,75.241a12.253,12.253,0,0,1-7.017-2.2,3.711,3.711,0,0,1,2.534-1.164h1.314a3.361,3.361,0,0,0,6.338,0H67.4a3.711,3.711,0,0,1,2.534,1.164,12.253,12.253,0,0,1-7.017,2.2Zm-3.593-14.53A20.842,20.842,0,0,0,67.4,58.92v3.994a4.483,4.483,0,1,1-8.966,0v-2.23C58.7,60.7,59,60.711,59.329,60.711Zm-.89-2.275v-.006a4.488,4.488,0,0,1,4.483-4.483,4.542,4.542,0,0,1,4.064,2.709,20.17,20.17,0,0,1-6.544,1.768,12.94,12.94,0,0,1-2,.011Zm5.6,11.106v1.216a1.121,1.121,0,1,1-2.241,0V69.543a6.64,6.64,0,0,0,2.241,0ZM71.663,71.6a6,6,0,0,0-4.259-1.96H66.284v-.9a6.726,6.726,0,0,0,3.362-5.819V58.431c0-.032,0-.063,0-.1A6.891,6.891,0,0,0,67.69,53.76a6.6,6.6,0,0,0-4.769-2.054A6.731,6.731,0,0,0,56.2,58.431v4.483a6.726,6.726,0,0,0,3.362,5.819v.9H58.439A6,6,0,0,0,54.18,71.6a12.328,12.328,0,1,1,17.483,0Z" transform="translate(-8.008 -7.999)"/>
        <circle id="Elipse_15119" data-name="Elipse 15119" cx="1.121" cy="1.121" r="1.121" transform="translate(23.534 33.621)"/>
        <circle id="Elipse_15120" data-name="Elipse 15120" cx="1.121" cy="1.121" r="1.121" transform="translate(26.896 33.621)"/>
        <circle id="Elipse_15121" data-name="Elipse 15121" cx="1.121" cy="1.121" r="1.121" transform="translate(30.258 33.621)"/>
        <path id="Trazado_1015271" data-name="Trazado 1015271" d="M273.121,250.241h6.724a1.121,1.121,0,0,0,0-2.241h-6.724a1.121,1.121,0,0,0,0,2.241Z" transform="translate(-235.018 -214.379)"/>
      </g>
    </g>
  </g>
</svg>
