<svg xmlns="http://www.w3.org/2000/svg" width="128" height="128" viewBox="0 0 128 128">
  <g id="Grupo_1182004" data-name="Grupo 1182004" transform="translate(-72.746 -7992)">
    <g id="Elipse_13628" data-name="Elipse 13628" transform="translate(72.746 7992)" fill="#ecf0f1" stroke="#ffa038" stroke-width="6">
      <circle cx="64" cy="64" r="64" stroke="none"/>
      <circle cx="64" cy="64" r="61" fill="none"/>
    </g>
    <g id="Grupo_1182374" data-name="Grupo 1182374" transform="translate(71.782 8018.39)">
      <g id="Grupo_1182372" data-name="Grupo 1182372" transform="translate(33.167 1.102)">
        <path id="Trazado_1004614" data-name="Trazado 1004614" d="M262.344,39.564H243.5a3.533,3.533,0,0,0-3.533,3.533v9.422l8.244,3.533,5.889,4.711V56.052h8.244a3.533,3.533,0,0,0,3.533-3.533V43.1A3.533,3.533,0,0,0,262.344,39.564Z" transform="translate(-210.526 -34.853)" fill="#eceaec"/>
        <path id="Trazado_1004615" data-name="Trazado 1004615" d="M110.038,7.5H91.2a3.533,3.533,0,0,0-3.533,3.533v9.422A3.533,3.533,0,0,0,91.2,23.988h7.066V28.7l5.889-4.711h5.889a3.533,3.533,0,0,0,3.533-3.533V11.033A3.533,3.533,0,0,0,110.038,7.5Z" transform="translate(-80.596 -7.5)" fill="#eceaec"/>
        <path id="Trazado_1004616" data-name="Trazado 1004616" d="M243.5,56.053h4.711l5.889,4.711V56.053h8.244a3.533,3.533,0,0,0,3.533-3.533V43.1a3.533,3.533,0,0,0-3.533-3.533v10.6a2.355,2.355,0,0,1-2.355,2.355H239.968A3.533,3.533,0,0,0,243.5,56.053Z" transform="translate(-210.526 -34.854)" fill="#dbd8db"/>
        <path id="Trazado_1004617" data-name="Trazado 1004617" d="M273.892,264.016H262.115a4.711,4.711,0,0,0-4.711,4.711v5.889h-7.072a2.353,2.353,0,0,0-2.349,2.367v.059a2.285,2.285,0,0,0,2.285,2.285H278.6v-10.6A4.711,4.711,0,0,0,273.892,264.016Z" transform="translate(-217.363 -226.33)" fill="#008cdf"/>
        <circle id="Elipse_15099" data-name="Elipse 15099" cx="3.533" cy="3.533" r="3.533" transform="translate(47.096 25.909)" fill="#ffe09c"/>
        <circle id="Elipse_15100" data-name="Elipse 15100" cx="3.533" cy="3.533" r="3.533" transform="translate(10.599 25.909)" fill="#fbbd80"/>
        <path id="Trazado_1004618" data-name="Trazado 1004618" d="M81.505,191.871a2.355,2.355,0,0,0-2.355,2.355v8.244H60.307a4.711,4.711,0,0,0-4.711,4.711v12.955H72.084V207.181H79.15a4.716,4.716,0,0,0,4.711-4.711v-8.244A2.355,2.355,0,0,0,81.505,191.871Z" transform="translate(-53.241 -164.784)" fill="#ff5f7a"/>
        <path id="Trazado_1004619" data-name="Trazado 1004619" d="M80.245,215.918V222.9a1.178,1.178,0,0,1-1.178,1.178H72.085a3.533,3.533,0,0,0-3.533,3.533v4.795a2.355,2.355,0,0,1-2.355,2.355H55.6v3.533H72.085V227.7h7.066a4.716,4.716,0,0,0,4.711-4.711v-7.066H80.245Z" transform="translate(-53.242 -185.298)" fill="#fb4455"/>
        <path id="Trazado_1004620" data-name="Trazado 1004620" d="M64.3,368.226H40.743a1.178,1.178,0,0,0-1.178,1.178v2.355a1.178,1.178,0,0,0,1.178,1.178H41.92v15.31H59.586l3.533-15.31H64.3a1.178,1.178,0,0,0,1.178-1.178V369.4A1.178,1.178,0,0,0,64.3,368.226Z" transform="translate(-39.565 -315.23)" fill="#e29a6c"/>
        <path id="Trazado_1004621" data-name="Trazado 1004621" d="M102.744,432.355H98.033a2.355,2.355,0,0,0,0,4.711h4.711a2.355,2.355,0,1,0,0-4.711Z" transform="translate(-87.434 -369.937)" fill="#ffe09c"/>
        <path id="Trazado_1004622" data-name="Trazado 1004622" d="M218.275,191.871a2.355,2.355,0,0,0-2.355,2.355v2.355h4.711v-2.355A2.356,2.356,0,0,0,218.275,191.871Z" transform="translate(-190.011 -164.784)" fill="#fbbd80"/>
        <path id="Trazado_1004623" data-name="Trazado 1004623" d="M247.984,338.516a2.355,2.355,0,0,0,2.355,2.355h2.355v-4.711h-2.355A2.355,2.355,0,0,0,247.984,338.516Z" transform="translate(-217.364 -287.876)" fill="#ffe09c"/>
        <path id="Trazado_1004624" data-name="Trazado 1004624" d="M91.194,23.988H98.26V28.7l5.889-4.711h5.889a3.533,3.533,0,0,0,3.533-3.533V11.033A3.533,3.533,0,0,0,110.037,7.5V18.1a2.355,2.355,0,0,1-2.355,2.355H87.661a3.533,3.533,0,0,0,3.533,3.533Z" transform="translate(-80.595 -7.5)" fill="#dbd8db"/>
        <path id="Trazado_1004625" data-name="Trazado 1004625" d="M180.55,368.226h-2.355v4.711h-2.355v15.31h3.533v-15.31h1.178a1.178,1.178,0,0,0,1.178-1.178V369.4A1.178,1.178,0,0,0,180.55,368.226Z" transform="translate(-155.818 -315.23)" fill="#d48c64"/>
        <path id="Trazado_1004626" data-name="Trazado 1004626" d="M123.259,432.355h-3.533a2.355,2.355,0,0,1,0,4.711h3.533a2.355,2.355,0,0,0,0-4.711Z" transform="translate(-107.949 -369.937)" fill="#ffd18d"/>
        <path id="Trazado_1004627" data-name="Trazado 1004627" d="M320.812,368.226H297.259a1.178,1.178,0,0,0-1.178,1.178v2.355a1.178,1.178,0,0,0,1.178,1.178h1.178v15.31H316.1l3.533-15.31h1.178a1.178,1.178,0,0,0,1.178-1.178V369.4A1.178,1.178,0,0,0,320.812,368.226Z" transform="translate(-258.395 -315.23)" fill="#e29a6c"/>
        <path id="Trazado_1004628" data-name="Trazado 1004628" d="M359.259,432.355h-4.711a2.355,2.355,0,0,0,0,4.711h4.711a2.355,2.355,0,0,0,0-4.711Z" transform="translate(-306.263 -369.937)" fill="#ffe09c"/>
        <path id="Trazado_1004629" data-name="Trazado 1004629" d="M437.066,368.226H434.71v4.711h-2.355v15.31h3.533v-15.31h1.178a1.178,1.178,0,0,0,1.178-1.178V369.4A1.178,1.178,0,0,0,437.066,368.226Z" transform="translate(-374.648 -315.23)" fill="#d48c64"/>
        <path id="Trazado_1004630" data-name="Trazado 1004630" d="M379.775,432.355h-3.533a2.355,2.355,0,1,1,0,4.711h3.533a2.355,2.355,0,0,0,0-4.711Z" transform="translate(-326.779 -369.937)" fill="#ffd18d"/>
        <path id="Trazado_1004631" data-name="Trazado 1004631" d="M357.049,265.15v11.61H344.178v3.533h16.488v-10.6A4.775,4.775,0,0,0,357.049,265.15Z" transform="translate(-299.426 -227.297)" fill="#0069d0"/>
      </g>
      <g id="Grupo_1182373" data-name="Grupo 1182373" transform="translate(32.065 0)">
        <path id="Trazado_1004632" data-name="Trazado 1004632" d="M357.265,176.354a4.635,4.635,0,1,0,4.635,4.635A4.64,4.64,0,0,0,357.265,176.354Zm0,7.066a2.431,2.431,0,1,1,2.431-2.431A2.434,2.434,0,0,1,357.265,183.42Z" transform="translate(-305.534 -150.445)"/>
        <path id="Trazado_1004633" data-name="Trazado 1004633" d="M57.9,210.281H53.112v-8.4h5.964a5.819,5.819,0,0,0,5.813-5.813v-8.244a3.457,3.457,0,0,0-6.914,0v7.142H40.233a5.819,5.819,0,0,0-5.813,5.813v9.5h-.076a2.282,2.282,0,0,0-2.28,2.28v2.355a2.282,2.282,0,0,0,2.28,2.28h.076V231.4a1.1,1.1,0,1,0,2.2,0V217.2h1.253a1.1,1.1,0,1,0,0-2.2H34.345a.076.076,0,0,1-.076-.076v-2.355a.076.076,0,0,1,.076-.076H57.9a.076.076,0,0,1,.076.076v2.355a.076.076,0,0,1-.076.076H42.588a1.1,1.1,0,1,0,0,2.2h13.03V231.4a1.1,1.1,0,1,0,2.2,0V217.2H57.9a2.282,2.282,0,0,0,2.28-2.28v-2.355a2.282,2.282,0,0,0-2.28-2.28Zm3.533-23.705a1.255,1.255,0,0,1,1.253,1.253v1.253H60.178v-1.253A1.255,1.255,0,0,1,61.431,186.576ZM36.624,200.784a3.613,3.613,0,0,1,3.609-3.609H59.076a1.1,1.1,0,0,0,1.1-1.1v-4.787h2.507v4.787a3.613,3.613,0,0,1-3.609,3.609H52.01a1.1,1.1,0,0,0-1.1,1.1v9.5H41.335v-8.32a1.1,1.1,0,1,0-2.2,0v8.32H36.624Z" transform="translate(-32.065 -157.285)"/>
        <path id="Trazado_1004634" data-name="Trazado 1004634" d="M108.844,176.354a4.635,4.635,0,1,0,4.635,4.635A4.64,4.64,0,0,0,108.844,176.354Zm0,7.066a2.431,2.431,0,1,1,2.431-2.431A2.434,2.434,0,0,1,108.844,183.42Z" transform="translate(-93.61 -150.445)"/>
        <path id="Trazado_1004635" data-name="Trazado 1004635" d="M84.8,18.691H90.76V22.3a1.1,1.1,0,0,0,1.79.86l5.587-4.469h5.5a4.64,4.64,0,0,0,4.635-4.635V4.635A4.64,4.64,0,0,0,103.639,0H84.8a4.64,4.64,0,0,0-4.635,4.635v9.422A4.64,4.64,0,0,0,84.8,18.691ZM82.365,4.635A2.434,2.434,0,0,1,84.8,2.2h18.843a2.434,2.434,0,0,1,2.431,2.431v9.422a2.434,2.434,0,0,1-2.431,2.431H97.75a1.1,1.1,0,0,0-.688.242l-4.1,3.279V17.589a1.1,1.1,0,0,0-1.1-1.1H84.8a2.434,2.434,0,0,1-2.431-2.431V4.635Z" transform="translate(-73.095 0)"/>
        <path id="Trazado_1004636" data-name="Trazado 1004636" d="M121.344,42.285h14.132a1.1,1.1,0,0,0,0-2.2H121.344a1.1,1.1,0,0,0,0,2.2Z" transform="translate(-107.287 -34.193)"/>
        <path id="Trazado_1004637" data-name="Trazado 1004637" d="M121.344,74.35h14.132a1.1,1.1,0,0,0,0-2.2H121.344a1.1,1.1,0,0,0,0,2.2Z" transform="translate(-107.287 -61.547)"/>
        <path id="Trazado_1004638" data-name="Trazado 1004638" d="M262.33,34.269h14.132a2.434,2.434,0,0,1,2.431,2.431v9.422a2.434,2.434,0,0,1-2.431,2.431h-8.244a1.1,1.1,0,0,0-1.1,1.1v2.418l-4.1-3.279a1.1,1.1,0,0,0-.688-.242h-4.711a1.1,1.1,0,1,0,0,2.2h4.324l5.587,4.469a1.1,1.1,0,0,0,1.79-.86V50.756h7.142a4.64,4.64,0,0,0,4.635-4.635V36.7a4.64,4.64,0,0,0-4.635-4.635H262.33a1.1,1.1,0,1,0,0,2.2Z" transform="translate(-223.542 -27.354)"/>
        <path id="Trazado_1004639" data-name="Trazado 1004639" d="M289.683,74.35H301.46a1.1,1.1,0,1,0,0-2.2H289.683a1.1,1.1,0,1,0,0,2.2Z" transform="translate(-250.895 -61.547)"/>
        <path id="Trazado_1004640" data-name="Trazado 1004640" d="M289.683,106.414H301.46a1.1,1.1,0,1,0,0-2.2H289.683a1.1,1.1,0,1,0,0,2.2Z" transform="translate(-250.895 -88.9)"/>
        <path id="Trazado_1004641" data-name="Trazado 1004641" d="M273.383,271.826h-.076v-9.5a5.819,5.819,0,0,0-5.813-5.813H255.718a5.819,5.819,0,0,0-5.813,5.813v1.178a1.1,1.1,0,1,0,2.2,0v-1.178a3.613,3.613,0,0,1,3.609-3.609H267.5a3.613,3.613,0,0,1,3.609,3.609v9.5H268.6v-8.32a1.1,1.1,0,1,0-2.2,0v8.32H255.559a5.783,5.783,0,0,0,1.261-3.609v-4.711a1.1,1.1,0,1,0-2.2,0v4.711a3.613,3.613,0,0,1-3.608,3.609H247.4v-2.507h3.609a1.1,1.1,0,1,0,0-2.2h-7.072a3.421,3.421,0,0,0-2.444,1.017,3.456,3.456,0,0,0-1.007,2.452v.059a3.391,3.391,0,0,0,3.387,3.387h3.679v2.431a2.282,2.282,0,0,0,2.28,2.28h.076v14.208a1.1,1.1,0,1,0,2.2,0V278.741H271.1v14.208a1.1,1.1,0,0,0,2.2,0V278.741h.076a2.282,2.282,0,0,0,2.28-2.28v-2.355A2.282,2.282,0,0,0,273.383,271.826Zm-28.189,0h-1.324a1.184,1.184,0,0,1-1.183-1.183v-.059a1.266,1.266,0,0,1,.367-.9,1.232,1.232,0,0,1,.881-.366h1.26v2.507Zm28.265,4.635a.076.076,0,0,1-.076.076H249.83a.076.076,0,0,1-.076-.076v-2.355a.076.076,0,0,1,.076-.076h23.554a.076.076,0,0,1,.076.076Z" transform="translate(-209.864 -218.83)"/>
        <path id="Trazado_1004642" data-name="Trazado 1004642" d="M96.345,424.854H91.634a3.457,3.457,0,0,0,0,6.915h4.711a3.457,3.457,0,0,0,0-6.915Zm0,4.711H91.634a1.253,1.253,0,1,1,0-2.507h4.711a1.253,1.253,0,1,1,0,2.507Z" transform="translate(-79.933 -362.437)"/>
        <path id="Trazado_1004643" data-name="Trazado 1004643" d="M352.862,424.854h-4.711a3.457,3.457,0,0,0,0,6.915h4.711a3.457,3.457,0,0,0,0-6.915Zm0,4.711h-4.711a1.253,1.253,0,0,1,0-2.507h4.711a1.253,1.253,0,1,1,0,2.507Z" transform="translate(-298.764 -362.437)"/>
      </g>
    </g>
  </g>
</svg>
