<svg xmlns="http://www.w3.org/2000/svg" width="396" height="179.826" viewBox="0 0 396 179.826">
  <g id="Grupo_1182368" data-name="Grupo 1182368" transform="translate(-1018 -8561.174)">
    <rect id="Rectángulo_456605" data-name="Rectángulo 456605" width="396" height="179.826" rx="10" transform="translate(1018 8561.174)" fill="#e8eddb"/>
    <g id="_138416851_22e40864-fb3b-45eb-abe8-ba6ed82f5b79" data-name="138416851_22e40864-fb3b-45eb-abe8-ba6ed82f5b79" transform="translate(797.928 8268.188)">
      <path id="die" d="M283.731,415.472a61.521,61.521,0,0,1,30.986-47.53c10.321-5.7,22.056-8.253,32.893-12.893,19.017-8.143,34.676-22.412,52.463-32.974s42.643-11.835,61.5-3.336c20.91,9.423,24.92,28.19,43.6,41.492,9.462,6.737,24.2,10.843,32.254,19.214,12.915,13.425,25,50.861,3.1,80.826-6.024,8.241-18.746,7.278-28.952,7.107L397.6,465.469l-56.773-.95c-8.826-.148-17.826-.825-26.636-.219-4.859.334-9.331,1.482-13.532-1.65C287.574,452.9,282.364,430.777,283.731,415.472Z" fill="#f0f5fd"/>
      <g id="leafs1" transform="translate(483.318 362.797)">
        <g id="Grupo_1182241" data-name="Grupo 1182241" transform="translate(22.049 28.556)">
          <path id="Trazado_1004415" data-name="Trazado 1004415" d="M4053.35,1665.626c1.781-1.8,4.678-4.706,8.338-8.23,5.557-5.35,8.583-8,12.448-10.531,4.66-3.051,9.44-6.181,12.695-4.363a5.444,5.444,0,0,1,2.664,4.956c-.427,4.352-7.7,6.116-16.923,10.534a104.909,104.909,0,0,0-18.011,11.019Q4053.956,1667.318,4053.35,1665.626Z" transform="translate(-4053.35 -1641.964)" fill="#4a7ee0"/>
          <path id="Trazado_1004416" data-name="Trazado 1004416" d="M4053.4,1743.5a.119.119,0,0,1,.036-.085c2.326-2.27,4.769-4.451,7.259-6.483,1.471-1.2,3.693-3.013,6.427-4.937a77.812,77.812,0,0,1,9.489-5.732c2.286-1.167,4.649-2.228,7.023-3.155a.119.119,0,0,1,.086.222c-2.366.923-4.722,1.982-7,3.145a85.809,85.809,0,0,0-15.874,10.641c-2.485,2.027-4.922,4.2-7.243,6.469a.119.119,0,0,1-.2-.085Z" transform="translate(-4053.397 -1718.323)" fill="#3f5ba7"/>
        </g>
        <g id="Grupo_1182242" data-name="Grupo 1182242" transform="translate(25.417 12.82)">
          <path id="Trazado_1004417" data-name="Trazado 1004417" d="M4110.59,1413.687c2.763-5.878,4.956-10.678,6.423-13.92,3.409-7.532,4.848-10.98,7.962-15.582,3.349-4.951,6.785-10.03,10.761-9.579a5.841,5.841,0,0,1,4.69,3.8c1.418,4.61-5.346,9.644-12.39,17.439a104.515,104.515,0,0,0-14.374,20.442Z" transform="translate(-4110.59 -1374.578)" fill="#4a7ee0"/>
          <path id="Trazado_1004418" data-name="Trazado 1004418" d="M4147.931,1501.449a.132.132,0,0,1,0-.1c1.363-3.211,2.877-6.382,4.5-9.425.959-1.8,2.408-4.513,4.318-7.55a83.416,83.416,0,0,1,7.02-9.6c1.779-2.1,3.679-4.132,5.646-6.032a.128.128,0,0,1,.178.184c-1.96,1.895-3.854,3.918-5.628,6.013a92.065,92.065,0,0,0-11.308,17.11c-1.621,3.036-3.131,6.2-4.491,9.4a.128.128,0,0,1-.168.068A.132.132,0,0,1,4147.931,1501.449Z" transform="translate(-4145.725 -1463.163)" fill="#3f5ba7"/>
        </g>
        <g id="Grupo_1182243" data-name="Grupo 1182243" transform="translate(0 0)">
          <path id="Trazado_1004419" data-name="Trazado 1004419" d="M3710,1173.256c.2,1.692-3.4,1.584-7.468,5.794a32.756,32.756,0,0,0-3.257,4.177c-1.751,2.484-2.647,3.757-2.334,4.2.783,1.116,7.658-5.013,9.895-2.94,1.779,1.649.039,7.945-2.575,11.785a11.837,11.837,0,0,1-5.891,4.86,10.707,10.707,0,0,1-4,.645c-.1,0-.21-.008-.319-.016a10.869,10.869,0,0,1-1.89-.285,12.2,12.2,0,0,1-3.351-1.376,17.221,17.221,0,0,1-4.149-3.563c-3.426-3.888-5.957-9.986-4.569-11.384.781-.787,2.667.056,4.567,1.1.469.258.939.528,1.393.79.745.429,1.449.834,2.04,1.121.164.08.32.15.465.209.576.236.991.3,1.146.054.111-.173.274-.786-2.8-4.778q-.582-.755-1.122-1.419-.394-.486-.766-.928c-3.931-4.682-6.039-5.957-6.3-8.492a5.632,5.632,0,0,1,1.382-4.272,3.6,3.6,0,0,1,.268-.256,2.6,2.6,0,0,1,1.164-.6c1.891-.387,4.556,1.8,7.173,5.864a44.586,44.586,0,0,1,3.337,6.352,29.14,29.14,0,0,0-1.17-11.01,35.131,35.131,0,0,1-1.427-5.506c-.5-2.991-.885-5.3.2-6.241,1.323-1.144,4.268.212,6.037,1.854,3.265,3.033,3.4,7.865,3.412,8.489.1,6.475-4.936,10.668-4.422,11.19.283.287,1.8-.992,2.739-1.911,2.674-2.618,2.764-4.392,5.087-5.66a5.014,5.014,0,0,1,2.727-.743C3707.276,1170.441,3709.839,1171.874,3710,1173.256Z" transform="translate(-3678.68 -1156.721)" fill="#feaf40"/>
          <path id="Trazado_1004420" data-name="Trazado 1004420" d="M3913.281,1231.05a53.688,53.688,0,0,1,1.35,11.56,52.685,52.685,0,0,1-.32,5.891c-.046.473-.093.962-.135,1.458a66.423,66.423,0,0,0-.1,9.251c.066,1.339.154,2.7.246,4.113.063.977.128,1.986.189,3.027s.125,2.056.2,3.084q.027.4.058.806c0,.066.009.132.014.2q.043.578.088,1.154c-.1,0-.21-.008-.319-.016q-.045-.564-.087-1.132-.034-.44-.064-.882c-.02-.269-.038-.539-.056-.808q-.082-1.214-.152-2.427c-.061-1.04-.126-2.048-.189-3.024-.115-1.777-.225-3.461-.292-5.133a64.185,64.185,0,0,1,.145-8.288c.043-.5.09-.988.136-1.462a52.6,52.6,0,0,0,.318-5.853,53.35,53.35,0,0,0-1.339-11.473.152.152,0,0,1,.115-.2A.187.187,0,0,1,3913.281,1231.05Z" transform="translate(-3899.179 -1226.53)" fill="#5371b7"/>
        </g>
      </g>
      <g id="decor" transform="translate(286.737 337.434)">
        <g id="Grupo_1182258" data-name="Grupo 1182258" transform="translate(0 0)">
          <path id="Trazado_1004421" data-name="Trazado 1004421" d="M3279.13,725.733a2.826,2.826,0,0,1,1.224.285c.513.206.819.313,1.111.113l.521.763a1.951,1.951,0,0,1-1.976-.019c-.513-.206-.818-.312-1.111-.113s-.305.523-.3,1.076a1.73,1.73,0,0,1-2.681,1.827c-.513-.206-.818-.312-1.111-.113s-.306.523-.3,1.076a1.731,1.731,0,0,1-2.682,1.827c-.513-.206-.817-.313-1.112-.113l-.52-.763a1.952,1.952,0,0,1,1.977.019c.514.207.819.312,1.112.113s.306-.523.3-1.076a1.73,1.73,0,0,1,2.681-1.827c.513.206.818.313,1.111.113s.306-.523.3-1.076a1.951,1.951,0,0,1,.705-1.846A1.476,1.476,0,0,1,3279.13,725.733Z" transform="translate(-3097.648 -725.73)" fill="#5d8ff0"/>
          <g id="Grupo_1182246" data-name="Grupo 1182246" transform="translate(113.015 47.81)">
            <g id="Grupo_1182244" data-name="Grupo 1182244" transform="translate(0 1.1)">
              <path id="Trazado_1004422" data-name="Trazado 1004422" d="M2264.668,1558.109l-5.073,2.792a.575.575,0,0,1-.781-.227l-.1-.18a.575.575,0,0,1,.227-.781l5.073-2.792a.575.575,0,0,1,.781.227l.1.18A.575.575,0,0,1,2264.668,1558.109Z" transform="translate(-2258.643 -1556.85)" fill="#5d8ff0"/>
            </g>
            <g id="Grupo_1182245" data-name="Grupo 1182245" transform="translate(1.1)">
              <path id="Trazado_1004423" data-name="Trazado 1004423" d="M2278.6,1538.457l2.792,5.073a.575.575,0,0,1-.226.781l-.18.1a.575.575,0,0,1-.781-.227l-2.792-5.073a.575.575,0,0,1,.227-.781l.18-.1A.574.574,0,0,1,2278.6,1538.457Z" transform="translate(-2277.341 -1538.159)" fill="#5d8ff0"/>
            </g>
          </g>
          <g id="Grupo_1182250" data-name="Grupo 1182250" transform="translate(252.745 90.137)">
            <g id="Grupo_1182249" data-name="Grupo 1182249">
              <g id="Grupo_1182247" data-name="Grupo 1182247" transform="translate(0 2.778)">
                <path id="Trazado_1004424" data-name="Trazado 1004424" d="M4639.435,2305.973l-5.791.031a.575.575,0,0,1-.579-.572v-.206a.574.574,0,0,1,.571-.578l5.792-.031a.575.575,0,0,1,.578.572v.205A.575.575,0,0,1,4639.435,2305.973Z" transform="translate(-4633.065 -2304.618)" fill="#5d8ff0"/>
              </g>
              <g id="Grupo_1182248" data-name="Grupo 1182248" transform="translate(2.778)">
                <path id="Trazado_1004425" data-name="Trazado 1004425" d="M4681.624,2257.985l.031,5.791a.576.576,0,0,1-.572.578h-.206a.574.574,0,0,1-.578-.572l-.031-5.791a.575.575,0,0,1,.572-.578h.206A.574.574,0,0,1,4681.624,2257.985Z" transform="translate(-4680.268 -2257.413)" fill="#5d8ff0"/>
              </g>
            </g>
          </g>
          <g id="Grupo_1182252" data-name="Grupo 1182252" transform="translate(125.855 77.027)">
            <g id="Grupo_1182251" data-name="Grupo 1182251">
              <path id="Trazado_1004426" data-name="Trazado 1004426" d="M2480.774,2041.568a.588.588,0,0,1-.241-.206l-3.594-5.38a.586.586,0,0,1,.449-.91l6.456-.423a.586.586,0,0,1,.564.844l-2.862,5.8a.586.586,0,0,1-.771.272Zm-2.3-5.393,2.467,3.692,1.964-3.982Z" transform="translate(-2476.84 -2034.648)" fill="#fec26d"/>
            </g>
          </g>
          <g id="Grupo_1182254" data-name="Grupo 1182254" transform="translate(142.314 37.386)">
            <g id="Grupo_1182253" data-name="Grupo 1182253">
              <path id="Trazado_1004427" data-name="Trazado 1004427" d="M2762.987,1368.656a.588.588,0,0,1-.312-.057l-5.813-2.839a.586.586,0,0,1-.07-1.012l5.366-3.615a.586.586,0,0,1,.912.445l.448,6.454a.587.587,0,0,1-.257.527A.594.594,0,0,1,2762.987,1368.656Zm-4.7-3.5,3.99,1.949-.307-4.429Z" transform="translate(-2756.533 -1361.033)" fill="#fec26d"/>
            </g>
          </g>
          <g id="Grupo_1182256" data-name="Grupo 1182256" transform="translate(99.265 0.073)">
            <g id="Grupo_1182255" data-name="Grupo 1182255">
              <path id="Trazado_1004428" data-name="Trazado 1004428" d="M2025.054,734.248a.586.586,0,0,1-.055-.313l.649-6.437a.586.586,0,0,1,.925-.417l5.25,3.781a.586.586,0,0,1-.1,1.01l-5.9,2.656a.586.586,0,0,1-.769-.281Zm1.659-5.623-.446,4.418,4.049-1.823Z" transform="translate(-2024.996 -726.971)" fill="#fec26d"/>
            </g>
          </g>
          <g id="Grupo_1182257" data-name="Grupo 1182257" transform="translate(0 89.112)">
            <path id="Trazado_1004429" data-name="Trazado 1004429" d="M348.265,2244.48a2.827,2.827,0,0,1,.407,1.19c.1.545.168.86.493,1l-.372.846a1.951,1.951,0,0,1-1.031-1.686c-.1-.545-.168-.859-.493-1s-.605.018-1.072.314a1.73,1.73,0,0,1-2.97-1.305c-.1-.544-.169-.859-.493-1s-.606.017-1.072.314a1.731,1.731,0,0,1-2.971-1.306c-.1-.544-.168-.859-.494-1l.372-.846a1.953,1.953,0,0,1,1.032,1.687c.1.545.169.86.493,1s.606-.018,1.072-.314a1.73,1.73,0,0,1,2.97,1.305c.1.545.168.86.493,1s.605-.018,1.072-.314a1.949,1.949,0,0,1,1.939-.38A1.472,1.472,0,0,1,348.265,2244.48Z" transform="translate(-338.199 -2239.997)" fill="#fec848"/>
          </g>
        </g>
      </g>
      <g id="leaf2" transform="translate(297.703 366.14)">
        <g id="Grupo_1182259" data-name="Grupo 1182259" transform="translate(31.74 4.655)">
          <path id="Trazado_1004430" data-name="Trazado 1004430" d="M1077.8,1341.925c-1.276-2.79-3.318-7.316-5.734-12.973-3.669-8.588-5.368-13.151-6.573-18.613-1.452-6.585-2.941-13.34.514-16.244a6.591,6.591,0,0,1,6.755-.887c4.742,2.352,3.616,11.338,4.655,23.679a127.03,127.03,0,0,0,4.736,25.119Z" transform="translate(-1063.897 -1292.644)" fill="#feaf40"/>
          <path id="Trazado_1004431" data-name="Trazado 1004431" d="M1167.9,1451.351a.144.144,0,0,1-.081-.077c-1.57-3.608-2.99-7.309-4.22-11-.726-2.18-1.824-5.475-2.827-9.4a94.148,94.148,0,0,1-2.412-13.2c-.339-3.089-.525-6.219-.554-9.3a.144.144,0,1,1,.288,0c.029,3.075.215,6.2.552,9.275a103.888,103.888,0,0,0,5.226,22.537c1.227,3.683,2.644,7.377,4.211,10.977a.144.144,0,0,1-.183.192Z" transform="translate(-1152.279 -1401.424)" fill="#0e1d45"/>
        </g>
        <g id="Grupo_1182260" data-name="Grupo 1182260" transform="translate(15.727 0)">
          <path id="Trazado_1004432" data-name="Trazado 1004432" d="M816.35,1267.254c-4.166-6.669-7.611-12.05-9.946-15.67-5.426-8.411-7.989-12.138-10.628-18.325-2.839-6.657-5.751-13.485-2.683-17.233a7.072,7.072,0,0,1,6.947-2.277c5.621,1.582,6.3,11.768,9.611,24.049a126.544,126.544,0,0,0,11.365,28.038Z" transform="translate(-791.783 -1213.541)" fill="#4a7ee0"/>
          <path id="Trazado_1004433" data-name="Trazado 1004433" d="M912.859,1383.12a.154.154,0,0,1-.1-.065c-2.372-3.494-4.6-7.115-6.635-10.764-1.2-2.155-3.011-5.412-4.847-9.347a101.047,101.047,0,0,1-5.165-13.445c-.971-3.191-1.789-6.455-2.432-9.7a.155.155,0,1,1,.3-.06c.641,3.237,1.457,6.492,2.424,9.672a111.475,111.475,0,0,0,9.987,22.732c2.026,3.641,4.253,7.255,6.62,10.741a.155.155,0,0,1-.041.215A.153.153,0,0,1,912.859,1383.12Z" transform="translate(-887.68 -1332.193)" fill="#0e1d45"/>
        </g>
        <g id="Grupo_1182261" data-name="Grupo 1182261" transform="translate(0 9.137)">
          <path id="Trazado_1004434" data-name="Trazado 1004434" d="M561.15,1411.671c-2.665-1.933-6.962-5.084-12.207-9.094-7.962-6.087-11.959-9.453-15.969-13.921-4.833-5.386-9.791-10.911-8.1-15.448a7.073,7.073,0,0,1,5.843-4.395c5.673-.306,9.365,8.684,16.851,19.667a136.325,136.325,0,0,0,17.687,20.969Z" transform="translate(-524.539 -1368.805)" fill="#feaf40"/>
          <path id="Trazado_1004435" data-name="Trazado 1004435" d="M665.578,1531.388a.154.154,0,0,1-.117-.029c-3.372-2.542-6.652-5.251-9.751-8.051-1.83-1.653-4.595-4.152-7.6-7.286a101.05,101.05,0,0,1-9.224-11.062c-1.947-2.707-3.774-5.533-5.43-8.4a.155.155,0,0,1,.268-.155c1.65,2.858,3.472,5.676,5.413,8.375a111.481,111.481,0,0,0,16.782,18.3c3.091,2.794,6.365,5.5,9.729,8.033a.155.155,0,0,1,.03.217A.153.153,0,0,1,665.578,1531.388Z" transform="translate(-627.026 -1488.823)" fill="#0e1d45"/>
        </g>
      </g>
      <ellipse id="shadow_2_" cx="123.405" cy="6.825" rx="123.405" ry="6.825" transform="translate(294.529 459.094)" fill="#bddbff"/>
      <g id="man_and_woman" transform="translate(293.452 326.863)">
        <g id="laptop" transform="translate(0 76.371)">
          <path id="Trazado_1004436" data-name="Trazado 1004436" d="M556.171,1902.118H466.089L452.3,1843.87h90.082Z" transform="translate(-452.305 -1843.87)" fill="#85afff"/>
          <path id="Trazado_1004437" data-name="Trazado 1004437" d="M604.3,1944.23H519.307l-12.455-52.63h84.991l6.2,26.211h0l.4,1.705.61,2.578h0l2.116,8.938.263,1.109h0l.26,1.1h0l1.035,4.374v0Z" transform="translate(-503.642 -1888.791)" fill="#f2f6ff"/>
          <rect id="Rectángulo_456737" data-name="Rectángulo 456737" width="108.023" height="4.438" transform="translate(13.784 58.248)" fill="#598ae6"/>
          <ellipse id="Elipse_15045" data-name="Elipse 15045" cx="0.836" cy="1.028" rx="0.836" ry="1.028" transform="matrix(0.67, -0.743, 0.743, 0.67, 46.662, 1.335)" fill="#fff"/>
          <rect id="Rectángulo_456738" data-name="Rectángulo 456738" width="7.219" height="1.255" transform="translate(20.257 59.839)" fill="#fff"/>
          <g id="Grupo_1182270" data-name="Grupo 1182270" transform="translate(11.36 12.023)">
            <path id="Trazado_1004438" data-name="Trazado 1004438" d="M727.933,2079.748H652.7l-7.36-31.568h75.232Z" transform="translate(-645.341 -2048.18)" fill="#85afff"/>
            <g id="Grupo_1182262" data-name="Grupo 1182262" transform="translate(54.998 5.475)">
              <path id="Trazado_1004439" data-name="Trazado 1004439" d="M1580.193,2151.53c1.327,5.693,7.018,10.308,12.712,10.308a9.544,9.544,0,0,0,2.271-.266c4.324-1.057,6.774-5.152,5.634-10.043-1.328-5.694-7.018-10.309-12.712-10.309a8.714,8.714,0,0,0-4.448,1.139,7.6,7.6,0,0,0-3.716,6.218A10.06,10.06,0,0,0,1580.193,2151.53Z" transform="translate(-1579.914 -2141.221)" fill="#8891fc"/>
              <path id="Trazado_1004440" data-name="Trazado 1004440" d="M1580.25,2166.8c3.652,1.059,10.568,2.95,10.568,2.95l-6.851-9.169A7.6,7.6,0,0,0,1580.25,2166.8Z" transform="translate(-1580.23 -2159.442)" fill="#fff"/>
              <path id="Trazado_1004441" data-name="Trazado 1004441" d="M1580.193,2269.2c1.327,5.694,7.018,10.308,12.712,10.308a9.532,9.532,0,0,0,2.271-.265L1590.5,2269.2l-10.568-2.951A10.059,10.059,0,0,0,1580.193,2269.2Z" transform="translate(-1579.914 -2258.892)" fill="#fff"/>
            </g>
            <g id="Grupo_1182268" data-name="Grupo 1182268" transform="translate(31.087 5.565)">
              <g id="Grupo_1182263" data-name="Grupo 1182263" transform="translate(11.66 10.887)">
                <path id="Trazado_1004442" data-name="Trazado 1004442" d="M1376.126,2336.753a9.281,9.281,0,0,1-3.9.521l-.479-2.977a6.563,6.563,0,0,0,2.761-.369,5.473,5.473,0,0,0,3.432-6.177l3.037.278C1381.534,2332.033,1379.631,2335.458,1376.126,2336.753Z" transform="translate(-1371.744 -2327.75)" fill="#fff"/>
              </g>
              <g id="Grupo_1182265" data-name="Grupo 1182265" transform="translate(8.516 0.008)">
                <g id="Grupo_1182264" data-name="Grupo 1182264">
                  <path id="Trazado_1004443" data-name="Trazado 1004443" d="M1330.685,2154.042l-3.037-.278a8.345,8.345,0,0,0-1.056-3,9.771,9.771,0,0,0-7.7-4.9l-.578-2.983a12.519,12.519,0,0,1,6.107,1.976,14.2,14.2,0,0,1,4.777,4.944A11.793,11.793,0,0,1,1330.685,2154.042Z" transform="translate(-1318.31 -2142.884)" fill="#faaa33"/>
                </g>
              </g>
              <g id="Grupo_1182266" data-name="Grupo 1182266" transform="translate(0.317)">
                <path id="Trazado_1004444" data-name="Trazado 1004444" d="M1181.974,2149.665,1179,2148.3a7.329,7.329,0,0,1,4.632-5.012,9.2,9.2,0,0,1,3.567-.539l.578,2.983a6.506,6.506,0,0,0-2.524.382A5.186,5.186,0,0,0,1181.974,2149.665Z" transform="translate(-1179 -2142.745)" fill="#fff"/>
              </g>
              <g id="Grupo_1182267" data-name="Grupo 1182267" transform="translate(0 5.559)">
                <path id="Trazado_1004445" data-name="Trazado 1004445" d="M1185.745,2252.059a13.76,13.76,0,0,1-10.548-6.9,10.408,10.408,0,0,1-1.274-7.951l2.974,1.361a7.366,7.366,0,0,0,.9,5.628,9.741,9.741,0,0,0,7.467,4.885Z" transform="translate(-1173.605 -2237.207)" fill="#faaa33"/>
              </g>
            </g>
            <g id="Grupo_1182269" data-name="Grupo 1182269" transform="translate(6.994 5.475)">
              <path id="Trazado_1004446" data-name="Trazado 1004446" d="M776.18,2141.892a9.98,9.98,0,0,0-7.967.308,7.349,7.349,0,0,0-3.583,4.21,8.377,8.377,0,0,0-.347,1.461c-.552,3.766,1.322,7.846,4.519,10.627a14,14,0,0,0,4.558,2.665,10.114,10.114,0,0,0,7.627-.139,7.456,7.456,0,0,0,4.27-5.839,9.413,9.413,0,0,0,.044-2.329C784.828,2148.228,781.137,2143.62,776.18,2141.892Zm4.27,11.616a4.039,4.039,0,0,1-2.486,3.239,5.545,5.545,0,0,1-3.958,0,7.541,7.541,0,0,1-2.242-1.253,6.73,6.73,0,0,1-2.674-5.946,4.447,4.447,0,0,1,.092-.463,4.018,4.018,0,0,1,2.546-2.836,5.6,5.6,0,0,1,3.806.061,7.423,7.423,0,0,1,4.954,6.1A5.023,5.023,0,0,1,780.45,2153.508Z" transform="translate(-764.187 -2141.219)" fill="#fff"/>
              <path id="Trazado_1004447" data-name="Trazado 1004447" d="M849.693,2152.862l-4.813-.449h0a7.423,7.423,0,0,0-4.954-6.1,5.6,5.6,0,0,0-3.806-.061l-3.515-4.048a9.981,9.981,0,0,1,7.967-.308C845.529,2143.626,849.22,2148.233,849.693,2152.862Z" transform="translate(-828.579 -2141.224)" fill="#faaa33"/>
              <path id="Trazado_1004448" data-name="Trazado 1004448" d="M854.788,2389.3a10.108,10.108,0,0,1-7.627.139,13.992,13.992,0,0,1-4.558-2.665l2.963-3a7.534,7.534,0,0,0,2.242,1.253,5.546,5.546,0,0,0,3.959,0Z" transform="translate(-837.987 -2369.495)" fill="#fff"/>
              <path id="Trazado_1004449" data-name="Trazado 1004449" d="M1005.635,2331.791a9.418,9.418,0,0,1-.044,2.329,7.456,7.456,0,0,1-4.27,5.839l-3.023-4.277a4.039,4.039,0,0,0,2.486-3.239,5.042,5.042,0,0,0,.038-1.1Z" transform="translate(-984.521 -2320.154)" fill="#fff"/>
            </g>
          </g>
        </g>
        <g id="man" transform="translate(63.908 27.463)">
          <g id="Grupo_1182271" data-name="Grupo 1182271" transform="translate(55.604 76.612)">
            <path id="Trazado_1004450" data-name="Trazado 1004450" d="M2486.7,2314.65a33.707,33.707,0,0,0-2.833,1.886c-.059.177-.708,4.425-.708,4.425l1.239,1.416,1.757,1.85,5.329-8.045Z" transform="translate(-2483.163 -2314.65)" fill="#ffb09e"/>
          </g>
          <g id="man_1_">
            <g id="Grupo_1182272" data-name="Grupo 1182272" transform="translate(29.163 64.714)">
              <path id="Trazado_1004451" data-name="Trazado 1004451" d="M2041.443,2152.092h-2.715a1.47,1.47,0,0,0-.42-.736,2.938,2.938,0,0,0-2.291-.322l-.083.032c-.861.347-1.379-.316-1.68-1.372a13.516,13.516,0,0,1-.388-3.17c0-.189-.007-.371-.007-.548a16.71,16.71,0,0,1,.118-2.364c.015-.048.142-.789.343-2.011.016-.105.035-.214.054-.326q.057-.352.122-.748c.376-2.3.915-5.64,1.491-9.227.018-.105.035-.211.052-.316l.165-1.028h0c.13-.811.261-1.629.391-2.445.033-.209.068-.416.1-.623.145-.9.288-1.791.428-2.665l.137-.859c.112-.7.221-1.377.327-2.039.017-.105.034-.209.05-.313.592-3.684,1.075-6.708,1.273-7.948,0,0,0,0,0,0,.063-.393.1-.6.1-.6s0,.02,0,.056l.112,8.814s0,.286.005.375c0,.009,0,.017,0,.026v.017l.007.5,0,.358.013,1,.005.457,0,.242.022,1.7.026,1.969v.181l.164,4.221.064,1.659,0,.105.011.28.012.332.082,2.146.011.288.007.194s.019.483.019.483l.294,7.622v0S2041.441,2152.064,2041.443,2152.092Z" transform="translate(-2033.858 -2112.458)" fill="#4256ba"/>
            </g>
            <g id="Grupo_1182273" data-name="Grupo 1182273" transform="translate(4.795 91.84)">
              <path id="Trazado_1004452" data-name="Trazado 1004452" d="M1649.008,2585.915h-29.226a33.583,33.583,0,0,1,.344-5.691c.04-.284.085-.567.134-.849a0,0,0,0,1,0,0q.11-.65.244-1.295c.014-.07.029-.14.044-.21h0c0-.009,0-.018.006-.027q.842-.5,1.7-.966a6.073,6.073,0,0,0,3.463,1.139,17.817,17.817,0,0,0,5.7-.952l.323-.1.055-.017.43-.134c1.95-.616,3.869-1.349,5.811-1.991,2.861-.944,5.078-1.087,6.739-.47a4.81,4.81,0,0,1,1.736,1.106c1.372,1.356.932-4.217,1.134-1.072.026.4.207,1.335.43,2.6h0c.035.2.072.416.11.636.03.176.06.358.091.543.017.1.034.2.051.31h0a48.429,48.429,0,0,1,.677,6.932c0,.038,0,.075,0,.112C1649.006,2585.652,1649.008,2585.784,1649.008,2585.915Z" transform="translate(-1619.771 -2573.408)" fill="#242f67"/>
            </g>
            <g id="Grupo_1182275" data-name="Grupo 1182275" transform="translate(2.56 98.054)">
              <g id="Grupo_1182274" data-name="Grupo 1182274">
                <path id="Trazado_1004453" data-name="Trazado 1004453" d="M1589.109,2684.5c-.6-1.4-.915-4.325-2.368-5.179a1.772,1.772,0,0,0-1.727-.146l-.039.018a2.276,2.276,0,0,0-.379.238c-.074.057-.146.118-.216.184-1.114,1.043-1.812,3.18-2.162,4.244q-.221.67-.4,1.34l-.028.107h7.668C1589.337,2685.031,1589.222,2684.761,1589.109,2684.5Z" transform="translate(-1581.79 -2679.011)" fill="#26316b"/>
              </g>
            </g>
            <g id="Grupo_1182277" data-name="Grupo 1182277" transform="translate(6.352)">
              <g id="Grupo_1182276" data-name="Grupo 1182276">
                <path id="Trazado_1004454" data-name="Trazado 1004454" d="M1675.576,1024.612a1.377,1.377,0,0,0-.784-1.2,1.786,1.786,0,0,0-.566-2.757,1.146,1.146,0,0,0,.072-.5.86.86,0,0,0-.991-.83c-.087-1.41-1.3-3.167-2.754-2.779a1.579,1.579,0,0,0-.478-.94,1.141,1.141,0,0,0-1.454-.055,3.311,3.311,0,0,0-.463-.928,2.156,2.156,0,0,0-3.088-.633,1.387,1.387,0,0,0-.84-1.058,1.571,1.571,0,0,0-1.739.5.949.949,0,0,0-.43-.258,1.605,1.605,0,0,0-1.486.38,2.4,2.4,0,0,0-1.231-.716,2.712,2.712,0,0,0-2.848,1.188c-.973-.253-2.349.161-2.571,1.237a3.874,3.874,0,0,0-1.035.093,2.707,2.707,0,0,0-2.031,2.3,2.382,2.382,0,0,0-1.026.548,1.551,1.551,0,0,0-.458,1.125,2.568,2.568,0,0,0-1.608.648,2.5,2.5,0,0,0-.208,3.147,1.3,1.3,0,0,0-.548.4,1.156,1.156,0,0,0,.2,1.583,1.845,1.845,0,0,0-.571.465,1.929,1.929,0,0,0-.316,1.815,2.511,2.511,0,0,0,.776,1.013,1.255,1.255,0,0,0-.346.7.927.927,0,0,0,.63,1.055,2.613,2.613,0,0,0-.154,1.055,5,5,0,0,1,1.568,3.241,1.3,1.3,0,0,0,.66.343,2.392,2.392,0,0,0,.516,2.474,3.378,3.378,0,0,0,2.631.935,1.161,1.161,0,0,0,.06.142,1.2,1.2,0,0,0,1.132.721,3.138,3.138,0,0,0,.56,1,2.129,2.129,0,0,0,.384.351,2,2,0,0,0,.864.363,1.274,1.274,0,0,0,.8-.128,1.253,1.253,0,0,0,.38-.3,1.155,1.155,0,0,0,.086-.117h0a1.714,1.714,0,0,0,.233-.972,3.946,3.946,0,0,0,2.556-1h0a7.357,7.357,0,0,0,.633-.566c.649-.651,1.216-1.388,1.9-2.007.1-.088.2-.177.307-.261a12.792,12.792,0,0,1,2.44-1.432,19.463,19.463,0,0,1,5.528-2.2c.207-.032.415-.069.613-.118a2.068,2.068,0,0,0,.863-.4,2.645,2.645,0,0,0,.7.247h0a2.161,2.161,0,0,0,.537.045h0a1.765,1.765,0,0,0,.248-.029,1.212,1.212,0,0,0,.743-.443,3.154,3.154,0,0,0,.418-2.6,2.211,2.211,0,0,0,.259-.2,2.354,2.354,0,0,0,.374-2.969A.952.952,0,0,0,1675.576,1024.612Z" transform="translate(-1646.221 -1012.784)" fill="#3e395c"/>
              </g>
            </g>
            <g id="Grupo_1182278" data-name="Grupo 1182278" transform="translate(27.214 46.835)">
              <path id="Trazado_1004455" data-name="Trazado 1004455" d="M2032.684,1838.381a18.747,18.747,0,0,0-2.458,7.563s-3.748-1.08-8.4-2.57l-.271-.085c-1.127-.361-2.3-.745-3.49-1.143l-.86-.289c-1.247-.423-2.493-.859-3.694-1.294l-.267-.1c-2.295-.838-4.409-1.68-6.015-2.446q-.27-.129-.52-.255l-.035-.018c-.021-.009-.041-.02-.062-.03l-.07-.035c-.335-.172-.641-.34-.913-.5l-.242-.148a4.412,4.412,0,0,1-.983-.781c-.035-.042-.066-.083-.093-.123a11.915,11.915,0,0,1-1.047-3.562c-.023-.12-.046-.242-.069-.365-.25-1.364-.488-2.976-.71-4.707-.068-.519-.132-1.047-.2-1.583-.018-.149-.035-.3-.053-.451-.136-1.167-.265-2.364-.386-3.554-.012-.115-.023-.231-.035-.345-.107-1.075-.209-2.142-.3-3.174-.011-.13-.024-.26-.035-.389-.1-1.07-.185-2.1-.263-3.059-.026-.3-.05-.589-.071-.874-.023-.266-.043-.523-.064-.773a.161.161,0,0,0,0-.025c-.036-.455-.068-.884-.1-1.284,0-.066-.009-.131-.014-.194s-.007-.1-.01-.145c-.008-.1-.015-.2-.022-.3-.125-1.661-.192-2.688-.192-2.688s.3.691.785,1.8l.13.293c.211.477.451,1.019.715,1.605l.188.421.229.506s0,0,0,.007l.108.24c.163.362.332.735.507,1.115.757,1.658,1.594,3.456,2.4,5.1l.139.287a29.887,29.887,0,0,0,3.036,5.347,12.4,12.4,0,0,0,1.063.933c.348.281.759.594,1.225.935.072.052.146.106.221.161.568.409,1.213.856,1.923,1.327l.009.006q.829.549,1.773,1.139l.014.009c1.033.644,2.163,1.315,3.372,1.992.078.045.158.09.237.134l.356.2c2.214,1.22,4.667,2.448,7.254,3.557l.257.11C2029.375,1837.021,2031.347,1837.836,2032.684,1838.381Z" transform="translate(-2000.738 -1808.652)" fill="#4256ba"/>
            </g>
            <g id="Grupo_1182279" data-name="Grupo 1182279" transform="translate(0 30.997)">
              <path id="Trazado_1004456" data-name="Trazado 1004456" d="M1572.716,1582.106c0,.069,0,.138,0,.207v.018q0,.335,0,.676c0,.117,0,.233,0,.351,0,.355-.007.716-.011,1.082,0,.159-.006.317-.008.477,0,.042,0,.085,0,.127q-.013.812-.032,1.652c-.053,2.391-.148,4.938-.3,7.492-.005.117-.014.234-.021.35-.108,1.727-.244,3.454-.415,5.136-.011.109-.022.218-.033.326-.02.205-.042.409-.065.613-.125,1.139-.266,2.253-.427,3.327h0q-.094.626-.195,1.233c-.018.111-.038.222-.057.331a35.06,35.06,0,0,1-1.611,6.34q-.207.542-.431,1.025H1538.29l.776-3s.336-1.508.336-1.508,1.456-6.529,1.456-6.529l.066-.3,1.391-6.241.122-.544.089-.4h0l.028-.127.039-.175.322-1.442.068-.3,1.392-6.247,1.9-.861-.015-.638-.009-.357-.115-4.893-.012-.55-.105-4.471-.007-.354-.222-9.4v-.014l-.008-.359,0-.127-.089-3.78-.119-5.047-.009-.37-.1-4.448-.011-.462-.086-3.63-.008-.363-.048-2.033,0,0,0,0,4.82-3.921.276-.225.243-.2.011-.009,0,0a.018.018,0,0,0,.007-.006.005.005,0,0,0,0,0s0,0,0,.006l.4.412.179.184.3.309.334.345.39.4.191.2,5.859,6.033.19.2,5.867,6.043.19.2.121.124,2.545,2.621h0l0,0,1.907,1.964a.034.034,0,0,1,0,.008s0,0,0,0c.012.052.2.848.2.848l.1.415.225.962.044.184h0v0l.033.142.548,2.33s.36,1.532.762,3.243l.335,1.428.747,3.182.079.336.021.083.1.43.081.347a.013.013,0,0,1,0,.011l.054.228.116.495s0,.019,0,.056C1572.62,1573.775,1572.737,1577.284,1572.716,1582.106Z" transform="translate(-1538.29 -1539.52)" fill="#4256ba"/>
            </g>
            <g id="Grupo_1182280" data-name="Grupo 1182280" transform="translate(19.285 35.364)">
              <path id="Trazado_1004457" data-name="Trazado 1004457" d="M1881.028,1641.832c0,.117,0,.233,0,.351,0,.263,0,.53-.006.8v.088q-.061-.493-.126-.985c-.017-.131-.034-.261-.052-.392l-.055-.391c-.017-.122-.034-.245-.052-.365a44.928,44.928,0,0,0-1.971-8.524q-.268-.753-.572-1.477c-.017-.041-.034-.081-.052-.122l-.068-.159q-.274-.628-.581-1.237c-.09-.179-.181-.356-.277-.53a20.2,20.2,0,0,0-1.555-2.461,18.734,18.734,0,0,0-1.293-1.566l-1.262-1.313-.188-.2-5.842-6.075-.19-.2-.893-.928,2.078-1.68.274-.222.184-.149.469-.38h3.769l1.6,1.507a9.963,9.963,0,0,1,2.612,3.5c.045.084.089.17.134.259l.1.211c.077.159.156.322.233.493a35.809,35.809,0,0,1,2.55,8.736c.021.114.041.228.059.343.121.707.232,1.448.333,2.227.016.128.032.256.048.385.02.15.038.3.055.458,0,0,0,0,0,.007a83.918,83.918,0,0,1,.524,8.74c0,.141,0,.281,0,.424C1881.028,1641.285,1881.028,1641.557,1881.028,1641.832Z" transform="translate(-1865.993 -1613.72)" fill="#4256ba"/>
            </g>
            <g id="Grupo_1182281" data-name="Grupo 1182281" transform="translate(23.92 31.047)">
              <path id="Trazado_1004458" data-name="Trazado 1004458" d="M1944.943,1540.36s2.693,2.615,3.395,4.67c.469,1.375.612,3.849.109,4.855,0,0-.729-1.254-2.014-4.1l-.816-.3-.863-4.541Z" transform="translate(-1944.753 -1540.36)" fill="#dce6f0"/>
            </g>
            <g id="Grupo_1182282" data-name="Grupo 1182282" transform="translate(22.785 35.832)">
              <path id="Trazado_1004459" data-name="Trazado 1004459" d="M1930.279,1624.945l.122,1.115s4.195,8.871,5.013,17.062-9.949-21.455-9.949-21.455l2.517.534A4.4,4.4,0,0,1,1930.279,1624.945Z" transform="translate(-1925.465 -1621.667)" fill="#feaf40"/>
            </g>
            <g id="Grupo_1182283" data-name="Grupo 1182283" transform="translate(13.002 103.865)">
              <path id="Trazado_1004460" data-name="Trazado 1004460" d="M1763.662,2778.232h-4.432l4.38-.482S1763.631,2777.925,1763.662,2778.232Z" transform="translate(-1759.23 -2777.75)" fill="#ffb09e"/>
            </g>
            <g id="Grupo_1182284" data-name="Grupo 1182284" transform="translate(1.603 31.003)">
              <path id="Trazado_1004461" data-name="Trazado 1004461" d="M1581.83,1612.963h-11.367c-.151-1.127-.335-2.518-.543-4.124a.022.022,0,0,0,0-.007q-.123-.943-.255-1.984-.106-.833-.218-1.723-.054-.429-.109-.871c-.016-.132-.034-.265-.051-.4-.112-.9-.228-1.844-.347-2.816-.024-.192-.047-.386-.072-.582-.23-1.906-.471-3.925-.711-6.021h0c-.086-.733-.17-1.477-.256-2.227-.014-.128-.028-.256-.044-.385q-.12-1.063-.238-2.145-.146-1.309-.286-2.644c-.019-.181-.039-.363-.059-.545-.188-1.785-.374-3.6-.553-5.411-.013-.125-.025-.251-.038-.376-.112-1.152-.222-2.308-.328-3.461-.127-1.377-.248-2.752-.363-4.114-.012-.15-.025-.3-.038-.451,0-.02,0-.038,0-.058q-.08-.963-.145-1.879c-.009-.122-.017-.245-.024-.365-.238-3.53-.3-6.523-.235-9.068,0-.121.006-.24.008-.359q.01-.312.021-.615.045-1.147.124-2.168c.014-.2.031-.4.048-.594a37.847,37.847,0,0,1,.68-4.723c.024-.111.048-.221.073-.328a20.174,20.174,0,0,1,2.589-6.37,3.724,3.724,0,0,1,.323-.516c.062-.084.129-.171.2-.261a15.185,15.185,0,0,1,1.318-1.392l0,0,0,0a58.576,58.576,0,0,1,4.784-3.937l.292-.215c.136-.1.228-.167.264-.194l.008-.005,0,0a.05.05,0,0,1-.013.011c-.036.031-.118.1-.229.2-.072.066-.153.146-.243.239-.859.877-2.357,2.838-.434,4.327.07.053.146.108.226.161a7.614,7.614,0,0,0,2.248.933c1.593.426,2.458,2.5,2.844,5.457.015.128.032.256.046.386,0,.03.007.059.01.088.014.129.028.26.041.394a54.344,54.344,0,0,1-.03,8.485c0,.009,0,.018,0,.028-.008.1-.015.207-.022.311-.135,1.851-.328,3.745-.55,5.6-.024.2-.048.391-.072.585-.108.873-.224,1.736-.341,2.579-.014.107-.03.215-.045.321-.492,3.463-1.04,6.583-1.452,8.763-.02.106-.039.209-.059.31-.223,1.177-.4,2.046-.5,2.5a15.534,15.534,0,0,0,.03,3.48c.012.162.026.326.041.5.094,1.088.226,2.33.388,3.678.015.128.031.258.046.39.318,2.607.734,5.573,1.175,8.523.025.163.049.325.073.488.163,1.081.329,2.159.493,3.213.023.14.044.277.065.415.114.723.227,1.433.337,2.125.407,2.538.786,4.831,1.081,6.577.03.177.058.347.088.512C1581.649,1611.9,1581.75,1612.5,1581.83,1612.963Z" transform="translate(-1565.521 -1539.619)" fill="#4256ba"/>
            </g>
            <g id="Grupo_1182299" data-name="Grupo 1182299" transform="translate(7.34 0.94)">
              <g id="Grupo_1182285" data-name="Grupo 1182285">
                <path id="Trazado_1004462" data-name="Trazado 1004462" d="M1663.259,1038.8a14.3,14.3,0,0,0,0,5.212,16,16,0,0,0,4.6,8.436,13.745,13.745,0,0,0,3.814,2.562c.063.029.124.057.187.082,2.307,1,4.864,1.3,6.928.194l.072-.038c.056-.033.113-.064.168-.1a6.15,6.15,0,0,0,2.013-2.016.693.693,0,0,1,.327-.234,2.487,2.487,0,0,1,.3-.1l.178-.045c.877-.211,2.131-.3,2.192-.79a4.322,4.322,0,0,0-1.457-3.4l4.45-1.516,1.977-.673s.1-.179.262-.5c1.076-2.216,4.615-11.226-6.308-15.81a14.119,14.119,0,0,0-13.744,1.018,15.441,15.441,0,0,0-5.235,5.729A7.763,7.763,0,0,0,1663.259,1038.8Z" transform="translate(-1663.017 -1028.75)" fill="#3e395c"/>
              </g>
              <g id="Grupo_1182286" data-name="Grupo 1182286" transform="translate(7.305 17.899)">
                <path id="Trazado_1004463" data-name="Trazado 1004463" d="M1798.558,1338.918a.953.953,0,0,0-.063.128h0c-.041.081-.078.167-.116.251-.061-.049-.122-.1-.184-.149h0a17.692,17.692,0,0,0-3.363-2.177,17.175,17.175,0,0,0-1.744-.749c-.744-.27-1.518-.475-2.246-.784a3.152,3.152,0,0,1-1.349-1.344c-.092-.14-.191-.281-.3-.415a2.259,2.259,0,0,0-.764-.658h0a1.272,1.272,0,0,0-.479-.122c.12.5.225.977.32,1.431a18.345,18.345,0,0,1,.435,5.022s0,0,0,.006c.138.116-.121,1.324-.148,1.522a.482.482,0,0,1-.009.049c-.016.111-.039.218-.065.323h0c-.069.274-.161.534-.241.814-.007.019-.013.041-.018.062-.01.036-.021.073-.031.109q-.155.549-.334,1.089c-.016.051-.033.1-.05.152q-.219.654-.471,1.295c-.031.083-.065.165-.1.246s-.061.151-.091.225c1.2,1.012,2.007,2.523,3.393,3.918l.005.005a10.122,10.122,0,0,0,2.313,1.754l.048.026a10.654,10.654,0,0,0,.976.473c.053.022.1.043.148.059a2.087,2.087,0,0,0,.208.067,1.332,1.332,0,0,0,.237.042c.309.024.345-.108.9.36.307.258.621.51.944.747.063.047.127.092.19.137.165.117.331.229.5.338l.088-.167.745-1.41c-.042-.094-.083-.189-.122-.283-.055-.125-.107-.251-.157-.378-.081-.2-.159-.4-.232-.606l-.021-.059c0-.008-.006-.016-.008-.024-.013-.035-.025-.071-.037-.107h0q-.122-.353-.22-.711a7.818,7.818,0,0,1-.287-1.774c0-.012,0-.024,0-.036,0-.056,0-.112,0-.168h0q0-.083,0-.166a9.012,9.012,0,0,1,.239-1.781c.1-.459.228-.915.352-1.37.043-.158.085-.317.126-.474.032-.122.063-.245.094-.368.015-.057.028-.114.042-.171.007-.029.013-.059.021-.088.02-.086.039-.172.058-.259.008-.033.015-.068.021-.1.018-.083.034-.166.048-.249.006-.033.012-.065.018-.1.009-.049.017-.1.025-.149,0-.008,0-.017,0-.025l0-.027c.017-.1.031-.208.043-.313a.024.024,0,0,1,0-.012,15.88,15.88,0,0,1,.549-2.147c.028.022.057.043.084.067.115.1.232-.127.118-.226-.034-.029-.073-.057-.105-.09.054-.134.107-.261.168-.389,0,0,0-.005,0-.007C1798.708,1338.914,1798.6,1338.832,1798.558,1338.918Z" transform="translate(-1787.15 -1332.9)" fill="#ffb09e"/>
              </g>
              <g id="Grupo_1182287" data-name="Grupo 1182287" transform="translate(12.521 24.589)">
                <path id="Trazado_1004464" data-name="Trazado 1004464" d="M1881.231,1449.138a14.673,14.673,0,0,1-.33,1.508,10.081,10.081,0,0,1-5.11-4.065A15.338,15.338,0,0,0,1881.231,1449.138Z" transform="translate(-1875.791 -1446.581)" fill="#da625a"/>
              </g>
              <g id="Grupo_1182288" data-name="Grupo 1182288" transform="translate(7.542 4.869)">
                <path id="Trazado_1004465" data-name="Trazado 1004465" d="M1808.785,1129.259c-.033.092-.068.185-.1.276-.006.013-.011.028-.017.041-.058.139-.121.278-.19.415a9.781,9.781,0,0,1-1.617,2.252,5.37,5.37,0,0,1-2.437,1.442c-4.151,1.218-8.931-2.922-9.807-3.741-.442-2.485-7.1-10.166-.594-15.81a11.73,11.73,0,0,1,3.317-1.931,9.117,9.117,0,0,1,3.7-.7,7.607,7.607,0,0,1,3.318.971c1.92,1.069,3.805,2.027,4.686,4.186a11.669,11.669,0,0,1,.452,5.7,13.991,13.991,0,0,0,.121,2.143,12.228,12.228,0,0,1-.27,2.323c-.007.044-.016.089-.024.13s-.01.053-.015.077a1.22,1.22,0,0,1-.05.169s0,.005,0,.008c-.022.066-.05.128-.075.192,0,0,0,.006,0,.009-.014.037-.027.073-.04.11C1808.937,1128.083,1808.985,1128.687,1808.785,1129.259Z" transform="translate(-1791.182 -1111.494)" fill="#ffb09e"/>
              </g>
              <g id="Grupo_1182289" data-name="Grupo 1182289" transform="translate(23.835 14.704)">
                <path id="Trazado_1004466" data-name="Trazado 1004466" d="M2070.543,1282.045c-.044-.1-.084-.208-.121-.317-.045-.134-.085-.272-.12-.411h0a9.463,9.463,0,0,1-.247-1.676h0c-.473-.7-.756-.206-1.262-.874a.065.065,0,0,0-.08-.021c.007-.021.017-.038.022-.055a.063.063,0,0,0-.087-.076c-.226.1-.3.474-.353.682a7.11,7.11,0,0,0-.2,1.12,5.859,5.859,0,0,0-.016,1.452c.017.116.038.235.067.353h0c0,.015.007.031.011.047.012.046.027.1.044.17a5.528,5.528,0,0,0,.78,1.778.59.59,0,0,0,.264.176h0a1.775,1.775,0,0,0,.57.1,2.352,2.352,0,0,0,.342-.014,1.056,1.056,0,0,0,.927-.877C2071.2,1283.062,2070.74,1282.5,2070.543,1282.045Z" transform="translate(-2068.036 -1278.609)" fill="#ffb09e"/>
              </g>
              <g id="Grupo_1182291" data-name="Grupo 1182291" transform="translate(5.299 3.288)">
                <g id="Grupo_1182290" data-name="Grupo 1182290">
                  <path id="Trazado_1004467" data-name="Trazado 1004467" d="M1772.072,1087.987c-.155-.587-.7-.959-1.147-1.372a9.1,9.1,0,0,0-2.106-1.553,3.806,3.806,0,0,0-2.294-.4,9.632,9.632,0,0,0-2.114.733c-2.492,1.037-6.6,2.246-8.634,4.109-.793.727-.73,1.605-.2,2.7.054.114-2.574,2.068-2.512,2.186.041.076.175.122.364.148.457.068,1.243.026,1.88.035h0a1.754,1.754,0,0,1,.973.164.919.919,0,0,0,.178.144,2.416,2.416,0,0,0,.269.156,11.821,11.821,0,0,0,10.48-.542,12.5,12.5,0,0,0,3.609-3.24,9.591,9.591,0,0,0,.766-1.183,5.747,5.747,0,0,0,.291-.625h0a3.955,3.955,0,0,0,.191-.652,2.712,2.712,0,0,0,.048-.421A1.418,1.418,0,0,0,1772.072,1087.987Z" transform="translate(-1753.062 -1084.622)" fill="#3e395c"/>
                </g>
              </g>
              <g id="Grupo_1182293" data-name="Grupo 1182293" transform="translate(20.6 12.158)">
                <g id="Grupo_1182292" data-name="Grupo 1182292">
                  <path id="Trazado_1004468" data-name="Trazado 1004468" d="M2016.875,1235.581a.414.414,0,0,0-.242-.167,1.748,1.748,0,0,0-1.118.059,5.187,5.187,0,0,0-1.474.812c-.313.247-1,.776-.972,1.176a.1.1,0,0,0,.016.052.1.1,0,0,0,.069.047.217.217,0,0,0,.129-.038c.349-.2.7-.388,1.057-.577a12.033,12.033,0,0,1,1.766-.753C2016.421,1236.087,2017.154,1236.042,2016.875,1235.581Z" transform="translate(-2013.069 -1235.348)" fill="#3e395c"/>
                </g>
              </g>
              <g id="Grupo_1182294" data-name="Grupo 1182294" transform="translate(22.769 14.935)">
                <path id="Trazado_1004469" data-name="Trazado 1004469" d="M2050.978,1283.76c.044-.3.1-.96-.219-1.144-.647-.375-.9.733-.816,1.163.047.248.173.6.466.64C2050.755,1284.466,2050.922,1284.142,2050.978,1283.76Z" transform="translate(-2049.928 -1282.54)" fill="#3e395c"/>
              </g>
              <g id="Grupo_1182295" data-name="Grupo 1182295" transform="translate(4.39 12.79)">
                <path id="Trazado_1004470" data-name="Trazado 1004470" d="M1742.593,1249.687c-.068-.3-.144-.6-.2-.9a3.538,3.538,0,0,1-.062-.356.066.066,0,0,0,.028-.038,1.41,1.41,0,0,0-.44-1.545,2.606,2.606,0,0,0-.272-.225,2.986,2.986,0,0,0-.866-.426h0a2.544,2.544,0,0,0-.441-.1,2.075,2.075,0,0,0-1.452.4,3.09,3.09,0,0,0-1.224,1.91,3.847,3.847,0,0,0,1.64,3.74,3.57,3.57,0,0,0,1.621.519c.079.005.158.008.235.007a2.3,2.3,0,0,0,.487-.053,1.481,1.481,0,0,0,.609-.272h0a1.143,1.143,0,0,0,.315-.378,1.461,1.461,0,0,0,.152-.531c0-.007,0-.015,0-.024A5.521,5.521,0,0,0,1742.593,1249.687Z" transform="translate(-1737.615 -1246.085)" fill="#ffb09e"/>
              </g>
              <g id="Grupo_1182296" data-name="Grupo 1182296" transform="translate(23.307 21.599)">
                <path id="Trazado_1004471" data-name="Trazado 1004471" d="M2060.954,1396.65a5.654,5.654,0,0,1-.218.6,5.554,5.554,0,0,1-.371.717,2.174,2.174,0,0,1-1.241-1.35,1.864,1.864,0,0,1-.02-.836,8.674,8.674,0,0,0,1.85.867Z" transform="translate(-2059.066 -1395.783)" fill="#fff"/>
              </g>
              <g id="Grupo_1182297" data-name="Grupo 1182297" transform="translate(5.628 14.276)">
                <path id="Trazado_1004472" data-name="Trazado 1004472" d="M1761.146,1273.931a3.9,3.9,0,0,0-.779-1.733,3.05,3.05,0,0,0-1.57-.86c-.118-.034-.2.158-.08.2a2.876,2.876,0,0,1,1.618,1.3c.215.421.286.886.692,1.173C1761.089,1274.063,1761.159,1273.992,1761.146,1273.931Z" transform="translate(-1758.66 -1271.333)" fill="#da625a"/>
              </g>
              <g id="Grupo_1182298" data-name="Grupo 1182298" transform="translate(24.696 20.455)">
                <path id="Trazado_1004473" data-name="Trazado 1004473" d="M2083.585,1376.469s0,.005,0,.008c-.022.065-.05.128-.075.192l0,.009c-.014.037-.027.073-.04.11-.246-.06-.488-.147-.717-.224a.111.111,0,0,1,.052-.216C2083.059,1376.388,2083.322,1376.426,2083.585,1376.469Z" transform="translate(-2082.665 -1376.347)" fill="#da625a"/>
              </g>
            </g>
            <g id="Grupo_1182300" data-name="Grupo 1182300" transform="translate(14.494 26.522)">
              <path id="Trazado_1004474" data-name="Trazado 1004474" d="M1796.151,1473.123l-.717,1.356-.833,1.577-.589,1.115-2.183-2.738-6.432-8.067-.81-1.015.938-1.882s.223.119.611.347a33.318,33.318,0,0,1,8.213,6.72A16.66,16.66,0,0,1,1796.151,1473.123Z" transform="translate(-1784.587 -1463.469)" fill="#dce6f0"/>
            </g>
            <g id="Grupo_1182301" data-name="Grupo 1182301" transform="translate(12.381 28.292)">
              <path id="Trazado_1004475" data-name="Trazado 1004475" d="M1770.617,1529.971q-.072-.354-.17-.722s0-.007,0-.011c-.029-.119-.063-.239-.1-.361-.043-.15-.088-.3-.138-.457q-.049-.154-.1-.308a32.985,32.985,0,0,0-1.937-4.464c-.656-1.285-1.382-2.561-2.1-3.762-.049-.084-.1-.166-.149-.249-2.258-3.725-4.448-6.654-4.448-6.654l.08-.16.134-.27.631-1.268-.256-.076-.284-.084-2.264-.676a21.083,21.083,0,0,1-4.31-4.5c-.059-.073-.115-.147-.173-.222-1.874-2.449-3.708-5.245-4.918-7.16-.052-.083-.1-.164-.153-.245-.268-.426-.5-.8-.69-1.11-.117-.191-.218-.357-.3-.495-.158-.259-.253-.417-.274-.455,0,0,0,0,0-.006,1.719-3.531,2.113-2.6,2.113-2.6l1.667,1.671.193.193,5.467,5.475.488.489.03.03s.161.162.161.162l.616.617s.23.23.23.23a59.08,59.08,0,0,1,4.2,6.174c.049.082.1.165.145.246a53.73,53.73,0,0,1,3.171,6.345.039.039,0,0,1,0,.008c.139.332.271.659.4.981.063.159.124.316.184.472s.124.326.184.488c.037.1.072.2.108.292.122.339.24.672.351,1a42.36,42.36,0,0,1,2.08,9.126c.014.132.027.26.038.382.023.236.039.453.053.648.008.134.017.257.023.371C1770.624,1529.653,1770.617,1529.971,1770.617,1529.971Z" transform="translate(-1748.686 -1493.549)" fill="#4256ba"/>
            </g>
            <g id="Grupo_1182302" data-name="Grupo 1182302" transform="translate(29.895 66.668)">
              <path id="Trazado_1004476" data-name="Trazado 1004476" d="M2046.3,2146.543a.88.88,0,1,0,.88-.88A.88.88,0,0,0,2046.3,2146.543Z" transform="translate(-2046.3 -2145.663)" fill="#31408a"/>
            </g>
            <g id="Grupo_1182303" data-name="Grupo 1182303" transform="translate(29.895 77.883)">
              <path id="Trazado_1004477" data-name="Trazado 1004477" d="M2046.3,2337.113a.88.88,0,1,0,.88-.88A.88.88,0,0,0,2046.3,2337.113Z" transform="translate(-2046.3 -2336.233)" fill="#31408a"/>
            </g>
            <g id="Grupo_1182304" data-name="Grupo 1182304" transform="translate(28.106 89.776)">
              <circle id="Elipse_15046" data-name="Elipse 15046" cx="0.88" cy="0.88" r="0.88" transform="translate(0 0.405) rotate(-13.286)" fill="#31408a"/>
            </g>
            <g id="Grupo_1182306" data-name="Grupo 1182306" transform="translate(16.019 7.21)">
              <g id="Grupo_1182305" data-name="Grupo 1182305">
                <path id="Trazado_1004478" data-name="Trazado 1004478" d="M1826.225,1135.648c-.033.014-.068.027-.1.039-.086.034-.172.065-.259.1a1.024,1.024,0,0,0-.537-.471.13.13,0,0,0-.165.175c.081.154.158.3.228.447-.247.071-.5.129-.75.183h0c-.961.2-1.942.323-2.882.616-1.473.458-2.9,1.05-4.361,1.551-1.315.453-2.724.619-4.013,1.148a4.055,4.055,0,0,0-1.385.875,11.34,11.34,0,0,1-1.407,1.5.234.234,0,0,0-.056.328,3.773,3.773,0,0,0,.244.609,1.442,1.442,0,0,0,1.556.973,1.071,1.071,0,0,0,.45-.219,1.786,1.786,0,0,0,1.624.977,1.832,1.832,0,0,0,1.3-.584.955.955,0,0,0,1.111.174,1.052,1.052,0,0,0,.38-.291,1.443,1.443,0,0,0,1.7.128,2.008,2.008,0,0,0,.71-.877c.721.242,1.488.278,1.938-.517a2.258,2.258,0,0,0,.2-.488c.717.177,1.452-.5,1.649-1.288a1.72,1.72,0,0,0,1.129-.572,1.2,1.2,0,0,0,.278-.748,1.435,1.435,0,0,0,1.283-1.262,3.737,3.737,0,0,0,.09-.725h0a4.186,4.186,0,0,0-.066-.922,2.782,2.782,0,0,0-.093-.357c.048-.02.094-.041.141-.063.078-.037.154-.074.228-.115C1826.571,1135.864,1826.41,1135.572,1826.225,1135.648Z" transform="translate(-1810.494 -1135.305)" fill="#3e395c"/>
              </g>
            </g>
            <g id="Grupo_1182307" data-name="Grupo 1182307" transform="translate(33.152 87.002)">
              <path id="Trazado_1004479" data-name="Trazado 1004479" d="M2103.341,2493.633q-.287,1.792-.643,3.572-.392,1.958-.869,3.9c-.067-.423-.135-.826-.2-1.2q.367-1.575.68-3.161.546-2.758.938-5.542l.082,2.146Z" transform="translate(-2101.63 -2491.198)" fill="#31408a"/>
            </g>
            <g id="Grupo_1182308" data-name="Grupo 1182308" transform="translate(12.748 31.047)">
              <path id="Trazado_1004480" data-name="Trazado 1004480" d="M1775.408,1570.754a97.967,97.967,0,0,0-4.832-8.692c-.782-1.315-1.48-2.682-2.336-3.953-.42-.623-.951-1.165-.8-1.969a8.489,8.489,0,0,0,.248-1.577.252.252,0,0,0-.177-.246,8.513,8.513,0,0,0-2.091-.023,3.461,3.461,0,0,1-2.151-.274,4.757,4.757,0,0,1-1.181-1.594c-.369-.653-.684-1.338-1.071-1.982-1-1.659-1.972-3.318-2.922-5.006a24.774,24.774,0,0,0-1.561-2.477,8.227,8.227,0,0,1-1.413-2.511.11.11,0,0,0-.213.053,5.671,5.671,0,0,0,1.15,2.457c.6.868,1.137,1.749,1.645,2.672.557,1.013,1.094,2.038,1.671,3.04.46.8.995,1.554,1.439,2.36.6,1.092,1.124,2.619,2.17,3.377,1.169.847,2.85.183,4.2.356-.071,1.049-.546,1.878.11,2.877.916,1.4,1.754,2.814,2.591,4.259,1.731,2.991,3.508,5.935,5.084,9.014C1775.1,1571.178,1775.537,1571.032,1775.408,1570.754Z" transform="translate(-1754.907 -1540.37)" fill="#31408a"/>
            </g>
            <g id="Grupo_1182309" data-name="Grupo 1182309" transform="translate(33.857 53.745)">
              <path id="Trazado_1004481" data-name="Trazado 1004481" d="M2114.181,1946.117c-.055-1.823-.121-3.645-.157-5.468-.021-1-.034-2-.052-3-.006-.371-.011-.737-.02-1.1v-.017c0-.162-.007-.323-.011-.485q-.017-.8-.044-1.6c-.021-.634-.048-1.262-.082-1.89-.11-2.036-.222-4.067-.2-6.1,0-.129,0-.255.006-.38.115.38.235.772.358,1.171.068,2,.21,3.995.326,5.99.153,2.634.138,5.268.205,7.907.065,2.588.174,5.175.224,7.763a.136.136,0,0,1-.168.135l-.208-.049a.136.136,0,0,1-.1-.13c-.016-.757-.044-1.8-.066-2.531v-.017c0-.06,0-.122-.007-.183Z" transform="translate(-2113.612 -1926.072)" fill="#31408a"/>
            </g>
            <g id="Grupo_1182310" data-name="Grupo 1182310" transform="translate(14.475 45.872)">
              <path id="Trazado_1004482" data-name="Trazado 1004482" d="M1788.428,1850.754h-.494c-.492-2.979-.946-5.964-1.384-8.952q-.207-1.4-.408-2.8c-.552-3.821-1.126-7.645-1.557-11.481a46.5,46.5,0,0,1,.067-11.542c.518-3.832,1.09-7.647,1.464-11.5q.308-3.172.531-6.354.2-2.882.336-5.768a.081.081,0,0,1,.162,0q-.019,2.886-.154,5.764-.177,3.746-.55,7.484c-.386,3.866-1.018,7.693-1.471,11.55a47.8,47.8,0,0,0,.255,11.631c.542,4.3,1.163,8.581,1.808,12.863C1787.491,1844.687,1787.962,1847.721,1788.428,1850.754Z" transform="translate(-1784.258 -1792.279)" fill="#31408a"/>
            </g>
            <g id="Grupo_1182311" data-name="Grupo 1182311" transform="translate(4.026 85.517)">
              <path id="Trazado_1004483" data-name="Trazado 1004483" d="M1609.163,2484.8h-.369c-.106-.833-.2-1.666-.31-2.493q-.222-1.69-.434-3.382-.042-.332-.083-.665s0,0,0,0q-.11-.879-.216-1.759-.358-2.953-.675-5.912c-.121-1.117-.265-2.245-.367-3.373l.121-.543.089-.4h0l.028-.127.039-.176c.236,1.545.357,3.115.534,4.661q.341,2.984.713,5.964c.006.052.013.1.019.156,0,0,0,0,0,0,.081.665.148,1.294.214,1.915.071.667.139,1.323.217,2a.023.023,0,0,1,0,.007c.048.412.1.832.157,1.268C1608.96,2482.824,1609.055,2483.847,1609.163,2484.8Z" transform="translate(-1606.71 -2465.97)" fill="#31408a"/>
            </g>
          </g>
          <g id="Grupo_1182312" data-name="Grupo 1182312" transform="translate(59.046 85.298)">
            <path id="Trazado_1004484" data-name="Trazado 1004484" d="M2544.68,2462.406c-.441.612-1.079,1.1-1.572,1.672a17.592,17.592,0,0,0-1.116,1.488,1.648,1.648,0,0,0-.349,0,10.151,10.151,0,0,1,1.184-1.726,5.937,5.937,0,0,1,1.739-1.591C2544.661,2462.2,2544.736,2462.333,2544.68,2462.406Z" transform="translate(-2541.644 -2462.241)" fill="#c46843"/>
          </g>
          <g id="Grupo_1182313" data-name="Grupo 1182313" transform="translate(65.879 87.042)">
            <path id="Trazado_1004485" data-name="Trazado 1004485" d="M2660.99,2494.055c-.08.084-.168.17-.267.26-.434-.357-.861-.722-1.3-1.065-.531-.412-1.146-.793-1.65-1.265.06,0,.121,0,.185,0a.657.657,0,0,1,.033-.1c.639.529,1.452.96,2.046,1.418C2660.353,2493.548,2660.676,2493.8,2660.99,2494.055Z" transform="translate(-2657.769 -2491.883)" fill="#da625a"/>
          </g>
          <g id="Grupo_1182314" data-name="Grupo 1182314" transform="translate(64.183 88.247)">
            <path id="Trazado_1004486" data-name="Trazado 1004486" d="M2631.716,2514.879c-.122.078-.234.146-.338.209-.086-.07-.169-.141-.251-.211a15.373,15.373,0,0,1-2.188-2.242,1.84,1.84,0,0,1,.08-.286,28.266,28.266,0,0,0,2.435,2.32C2631.54,2514.74,2631.627,2514.81,2631.716,2514.879Z" transform="translate(-2628.938 -2512.349)" fill="#da625a"/>
          </g>
        </g>
        <g id="woman" transform="translate(120.856 26.452)">
          <path id="Trazado_1004487" data-name="Trazado 1004487" d="M2922.63,1902.118h90.082l13.784-58.248h-90.082Z" transform="translate(-2898.112 -1793.951)" fill="#85afff"/>
          <path id="Trazado_1004488" data-name="Trazado 1004488" d="M3062.171,1944.231l12.454-52.631h-84.991l-12.454,52.631Z" transform="translate(-2949.452 -1838.872)" fill="#fff"/>
          <path id="Trazado_1004489" data-name="Trazado 1004489" d="M3074.625,1891.6l-12.454,52.63H2977.18l.458-1.938,6.147-25.972,5.849-24.72Z" transform="translate(-2949.452 -1838.872)" fill="#f2f6ff"/>
          <g id="Grupo_1182335" data-name="Grupo 1182335" transform="translate(47.26 59.584)">
            <g id="Grupo_1182316" data-name="Grupo 1182316">
              <path id="Trazado_1004490" data-name="Trazado 1004490" d="M3370.356,2049.26H3309.07l9.79-41.16h61.287Z" transform="translate(-3309.07 -2008.1)" fill="#85afff"/>
              <g id="Grupo_1182315" data-name="Grupo 1182315" transform="translate(8.594)">
                <path id="Trazado_1004491" data-name="Trazado 1004491" d="M3516.4,2013.13H3455.11l1.2-5.03h61.286Z" transform="translate(-3455.11 -2008.1)" fill="#fab54e"/>
                <ellipse id="Elipse_15047" data-name="Elipse 15047" cx="1.356" cy="1.069" rx="1.356" ry="1.069" transform="translate(3.638 2.624) rotate(-41.607)" fill="#fff"/>
                <ellipse id="Elipse_15048" data-name="Elipse 15048" cx="1.356" cy="1.069" rx="1.356" ry="1.069" transform="translate(9.495 2.624) rotate(-41.607)" fill="#fff"/>
                <ellipse id="Elipse_15049" data-name="Elipse 15049" cx="1.356" cy="1.069" rx="1.356" ry="1.069" transform="translate(15.353 2.624) rotate(-41.607)" fill="#fff"/>
              </g>
            </g>
            <g id="Grupo_1182328" data-name="Grupo 1182328" transform="translate(6.994 9.629)">
              <g id="Grupo_1182317" data-name="Grupo 1182317" transform="translate(7.999)">
                <path id="Trazado_1004492" data-name="Trazado 1004492" d="M3698,2191.707l6.778-.128a5.072,5.072,0,0,0-4.323-6.626Z" transform="translate(-3690.105 -2184.175)" fill="#fab54e"/>
                <path id="Trazado_1004493" data-name="Trazado 1004493" d="M3577.752,2211.222c-.271-.031-.119-.462.151-.431a9.215,9.215,0,0,0,2.754-.068,6.014,6.014,0,0,0,2.12-.772,7.08,7.08,0,0,0,1.6-1.385,10.991,10.991,0,0,0,2.005-3.548l-6.184-.217,2.344-6.447-.077-.01c-3.47-.4-7.3,2.159-8.55,5.725s.545,6.784,4.015,7.188a6.351,6.351,0,0,0,.95.038A11.055,11.055,0,0,1,3577.752,2211.222Z" transform="translate(-3572.954 -2196.74)" fill="#fff"/>
                <path id="Trazado_1004494" data-name="Trazado 1004494" d="M3688.283,2313.79a9,9,0,0,0,5.048-5.2,7.314,7.314,0,0,0,.229-.786l-6.511.055Z" transform="translate(-3679.799 -2299.793)" fill="#fff"/>
                <path id="Trazado_1004495" data-name="Trazado 1004495" d="M3570.513,2328.85l-6.664,3.19a5,5,0,0,0,4.357,3.378,7.873,7.873,0,0,0,4.943-1.114Z" transform="translate(-3563.849 -2319.604)" fill="#fab54e"/>
                <path id="Trazado_1004496" data-name="Trazado 1004496" d="M3710.276,2174.554l-5.9,3.435-.537.3,2.383-6.553A5.089,5.089,0,0,1,3710.276,2174.554Z" transform="translate(-3695.602 -2171.732)" fill="#fab54e"/>
              </g>
              <g id="Grupo_1182319" data-name="Grupo 1182319" transform="translate(0 8.494)">
                <path id="Trazado_1004497" data-name="Trazado 1004497" d="M3428.985,2317.135h-1.065l.254-1.064h1.064Z" transform="translate(-3427.92 -2316.07)" fill="#fff"/>
                <g id="Grupo_1182318" data-name="Grupo 1182318" transform="translate(0.541 0.414)">
                  <path id="Trazado_1004498" data-name="Trazado 1004498" d="M3446.589,2323.345h-9.352a.118.118,0,0,1,0-.235h9.352a.118.118,0,0,1,0,.235Z" transform="translate(-3437.12 -2323.11)" fill="#fff"/>
                </g>
              </g>
              <g id="Grupo_1182321" data-name="Grupo 1182321" transform="translate(21.27 1.288)">
                <path id="Trazado_1004499" data-name="Trazado 1004499" d="M3939.06,2194.675h1.065l.254-1.065h-1.065Z" transform="translate(-3930.25 -2193.61)" fill="#fff"/>
                <g id="Grupo_1182320" data-name="Grupo 1182320" transform="translate(0 0.415)">
                  <path id="Trazado_1004500" data-name="Trazado 1004500" d="M3798.819,2200.9h-9.351a.118.118,0,1,1,0-.235h9.351a.118.118,0,0,1,0,.235Z" transform="translate(-3789.35 -2200.66)" fill="#fff"/>
                </g>
              </g>
              <g id="Grupo_1182323" data-name="Grupo 1182323" transform="translate(21.711 3.278)">
                <path id="Trazado_1004501" data-name="Trazado 1004501" d="M3901.95,2228.5h1.064l.254-1.065H3902.2Z" transform="translate(-3895.765 -2227.43)" fill="#fff"/>
                <g id="Grupo_1182322" data-name="Grupo 1182322" transform="translate(0 0.415)">
                  <path id="Trazado_1004502" data-name="Trazado 1004502" d="M3803.694,2234.715h-6.726a.118.118,0,1,1,0-.235h6.726a.118.118,0,0,1,0,.235Z" transform="translate(-3796.85 -2234.48)" fill="#fff"/>
                </g>
              </g>
              <g id="Grupo_1182325" data-name="Grupo 1182325" transform="translate(21.316 5.783)">
                <path id="Trazado_1004503" data-name="Trazado 1004503" d="M3871.87,2271.065h1.064l.254-1.065h-1.065Z" transform="translate(-3867.06 -2270)" fill="#fff"/>
                <g id="Grupo_1182324" data-name="Grupo 1182324" transform="translate(0 0.415)">
                  <path id="Trazado_1004504" data-name="Trazado 1004504" d="M3790.256,2279.25a.118.118,0,0,1-.054-.222l3.826-1.963a.118.118,0,0,1,.054-.013h1.525a.118.118,0,1,1,0,.235h-1.5l-3.8,1.95A.116.116,0,0,1,3790.256,2279.25Z" transform="translate(-3790.138 -2277.051)" fill="#fff"/>
                </g>
              </g>
              <g id="Grupo_1182327" data-name="Grupo 1182327" transform="translate(0.44 10.267)">
                <path id="Trazado_1004505" data-name="Trazado 1004505" d="M3436.465,2347.255H3435.4l.253-1.065h1.064Z" transform="translate(-3435.4 -2346.19)" fill="#fff"/>
                <g id="Grupo_1182326" data-name="Grupo 1182326" transform="translate(0.541 0.415)">
                  <path id="Trazado_1004506" data-name="Trazado 1004506" d="M3454.07,2353.475h-9.352a.118.118,0,0,1,0-.235h9.352a.118.118,0,0,1,0,.235Z" transform="translate(-3444.601 -2353.24)" fill="#fff"/>
                </g>
              </g>
            </g>
            <ellipse id="Elipse_15050" data-name="Elipse 15050" cx="1.171" cy="0.924" rx="1.171" ry="0.924" transform="translate(40.591 8.296) rotate(-41.607)" fill="#fff"/>
            <path id="Trazado_1004507" data-name="Trazado 1004507" d="M4082.154,2141.91h-21.671a.25.25,0,0,1-.249-.326l.02-.082a.44.44,0,0,1,.4-.327h21.672a.249.249,0,0,1,.249.327l-.02.082A.44.44,0,0,1,4082.154,2141.91Z" transform="translate(-4016.02 -2133.344)" fill="#fff"/>
            <ellipse id="Elipse_15051" data-name="Elipse 15051" cx="1.171" cy="0.924" rx="1.171" ry="0.924" transform="translate(39.58 12.547) rotate(-41.607)" fill="#fab54e"/>
            <path id="Trazado_1004508" data-name="Trazado 1004508" d="M4064.974,2214.13H4043.3a.249.249,0,0,1-.249-.326l.019-.082a.439.439,0,0,1,.4-.326h21.671a.25.25,0,0,1,.249.326l-.02.082A.439.439,0,0,1,4064.974,2214.13Z" transform="translate(-3999.851 -2201.314)" fill="#fab54e"/>
            <path id="Trazado_1004509" data-name="Trazado 1004509" d="M3973.785,2275.221a1.4,1.4,0,0,1-1.288,1.041.8.8,0,0,1-.793-1.041,1.4,1.4,0,0,1,1.288-1.04A.8.8,0,0,1,3973.785,2275.221Z" transform="translate(-3932.682 -2258.523)" fill="#fff"/>
            <path id="Trazado_1004510" data-name="Trazado 1004510" d="M4047.794,2286.351h-21.671a.25.25,0,0,1-.249-.327l.019-.082a.44.44,0,0,1,.4-.326h21.671a.25.25,0,0,1,.249.326l-.02.082A.438.438,0,0,1,4047.794,2286.351Z" transform="translate(-3983.683 -2269.285)" fill="#fff"/>
            <ellipse id="Elipse_15052" data-name="Elipse 15052" cx="1.171" cy="0.924" rx="1.171" ry="0.924" transform="translate(37.558 21.047) rotate(-41.607)" fill="#8891fc"/>
            <path id="Trazado_1004511" data-name="Trazado 1004511" d="M4030.614,2358.581h-21.671a.25.25,0,0,1-.249-.326l.02-.082a.439.439,0,0,1,.4-.326h21.672a.249.249,0,0,1,.249.326l-.02.082A.439.439,0,0,1,4030.614,2358.581Z" transform="translate(-3967.513 -2337.264)" fill="#8891fc"/>
            <ellipse id="Elipse_15053" data-name="Elipse 15053" cx="1.171" cy="0.924" rx="1.171" ry="0.924" transform="translate(36.547 25.299) rotate(-41.607)" fill="#fab54e"/>
            <path id="Trazado_1004512" data-name="Trazado 1004512" d="M4013.433,2430.8h-21.672a.25.25,0,0,1-.249-.327l.019-.082a.44.44,0,0,1,.4-.327h21.671a.25.25,0,0,1,.249.327l-.019.082A.44.44,0,0,1,4013.433,2430.8Z" transform="translate(-3951.344 -2405.234)" fill="#fab54e"/>
            <g id="Grupo_1182331" data-name="Grupo 1182331" transform="translate(3.837 29.375)">
              <g id="Grupo_1182329" data-name="Grupo 1182329">
                <path id="Trazado_1004513" data-name="Trazado 1004513" d="M3383.438,2517.483h-8.313a.844.844,0,0,1-.67-.313.868.868,0,0,1-.151-.744l1.977-8.313a1.126,1.126,0,0,1,1.066-.853h8.313a.843.843,0,0,1,.67.313.866.866,0,0,1,.151.744l-1.977,8.313A1.125,1.125,0,0,1,3383.438,2517.483Zm-8.268-.883h8.268a.255.255,0,0,0,.207-.175l1.97-8.284h-8.268a.255.255,0,0,0-.207.175Z" transform="translate(-3374.278 -2507.259)" fill="#fff"/>
              </g>
              <g id="Grupo_1182330" data-name="Grupo 1182330" transform="translate(2.618 1.485)">
                <path id="Trazado_1004514" data-name="Trazado 1004514" d="M3421.4,2540.18a.441.441,0,0,1-.358-.183l-2.194-3.042a.441.441,0,0,1,.716-.517l1.833,2.54,4.449-6.3a.441.441,0,0,1,.721.509l-4.805,6.807a.442.442,0,0,1-.358.187Z" transform="translate(-3418.759 -2532.49)" fill="#fff"/>
              </g>
            </g>
            <path id="Trazado_1004515" data-name="Trazado 1004515" d="M3620.46,2548.4h-15.1a.3.3,0,0,1-.3-.4l.023-.1a.533.533,0,0,1,.49-.4h15.1a.3.3,0,0,1,.3.4l-.024.1A.533.533,0,0,1,3620.46,2548.4Z" transform="translate(-3587.63 -2515.766)" fill="#fff"/>
            <path id="Trazado_1004516" data-name="Trazado 1004516" d="M3611.17,2587.45h-15.1a.3.3,0,0,1-.3-.4l.024-.1a.533.533,0,0,1,.49-.4h15.1a.3.3,0,0,1,.3.4l-.023.1A.532.532,0,0,1,3611.17,2587.45Z" transform="translate(-3578.886 -2552.518)" fill="#fff"/>
            <path id="Trazado_1004517" data-name="Trazado 1004517" d="M3601.881,2626.5h-15.1a.3.3,0,0,1-.3-.4l.023-.1a.533.533,0,0,1,.49-.4h15.1a.3.3,0,0,1,.3.4l-.023.1A.532.532,0,0,1,3601.881,2626.5Z" transform="translate(-3570.144 -2589.27)" fill="#fff"/>
            <g id="Grupo_1182334" data-name="Grupo 1182334" transform="translate(35.861 28.564)">
              <g id="Grupo_1182332" data-name="Grupo 1182332">
                <path id="Trazado_1004518" data-name="Trazado 1004518" d="M3926.793,2493.815a5.308,5.308,0,0,0-4.087.155,7.283,7.283,0,0,0-2.8,2.121,7.18,7.18,0,0,0-.521.736,4.931,4.931,0,0,0-.245,5.354,3.7,3.7,0,0,0,1.664,1.342,5.236,5.236,0,0,0,3.875-.07,7.265,7.265,0,0,0,3.537-2.941,6.52,6.52,0,0,0,.575-1.173C3929.646,2497.007,3928.88,2494.687,3926.793,2493.815Zm-.606,5.852a3.925,3.925,0,0,1-2.021,1.632,2.8,2.8,0,0,1-1.993,0,2.016,2.016,0,0,1-.832-.631,2.634,2.634,0,0,1,.064-3q.074-.12.156-.234a3.916,3.916,0,0,1,1.955-1.428,2.769,2.769,0,0,1,1.9.031,2.25,2.25,0,0,1,1.049,3.072A3.585,3.585,0,0,1,3926.187,2499.667Z" transform="translate(-3918.459 -2493.476)" fill="#fff"/>
                <path id="Trazado_1004519" data-name="Trazado 1004519" d="M3996.707,2499.348l-2.318-.226h0a2.25,2.25,0,0,0-1.049-3.072,2.768,2.768,0,0,0-1.9-.031l-.81-2.039a5.309,5.309,0,0,1,4.086-.155C3996.8,2494.7,3997.566,2497.016,3996.707,2499.348Z" transform="translate(-3986.38 -2493.485)" fill="#fab54e"/>
                <path id="Trazado_1004520" data-name="Trazado 1004520" d="M3935.492,2618.454a5.236,5.236,0,0,1-3.875.07,3.707,3.707,0,0,1-1.664-1.343l2.206-1.514a2.016,2.016,0,0,0,.832.631,2.8,2.8,0,0,0,1.994,0Z" transform="translate(-3929.276 -2608.477)" fill="#fff"/>
                <path id="Trazado_1004521" data-name="Trazado 1004521" d="M4020.063,2589.482a6.5,6.5,0,0,1-.575,1.173,7.268,7.268,0,0,1-3.536,2.941l-.508-2.154a3.93,3.93,0,0,0,2.021-1.632,3.576,3.576,0,0,0,.28-.555Z" transform="translate(-4009.736 -2583.619)" fill="#fab54e"/>
              </g>
              <g id="Grupo_1182333" data-name="Grupo 1182333" transform="translate(15.894)">
                <path id="Trazado_1004522" data-name="Trazado 1004522" d="M4196.883,2493.815a5.307,5.307,0,0,0-4.086.155,7.272,7.272,0,0,0-2.8,2.121,7.034,7.034,0,0,0-.521.736,4.933,4.933,0,0,0-.246,5.354,3.71,3.71,0,0,0,1.664,1.342,5.237,5.237,0,0,0,3.875-.07,7.267,7.267,0,0,0,3.537-2.941,6.553,6.553,0,0,0,.575-1.173C4199.736,2497.007,4198.97,2494.687,4196.883,2493.815Zm-.6,5.852a3.927,3.927,0,0,1-2.021,1.632,2.8,2.8,0,0,1-1.993,0,2.012,2.012,0,0,1-.833-.631,2.633,2.633,0,0,1,.064-3c.049-.08.1-.158.156-.234a3.915,3.915,0,0,1,1.955-1.428,2.769,2.769,0,0,1,1.9.031,2.25,2.25,0,0,1,1.049,3.072A3.579,3.579,0,0,1,4196.278,2499.667Z" transform="translate(-4188.55 -2493.476)" fill="#fff"/>
                <path id="Trazado_1004523" data-name="Trazado 1004523" d="M4266.807,2499.348l-2.318-.226h0a2.251,2.251,0,0,0-1.049-3.072,2.768,2.768,0,0,0-1.9-.031l-.81-2.039a5.309,5.309,0,0,1,4.086-.155C4266.9,2494.7,4267.666,2497.016,4266.807,2499.348Z" transform="translate(-4256.479 -2493.485)" fill="#fff"/>
                <path id="Trazado_1004524" data-name="Trazado 1004524" d="M4205.582,2618.454a5.235,5.235,0,0,1-3.875.07,3.7,3.7,0,0,1-1.664-1.343l2.206-1.514a2.015,2.015,0,0,0,.832.631,2.8,2.8,0,0,0,1.993,0Z" transform="translate(-4199.367 -2608.477)" fill="#fff"/>
                <path id="Trazado_1004525" data-name="Trazado 1004525" d="M4290.162,2589.482a6.521,6.521,0,0,1-.575,1.173,7.265,7.265,0,0,1-3.537,2.941l-.508-2.154a3.932,3.932,0,0,0,2.021-1.632,3.594,3.594,0,0,0,.28-.555Z" transform="translate(-4279.834 -2583.619)" fill="#fab54e"/>
              </g>
            </g>
          </g>
          <g id="woman_1_" transform="translate(0 0)">
            <g id="Grupo_1182336" data-name="Grupo 1182336" transform="translate(14.226 92.187)">
              <path id="Trazado_1004526" data-name="Trazado 1004526" d="M2755.972,2562.795a7.985,7.985,0,0,1-2.582.146,13.878,13.878,0,0,1-4.079-.7c-1.353-.622-.582,1.452,1.341,2.082s2.674.52,2.274,1.239a5.349,5.349,0,0,1-1.748,1.033c-1.574.635-2.413,1.122-2.933,3.033s-.805,2.162-.086,3.444,1.236-.74,1.22-1.522a3.828,3.828,0,0,1,1.245-2.507c.509-.256,2.052-.685,1.615.048s-1.175,2.429-1.436,3.024.311,2.653.715,3.666,1.681.886,1.339-.956-.345-1.954.344-3.287a20.047,20.047,0,0,1,1.206-2.075,29.95,29.95,0,0,0-1.312,3.464,10.9,10.9,0,0,0,.9,3.81c.395.566,1.09.384,1.163-.819a13.857,13.857,0,0,0-.251-2.85,11.592,11.592,0,0,1,.99-1.853c.393-.478.595-.437.514-.033a8.532,8.532,0,0,0-.352,2.488c.047,1.184-.187,1.792.288,2.073s.994-.579,1.147-1.834a10.017,10.017,0,0,1,1.189-3.086c.3-.632,3.583-2.337,3.521-5.685a2.63,2.63,0,0,0-.035-.371C2760.31,2563.651,2758.162,2562.581,2755.972,2562.795Z" transform="translate(-2747.728 -2562.121)" fill="#e0774d"/>
            </g>
            <g id="Grupo_1182337" data-name="Grupo 1182337" transform="translate(22.565 68.666)">
              <path id="Trazado_1004527" data-name="Trazado 1004527" d="M2910.911,2167.947q-.353.676-.71,1.348-.336.634-.674,1.265c-.137.251-.272.5-.408.755-.1.195-.211.389-.317.584a52.2,52.2,0,0,1-2.976,5.217q-.37.524-.743,1.045-3.109,4.345-6.445,8.523-.833,1.044-1.681,2.077-.441.537-.885,1.071a8.519,8.519,0,0,0-.988,1.369c-.247.453-1.628-1.035-2.084-1.244a13.543,13.543,0,0,1-2.154-1.225c-1.743-1.228-1.933-1.129-.183-2.092,3.6-1.983,5.593-8.251,7.5-11.889,1.816-3.458,2.891-7.328,5.352-10.32a6.753,6.753,0,0,1,1.3-1.309c1.321-.914,3.089-.771,4.662-.447a3.5,3.5,0,0,1,1.6.639C2912.354,2164.4,2911.687,2166.459,2910.911,2167.947Z" transform="translate(-2889.441 -2162.428)" fill="#e0774d"/>
            </g>
            <g id="Grupo_1182338" data-name="Grupo 1182338" transform="translate(48.195 95.48)">
              <path id="Trazado_1004528" data-name="Trazado 1004528" d="M3332.884,2624.188a.238.238,0,0,0,.08-.455,5.132,5.132,0,0,0-.682-.185c-.166-.037-.337-.075-.5-.124a11.067,11.067,0,0,1-1.053-.383c-.1-.041-.188-.08-.28-.123-.05-.022-.094-.043-.14-.066a11.384,11.384,0,0,1-1.782-1.049,10.244,10.244,0,0,1-3.153-3.6.221.221,0,0,0-.2-.123.227.227,0,0,0-.19.1.215.215,0,0,0-.011.211,10.123,10.123,0,0,0,3.441,3.957,11.826,11.826,0,0,0,1.739,1l.146.068c.086.04.175.077.264.115l.037.016a6.513,6.513,0,0,0,2.277.642h0Z" transform="translate(-3324.955 -2618.077)" fill="#3e395c"/>
            </g>
            <g id="Grupo_1182340" data-name="Grupo 1182340" transform="translate(26.926 32.967)">
              <g id="Grupo_1182339" data-name="Grupo 1182339">
                <path id="Trazado_1004529" data-name="Trazado 1004529" d="M2992.267,1603.419c-.017-.358-.211-1.991-.35-2.955-.041-.288-.077-.517-.1-.632q-.063-.289-.124-.568c-.119-.545-.233-1.056-.341-1.541h0c-.279-1.246-.523-2.313-.728-3.287,0-.018-.007-.035-.011-.052a33.06,33.06,0,0,1-.7-4.6c-.032-.452-.062-.895-.084-1.331-.01-.176-.019-.348-.026-.521,0-.029,0-.058,0-.086-.071-1.573-.079-3.076-.017-4.627h0c.006-.164.013-.327.022-.492.005-.115.012-.231.018-.348.019-.348.042-.7.068-1.055.243-3.288,1.8-6.267,1.747-9.58-.049-3.118-.023-5.831-1.4-8.625a.02.02,0,0,0,0-.007,24.466,24.466,0,0,0-3.573-5.188l-.022-.025a11.971,11.971,0,0,0-2.168-1.8c-.1-.059-.192-.109-.28-.151a1.625,1.625,0,0,0-.165-.069l-.02-.007a2.113,2.113,0,0,0-.934-.036h0c-.754.1-1.614.429-2.176.548-3.467.737-4.947,1.2-6.627,2.918a21.585,21.585,0,0,0-1.7,2.026c-1.768,2.328-3.955,4.255-5.717,6.5-.1.118-.187.238-.278.359a17.288,17.288,0,0,0-1.012,1.485c-.085.139-.166.28-.247.422a13.6,13.6,0,0,0-.716,1.482,14.155,14.155,0,0,0-.8,8.037c.383,1.976,1.207,3.876,1.736,5.826.131.482.244.967.328,1.457.029.171.055.343.076.514.454,3.567.257,7.156.361,10.72v.008c.006.211.013.421.022.632.042,1.064.117,2.125.248,3.183,0,0,0,0,0,0a24.457,24.457,0,0,0,.629,3.313h0c.019.072.038.144.058.216l.048.171a3.01,3.01,0,0,0,.64,1.276,3.3,3.3,0,0,0,1.285.726l.1.036a34.175,34.175,0,0,0,4.253,1.255,28.15,28.15,0,0,0,14.057-.245c.854-.248,3.063-.769,3.482-1.681A5.209,5.209,0,0,0,2992.267,1603.419Z" transform="translate(-2963.546 -1555.799)" fill="#4787fe"/>
              </g>
            </g>
            <path id="Trazado_1004530" data-name="Trazado 1004530" d="M3011.586,2306.8h-34.409l.458-1.938q.312-3.548.69-6.965.629-5.692,1.415-11,.2-1.33.4-2.636c.02-.129.04-.257.06-.385.028-.177.056-.354.084-.531q.408-2.58.845-5.06c.423.114.881.228,1.372.339q.608.139,1.282.268a36.266,36.266,0,0,0,7.627.625c.705-.017,1.43-.055,2.173-.118q.272-.024.547-.051a36.124,36.124,0,0,0,10.045-2.5q.17.5.346,1.032.185.554.374,1.136s0,0,0,0a184.755,184.755,0,0,1,5.7,22.145C3010.965,2303.086,3011.294,2304.964,3011.586,2306.8Z" transform="translate(-2949.449 -2201.441)" fill="#4787fe"/>
            <path id="Trazado_1004531" data-name="Trazado 1004531" d="M3034.726,2211.44a71.155,71.155,0,0,1-24.308,3.741q.252,3.567.5,7.135a63.49,63.49,0,0,0,25.257-4.855q-.374-1.3-.72-2.7Q3035.038,2213.044,3034.726,2211.44Z" transform="translate(-2980.733 -2139.89)" fill="#4059d6"/>
            <g id="Grupo_1182341" data-name="Grupo 1182341" transform="translate(0 78.908)">
              <path id="Trazado_1004532" data-name="Trazado 1004532" d="M2520.114,2343.609c-.726,2.668-5.814,5.849-6.864,6.273-.93.376-2.252-.78-2.916-1.286-.487-.371-.925-.837-1.4-1.2a.948.948,0,0,0-.494-.19,1.632,1.632,0,0,0-.349,0,3.906,3.906,0,0,1-1.063.051,1.249,1.249,0,0,1-1.034-1.3c-.029-1.162,1.794-3.062,2.983-4.175a9.558,9.558,0,0,0,1.675-2.076c.757-1.269,1.966-3.111,2.656-3.215,1.056-.16,4.935,1.2,4.935,1.2S2520.842,2340.938,2520.114,2343.609Z" transform="translate(-2505.991 -2336.48)" fill="#e0774d"/>
            </g>
            <g id="Grupo_1182342" data-name="Grupo 1182342" transform="translate(2.819 77.589)">
              <path id="Trazado_1004533" data-name="Trazado 1004533" d="M2553.89,2314.4c1.538.129,2.909-.778,4.435-.072,2.263,1.047,1.556,3.563,2.246,5.49a1.4,1.4,0,0,1,.129.6c-.11,1.069-1.211.243-1.537-.175a4.676,4.676,0,0,1-.706-1.28c-.257-.711-.341-1.72-1.234-1.742-.113,0-1.4.208-1.406.2C2555.537,2316.74,2554.844,2314.479,2553.89,2314.4Z" transform="translate(-2553.89 -2314.055)" fill="#ffb09e"/>
            </g>
            <g id="Grupo_1182343" data-name="Grupo 1182343" transform="translate(6.827 87.2)">
              <path id="Trazado_1004534" data-name="Trazado 1004534" d="M2627.333,2480.406c-.08.084-.168.17-.267.26a6.215,6.215,0,0,1-.7.53c-.469.311-.854.568-1.177.771-.122.079-.234.147-.338.209-.968.575-1.3.548-1.889.054-.828-.692-1.354-1.164-.581-2.274a1.383,1.383,0,0,1,.031-.232,1.833,1.833,0,0,1,.08-.286,1.667,1.667,0,0,1,1.617-1.1c.06,0,.121,0,.184,0a.7.7,0,0,1,.033-.1c.153-.4.915-1.8,3.6.186C2627.931,2478.42,2628.4,2479.273,2627.333,2480.406Z" transform="translate(-2622.008 -2477.381)" fill="#ffb09e"/>
            </g>
            <g id="Grupo_1182344" data-name="Grupo 1182344" transform="translate(11.878 37.333)">
              <path id="Trazado_1004535" data-name="Trazado 1004535" d="M2737.708,1916.06a98.473,98.473,0,0,1-4.23,15,8.3,8.3,0,0,1-1.935,3.065c-6.315,6.278-23.344,7.89-23.344,7.89-1.325,5.2,1.321,7.08,1.321,7.08,3.247-2.6,12.159,1.72,25.644-4.841,6.573-3.2,11.184-16.031,14.157-22.423C2743.872,1920.532,2742.135,1919.4,2737.708,1916.06Z" transform="translate(-2707.827 -1899.226)" fill="#e0774d"/>
              <path id="Trazado_1004536" data-name="Trazado 1004536" d="M3162.671,1653.356a43.224,43.224,0,0,0,11.346,4.422,30.385,30.385,0,0,0,2.45-17.529c-.545-3-2.6-10.732-6.519-10.232-3.764.481-6.329,5.612-7.415,8.991-.741,2.3-2.245,7.114-3.716,11.841A37.747,37.747,0,0,0,3162.671,1653.356Z" transform="translate(-3132.277 -1629.994)" fill="#4787fe"/>
            </g>
            <g id="Grupo_1182345" data-name="Grupo 1182345" transform="translate(39.967 53.857)">
              <path id="Trazado_1004537" data-name="Trazado 1004537" d="M3199.984,1918a.249.249,0,0,1-.088-.016,3.554,3.554,0,0,1-1.394-1.236,2.072,2.072,0,0,0-2.754-1.006,2.542,2.542,0,0,1-3.256-1.19,2.072,2.072,0,0,0-2.754-1.006,2.542,2.542,0,0,1-3.256-1.19,3.167,3.167,0,0,0-1.168-1.074.258.258,0,1,1,.177-.485,3.552,3.552,0,0,1,1.394,1.236,2.072,2.072,0,0,0,2.754,1.006,2.542,2.542,0,0,1,3.256,1.19,2.071,2.071,0,0,0,2.754,1.006,2.543,2.543,0,0,1,3.256,1.19,3.166,3.166,0,0,0,1.168,1.074.258.258,0,0,1-.089.5Z" transform="translate(-3185.144 -1910.779)" fill="#a6c5ff"/>
            </g>
            <g id="Grupo_1182365" data-name="Grupo 1182365" transform="translate(24.862)">
              <g id="Grupo_1182347" data-name="Grupo 1182347" transform="translate(2.424 22.456)">
                <g id="Grupo_1182346" data-name="Grupo 1182346">
                  <path id="Trazado_1004538" data-name="Trazado 1004538" d="M2982.949,1384.058c-.008-.084-.019-.168-.033-.252a4.839,4.839,0,0,0-.178-.739l-.012-.039q-.075-.227-.169-.446a11.293,11.293,0,0,0-1.222-2,6.16,6.16,0,0,1-.418-.732,6.225,6.225,0,0,0-.492-.857,4.217,4.217,0,0,0-2.755-1.754c-.1-.015-.2-.026-.3-.033a2.744,2.744,0,0,0-2.135.78c-.163.141-.324.29-.486.433a2.063,2.063,0,0,1-1.768.729c0-.013,0-.026,0-.041a.178.178,0,0,0-.059-.154c0-.01,0-.019,0-.029-.01-.078-.02-.156-.029-.234a.19.19,0,0,0-.2-.172.18.18,0,0,0-.186.2c.014.129.029.258.044.387l-.044.1a.231.231,0,0,0,.094.311c.076.592.155,1.183.186,1.778a4.976,4.976,0,0,1-.083,1.2c-.057.3-.136.6-.23.925-.125.431-2.917-.129-2.81.142a.093.093,0,0,0,.023.033l0,0a6.891,6.891,0,0,0,2.2,1.428l.007,0c.216.092.432.172.643.244l.122.041a12.856,12.856,0,0,0,1.694.416c.266.048.483.082.634.11l.06.011q.226.044.453.083.536.088,1.083.142a19.729,19.729,0,0,0,3.529.018l.043,0c.695-.058,1.381-.149,2.051-.268a.932.932,0,0,0,.5-.2.553.553,0,0,0,.07-.082,1.02,1.02,0,0,0,.138-.383A3.787,3.787,0,0,0,2982.949,1384.058Z" transform="translate(-2969.659 -1377.194)" fill="#3e395c"/>
                </g>
              </g>
              <path id="Trazado_1004539" data-name="Trazado 1004539" d="M2989.3,1055.8c0-.024-.005-.047-.008-.07-.035-.283-.079-.564-.13-.842-.085-.458-.189-.907-.3-1.336a16.373,16.373,0,0,0-.714-2.1q-.1-.23-.2-.456-.115-.256-.24-.507a15.6,15.6,0,0,0-2.771-3.935l-.093-.095q-.485-.493-1.016-.949a14.678,14.678,0,0,0-2.666-1.828c-.154-.082-.31-.161-.468-.238a13.818,13.818,0,0,0-3.356-1.124l-.108-.021a16,16,0,0,0-4.762-.156q-.553.061-1.125.158l-.3.053h0a17.757,17.757,0,0,0-2.178.544q-.569.182-1.123.408a12.661,12.661,0,0,0-2.85,1.6c-.087.065-.174.132-.259.2l-.088.07c-.774.616-1.324.99-1.747,1.329a5.314,5.314,0,0,0-.435.384,3.858,3.858,0,0,0-.852,1.35q-.065.155-.131.333c-.087.234-.177.5-.273.8l0,.006a16.371,16.371,0,0,0-.369,1.617c-.033.174-.067.355-.1.54-.087.482-.175.992-.257,1.491-.025.149-.05.3-.074.442-.157.96-.293,1.827-.378,2.295q-.113.625-.227,1.249-.067.363-.131.726c-.008.044-.016.087-.023.131,0,.018-.007.035-.01.053q-.089.494-.175.992-.04.225-.078.45c0,.008,0,.016,0,.024q-.079.463-.144.927-.134.945-.215,1.9c-.005.061-.01.121-.015.182q-.109,1.37-.108,2.746a9.807,9.807,0,0,0,.095,1.524q.033.209.083.408a3.189,3.189,0,0,0,.465,1.055.383.383,0,0,0,.023.033l0,0a3.178,3.178,0,0,0,1.19.984,9.989,9.989,0,0,0,1.007.443l.007,0q.321.121.649.219c.05.015.1.03.15.043.086.025.172.048.258.07a3.956,3.956,0,0,0,1.606.139h0l.062-.01a2.5,2.5,0,0,0,.367-.1,2.6,2.6,0,0,0,.421-.2h0c.06-.034.119-.071.177-.11a3.948,3.948,0,0,0,.881-.837,6.591,6.591,0,0,0,.486-.707c.141-.234.27-.474.388-.712a3.157,3.157,0,0,0,.362-1.036,1.249,1.249,0,0,0-.21-.877l.027.014a2.662,2.662,0,0,1,.278.173.726.726,0,0,1,.274.313,6.364,6.364,0,0,0,1.495,2.443l.058.058c.048.048.1.092.146.139l.021.018.043.038a5.937,5.937,0,0,0,1.321.877,7.041,7.041,0,0,0,1.614.553,10.58,10.58,0,0,0,4.083,0c.069-.01.137-.024.207-.038.135-.026.269-.055.4-.085l.059-.014a14.413,14.413,0,0,0,1.846-.562c.412-.156.811-.329,1.195-.517.325-.158.639-.328.938-.5a28.768,28.768,0,0,0,5.026-4.123c.072-.069.143-.138.212-.209a9.687,9.687,0,0,0,1.642-2.218,10.048,10.048,0,0,0,1.041-2.969q.086-.466.128-.94c.008-.092.015-.184.021-.276,0,0,0,0,0,0A10.412,10.412,0,0,0,2989.3,1055.8Z" transform="translate(-2957.015 -1039.304)" fill="#3e395c"/>
              <g id="Grupo_1182348" data-name="Grupo 1182348" transform="translate(3.748 1.384)">
                <path id="Trazado_1004540" data-name="Trazado 1004540" d="M3020.727,1030.569a10.069,10.069,0,0,1-1.474,8.647c-.059.08-.118.16-.179.239a28.753,28.753,0,0,1-4.339,4.84,14.2,14.2,0,0,1-4.133,2.339c-.066.025-.132.049-.2.069-2.456.846-5.115.958-7.155-.347l-.071-.045c-.056-.038-.111-.075-.166-.115a6.355,6.355,0,0,1-1.915-2.236.719.719,0,0,0-.319-.267,2.649,2.649,0,0,0-.3-.129l-.18-.06c-.887-.286-2.172-.48-2.2-.987a4.465,4.465,0,0,1,1.771-3.39l-4.466-1.914-1.984-.85s-.093-.193-.23-.538c-.934-2.368-3.869-11.933,7.75-15.794a14.592,14.592,0,0,1,14.082,2.134,15.957,15.957,0,0,1,4.943,6.318A16.128,16.128,0,0,1,3020.727,1030.569Z" transform="translate(-2992.168 -1019.124)" fill="#3e395c"/>
              </g>
              <g id="Grupo_1182349" data-name="Grupo 1182349" transform="translate(10.731 20.322)">
                <path id="Trazado_1004541" data-name="Trazado 1004541" d="M3122.726,1343.689c.021-.091.1-.422.195-.826.037-.154.078-.318.119-.483a5.192,5.192,0,0,1,.47-1.441,1.263,1.263,0,0,0-.5.088,2.356,2.356,0,0,0-.841.617c-.121.13-.234.268-.34.4a3.259,3.259,0,0,1-1.5,1.278c-.775.261-1.588.411-2.375.632a18.03,18.03,0,0,0-4.172,1.766q-.674.392-1.322.845h0c-.068.043-.137.091-.2.139-.033-.089-.065-.181-.1-.269h0c-.016-.048-.035-.091-.055-.136-.038-.093-.156-.017-.125.076h0s0,0,0,.008c.052.136.1.273.142.415-.036.03-.077.055-.116.083-.126.095-.022.334.1.243.031-.022.063-.041.093-.063a16.265,16.265,0,0,1,.394,2.258s0,.009,0,.012c0,.109.009.218.019.327a.2.2,0,0,0,0,.026l0,.027.032.231.183,1.322c.025.134.049.266.075.4h0l.02.1c.012.066.025.132.038.2q.049.257.1.514v0a10.168,10.168,0,0,1,.2,2.923,7.942,7.942,0,0,1-.382,1.677,27.218,27.218,0,0,1-1.935,3.976.659.659,0,0,0-.048.672,1.2,1.2,0,0,0,1.226.312,19.383,19.383,0,0,0,9.417-6.106,8.965,8.965,0,0,0,1.425-1.7,1.165,1.165,0,0,0,.117-.361.661.661,0,0,0,0-.142,1.3,1.3,0,0,0-.044-.223,4.319,4.319,0,0,0-.258-.641c-.045-.1-.092-.2-.135-.292a2.877,2.877,0,0,1-.166-.448,11.217,11.217,0,0,1-.252-1.415c0-.034-.009-.068-.012-.1q-.045-.412-.07-.826c0-.076-.009-.152-.012-.228a17.9,17.9,0,0,1,.139-3.168A26.15,26.15,0,0,1,3122.726,1343.689Z" transform="translate(-3110.832 -1340.938)" fill="#e07752"/>
              </g>
              <g id="Grupo_1182350" data-name="Grupo 1182350" transform="translate(12.522 26.866)">
                <path id="Trazado_1004542" data-name="Trazado 1004542" d="M3147.069,1452.14a10.426,10.426,0,0,1-5.589,3.786l-.219-1.581A15.88,15.88,0,0,0,3147.069,1452.14Z" transform="translate(-3141.261 -1452.14)" fill="#c46843"/>
              </g>
              <g id="Grupo_1182351" data-name="Grupo 1182351" transform="translate(4.965 6.167)">
                <path id="Trazado_1004543" data-name="Trazado 1004543" d="M3013.352,1118.084c.027.1.055.2.086.292,0,.014.009.03.014.043.049.148.1.3.164.442a10.1,10.1,0,0,0,1.488,2.449,5.55,5.55,0,0,0,2.4,1.678c4.182,1.583,9.435-2.305,10.4-3.081.652-2.526,8.117-9.915,1.861-16.245a12.13,12.13,0,0,0-3.266-2.252,9.424,9.424,0,0,0-3.759-1.015,7.862,7.862,0,0,0-3.5.738c-2.063.95-4.082,1.788-5.159,3.943a12.061,12.061,0,0,0-.916,5.84,14.478,14.478,0,0,1-.293,2.2,12.589,12.589,0,0,0,.094,2.415c0,.046.01.093.015.136,0,.028.006.055.01.081a1.245,1.245,0,0,0,.038.178s0,.006,0,.009c.018.069.042.136.062.2,0,0,0,.007,0,.01.012.039.022.077.033.117C3013.289,1116.86,3013.192,1117.478,3013.352,1118.084Z" transform="translate(-3012.843 -1100.395)" fill="#e07752"/>
              </g>
              <g id="Grupo_1182352" data-name="Grupo 1182352" transform="translate(3.91 15.737)">
                <path id="Trazado_1004544" data-name="Trazado 1004544" d="M2998.265,1264.923a7.5,7.5,0,0,0-.123-1.171c-.042-.219-.085-.614-.31-.731a.065.065,0,0,0-.1.071c0,.018.013.037.018.058a.068.068,0,0,0-.084.016c-.574.648-.828.122-1.37.8h0a9.839,9.839,0,0,1-.387,1.708,4.891,4.891,0,0,1-.306.731c-.238.454-.752,1-.679,1.559a1.091,1.091,0,0,0,.887.978,2.4,2.4,0,0,0,.351.042,1.866,1.866,0,0,0,.593-.053h0a.616.616,0,0,0,.287-.16A5.7,5.7,0,0,0,2998,1267c.022-.068.042-.125.058-.172l.016-.048A5.331,5.331,0,0,0,2998.265,1264.923Z" transform="translate(-2994.922 -1263.013)" fill="#e07752"/>
              </g>
              <g id="Grupo_1182354" data-name="Grupo 1182354" transform="translate(7.525 4.372)">
                <g id="Grupo_1182353" data-name="Grupo 1182353">
                  <path id="Trazado_1004545" data-name="Trazado 1004545" d="M3073.08,1078.63c.629-1.089.766-1.989.006-2.8-1.954-2.08-6.087-3.65-8.574-4.915l-.428-.221a7.606,7.606,0,0,0-1.692-.7,3.616,3.616,0,0,0-1.59-.014,4.759,4.759,0,0,0-.8.243c-.088.035-.175.072-.26.112a10.088,10.088,0,0,0-2.032,1.323c-.185.145-.384.284-.57.432a2.623,2.623,0,0,0-.544.547v0a1.376,1.376,0,0,0-.147.269h0a1.343,1.343,0,0,0-.1.462q0,.077,0,.155a3.574,3.574,0,0,0,.162.975,5.708,5.708,0,0,0,.25.67c.069.157.144.311.223.462.041.081.084.161.129.24.112.2.229.4.343.578q.283.449.607.874l.031.041h0a13.073,13.073,0,0,0,2.137,2.188l.014.011q.329.267.673.51a10.646,10.646,0,0,0,1.65.958c.063.03.125.058.187.086a11.406,11.406,0,0,0,2.333.745h0c.251.052.5.1.747.131a13.14,13.14,0,0,0,2.416.118,9.581,9.581,0,0,0,3.71-.79,1.021,1.021,0,0,0,.2-.137,1.827,1.827,0,0,1,1.016-.094c.659.042,1.469.148,1.943.115h0c.2-.014.334-.051.382-.126C3075.57,1080.964,3073.017,1078.742,3073.08,1078.63Z" transform="translate(-3056.34 -1069.896)" fill="#3e395c"/>
                </g>
              </g>
              <g id="Grupo_1182356" data-name="Grupo 1182356" transform="translate(6.834 13.486)">
                <g id="Grupo_1182355" data-name="Grupo 1182355">
                  <path id="Trazado_1004546" data-name="Trazado 1004546" d="M3047.654,1225.356a5.351,5.351,0,0,0-1.649-.555,1.807,1.807,0,0,0-1.147.145.435.435,0,0,0-.215.214c-.2.521.556.432.893.481a12.249,12.249,0,0,1,1.934.441c.4.125.789.254,1.181.391a.212.212,0,0,0,.139.015.1.1,0,0,0,.062-.059.119.119,0,0,0,.007-.055C3048.809,1225.962,3048.016,1225.549,3047.654,1225.356Z" transform="translate(-3044.609 -1224.768)" fill="#3e395c"/>
                </g>
              </g>
              <g id="Grupo_1182357" data-name="Grupo 1182357" transform="translate(7.345 16.063)">
                <path id="Trazado_1004547" data-name="Trazado 1004547" d="M3053.3,1269.779c-.021-.312-.024-1,.316-1.161.7-.336.868.827.749,1.263-.069.252-.226.606-.53.623C3053.474,1270.524,3053.328,1270.177,3053.3,1269.779Z" transform="translate(-3053.292 -1268.558)" fill="#3e395c"/>
              </g>
              <g id="Grupo_1182358" data-name="Grupo 1182358" transform="translate(21.952 15.148)">
                <path id="Trazado_1004548" data-name="Trazado 1004548" d="M3306.948,1255.6a3.2,3.2,0,0,0-1.106-2.063h0a2.152,2.152,0,0,0-1.467-.533,2.638,2.638,0,0,0-.463.064,3.118,3.118,0,0,0-.927.371,2.478,2.478,0,0,0-.3.214,1.455,1.455,0,0,0-.573,1.553.071.071,0,0,0,.027.041c-.023.139-.074.289-.093.362-.079.31-.181.611-.274.916a5.747,5.747,0,0,0-.274,1.774c0,.008,0,.016,0,.025a1.5,1.5,0,0,0,.114.559,1.188,1.188,0,0,0,.3.415,1.537,1.537,0,0,0,.577.321,2.452,2.452,0,0,0,.525.1c.08.007.161.011.243.011a3.658,3.658,0,0,0,1.71-.407A3.975,3.975,0,0,0,3306.948,1255.6Z" transform="translate(-3301.495 -1253.001)" fill="#e07752"/>
              </g>
              <g id="Grupo_1182359" data-name="Grupo 1182359" transform="translate(5.575 23.655)">
                <path id="Trazado_1004549" data-name="Trazado 1004549" d="M3023.21,1398.1q.036.11.077.222a7.752,7.752,0,0,0,.431.965,1.433,1.433,0,0,0,1.046-.421,1.673,1.673,0,0,0,.361-.891,2.167,2.167,0,0,0,.024-.412c-.107.053-.22.1-.339.153A5.486,5.486,0,0,1,3023.21,1398.1Z" transform="translate(-3023.21 -1397.562)" fill="#fff"/>
              </g>
              <g id="Grupo_1182361" data-name="Grupo 1182361" transform="translate(20.282 8.752)">
                <g id="Grupo_1182360" data-name="Grupo 1182360">
                  <path id="Trazado_1004550" data-name="Trazado 1004550" d="M3286.284,1161.834h0c-.04-1.209-.292-2.475-.31-3.407,0-.165,0-.33-.006-.494,0-.117,0-.235,0-.352,0-.848.005-1.7,0-2.543q0-.333,0-.665h0c-.01-.833-.038-1.666-.108-2.5-.021-.262-.048-.523-.078-.785-.007-.061-.015-.122-.022-.183a14.324,14.324,0,0,0-.936-3.823c-.07-.171-.144-.344-.224-.521a17.206,17.206,0,0,0-1.231-2.23v0l0,0-.005-.008c-.069-.108.648,1.6.614,1.718a4.455,4.455,0,0,0-.131.586,5.537,5.537,0,0,0-.059.631c-.007.163-.007.326,0,.489.018.68.115,1.364.176,2.041a9.2,9.2,0,0,1-.007,1.911h0c0,.007,0,.014,0,.021a6.435,6.435,0,0,1-.613,2.092q-.114.236-.253.471a7.192,7.192,0,0,1-2.851,2.845,6.425,6.425,0,0,1-4.183.437c-.1-.019-.248-.141-.281-.036s-.061.189-.094.284c-.523,1.52-1.432,3.25-1.94,4.864a13.063,13.063,0,0,0-.514,2.292c-.015.119-.028.238-.039.357-.021.225-.046.477-.045.728h0c0,.058,0,.116.006.173a1.627,1.627,0,0,0,.2.727c.4.69,1.376.588,2.07.574h.071l.128,0q.589-.008,1.167-.055a21.134,21.134,0,0,0,2.417-.335c.262-.051.525-.107.788-.166l.121-.027.708-.157a20.782,20.782,0,0,0,2.116-.557c.295-.1.584-.208.863-.333.074-.033.147-.067.219-.1l.019-.009a5.693,5.693,0,0,0,.949-.576,4.273,4.273,0,0,0,.556-.5,3.426,3.426,0,0,0,.763-2.259C3286.292,1162.246,3286.29,1162.041,3286.284,1161.834Z" transform="translate(-3273.129 -1144.316)" fill="#3e395c"/>
                </g>
              </g>
              <g id="Grupo_1182362" data-name="Grupo 1182362" transform="translate(23.477 16.776)">
                <path id="Trazado_1004551" data-name="Trazado 1004551" d="M3327.414,1283.16a4.032,4.032,0,0,1,.939-1.724,3.154,3.154,0,0,1,1.686-.763c.124-.025.191.179.066.218a2.972,2.972,0,0,0-1.771,1.217c-.255.417-.365.891-.806,1.154C3327.463,1283.3,3327.4,1283.223,3327.414,1283.16Z" transform="translate(-3327.411 -1280.671)" fill="#c46843"/>
              </g>
              <g id="Grupo_1182363" data-name="Grupo 1182363" transform="translate(5.152 21.637)">
                <path id="Trazado_1004552" data-name="Trazado 1004552" d="M3016.03,1363.345s0,.005,0,.008c.018.069.042.136.062.2,0,0,0,.007,0,.01.012.039.022.078.033.117.258-.042.515-.113.757-.174a.115.115,0,0,0-.036-.227C3016.579,1363.3,3016.3,1363.322,3016.03,1363.345Z" transform="translate(-3016.03 -1363.283)" fill="#c46843"/>
              </g>
              <g id="Grupo_1182364" data-name="Grupo 1182364" transform="translate(0)">
                <ellipse id="Elipse_15054" data-name="Elipse 15054" cx="1.258" cy="1.258" rx="1.258" ry="1.258" transform="translate(29.887 31.66) rotate(-80.782)" fill="#3e395c"/>
                <circle id="Elipse_15055" data-name="Elipse 15055" cx="1.966" cy="1.966" r="1.966" transform="translate(27.891 29.743)" fill="#3e395c"/>
                <ellipse id="Elipse_15056" data-name="Elipse 15056" cx="2.204" cy="2.819" rx="2.204" ry="2.819" transform="translate(22.805 3.569) rotate(-19.785)" fill="#3e395c"/>
                <ellipse id="Elipse_15057" data-name="Elipse 15057" cx="2.204" cy="2.005" rx="2.204" ry="2.005" transform="translate(29.825 16.412) rotate(-19.785)" fill="#3e395c"/>
                <ellipse id="Elipse_15058" data-name="Elipse 15058" cx="2.005" cy="2.204" rx="2.005" ry="2.204" transform="translate(19.63 4.178) rotate(-69.537)" fill="#3e395c"/>
                <ellipse id="Elipse_15059" data-name="Elipse 15059" cx="3.378" cy="2.005" rx="3.378" ry="2.005" transform="matrix(0.995, -0.1, 0.1, 0.995, 13.74, 0.678)" fill="#3e395c"/>
                <ellipse id="Elipse_15060" data-name="Elipse 15060" cx="2.204" cy="2.005" rx="2.204" ry="2.005" transform="translate(29.335 19.514) rotate(-19.785)" fill="#3e395c"/>
                <ellipse id="Elipse_15061" data-name="Elipse 15061" cx="2.204" cy="2.487" rx="2.204" ry="2.487" transform="matrix(0.958, -0.286, 0.286, 0.958, 30.802, 22.697)" fill="#3e395c"/>
                <ellipse id="Elipse_15062" data-name="Elipse 15062" cx="2.487" cy="2.204" rx="2.487" ry="2.204" transform="matrix(0.077, -0.997, 0.997, 0.077, 0, 27.626)" fill="#3e395c"/>
                <ellipse id="Elipse_15063" data-name="Elipse 15063" cx="2.487" cy="2.204" rx="2.487" ry="2.204" transform="matrix(0.077, -0.997, 0.997, 0.077, 0.599, 18.485)" fill="#3e395c"/>
                <ellipse id="Elipse_15064" data-name="Elipse 15064" cx="2.204" cy="2.487" rx="2.204" ry="2.487" transform="matrix(0.958, -0.286, 0.286, 0.958, 29.088, 26.206)" fill="#3e395c"/>
                <circle id="Elipse_15065" data-name="Elipse 15065" cx="2.469" cy="2.469" r="2.469" transform="translate(10.723 1.365)" fill="#3e395c"/>
                <circle id="Elipse_15066" data-name="Elipse 15066" cx="1.952" cy="1.952" r="1.952" transform="translate(19.894 32.737) rotate(-80.782)" fill="#3e395c"/>
                <circle id="Elipse_15067" data-name="Elipse 15067" cx="2.462" cy="2.462" r="2.462" transform="translate(22.165 34.471) rotate(-76.714)" fill="#3e395c"/>
                <circle id="Elipse_15068" data-name="Elipse 15068" cx="2.462" cy="2.462" r="2.462" transform="translate(26.006 27.879)" fill="#3e395c"/>
                <circle id="Elipse_15069" data-name="Elipse 15069" cx="1.258" cy="1.258" r="1.258" transform="translate(27.074 32.382)" fill="#3e395c"/>
                <circle id="Elipse_15070" data-name="Elipse 15070" cx="1.258" cy="1.258" r="1.258" transform="translate(6.886 30.451)" fill="#3e395c"/>
                <ellipse id="Elipse_15071" data-name="Elipse 15071" cx="1.258" cy="1.258" rx="1.258" ry="1.258" transform="translate(4.873 30.183) rotate(-22.5)" fill="#3e395c"/>
                <circle id="Elipse_15072" data-name="Elipse 15072" cx="1.517" cy="1.517" r="1.517" transform="translate(0.492 20.057)" fill="#3e395c"/>
                <circle id="Elipse_15073" data-name="Elipse 15073" cx="1.258" cy="1.258" r="1.258" transform="translate(0.465 17.255)" fill="#3e395c"/>
                <circle id="Elipse_15074" data-name="Elipse 15074" cx="1.258" cy="1.258" r="1.258" transform="translate(1.281 18.56)" fill="#3e395c"/>
                <circle id="Elipse_15075" data-name="Elipse 15075" cx="1.258" cy="1.258" r="1.258" transform="translate(2.152 11.65)" fill="#3e395c"/>
                <circle id="Elipse_15076" data-name="Elipse 15076" cx="1.258" cy="1.258" r="1.258" transform="translate(3.73 6.916)" fill="#3e395c"/>
                <ellipse id="Elipse_15077" data-name="Elipse 15077" cx="1.735" cy="1.258" rx="1.735" ry="1.258" transform="translate(2.156 11.572) rotate(-63.448)" fill="#3e395c"/>
                <ellipse id="Elipse_15078" data-name="Elipse 15078" cx="1.735" cy="1.258" rx="1.735" ry="1.258" transform="translate(4.712 7.599) rotate(-63.448)" fill="#3e395c"/>
                <ellipse id="Elipse_15079" data-name="Elipse 15079" cx="1.258" cy="1.735" rx="1.258" ry="1.735" transform="matrix(0.085, -0.996, 0.996, 0.085, 16.042, 17.058)" fill="#3e395c"/>
                <ellipse id="Elipse_15080" data-name="Elipse 15080" cx="1.258" cy="1.735" rx="1.258" ry="1.735" transform="matrix(0.085, -0.996, 0.996, 0.085, 13.552, 17.058)" fill="#3e395c"/>
                <ellipse id="Elipse_15081" data-name="Elipse 15081" cx="1.258" cy="1.735" rx="1.258" ry="1.735" transform="matrix(0.085, -0.996, 0.996, 0.085, 6.614, 10.201)" fill="#3e395c"/>
                <ellipse id="Elipse_15082" data-name="Elipse 15082" cx="1.258" cy="1.735" rx="1.258" ry="1.735" transform="matrix(0.085, -0.996, 0.996, 0.085, 7.921, 11.753)" fill="#3e395c"/>
                <ellipse id="Elipse_15083" data-name="Elipse 15083" cx="1.258" cy="1.735" rx="1.258" ry="1.735" transform="matrix(0.5, -0.866, 0.866, 0.5, 8.609, 12.89)" fill="#3e395c"/>
                <ellipse id="Elipse_15084" data-name="Elipse 15084" cx="1.258" cy="1.735" rx="1.258" ry="1.735" transform="matrix(0.5, -0.866, 0.866, 0.5, 10.895, 14.496)" fill="#3e395c"/>
                <circle id="Elipse_15085" data-name="Elipse 15085" cx="2.469" cy="2.469" r="2.469" transform="translate(7.049 1.936)" fill="#3e395c"/>
                <ellipse id="Elipse_15086" data-name="Elipse 15086" cx="1.877" cy="2.469" rx="1.877" ry="2.469" transform="translate(0.753 29.447) rotate(-63.889)" fill="#3e395c"/>
                <ellipse id="Elipse_15087" data-name="Elipse 15087" cx="1.877" cy="2.469" rx="1.877" ry="2.469" transform="translate(7.554 31.95) rotate(-63.889)" fill="#3e395c"/>
                <ellipse id="Elipse_15088" data-name="Elipse 15088" cx="2.204" cy="3.857" rx="2.204" ry="3.857" transform="translate(25.523 6.69) rotate(-32.724)" fill="#3e395c"/>
                <ellipse id="Elipse_15089" data-name="Elipse 15089" cx="2.204" cy="2.819" rx="2.204" ry="2.819" transform="translate(28.845 11.839) rotate(-19.785)" fill="#3e395c"/>
              </g>
            </g>
            <path id="Trazado_1004553" data-name="Trazado 1004553" d="M3380.379,2094.887a7.784,7.784,0,0,1-1.8-.722c-.147-.084-.036-.3.115-.26.559.136,1.1.313,1.655.46C3380.36,2094.539,3380.369,2094.712,3380.379,2094.887Z" transform="translate(-3327.167 -2029.268)" fill="#246cf0"/>
            <path id="Trazado_1004554" data-name="Trazado 1004554" d="M3166.049,1653.563c-3.369,3.068-4.64,7.682-5.7,11.951-.628,2.518-1.264,5.024-2.111,7.479-.012.038-.025.074-.038.112-.035.1-.068.2-.1.295.112.086.227.172.344.256a5.613,5.613,0,0,0,1.67.876.146.146,0,0,0,.112-.266c-.538-.355-1.114-.639-1.645-1.01.719-2.1,1.326-4.235,1.849-6.4,1.148-4.749,2.346-9.5,5.66-13.251C3166.107,1653.575,3166.073,1653.54,3166.049,1653.563Z" transform="translate(-3119.718 -1614.836)" fill="#246cf0"/>
          </g>
          <rect id="Rectángulo_456739" data-name="Rectángulo 456739" width="108.023" height="4.438" transform="translate(114.601 112.605) rotate(180)" fill="#598ae6"/>
          <ellipse id="Elipse_15090" data-name="Elipse 15090" cx="1.028" cy="0.836" rx="1.028" ry="0.836" transform="matrix(0.743, -0.67, 0.67, 0.743, 79.064, 51.375)" fill="#fff"/>
          <rect id="Rectángulo_456740" data-name="Rectángulo 456740" width="7.219" height="1.255" transform="translate(108.127 111.014) rotate(180)" fill="#fff"/>
        </g>
        <g id="Grupo_1182366" data-name="Grupo 1182366" transform="translate(99.851 21.552)">
          <ellipse id="Elipse_15091" data-name="Elipse 15091" cx="21.005" cy="10.767" rx="21.005" ry="10.767" fill="#4256ba"/>
          <path id="Trazado_1004555" data-name="Trazado 1004555" d="M2182.238,1157.87l-4.792,8.025a.8.8,0,0,0,1,1.146l12.879-5.552Z" transform="translate(-2175.665 -1143.421)" fill="#4256ba"/>
          <circle id="Elipse_15092" data-name="Elipse 15092" cx="3.31" cy="3.31" r="3.31" transform="translate(6.3 7.457)" fill="#fff"/>
          <circle id="Elipse_15093" data-name="Elipse 15093" cx="3.31" cy="3.31" r="3.31" transform="translate(17.695 7.457)" fill="#fff"/>
          <circle id="Elipse_15094" data-name="Elipse 15094" cx="3.31" cy="3.31" r="3.31" transform="translate(29.09 7.457)" fill="#fff"/>
        </g>
        <g id="Grupo_1182367" data-name="Grupo 1182367" transform="translate(114.556)">
          <ellipse id="Elipse_15095" data-name="Elipse 15095" cx="21.005" cy="10.767" rx="21.005" ry="10.767" fill="#feaf40"/>
          <path id="Trazado_1004556" data-name="Trazado 1004556" d="M2855.71,791.641l4.792,8.025a.8.8,0,0,1-1,1.146l-12.88-5.552Z" transform="translate(-2820.273 -777.192)" fill="#feaf40"/>
          <circle id="Elipse_15096" data-name="Elipse 15096" cx="3.31" cy="3.31" r="3.31" transform="translate(29.09 7.457)" fill="#fff"/>
          <circle id="Elipse_15097" data-name="Elipse 15097" cx="3.31" cy="3.31" r="3.31" transform="translate(17.695 7.457)" fill="#fff"/>
          <circle id="Elipse_15098" data-name="Elipse 15098" cx="3.31" cy="3.31" r="3.31" transform="translate(6.3 7.457)" fill="#fff"/>
        </g>
      </g>
      <g id="clouds" transform="translate(340.421 317.439)">
        <path id="cloud_2_" d="M1250.45,400.964h0a6.791,6.791,0,0,1,9.627-6.171,12.681,12.681,0,0,1,23.578-1.494,9.168,9.168,0,0,1,13.455,4.043,4.692,4.692,0,0,1,7.676,3.621H1250.45Z" transform="translate(-1250.45 -385.969)" fill="#b3d6ff"/>
        <path id="cloud_3_" d="M3662.911,755.06h0a5.957,5.957,0,0,0-8.445-5.413,11.124,11.124,0,0,0-20.682-1.31,8.042,8.042,0,0,0-11.8,3.547,4.116,4.116,0,0,0-6.733,3.177h47.662Z" transform="translate(-3476.085 -720.96)" fill="#b3d6ff"/>
      </g>
    </g>
  </g>
</svg>
