<svg xmlns="http://www.w3.org/2000/svg" width="150" height="150" viewBox="0 0 150 150">
  <g id="Grupo_1177489" data-name="Grupo 1177489" transform="translate(-383.746 -8400)">
    <circle id="Elipse_13609" data-name="Elipse 13609" cx="75" cy="75" r="75" transform="translate(383.746 8400)" fill="#b3c487"/>
    <g id="Icons" transform="translate(409.746 8425.653)">
      <path id="Trazado_1015340" data-name="Trazado 1015340" d="M83.374,93.667h-66.5A.875.875,0,0,1,16,92.792V48.675a.875.875,0,0,1,1.75,0V91.917H82.5V48.675a.875.875,0,1,1,1.75,0V92.792A.875.875,0,0,1,83.374,93.667Z" transform="translate(-1.125 -4.753)" fill="#484e36" stroke="#484e36" stroke-width="1"/>
      <path id="Trazado_1015341" data-name="Trazado 1015341" d="M16.1,47.655A9.117,9.117,0,0,1,7,38.564V36.385a.875.875,0,0,1,.875-.875H24.333a.875.875,0,0,1,.875.875v2.179A9.117,9.117,0,0,1,16.1,47.655ZM8.75,37.26v1.3a7.359,7.359,0,1,0,14.708,0v-1.3Z" transform="translate(0 -3.217)" fill="#484e36" stroke="#484e36" stroke-width="1"/>
      <path id="Trazado_1015342" data-name="Trazado 1015342" d="M34.9,47.655a9.117,9.117,0,0,1-9.1-9.091V36.385a.875.875,0,0,1,.875-.875H43.133a.875.875,0,0,1,.875.875v2.179A9.117,9.117,0,0,1,34.9,47.655ZM27.55,37.26v1.3a7.359,7.359,0,1,0,14.708,0v-1.3Z" transform="translate(-2.35 -3.217)" fill="#484e36" stroke="#484e36" stroke-width="1"/>
      <path id="Trazado_1015343" data-name="Trazado 1015343" d="M53.7,47.655a9.109,9.109,0,0,1-9.1-9.091V36.385a.875.875,0,0,1,.875-.875h16.45a.875.875,0,0,1,.875.875v2.179a9.109,9.109,0,0,1-9.1,9.091ZM46.35,37.26v1.3a7.35,7.35,0,0,0,14.7,0v-1.3Z" transform="translate(-4.701 -3.217)" fill="#484e36" stroke="#484e36" stroke-width="1"/>
      <path id="Trazado_1015344" data-name="Trazado 1015344" d="M72.5,47.655a9.117,9.117,0,0,1-9.109-9.091V36.385a.875.875,0,0,1,.875-.875H80.723a.875.875,0,0,1,.875.875v2.179A9.117,9.117,0,0,1,72.5,47.655ZM65.14,37.26v1.3a7.359,7.359,0,1,0,14.708,0v-1.3Z" transform="translate(-7.05 -3.217)" fill="#484e36" stroke="#484e36" stroke-width="1"/>
      <path id="Trazado_1015345" data-name="Trazado 1015345" d="M24.335,34.043H7.876a.875.875,0,0,1-.744-1.321l14-22.513a.875.875,0,0,1,.744-.429H32.717a.875.875,0,0,1,.822,1.181L25.157,33.475A.875.875,0,0,1,24.335,34.043ZM9.46,32.293H23.722L31.5,11.53H22.34Z" transform="translate(-0.001 0)" fill="#484e36" stroke="#484e36" stroke-width="1"/>
      <path id="Trazado_1015346" data-name="Trazado 1015346" d="M43.133,34.043H26.675a.88.88,0,0,1-.822-1.181l8.382-22.513a.875.875,0,0,1,.822-.569H45.924a.862.862,0,0,1,.866.98L44,33.273A.875.875,0,0,1,43.133,34.043Zm-15.2-1.75h14.42L44.979,11.53H35.67Z" transform="translate(-2.35 0)" fill="#484e36" stroke="#484e36" stroke-width="1"/>
      <path id="Trazado_1015347" data-name="Trazado 1015347" d="M61.924,34.043H45.474a.886.886,0,0,1-.875-.98l2.8-22.522a.875.875,0,0,1,.875-.761H59.133a.875.875,0,0,1,.875.761l2.8,22.522a.886.886,0,0,1-.884.98Zm-15.461-1.75H60.935L58.363,11.53H49.035Z" transform="translate(-4.7)" fill="#484e36" stroke="#484e36" stroke-width="1"/>
      <path id="Trazado_1015348" data-name="Trazado 1015348" d="M80.325,34.043H63.866a.875.875,0,0,1-.875-.77L60.209,10.76a.862.862,0,0,1,.866-.98H71.942a.875.875,0,0,1,.822.569l8.382,22.513a.88.88,0,0,1-.822,1.181Zm-15.68-1.75h14.42L71.33,11.53H62.064Z" transform="translate(-6.651 0)" fill="#484e36" stroke="#484e36" stroke-width="1"/>
      <path id="Trazado_1015349" data-name="Trazado 1015349" d="M98.325,34.043H81.867a.875.875,0,0,1-.822-.569L72.662,10.961a.875.875,0,0,1,.822-1.181H84.326a.875.875,0,0,1,.744.411l14,22.513a.875.875,0,0,1-.744,1.339Zm-15.846-1.75H96.75L83.862,11.53H74.745Z" transform="translate(-8.202 0)" fill="#484e36" stroke="#484e36" stroke-width="1"/>
      <path id="Trazado_1015350" data-name="Trazado 1015350" d="M91.3,47.655a9.117,9.117,0,0,1-9.109-9.091V36.385a.875.875,0,0,1,.875-.875H99.523a.875.875,0,0,1,.875.875v2.179a9.117,9.117,0,0,1-9.1,9.091ZM83.94,37.26v1.3a7.359,7.359,0,1,0,14.708,0v-1.3Z" transform="translate(-9.4 -3.217)" fill="#484e36" stroke="#484e36" stroke-width="1"/>
      <path id="Trazado_1015351" data-name="Trazado 1015351" d="M90.123,99.97H7.875a.875.875,0,1,1,0-1.75H90.123a.875.875,0,1,1,0,1.75Z" transform="translate(0 -11.057)" fill="#484e36" stroke="#484e36" stroke-width="1"/>
      <path id="Trazado_1015352" data-name="Trazado 1015352" d="M48.98,95.432H26.545a.875.875,0,0,1-.875-.875V62.795a.875.875,0,0,1,.875-.875H48.98a.875.875,0,0,1,.875.875V94.557A.875.875,0,0,1,48.98,95.432Zm-21.56-1.75H48.1V63.67H27.42Z" transform="translate(-2.334 -6.518)" fill="#484e36" stroke="#484e36" stroke-width="1"/>
      <path id="Trazado_1015353" data-name="Trazado 1015353" d="M80.127,85.212H58.585a.875.875,0,0,1-.875-.875V62.795a.875.875,0,0,1,.875-.875H80.127a.875.875,0,0,1,.875.875V84.337A.875.875,0,0,1,80.127,85.212ZM59.46,83.462H79.252V63.67H59.46Z" transform="translate(-6.34 -6.518)" fill="#484e36" stroke="#484e36" stroke-width="1"/>
      <path id="Trazado_1015354" data-name="Trazado 1015354" d="M75.283,82.006h-10.5a1.514,1.514,0,0,1-1.5-1.75l1.356-8.146a1.5,1.5,0,0,1,1.487-1.26h7.831a1.5,1.5,0,0,1,1.487,1.269l1.356,8.137a1.514,1.514,0,0,1-1.5,1.75Zm-.236-1.47Zm-9.984-.28H75.03l-1.269-7.665H66.332Z" transform="translate(-7.035 -7.635)" fill="#484e36" stroke="#484e36" stroke-width="1"/>
      <path id="Trazado_1015355" data-name="Trazado 1015355" d="M72.777,74.006a.875.875,0,0,1-.875-.875V69.893a1.33,1.33,0,1,0-2.625,0v3.237a.875.875,0,1,1-1.75,0V69.893a3.08,3.08,0,1,1,6.125,0v3.237A.875.875,0,0,1,72.777,74.006Z" transform="translate(-7.565 -7.089)" fill="#484e36" stroke="#484e36" stroke-width="1"/>
      <path id="Trazado_1015356" data-name="Trazado 1015356" d="M45.432,83.395a2.712,2.712,0,1,1,2.712-2.712,2.712,2.712,0,0,1-2.712,2.712Zm0-3.675a.962.962,0,1,0,.962.962A.962.962,0,0,0,45.432,79.72Z" transform="translate(-4.466 -8.525)" fill="#484e36" stroke="#484e36" stroke-width="1"/>
    </g>
  </g>
</svg>
