<svg xmlns="http://www.w3.org/2000/svg" width="98" height="98" viewBox="0 0 98 98">
  <g id="Grupo_1182040" data-name="Grupo 1182040" transform="translate(-289.609 -11611.898)">
    <g id="Grupo_1177473" data-name="Grupo 1177473" transform="translate(289.609 11611.898)">
      <ellipse id="Elipse_13609" data-name="Elipse 13609" cx="49" cy="49" rx="49" ry="49" transform="translate(0)" fill="#fff"/>
      <g id="Grupo_1182882" data-name="Grupo 1182882" transform="translate(17 17)">
        <path id="Trazado_1015284" data-name="Trazado 1015284" d="M31.222,27.223a3.061,3.061,0,0,0-3.058-3.058H24.934L22.09,21.286a4.574,4.574,0,0,0-5.32-.869l-7.8,3.932c-.986.574-2.865.371-3.967.4a1.007,1.007,0,0,0-1,1.014l.16,12.019a1,1,0,0,0,.81.968c-.044-.046,1.47.348,2.781.579a1,1,0,0,0,.226-1.974c-.73-.171-1.365-.309-1.828-.405l-.136-10.2a7.609,7.609,0,0,0,3.857-.617l7.8-3.93a2.579,2.579,0,0,1,3,.49L24.6,26.677a.82.82,0,0,1,0,1.161l-3.775,3.824a1.019,1.019,0,0,1-1.537-1.326l2.168-2.849a1.037,1.037,0,1,0-1.487-1.344,6.345,6.345,0,0,1-1.369-1.5,1,1,0,1,0-1.9.632c.138.417.507,1.071,2.048,2.466l-1.057,1.388a3.021,3.021,0,0,0,3.515,4.618.994.994,0,0,0,.929.648s4.707,0,4.707,0a1.059,1.059,0,1,1,0,2.118s-5.63-.009-5.662,0a2.938,2.938,0,0,0-2.91,2.9,2.976,2.976,0,0,0,.133.884,9.921,9.921,0,0,1-3.244-.652,22.611,22.611,0,0,0-3.111-1.187,1,1,0,1,0-.6,1.91,20.7,20.7,0,0,1,2.833,1.075c1.366.694,4.105.981,7.556.949,3.323-.3,6.723.622,7.089-3.05a2.8,2.8,0,0,0-.364-1.36,3.082,3.082,0,0,0,.8-4.247,3.3,3.3,0,0,0,.623-4.071,3.045,3.045,0,0,0,1.233-2.438Zm-2,0c-.038,1.363-1.65,1.025-2.577,1.058a2.83,2.83,0,0,0-.025-2.115h1.544a1.059,1.059,0,0,1,1.058,1.058ZM28.4,31.106c.056.623-.088,1.259-.831,1.288H22.91L25,30.28h2.1c.623-.054,1.268.077,1.3.826Zm-2.245,9.058a37.826,37.826,0,0,1-5.036.169.913.913,0,0,1,.061-1.823c1.15,0,3.771.009,4.944,0a.826.826,0,0,1,.031,1.649Z" fill="#484e36"/>
        <path id="Trazado_1015285" data-name="Trazado 1015285" d="M13.675,33.3a1,1,0,1,0-.249-1.984,4.733,4.733,0,0,1-2.976-.456,1,1,0,0,0-1.364.372c-.831,2.01,3.253,2.283,4.589,2.068Z" fill="#484e36"/>
        <path id="Trazado_1015286" data-name="Trazado 1015286" d="M59.712,25.048a1,1,0,0,0-.712-.3H56.74a4.415,4.415,0,0,1-2.236-.671A1,1,0,1,0,53.6,25.86a7.49,7.49,0,0,0,4.392.889l-.136,10.2a45.742,45.742,0,0,0-9.006,2.692,9.917,9.917,0,0,1-3.248.654,3.127,3.127,0,0,0,.13-1.063A2.929,2.929,0,0,0,42.82,36.51c-.45,0-5.37,0-5.662,0a1.059,1.059,0,1,1,0-2.118c1,0,3.672,0,4.707,0a.994.994,0,0,0,.929-.647,3.014,3.014,0,0,0,3.513-4.622L45.25,27.742c1.541-1.4,1.911-2.05,2.049-2.467a1,1,0,0,0-1.9-.634,6.214,6.214,0,0,1-1.371,1.5,1.022,1.022,0,1,0-1.486,1.343l2.166,2.845a1.019,1.019,0,0,1-1.53,1.336L39.4,27.833a.819.819,0,0,1,0-1.16l3.929-3.979a2.578,2.578,0,0,1,3-.492l3.27,1.65a1,1,0,1,0,.9-1.785l-3.271-1.651a4.576,4.576,0,0,0-5.321.871l-2.842,2.878H35.835a3.06,3.06,0,0,0-1.825,5.5,3.3,3.3,0,0,0,.623,4.071,3.083,3.083,0,0,0,.8,4.247,2.831,2.831,0,0,0,2.241,4.177c2.683.325,10.387.416,12.044-.718,3.081-1.5,9.245-2.675,9.307-2.686a1,1,0,0,0,.815-.969L60,25.764a1,1,0,0,0-.288-.716ZM36.426,30.28H39l2.087,2.114H36.431c-1.138.019-1.159-2.122,0-2.114Zm-.591-4.115H37.38a2.829,2.829,0,0,0-.027,2.115H35.835a1.058,1.058,0,1,1,0-2.115ZM43.73,39.41a.916.916,0,0,1-.843.923,37.954,37.954,0,0,1-5.053-.17.826.826,0,0,1,.042-1.648c.037,0,4.944,0,4.944,0a.9.9,0,0,1,.91.9Z" fill="#484e36"/>
        <path id="Trazado_1015287" data-name="Trazado 1015287" d="M49.458,32.186c-.12,1.139,1.142,1.21,1.962,1.187,1.274-.043,4.223-.4,3.5-2.139a1,1,0,0,0-1.364-.372,4.747,4.747,0,0,1-2.976.456,1,1,0,0,0-1.117.867Z" fill="#484e36"/>
        <path id="Trazado_1015288" data-name="Trazado 1015288" d="M22.746,17.857a1,1,0,1,0,1.763-.943l-1.766-3.3a1,1,0,1,0-1.763.943Z" fill="#484e36"/>
        <path id="Trazado_1015289" data-name="Trazado 1015289" d="M39.9,18.268a1,1,0,0,0,1.354-.41l1.766-3.3a1,1,0,0,0-1.763-.943l-1.766,3.3a1,1,0,0,0,.409,1.354Z" fill="#484e36"/>
        <path id="Trazado_1015290" data-name="Trazado 1015290" d="M25.981,13.557a1,1,0,1,0,1.866-.719l-1.029-2.673a1,1,0,1,0-1.866.719Z" fill="#484e36"/>
        <path id="Trazado_1015291" data-name="Trazado 1015291" d="M36.726,14.131a1,1,0,0,0,1.292-.574l1.029-2.673a1,1,0,1,0-1.866-.719l-1.029,2.673a1,1,0,0,0,.574,1.293Z" fill="#484e36"/>
        <path id="Trazado_1015292" data-name="Trazado 1015292" d="M32,11.123a1,1,0,0,0,1-1V7.762a1,1,0,0,0-2,0v2.361A1,1,0,0,0,32,11.123Z" fill="#484e36"/>
        <path id="Trazado_1015293" data-name="Trazado 1015293" d="M24.1,45.732a1,1,0,0,0-1.354.41l-1.766,3.3a1,1,0,1,0,1.763.943l1.766-3.3a1,1,0,0,0-.409-1.354Z" fill="#484e36"/>
        <path id="Trazado_1015294" data-name="Trazado 1015294" d="M41.254,46.143a1,1,0,1,0-1.763.943l1.766,3.3a1,1,0,1,0,1.763-.943Z" fill="#484e36"/>
        <path id="Trazado_1015295" data-name="Trazado 1015295" d="M27.274,49.869a1,1,0,0,0-1.292.574l-1.029,2.673a1,1,0,0,0,1.866.719l1.029-2.673a1,1,0,0,0-.574-1.293Z" fill="#484e36"/>
        <path id="Trazado_1015296" data-name="Trazado 1015296" d="M38.019,50.443a1,1,0,1,0-1.866.719l1.029,2.673a1,1,0,1,0,1.866-.719Z" fill="#484e36"/>
        <path id="Trazado_1015297" data-name="Trazado 1015297" d="M32,52.877a1,1,0,0,0-1,1v2.361a1,1,0,0,0,2,0V53.877a1,1,0,0,0-1-1Z" fill="#484e36"/>
      </g>
    </g>
  </g>
</svg>
