<svg xmlns="http://www.w3.org/2000/svg" width="128" height="128" viewBox="0 0 128 128">
  <g id="Grupo_1182000" data-name="Grupo 1182000" transform="translate(-72.746 -7992)">
    <g id="Elipse_13628" data-name="Elipse 13628" transform="translate(72.746 7992)" fill="#ecf0f1" stroke="#ffa038" stroke-width="6">
      <circle cx="64" cy="64" r="64" stroke="none"/>
      <circle cx="64" cy="64" r="61" fill="none"/>
    </g>
    <g id="Grupo_1182370" data-name="Grupo 1182370" transform="translate(76.513 8019.433)">
      <path id="Trazado_1004557" data-name="Trazado 1004557" d="M431.331,446.5a.329.329,0,0,0,.526,0,13.474,13.474,0,0,0,2.684-7.537l-2.947-1.974-2.947,1.974A13.473,13.473,0,0,0,431.331,446.5Z" transform="translate(-343.753 -374.572)" fill="#fdb441"/>
      <path id="Trazado_1004558" data-name="Trazado 1004558" d="M434.485,259.493l-2.958-1.973-2.958,1.973v3.944l2.958,1.971,2.958-1.971Z" transform="translate(-343.686 -220.736)" fill="#fdb441"/>
      <path id="Trazado_1004559" data-name="Trazado 1004559" d="M84.821,102.157H36.669a1.56,1.56,0,0,1-1.56-1.56V36.67a1.56,1.56,0,0,1,1.56-1.56H84.821a1.56,1.56,0,0,1,1.56,1.56V100.6A1.56,1.56,0,0,1,84.821,102.157Z" transform="translate(-6.428 -30.095)" fill="#f68157"/>
      <path id="Trazado_1004560" data-name="Trazado 1004560" d="M106.1,62.722H62.721v59.159H82.54A23.564,23.564,0,0,0,106.1,98.317Z" transform="translate(-30.096 -53.763)" fill="#f9f7f8"/>
      <path id="Trazado_1004561" data-name="Trazado 1004561" d="M100.391,62.722V93.391A11.832,11.832,0,0,1,88.559,105.22a1.972,1.972,0,0,0-1.972,1.972,11.832,11.832,0,0,1-11.832,11.832H62.721v2.857H82.54A23.565,23.565,0,0,0,106.1,98.317V62.722Z" transform="translate(-30.096 -53.763)" fill="#dff6fd"/>
      <path id="Trazado_1004562" data-name="Trazado 1004562" d="M205.7,316.151a23.565,23.565,0,0,1-16.663,6.9h-2.071A11.832,11.832,0,0,0,198.8,311.221v-1.972h1.972a11.832,11.832,0,0,0,11.832-11.832v2.071a23.565,23.565,0,0,1-6.9,16.663Z" transform="translate(-136.598 -254.934)" fill="#fff"/>
      <path id="Trazado_1004563" data-name="Trazado 1004563" d="M155.242,9.472h-8.77a.153.153,0,0,1-.142-.1,2.954,2.954,0,0,0-5.5,0,.153.153,0,0,1-.142.1h-8.77a.171.171,0,0,0-.171.171v6.966a2.724,2.724,0,0,0,2.724,2.724h18.217a2.724,2.724,0,0,0,2.724-2.724V9.643A.171.171,0,0,0,155.242,9.472Z" transform="translate(-89.264 -6.429)" fill="#c5d3dd"/>
      <g id="Grupo_1182369" data-name="Grupo 1182369" transform="translate(37.668 18.819)">
        <path id="Trazado_1004564" data-name="Trazado 1004564" d="M98.022,131.75H108v9.86H98.022Z" transform="translate(-98.022 -131.75)" fill="#6fd7a3"/>
        <path id="Trazado_1004565" data-name="Trazado 1004565" d="M98.022,228.389H108v9.86H98.022Z" transform="translate(-98.022 -214.585)" fill="#6fd7a3"/>
        <path id="Trazado_1004566" data-name="Trazado 1004566" d="M98.022,325.027H108v9.86H98.022Z" transform="translate(-98.022 -297.419)" fill="#6fd7a3"/>
      </g>
      <path id="Trazado_1004567" data-name="Trazado 1004567" d="M428.748,141.158h-6.276a.806.806,0,0,1-.806-.806V123.409a3.944,3.944,0,1,1,7.888,0v16.942A.806.806,0,0,1,428.748,141.158Z" transform="translate(-337.769 -102.401)" fill="#685e68"/>
      <path id="Trazado_1004568" data-name="Trazado 1004568" d="M428.569,298.944v21.145q0,.274.011.547h5.894q.011-.273.011-.547V298.944Z" transform="translate(-343.686 -256.243)" fill="#685e68"/>
      <path id="Trazado_1004569" data-name="Trazado 1004569" d="M168.707,55.222H152.931a1.071,1.071,0,1,0,0,2.143h15.776a1.071,1.071,0,0,0,0-2.143Z" transform="translate(-106.502 -47.334)"/>
      <path id="Trazado_1004570" data-name="Trazado 1004570" d="M103.541,116.08l-1.214,1.214a1.068,1.068,0,0,0-.76-.316H91.593a1.071,1.071,0,0,0-1.071,1.071v9.86a1.071,1.071,0,0,0,1.071,1.071h9.973a1.071,1.071,0,0,0,1.071-1.071v-7.9l2.418-2.418a1.071,1.071,0,1,0-1.515-1.515ZM100.5,126.838H92.665v-7.717H100.5v.005l-3.324,3.324-1.792-1.792a1.071,1.071,0,1,0-1.515,1.515l2.55,2.55a1.072,1.072,0,0,0,1.515,0l2.567-2.567v4.682Z" transform="translate(-53.926 -99.23)"/>
      <path id="Trazado_1004571" data-name="Trazado 1004571" d="M90.522,224.548a1.071,1.071,0,0,0,1.071,1.071h9.973a1.071,1.071,0,0,0,1.071-1.071v-7.9l2.418-2.418a1.071,1.071,0,0,0-1.515-1.515l-1.214,1.214a1.068,1.068,0,0,0-.76-.316H91.593a1.071,1.071,0,0,0-1.071,1.071Zm2.143-8.789H100.5v.005l-3.324,3.324L95.379,217.3a1.071,1.071,0,1,0-1.515,1.515l2.55,2.55a1.071,1.071,0,0,0,1.515,0l2.567-2.567v4.682H92.665V215.76Z" transform="translate(-53.926 -182.065)"/>
      <path id="Trazado_1004572" data-name="Trazado 1004572" d="M90.522,321.187a1.071,1.071,0,0,0,1.071,1.071h9.973a1.071,1.071,0,0,0,1.071-1.071v-7.9l2.418-2.418a1.071,1.071,0,0,0-1.515-1.515l-1.214,1.214a1.068,1.068,0,0,0-.76-.316H91.593a1.071,1.071,0,0,0-1.071,1.071Zm2.143-8.789H100.5v.005l-3.324,3.324-1.792-1.792a1.071,1.071,0,0,0-1.515,1.515l2.55,2.55a1.071,1.071,0,0,0,1.515,0l2.567-2.567v4.682H92.665V312.4Z" transform="translate(-53.926 -264.9)"/>
      <path id="Trazado_1004573" data-name="Trazado 1004573" d="M212.1,138.055H194.348a1.071,1.071,0,1,0,0,2.143H212.1a1.071,1.071,0,1,0,0-2.143Z" transform="translate(-142.003 -118.335)"/>
      <path id="Trazado_1004574" data-name="Trazado 1004574" d="M202.235,167.81a1.071,1.071,0,0,0,0-2.143h-7.888a1.071,1.071,0,0,0,0,2.143Z" transform="translate(-142.002 -142.003)"/>
      <path id="Trazado_1004575" data-name="Trazado 1004575" d="M212.1,234.694H194.348a1.071,1.071,0,1,0,0,2.143H212.1a1.071,1.071,0,1,0,0-2.143Z" transform="translate(-142.003 -201.171)"/>
      <path id="Trazado_1004576" data-name="Trazado 1004576" d="M208.151,264.448a1.071,1.071,0,0,0,0-2.143h-13.8a1.071,1.071,0,0,0,0,2.143Z" transform="translate(-142.002 -224.838)"/>
      <path id="Trazado_1004577" data-name="Trazado 1004577" d="M213.167,332.4a1.071,1.071,0,0,0-1.071-1.071H194.348a1.071,1.071,0,1,0,0,2.143H212.1A1.071,1.071,0,0,0,213.167,332.4Z" transform="translate(-142.003 -284.006)"/>
      <path id="Trazado_1004578" data-name="Trazado 1004578" d="M194.348,358.944a1.071,1.071,0,0,0,0,2.143h5.916a1.071,1.071,0,0,0,0-2.143Z" transform="translate(-142.003 -307.673)"/>
      <path id="Trazado_1004579" data-name="Trazado 1004579" d="M423.125,128.454a1.071,1.071,0,0,0,1.071-1.071v-10.4a5.015,5.015,0,1,0-10.031,0v16.942a1.879,1.879,0,0,0,.986,1.652v24.243c0,.2,0,.394.012.591h0a14.484,14.484,0,0,0,2.9,8.137,1.4,1.4,0,0,0,2.24,0,14.484,14.484,0,0,0,2.9-8.136h0c.008-.2.012-.4.012-.59V135.575a1.879,1.879,0,0,0,.986-1.652v-1.54a1.071,1.071,0,0,0-2.143,0v1.275h-5.746V116.98a2.873,2.873,0,0,1,5.746,0v10.4A1.071,1.071,0,0,0,423.125,128.454Zm-5.831,30.84v-19.55h3.774v19.55Zm3.774-21.693h-3.774v-1.8h3.774ZM419.181,166.4a12.323,12.323,0,0,1-1.781-4.958h3.563A12.326,12.326,0,0,1,419.181,166.4Z" transform="translate(-331.341 -95.972)"/>
      <path id="Trazado_1004580" data-name="Trazado 1004580" d="M441.778,154.454v11.832a1.071,1.071,0,0,0,2.143,0V154.454a1.071,1.071,0,1,0-2.143,0Z" transform="translate(-355.009 -131.474)"/>
      <path id="Trazado_1004581" data-name="Trazado 1004581" d="M78.393,3.944H67.22v-.73a1.243,1.243,0,0,0-1.242-1.242h-8.2a4.026,4.026,0,0,0-6.925,0h-8.2a1.243,1.243,0,0,0-1.242,1.242v.73h-4.32a1.071,1.071,0,1,0,0,2.143h4.32v1.8H32.625a1.071,1.071,0,0,0-1.071,1.071V68.118a1.071,1.071,0,0,0,1.071,1.071H44.07a1.071,1.071,0,1,0,0-2.143H33.7V10.03h7.717v.149a3.8,3.8,0,0,0,3.795,3.795H63.425A3.8,3.8,0,0,0,67.22,10.18V10.03h7.717V42.483a10.773,10.773,0,0,1-10.76,10.76H62.2a1.071,1.071,0,0,0-1.071,1.071v1.972a10.773,10.773,0,0,1-10.76,10.76h-1.3a1.071,1.071,0,1,0,0,2.143h3.375A24.636,24.636,0,0,0,77.08,44.554V8.959a1.071,1.071,0,0,0-1.071-1.071H67.22v-1.8H78.393a.489.489,0,0,1,.488.488V70.5a.489.489,0,0,1-.488.488H30.241a.489.489,0,0,1-.488-.488V6.575a.489.489,0,0,1,.488-.488h1.853a1.071,1.071,0,1,0,0-2.143H30.241A2.634,2.634,0,0,0,27.61,6.575V70.5a2.634,2.634,0,0,0,2.631,2.631H78.393A2.634,2.634,0,0,0,81.024,70.5V6.575a2.634,2.634,0,0,0-2.631-2.631ZM68.349,60.459a22.371,22.371,0,0,1-9.712,5.729,12.882,12.882,0,0,0,4.638-9.9v-.9h.9a12.882,12.882,0,0,0,9.9-4.638A22.372,22.372,0,0,1,68.349,60.459ZM65.077,10.18a1.654,1.654,0,0,1-1.652,1.652H45.209a1.654,1.654,0,0,1-1.652-1.652V4.114h7.869a1.218,1.218,0,0,0,1.138-.776,1.883,1.883,0,0,1,3.506,0,1.219,1.219,0,0,0,1.138.776h7.869V10.18Z"/>
    </g>
  </g>
</svg>
