<svg xmlns="http://www.w3.org/2000/svg" width="128" height="128" viewBox="0 0 128 128">
  <g id="Grupo_1182034" data-name="Grupo 1182034" transform="translate(-72.746 -7992)">
    <g id="Elipse_13628" data-name="Elipse 13628" transform="translate(72.746 7992)" fill="#ecf0f1" stroke="#ffa038" stroke-width="6">
      <circle cx="64" cy="64" r="64" stroke="none"/>
      <circle cx="64" cy="64" r="61" fill="none"/>
    </g>
    <g id="Grupo_1182881" data-name="Grupo 1182881" transform="translate(98.004 8017.258)">
      <g id="Grupo_1182880" data-name="Grupo 1182880" transform="translate(11.71 9.991)">
        <g id="Grupo_1182878" data-name="Grupo 1182878" transform="translate(2.389 10.318)">
          <path id="Trazado_1015272" data-name="Trazado 1015272" d="M175.416,136.805a.622.622,0,0,1,.622-.622H182.1a.623.623,0,0,1,.622.622v40.3h-7.31v-16.85c2.765-2.414,3.158-4.96,0-7.513Z" transform="translate(-160.678 -132.539)" fill="#fdcd56" fill-rule="evenodd"/>
          <path id="Trazado_1015273" data-name="Trazado 1015273" d="M299.349,190.1a.622.622,0,0,1,.622-.622h6.066a.622.622,0,0,1,.622.622v33.671h-7.31Z" transform="translate(-269.186 -179.199)" fill="#c6ea94" fill-rule="evenodd"/>
          <path id="Trazado_1015274" data-name="Trazado 1015274" d="M422,107.523a.622.622,0,0,1,.622-.622h6.069a.622.622,0,0,1,.622.622v43.948H422Z" transform="translate(-376.572 -106.901)" fill="#66d4f1" fill-rule="evenodd"/>
          <path id="Trazado_1015275" data-name="Trazado 1015275" d="M57,219.777a.622.622,0,0,1,.622-.622h6.066a.622.622,0,0,1,.622.622v5.733c-2.343,2.358-2.539,4.926,0,7.351v16.894H57Z" transform="translate(-57 -205.184)" fill="#f76c82" fill-rule="evenodd"/>
        </g>
        <path id="Trazado_1015276" data-name="Trazado 1015276" d="M68.847,129.694A2.847,2.847,0,1,0,66,126.847,2.85,2.85,0,0,0,68.847,129.694Z" transform="translate(-62.491 -111.554)" fill="#f76c82" fill-rule="evenodd"/>
        <path id="Trazado_1015277" data-name="Trazado 1015277" d="M308.687,112.6a2.847,2.847,0,1,0-2.847-2.847,2.853,2.853,0,0,0,2.847,2.847Z" transform="translate(-272.48 -96.583)" fill="#c6ea94" fill-rule="evenodd"/>
        <path id="Trazado_1015278" data-name="Trazado 1015278" d="M182.847,52.553A2.845,2.845,0,1,0,180,49.706,2.853,2.853,0,0,0,182.847,52.553Z" transform="translate(-162.302 -44.017)" fill="#fdcd56" fill-rule="evenodd"/>
        <path id="Trazado_1015279" data-name="Trazado 1015279" d="M431.367,29.691a2.845,2.845,0,1,0-2.847-2.847A2.85,2.85,0,0,0,431.367,29.691Z" transform="translate(-379.891 -24)" fill="#66d4f1" fill-rule="evenodd"/>
        <g id="Grupo_1182879" data-name="Grupo 1182879" transform="translate(0 36.682)">
          <path id="Trazado_1015280" data-name="Trazado 1015280" d="M38.26,318.73H64.384a.457.457,0,0,1,.454.456v18.4a.455.455,0,0,1-.454.454H38.26a.454.454,0,0,1-.454-.454v-18.4A.456.456,0,0,1,38.26,318.73Z" transform="translate(-37.806 -318.73)" fill="#937661" fill-rule="evenodd"/>
          <path id="Trazado_1015281" data-name="Trazado 1015281" d="M38.26,318.73H64.384a.457.457,0,0,1,.454.456v3.509l-12.2,5.014a3.34,3.34,0,0,1-2.631,0l-12.2-5.014v-3.509A.456.456,0,0,1,38.26,318.73Z" transform="translate(-37.806 -318.73)" fill="#7e6451" fill-rule="evenodd"/>
          <path id="Trazado_1015282" data-name="Trazado 1015282" d="M135.393,373.584a.622.622,0,0,1,.622-.622h1.494a.622.622,0,0,1,.622.622v3a1.369,1.369,0,0,1-2.739,0Z" transform="translate(-123.247 -366.212)" fill="#fdcd56" fill-rule="evenodd"/>
        </g>
      </g>
      <path id="Trazado_1015283" data-name="Trazado 1015283" d="M10.838,65.529V47.13A1.327,1.327,0,0,1,12.164,45.8h1.063V34.281a.871.871,0,0,1,.871-.871h7.31a.871.871,0,0,1,.871.871v5.21l.135,0h5.55V23.954a.871.871,0,0,1,.871-.871h7.31a.871.871,0,0,1,.871.871V45.8h1.269a1.331,1.331,0,0,1,1.326,1.327v18.4a1.328,1.328,0,0,1-1.326,1.326H12.164a1.325,1.325,0,0,1-1.326-1.326ZM37.871,47.545H12.581v2.51l10.4,4.276v-.907a.871.871,0,0,1,.871-.871h2.739a.871.871,0,0,1,.871.871v.907l10.405-4.276Zm-17.333-7.6V35.152H14.97V45.8h3.348V43.586A4.1,4.1,0,0,1,20.538,39.945Zm9.17-.1a4.1,4.1,0,0,1,2.424,3.74V45.8h3.144V24.825H29.708ZM30.39,45.8V43.586a2.352,2.352,0,0,0-2.353-2.355H22.415a2.354,2.354,0,0,0-2.355,2.355V45.8ZM12.581,51.939V65.112h25.29V51.939L27.465,56.215v.834a2.241,2.241,0,0,1-4.481,0v-.834Zm12.146,2.356v2.754a.5.5,0,0,0,1,0V54.295ZM21.543,23.967a3.731,3.731,0,1,1-.984-1.438l8.2-5.579a3.718,3.718,0,1,1,7.191-.863l9.465,4.322a3.706,3.706,0,0,1,5.151.145l9.177-6.311a3.727,3.727,0,1,1,1.021,1.413l-9.3,6.394a3.687,3.687,0,0,1,.169,1.107,3.718,3.718,0,1,1-7.208-1.283L35.354,17.73a3.711,3.711,0,0,1-5.63.671Zm10.712-6.311a1.974,1.974,0,1,0-1.976-1.976A1.98,1.98,0,0,0,32.255,17.656Zm15.662,7.476a1.976,1.976,0,1,0-1.976-1.976A1.98,1.98,0,0,0,47.917,25.132ZM18.066,27.261a1.976,1.976,0,1,0-1.976-1.976A1.978,1.978,0,0,0,18.066,27.261Zm45.12-12.45a1.974,1.974,0,1,0-1.976-1.976A1.977,1.977,0,0,0,63.186,14.811Zm-18.924,14.9h7.31a.871.871,0,0,1,.871.871V64.88a.871.871,0,0,1-.871.871h-7.31a.871.871,0,0,1-.871-.871V30.587A.871.871,0,0,1,44.262,29.715Zm.871,1.742V64.009H50.7V31.458Zm14.394-12.02h7.314a.871.871,0,0,1,.871.871V64.88a.871.871,0,0,1-.871.871H59.527a.871.871,0,0,1-.871-.871V20.309A.871.871,0,0,1,59.527,19.438Zm.871,1.742V64.009h5.571V21.181Zm8.214,46.561a.871.871,0,0,1,0,1.742H8.871A.871.871,0,0,1,8,68.613V8.871a.871.871,0,0,1,1.742,0v58.87Z" fill-rule="evenodd"/>
    </g>
  </g>
</svg>
