<svg xmlns="http://www.w3.org/2000/svg" width="84" height="84" viewBox="0 0 84 84">
  <g id="Grupo_1182938" data-name="Grupo 1182938" transform="translate(-642 -15735)">
    <rect id="Rectángulo_456660" data-name="Rectángulo 456660" width="84" height="84" rx="10" transform="translate(642 15735)" fill="#ffa038"/>
    <g id="Grupo_1182937" data-name="Grupo 1182937" transform="translate(652 15744.979)">
      <path id="Trazado_1015395" data-name="Trazado 1015395" d="M107.34,372.017v9.911c5.645.249,4.016,1.247,13.838,5.663a9.3,9.3,0,0,0,7.231-.123l.006,0,19.3-6.909c.628-.289,3.8-2.01,2.546-5.215-1.461-3.418-5.219-1.992-5.534-1.889l-10.074,2.785" transform="translate(-93.922 -325.495)" fill="#eac092"/>
      <g id="Grupo_1182934" data-name="Grupo 1182934" transform="translate(13.418 40.01)">
        <path id="Trazado_1015396" data-name="Trazado 1015396" d="M118.738,330.579l11.219,3.555a3.686,3.686,0,0,0,4.553-2.537h0a4.044,4.044,0,0,0-2.822-4.829l-9.952-3.378a8.46,8.46,0,0,0-7.184-3.47c-3.194,0-5.948,2.582-7.21,4.842v4.513" transform="translate(-107.341 -319.921)" fill="#fedbab"/>
      </g>
      <path id="Trazado_1015397" data-name="Trazado 1015397" d="M154,386.356a1.232,1.232,0,0,1-.244-.025,1.214,1.214,0,0,1-.235-.071,1.26,1.26,0,0,1-.215-.115,1.214,1.214,0,0,1-.345-.345,1.156,1.156,0,0,1-.115-.216,1.174,1.174,0,0,1-.071-.234,1.2,1.2,0,0,1,0-.487,1.21,1.21,0,0,1,.071-.235,1.232,1.232,0,0,1,.46-.56,1.268,1.268,0,0,1,.215-.115,1.212,1.212,0,0,1,.235-.071,1.23,1.23,0,0,1,.487,0,1.175,1.175,0,0,1,.234.071,1.233,1.233,0,0,1,.216.115,1.215,1.215,0,0,1,.345.345,1.268,1.268,0,0,1,.115.215,1.3,1.3,0,0,1,.071.235,1.2,1.2,0,0,1,0,.487,1.262,1.262,0,0,1-.071.234,1.235,1.235,0,0,1-.115.216,1.214,1.214,0,0,1-.345.345,1.234,1.234,0,0,1-.216.115,1.177,1.177,0,0,1-.234.071A1.232,1.232,0,0,1,154,386.356Z" transform="translate(-133.656 -335.854)"/>
      <rect id="Rectángulo_456808" data-name="Rectángulo 456808" width="4.735" height="13.43" transform="translate(8.682 44.693)" fill="#eaecf0"/>
      <rect id="Rectángulo_456809" data-name="Rectángulo 456809" width="7.432" height="15.76" transform="translate(1.25 44.693)" fill="#3688c8"/>
      <path id="Trazado_1015398" data-name="Trazado 1015398" d="M57.5,320.555l-.015-.037c-1.151-2.692-3.849-3.687-7.042-2.6l-8.708,2.408a5.709,5.709,0,0,0-3.535-3.481l-.033-.012-9.573-3.249a9.873,9.873,0,0,0-7.965-3.665c-3.266,0-6.154,2.24-7.807,4.682H1.25A1.25,1.25,0,0,0,0,315.854v15.76a1.25,1.25,0,0,0,1.25,1.25H8.682a1.25,1.25,0,0,0,1.25-1.25v-1.079h3.485a1.25,1.25,0,0,0,1.25-1.25v-.36a8.862,8.862,0,0,1,4.566,1.639,75.651,75.651,0,0,0,7.51,3.834l.055.023a11.221,11.221,0,0,0,4.022.758,9.963,9.963,0,0,0,4.141-.887L54.21,327.4c.034-.012.068-.026.1-.041C56.151,326.513,58.892,324.127,57.5,320.555ZM7.432,330.364H2.5V317.1H7.432Zm4.735-2.329H9.932V317.1h2.235Zm41.145-2.968-19.24,6.889-.056.022-.05.022a8.1,8.1,0,0,1-6.225.106,72.411,72.411,0,0,1-7.258-3.707,11.251,11.251,0,0,0-5.815-1.978V316.352c1.185-1.942,3.483-3.93,5.96-3.93a7.213,7.213,0,0,1,6.119,2.875,1.25,1.25,0,0,0,.663.529l9.934,3.372a2.8,2.8,0,0,1,2.04,3.309,2.436,2.436,0,0,1-2.993,1.681l-11.2-3.549a1.25,1.25,0,0,0-.755,2.383l11.219,3.555.036.011a4.906,4.906,0,0,0,3.752-.436,4.9,4.9,0,0,0,2.345-2.962q.043-.152.076-.3l9.385-2.6c1.356-.463,3.135-.63,3.927,1.195C56,323.623,53.866,324.8,53.312,325.066Z" transform="translate(0 -271.161)"/>
      <path id="Trazado_1015399" data-name="Trazado 1015399" d="M64.751,21.125l-11.1-11.1L39.729,23.943,63.515,47.729,76.65,34.593" transform="translate(-34.763 -8.75)" fill="#26cfad"/>
      <path id="Trazado_1015400" data-name="Trazado 1015400" d="M149.018,113.96h0l0-.007a5.875,5.875,0,1,0,6.276,6.009" transform="translate(-125.604 -99.688)" fill="#ffd36c"/>
      <path id="Trazado_1015401" data-name="Trazado 1015401" d="M216.38,41.574V31.663c-5.645-.249-4.016-1.247-13.838-5.663a9.3,9.3,0,0,0-7.231.123l-.006,0-5.822,2.084,6.007,6.007" transform="translate(-165.798 -22.137)" fill="#eac092"/>
      <g id="Grupo_1182935" data-name="Grupo 1182935" transform="translate(4.966 1.273)">
        <path id="Trazado_1015402" data-name="Trazado 1015402" d="M39.729,88.347l4.719-4.719a6.681,6.681,0,0,1,0,9.438Z" transform="translate(-39.729 -74.427)" fill="#00b192"/>
        <path id="Trazado_1015403" data-name="Trazado 1015403" d="M192.264,260.253a6.681,6.681,0,0,1,9.438,0l-4.719,4.719Z" transform="translate(-173.197 -227.266)" fill="#00b192"/>
        <path id="Trazado_1015404" data-name="Trazado 1015404" d="M113.333,14.742l4.719-4.719,4.719,4.719A6.681,6.681,0,0,1,113.333,14.742Z" transform="translate(-104.132 -10.023)" fill="#00b192"/>
        <path id="Trazado_1015405" data-name="Trazado 1015405" d="M288.407,182.048a6.682,6.682,0,0,0,1.552,7l3.935-3.935" transform="translate(-256.972 -160.545)" fill="#00b192"/>
      </g>
      <g id="Grupo_1182936" data-name="Grupo 1182936" transform="translate(23.274 11.593)">
        <path id="Trazado_1015406" data-name="Trazado 1015406" d="M202.1,96.282l-11.219-3.555a3.685,3.685,0,0,0-4.553,2.537h0a4.044,4.044,0,0,0,2.822,4.829l9.956,3.379h0a8.459,8.459,0,0,0,7.184,3.47c3.195,0,5.949-2.582,7.21-4.842V97.585" transform="translate(-186.19 -92.585)" fill="#fedbab"/>
      </g>
      <path id="Trazado_1015407" data-name="Trazado 1015407" d="M340.5,126a1.232,1.232,0,0,1-.244-.025,1.262,1.262,0,0,1-.234-.071,1.234,1.234,0,0,1-.216-.115,1.214,1.214,0,0,1-.345-.345,1.235,1.235,0,0,1-.115-.216,1.175,1.175,0,0,1-.071-.234,1.2,1.2,0,0,1,0-.488,1.212,1.212,0,0,1,.071-.235,1.268,1.268,0,0,1,.115-.215,1.214,1.214,0,0,1,.345-.345,1.235,1.235,0,0,1,.216-.115,1.175,1.175,0,0,1,.234-.071,1.245,1.245,0,0,1,.723.071,1.27,1.27,0,0,1,.215.115,1.25,1.25,0,0,1,.46.56,1.247,1.247,0,0,1,.072.723,1.18,1.18,0,0,1-.072.234,1.157,1.157,0,0,1-.115.216,1.215,1.215,0,0,1-.345.345,1.269,1.269,0,0,1-.215.115,1.324,1.324,0,0,1-.234.071A1.254,1.254,0,0,1,340.5,126Z" transform="translate(-296.844 -108.04)"/>
      <rect id="Rectángulo_456810" data-name="Rectángulo 456810" width="4.735" height="13.43" transform="translate(50.583 7.836)" fill="#eaecf0"/>
      <rect id="Rectángulo_456811" data-name="Rectángulo 456811" width="7.432" height="15.76" transform="translate(55.318 5.507)" fill="#3688c8"/>
      <path id="Trazado_1015408" data-name="Trazado 1015408" d="M88.729,4.257H81.3a1.25,1.25,0,0,0-1.25,1.25V6.586H76.562a1.25,1.25,0,0,0-1.25,1.25V8.2a8.863,8.863,0,0,1-4.566-1.639,75.636,75.636,0,0,0-7.51-3.834L63.181,2.7a10.635,10.635,0,0,0-8.162.128l-5.03,1.8L45.749.389a1.25,1.25,0,0,0-1.768,0l-13.92,13.92a1.24,1.24,0,0,0,0,1.768L53.847,39.863a1.351,1.351,0,0,0,1.768,0L68.323,27.155c.33.028.673.044,1.029.044,3.266,0,6.155-2.24,7.807-4.682h11.57a1.25,1.25,0,0,0,1.25-1.25V5.507A1.25,1.25,0,0,0,88.729,4.257ZM48.036,15.849a5.534,5.534,0,0,0,3.745,4.423l.033.012,2.5.848a4.626,4.626,0,1,1-6.278-5.283Zm2.5-4.881A4.9,4.9,0,0,0,48.5,13.12a7.124,7.124,0,1,0,8.192,8.819l4.22,1.432a7.981,7.981,0,0,0,1.324,6.335l-2.855,2.855a7.943,7.943,0,0,0-9.3,0L37.363,19.843a7.944,7.944,0,0,0,0-9.3l2.852-2.852a7.944,7.944,0,0,0,9.3,0l2.7,2.7A4.933,4.933,0,0,0,50.536,10.969Zm13.5,16.937a5.467,5.467,0,0,1-.8-2.6,9.72,9.72,0,0,0,2.2,1.194ZM44.865,3.041,47.714,5.89a5.45,5.45,0,0,1-5.7,0Zm-9.3,9.3a5.45,5.45,0,0,1,0,5.7l-2.849-2.849ZM54.731,37.211l-2.849-2.848a5.442,5.442,0,0,1,5.7,0ZM69.352,24.7a9.1,9.1,0,0,1-1.3-.092h0a7.16,7.16,0,0,1-4.63-2.534c-.026-.038-.134-.18-.15-.2a1.246,1.246,0,0,0-.689-.573l-9.938-3.373a2.805,2.805,0,0,1-2.04-3.308v-.006a2.435,2.435,0,0,1,2.991-1.677l11.2,3.549a1.25,1.25,0,0,0,.755-2.383l-8.907-2.823-.078-.078,0,0L51.944,6.584l3.964-1.419.043-.016.013-.005.05-.022a8.1,8.1,0,0,1,6.225-.106A72.407,72.407,0,0,1,69.5,8.723,11.249,11.249,0,0,0,75.312,10.7V20.768C74.127,22.71,71.829,24.7,69.352,24.7Zm8.46-15.612h2.235v10.93H77.812Zm9.668,10.93H82.547V6.757h4.932Z" transform="translate(-25.979 0)"/>
    </g>
  </g>
</svg>
