<svg xmlns="http://www.w3.org/2000/svg" width="98" height="98" viewBox="0 0 98 98">
  <g id="Grupo_1177475" data-name="Grupo 1177475" transform="translate(-280.609 -11611.898)">
    <g id="Grupo_1177473" data-name="Grupo 1177473" transform="translate(280.609 11611.898)">
      <ellipse id="Elipse_13609" data-name="Elipse 13609" cx="49" cy="49" rx="49" ry="49" transform="translate(0)" fill="#fff"/>
      <g id="Grupo_1182196" data-name="Grupo 1182196" transform="translate(22.827 22.827)">
        <g id="Grupo_1182147" data-name="Grupo 1182147" transform="translate(45.366 10.469)">
          <g id="Grupo_1182146" data-name="Grupo 1182146">
            <path id="Trazado_1004270" data-name="Trazado 1004270" d="M447.224,102.4a3.49,3.49,0,1,0,3.49,3.49A3.493,3.493,0,0,0,447.224,102.4Zm0,5.235a1.745,1.745,0,1,1,1.745-1.745A1.747,1.747,0,0,1,447.224,107.635Z" transform="translate(-443.734 -102.4)" fill="#585a4a"/>
          </g>
        </g>
        <g id="Grupo_1182149" data-name="Grupo 1182149" transform="translate(0 39.259)">
          <g id="Grupo_1182148" data-name="Grupo 1182148">
            <path id="Trazado_1004271" data-name="Trazado 1004271" d="M3.49,384a3.49,3.49,0,1,0,3.49,3.49A3.493,3.493,0,0,0,3.49,384Zm0,5.235a1.745,1.745,0,1,1,1.745-1.745A1.747,1.747,0,0,1,3.49,389.235Z" transform="translate(0 -384)" fill="#585a4a"/>
          </g>
        </g>
        <g id="Grupo_1182151" data-name="Grupo 1182151" transform="translate(38.386 7.851)">
          <g id="Grupo_1182150" data-name="Grupo 1182150">
            <path id="Trazado_1004272" data-name="Trazado 1004272" d="M384.241,80.513l-7.526-3.634a.872.872,0,0,0-.758,1.571l7.526,3.634a.872.872,0,0,0,.758-1.571Z" transform="translate(-375.463 -76.792)" fill="#585a4a"/>
          </g>
        </g>
        <g id="Grupo_1182153" data-name="Grupo 1182153" transform="translate(35.77 45.366)">
          <g id="Grupo_1182152" data-name="Grupo 1182152">
            <path id="Trazado_1004273" data-name="Trazado 1004273" d="M353.357,443.733a3.49,3.49,0,1,0,3.49,3.49A3.493,3.493,0,0,0,353.357,443.733Zm0,5.235a1.745,1.745,0,1,1,1.745-1.745A1.747,1.747,0,0,1,353.357,448.968Z" transform="translate(-349.867 -443.733)" fill="#585a4a"/>
          </g>
        </g>
        <g id="Grupo_1182155" data-name="Grupo 1182155" transform="translate(28.79 42.748)">
          <g id="Grupo_1182154" data-name="Grupo 1182154">
            <path id="Trazado_1004274" data-name="Trazado 1004274" d="M290.374,421.845l-7.526-3.634a.872.872,0,0,0-.758,1.571l7.526,3.634a.872.872,0,1,0,.758-1.571Z" transform="translate(-281.596 -418.124)" fill="#585a4a"/>
          </g>
        </g>
        <g id="Grupo_1182157" data-name="Grupo 1182157" transform="translate(22.683 23.556)">
          <g id="Grupo_1182156" data-name="Grupo 1182156">
            <path id="Trazado_1004275" data-name="Trazado 1004275" d="M225.357,230.4a3.49,3.49,0,1,0,3.49,3.49A3.493,3.493,0,0,0,225.357,230.4Zm0,5.235a1.745,1.745,0,1,1,1.745-1.745A1.747,1.747,0,0,1,225.357,235.635Z" transform="translate(-221.867 -230.4)" fill="#585a4a"/>
          </g>
        </g>
        <g id="Grupo_1182159" data-name="Grupo 1182159" transform="translate(17.448 20.066)">
          <g id="Grupo_1182158" data-name="Grupo 1182158">
            <path id="Trazado_1004276" data-name="Trazado 1004276" d="M177.855,200.961l-5.782-4.506A.873.873,0,1,0,171,197.832l5.782,4.506a.873.873,0,1,0,1.073-1.377Z" transform="translate(-170.664 -196.272)" fill="#585a4a"/>
          </g>
        </g>
        <g id="Grupo_1182161" data-name="Grupo 1182161" transform="translate(32.28 22.683)">
          <g id="Grupo_1182160" data-name="Grupo 1182160">
            <path id="Trazado_1004277" data-name="Trazado 1004277" d="M325.33,221.867a9.6,9.6,0,1,0,9.6,9.6A9.608,9.608,0,0,0,325.33,221.867Zm0,17.449a7.852,7.852,0,1,1,7.852-7.852A7.86,7.86,0,0,1,325.33,239.316Z" transform="translate(-315.733 -221.867)" fill="#585a4a"/>
          </g>
        </g>
        <g id="Grupo_1182163" data-name="Grupo 1182163" transform="translate(38.387 26.173)">
          <g id="Grupo_1182162" data-name="Grupo 1182162">
            <path id="Trazado_1004278" data-name="Trazado 1004278" d="M378.957,256a3.49,3.49,0,1,0,3.49,3.49A3.493,3.493,0,0,0,378.957,256Zm0,5.235a1.745,1.745,0,1,1,1.745-1.745A1.747,1.747,0,0,1,378.957,261.235Z" transform="translate(-375.467 -256)" fill="#585a4a"/>
          </g>
        </g>
        <g id="Grupo_1182165" data-name="Grupo 1182165" transform="translate(36.642 34.897)">
          <g id="Grupo_1182164" data-name="Grupo 1182164">
            <path id="Trazado_1004279" data-name="Trazado 1004279" d="M366.165,341.333H361.1a2.671,2.671,0,0,0-2.7,2.63v2.3a.873.873,0,0,0,.435.756,9.548,9.548,0,0,0,9.6,0,.872.872,0,0,0,.435-.755v-2.3A2.671,2.671,0,0,0,366.165,341.333Zm.959,4.41a7.91,7.91,0,0,1-6.979,0v-1.779a.926.926,0,0,1,.959-.886h5.062a.926.926,0,0,1,.959.886v1.779Z" transform="translate(-358.4 -341.333)" fill="#585a4a"/>
          </g>
        </g>
        <g id="Grupo_1182167" data-name="Grupo 1182167" transform="translate(11.342 33.152)">
          <g id="Grupo_1182166" data-name="Grupo 1182166">
            <path id="Trazado_1004280" data-name="Trazado 1004280" d="M120.53,324.267a9.6,9.6,0,1,0,9.6,9.6A9.608,9.608,0,0,0,120.53,324.267Zm0,17.448a7.852,7.852,0,1,1,7.852-7.852A7.86,7.86,0,0,1,120.53,341.716Z" transform="translate(-110.933 -324.267)" fill="#585a4a"/>
          </g>
        </g>
        <g id="Grupo_1182169" data-name="Grupo 1182169" transform="translate(17.449 36.642)">
          <g id="Grupo_1182168" data-name="Grupo 1182168">
            <path id="Trazado_1004281" data-name="Trazado 1004281" d="M174.157,358.4a3.49,3.49,0,1,0,3.49,3.49A3.493,3.493,0,0,0,174.157,358.4Zm0,5.235a1.745,1.745,0,1,1,1.745-1.745A1.747,1.747,0,0,1,174.157,363.635Z" transform="translate(-170.667 -358.4)" fill="#585a4a"/>
          </g>
        </g>
        <g id="Grupo_1182171" data-name="Grupo 1182171" transform="translate(15.704 45.366)">
          <g id="Grupo_1182170" data-name="Grupo 1182170">
            <path id="Trazado_1004282" data-name="Trazado 1004282" d="M161.365,443.733H156.3a2.671,2.671,0,0,0-2.7,2.63v2.3a.873.873,0,0,0,.435.756,9.548,9.548,0,0,0,9.6,0,.871.871,0,0,0,.435-.755v-2.3A2.671,2.671,0,0,0,161.365,443.733Zm.959,4.41a7.911,7.911,0,0,1-6.979,0v-1.779a.926.926,0,0,1,.959-.886h5.062a.926.926,0,0,1,.959.886v1.779Z" transform="translate(-153.6 -443.733)" fill="#585a4a"/>
          </g>
        </g>
        <g id="Grupo_1182173" data-name="Grupo 1182173" transform="translate(0 11.342)">
          <g id="Grupo_1182172" data-name="Grupo 1182172">
            <path id="Trazado_1004283" data-name="Trazado 1004283" d="M9.6,110.933a9.6,9.6,0,1,0,9.6,9.6A9.608,9.608,0,0,0,9.6,110.933Zm0,17.449a7.852,7.852,0,1,1,7.852-7.852A7.86,7.86,0,0,1,9.6,128.382Z" transform="translate(0 -110.933)" fill="#585a4a"/>
          </g>
        </g>
        <g id="Grupo_1182175" data-name="Grupo 1182175" transform="translate(6.107 14.831)">
          <g id="Grupo_1182174" data-name="Grupo 1182174">
            <path id="Trazado_1004284" data-name="Trazado 1004284" d="M63.224,145.067a3.49,3.49,0,1,0,3.49,3.49A3.493,3.493,0,0,0,63.224,145.067Zm0,5.235a1.745,1.745,0,1,1,1.745-1.745A1.747,1.747,0,0,1,63.224,150.3Z" transform="translate(-59.734 -145.067)" fill="#585a4a"/>
          </g>
        </g>
        <g id="Grupo_1182177" data-name="Grupo 1182177" transform="translate(4.362 23.556)">
          <g id="Grupo_1182176" data-name="Grupo 1182176">
            <path id="Trazado_1004285" data-name="Trazado 1004285" d="M50.432,230.4H45.371a2.671,2.671,0,0,0-2.7,2.63v2.3a.873.873,0,0,0,.435.756,9.548,9.548,0,0,0,9.6,0,.872.872,0,0,0,.435-.755v-2.3A2.671,2.671,0,0,0,50.432,230.4Zm.959,4.41a7.911,7.911,0,0,1-6.979,0v-1.779a.926.926,0,0,1,.959-.886h5.062a.926.926,0,0,1,.959.886v1.779Z" transform="translate(-42.667 -230.4)" fill="#585a4a"/>
          </g>
        </g>
        <g id="Grupo_1182179" data-name="Grupo 1182179" transform="translate(20.938)">
          <g id="Grupo_1182178" data-name="Grupo 1182178">
            <path id="Trazado_1004286" data-name="Trazado 1004286" d="M214.4,0a9.6,9.6,0,1,0,9.6,9.6A9.608,9.608,0,0,0,214.4,0Zm0,17.449A7.852,7.852,0,1,1,222.249,9.6,7.86,7.86,0,0,1,214.4,17.449Z" transform="translate(-204.8)" fill="#585a4a"/>
          </g>
        </g>
        <g id="Grupo_1182181" data-name="Grupo 1182181" transform="translate(27.045 3.49)">
          <g id="Grupo_1182180" data-name="Grupo 1182180">
            <path id="Trazado_1004287" data-name="Trazado 1004287" d="M268.024,34.133a3.49,3.49,0,1,0,3.49,3.49A3.493,3.493,0,0,0,268.024,34.133Zm0,5.235a1.745,1.745,0,1,1,1.745-1.745A1.747,1.747,0,0,1,268.024,39.368Z" transform="translate(-264.534 -34.133)" fill="#585a4a"/>
          </g>
        </g>
        <g id="Grupo_1182183" data-name="Grupo 1182183" transform="translate(25.3 12.214)">
          <g id="Grupo_1182182" data-name="Grupo 1182182">
            <path id="Trazado_1004288" data-name="Trazado 1004288" d="M255.232,119.467h-5.062a2.671,2.671,0,0,0-2.7,2.63v2.3a.873.873,0,0,0,.435.756,9.548,9.548,0,0,0,9.6,0,.872.872,0,0,0,.435-.755v-2.3A2.671,2.671,0,0,0,255.232,119.467Zm.959,4.41a7.911,7.911,0,0,1-6.979,0V122.1a.926.926,0,0,1,.959-.886h5.062a.926.926,0,0,1,.959.886v1.779Z" transform="translate(-247.467 -119.467)" fill="#585a4a"/>
          </g>
        </g>
        <g id="Grupo_1182185" data-name="Grupo 1182185" transform="translate(14.893 8.724)">
          <g id="Grupo_1182184" data-name="Grupo 1182184">
            <path id="Trazado_1004289" data-name="Trazado 1004289" d="M153.252,85.638a.874.874,0,0,0-1.23-.1l-6.046,5.174a.872.872,0,1,0,1.134,1.325l6.046-5.174A.872.872,0,0,0,153.252,85.638Z" transform="translate(-145.671 -85.333)" fill="#585a4a"/>
          </g>
        </g>
        <g id="Grupo_1182187" data-name="Grupo 1182187" transform="translate(34.897 15.705)">
          <g id="Grupo_1182186" data-name="Grupo 1182186">
            <path id="Trazado_1004290" data-name="Trazado 1004290" d="M348.138,160.938l-5.235-6.979a.872.872,0,0,0-1.4,1.046l5.235,6.979a.872.872,0,0,0,1.4-1.046Z" transform="translate(-341.333 -153.61)" fill="#585a4a"/>
          </g>
        </g>
        <g id="Grupo_1182189" data-name="Grupo 1182189" transform="translate(28.098 34.816)">
          <g id="Grupo_1182188" data-name="Grupo 1182188">
            <path id="Trazado_1004291" data-name="Trazado 1004291" d="M281.277,340.889a.873.873,0,0,0-1.221-.174l-4.873,3.655a.872.872,0,0,0,1.047,1.395l4.873-3.655A.871.871,0,0,0,281.277,340.889Z" transform="translate(-274.833 -340.54)" fill="#585a4a"/>
          </g>
        </g>
        <g id="Grupo_1182191" data-name="Grupo 1182191" transform="translate(5.235 41.877)">
          <g id="Grupo_1182190" data-name="Grupo 1182190">
            <path id="Trazado_1004292" data-name="Trazado 1004292" d="M58.179,409.6H52.072a.872.872,0,1,0,0,1.745h6.107a.872.872,0,0,0,0-1.745Z" transform="translate(-51.2 -409.6)" fill="#585a4a"/>
          </g>
        </g>
        <g id="Grupo_1182193" data-name="Grupo 1182193" transform="translate(6.107)">
          <g id="Grupo_1182192" data-name="Grupo 1182192">
            <path id="Trazado_1004293" data-name="Trazado 1004293" d="M63.223,0a3.49,3.49,0,1,0,3.49,3.49A3.493,3.493,0,0,0,63.223,0Zm0,5.235A1.745,1.745,0,1,1,64.968,3.49,1.747,1.747,0,0,1,63.223,5.235Z" transform="translate(-59.733 0)" fill="#585a4a"/>
          </g>
        </g>
        <g id="Grupo_1182195" data-name="Grupo 1182195" transform="translate(8.724 5.235)">
          <g id="Grupo_1182194" data-name="Grupo 1182194">
            <path id="Trazado_1004294" data-name="Trazado 1004294" d="M86.206,51.2a.872.872,0,0,0-.872.872v6.107a.872.872,0,1,0,1.745,0V52.072A.872.872,0,0,0,86.206,51.2Z" transform="translate(-85.334 -51.2)" fill="#585a4a"/>
          </g>
        </g>
      </g>
    </g>
  </g>
</svg>
