<svg xmlns="http://www.w3.org/2000/svg" width="98" height="98" viewBox="0 0 98 98">
  <g id="Grupo_1177474" data-name="Grupo 1177474" transform="translate(-289.609 -11611.898)">
    <g id="Grupo_1177473" data-name="Grupo 1177473" transform="translate(289.609 11611.898)">
      <ellipse id="Elipse_13609" data-name="Elipse 13609" cx="49" cy="49" rx="49" ry="49" transform="translate(0)" fill="#fff"/>
      <path id="Trazado_1004268" data-name="Trazado 1004268" d="M71.475,62.038a.962.962,0,1,1,1.616-1.044l1.868,2.9,6.7-5.362a.966.966,0,0,1,1.21,1.506l-7.536,6.028a.964.964,0,0,1-1.413-.23ZM77.29,51.153A10.464,10.464,0,1,0,87.757,61.618,10.475,10.475,0,0,0,77.29,51.153Zm0,22.855A12.391,12.391,0,1,0,64.9,61.618,12.4,12.4,0,0,0,77.29,74.009ZM51.8,79.939V61.618a.968.968,0,0,1,.966-.964H59.66L58.9,59.9a.964.964,0,0,1,1.364-1.363l2.4,2.4v0a.967.967,0,0,1,.252.909.918.918,0,0,1-.252.443v0l-2.4,2.4A.964.964,0,1,1,58.9,63.336l.755-.754H53.732V79.939a.966.966,0,0,1-1.933,0ZM91.85,61.007l2.461-2.471a.964.964,0,0,1,1.364,0,.955.955,0,0,1,0,1.363l-.755.755h6.895a.963.963,0,0,1,.966.964V79.939a.962.962,0,1,1-1.925,0V62.581H94.92l.755.754a.964.964,0,0,1-.682,1.646.982.982,0,0,1-.682-.283L91.85,62.228a.955.955,0,0,1-.179-.89A1.032,1.032,0,0,1,91.85,61.007Zm12.425,43.876h-9.4a2.146,2.146,0,0,0-.065-.447l-.552-2.106a1.632,1.632,0,0,0-.382-.693l-1.486-4.473c-.112-.34-.6-1.439-.422-1.592a4.528,4.528,0,0,1,1.356-.075c2.626,0,6.32.515,8.226-1.51a3.1,3.1,0,0,0,.763-1.434l1.965-3.921v16.252Zm-11.889,0h.544l-.471-1.805-5.969.932v.873h5.9Zm-5.9-9.425,3.062,6.123,2.168-.338-1.153-3.471c-.041-.108-.089-.236-.138-.372-.309-.806-.828-2.154.171-3.18a3.1,3.1,0,0,1,2.436-.656l1.559.034c1.86.062,4.393.145,5.465-.848l.406-.812a6.371,6.371,0,0,0-.812-3.124c-1.145-2.386-4.182-7.147-5.766-8.508a3.049,3.049,0,0,0-3.865-.564,11.724,11.724,0,0,0-1.73,2.377,24.2,24.2,0,0,1-1.648,2.405,5.093,5.093,0,0,1-4.093,1.518c-2.285,0-2.665-.059-4.9-.059a.571.571,0,0,0-.56.563v.895a5.593,5.593,0,0,0,1.567.139h6.1a3.879,3.879,0,0,0,2.274-.688l2.72-1.813a.961.961,0,0,1,1.316.242l2.737,3.828a.969.969,0,0,1-.512,1.483l-5.961,1.8a1.646,1.646,0,0,0-1.153.855,2.734,2.734,0,0,0,.317,2.175ZM67.569,86.892a3.87,3.87,0,0,0,2.266.688h5.319a6.2,6.2,0,0,1,.122-1.809L71.589,85.5c-3.892-.289-5.661-4.8-7.1-5.8-.731-.509-1.916-1-3.792.612-1.575,1.361-4.613,6.122-5.758,8.508a6.39,6.39,0,0,0-.82,3.124l.406.812c1.08.993,3.606.909,5.465.848.455-.015.877-.029,1.267-.029.833,0,1.963-.141,2.737.651,1,1.027.479,2.375.171,3.18-.049.136-.1.264-.138.372l-1.153,3.472,2.16.339L68.1,95.456c.7-1.41.183-2.5-1.307-3.048l-5.408-1.981a.971.971,0,0,1-.455-1.465l2.607-3.641a.961.961,0,0,1,1.316-.242Zm.52,17.99h-6.44l.471-1.805,5.969.932ZM50.3,88.631l1.973,3.921a3.024,3.024,0,0,0,.763,1.434c1.907,2.026,5.6,1.51,8.218,1.51a4.632,4.632,0,0,1,1.348.07c.187.161-.278,1.208-.406,1.6l-1.486,4.463a1.506,1.506,0,0,0-.39.7l-.552,2.107a2.13,2.13,0,0,0-.065.447H50.3Zm15.754-14.8a2.031,2.031,0,1,1-2.03,2.032A2.032,2.032,0,0,1,66.059,73.836Zm19.855,2.093a2.034,2.034,0,1,1,2.038,2.032A2.039,2.039,0,0,1,85.914,75.928Zm19.823,8.72a.962.962,0,0,1,.471.825v20.373a.969.969,0,0,1-.966.964H86.458a1.893,1.893,0,0,1-1.892-1.9v-.933a1.887,1.887,0,0,1,1.6-1.873l1.38-.216-2.785-5.574c-1.187-2.368-.8-4.891,2.006-5.737l4.669-1.407-1.4-1.973-1.949,1.3a5.824,5.824,0,0,1-3.338,1.011h-6.1c-.276,0-.552,0-.836-.02a.851.851,0,0,1-.187.02H69.835A5.842,5.842,0,0,1,66.5,88.5l-1.941-1.3-1.324,1.852L67.455,90.6a3.9,3.9,0,0,1,2.371,5.719l-2.794,5.576,1.381.214a1.887,1.887,0,0,1,1.6,1.873v.933a1.893,1.893,0,0,1-1.892,1.9H49.346a.964.964,0,0,1-.966-.964V85.473a.964.964,0,0,1,1.413-.852,3.177,3.177,0,0,1,1.364,1.411l1.551,3.083c.974-2.6,4.743-8.551,6.74-10.27a6.135,6.135,0,0,1,2.94-1.5,3.955,3.955,0,1,1,4.71,2.341c1.236,1.614,2.59,3.736,4.637,3.887l6.513.485c.772,0,1.307.016,1.827.028.65.015,1.324.03,2.469.03a3.2,3.2,0,0,0,2.615-.824c.6-.719,1.666-2.492,2.3-3.436a3.958,3.958,0,1,1,4.182-2.489,5.42,5.42,0,0,1,3.5,1.479c1.965,1.692,5.157,6.877,6.245,9.137.122.26.309.657.5,1.134l1.543-3.083a3.2,3.2,0,0,1,1.372-1.411.955.955,0,0,1,.942.027Z" transform="translate(-28.294 -29.018)" fill="#484e36" fill-rule="evenodd"/>
    </g>
  </g>
</svg>
