<svg xmlns="http://www.w3.org/2000/svg" xmlns:xlink="http://www.w3.org/1999/xlink" width="108" height="108" viewBox="0 0 108 108">
  <defs>
    <filter id="Rectángulo_456512" x="0" y="0" width="108" height="108" filterUnits="userSpaceOnUse">
      <feOffset dy="3" input="SourceAlpha"/>
      <feGaussianBlur stdDeviation="3" result="blur"/>
      <feFlood flood-opacity="0.161"/>
      <feComposite operator="in" in2="blur"/>
      <feComposite in="SourceGraphic"/>
    </filter>
  </defs>
  <g id="Grupo_1181661" data-name="Grupo 1181661" transform="translate(-848 -506)">
    <g transform="matrix(1, 0, 0, 1, 848, 506)" filter="url(#Rectángulo_456512)">
      <path id="Rectángulo_456512-2" data-name="Rectángulo 456512" d="M30,0H80A10,10,0,0,1,90,10V60A30,30,0,0,1,60,90H10A10,10,0,0,1,0,80V30A30,30,0,0,1,30,0Z" transform="translate(99 6) rotate(90)" fill="#ffa038"/>
    </g>
    <g id="Grupo_1181649" data-name="Grupo 1181649" transform="translate(13353.104 13277.936)">
      <path id="Trazado_1003507" data-name="Trazado 1003507" d="M57.557,51.783A24.671,24.671,0,1,0,82.227,76.454,24.671,24.671,0,0,0,57.557,51.783" transform="translate(-12513.253 -12796.638)" fill="#e8eddb" fill-rule="evenodd"/>
      <path id="Trazado_1003508" data-name="Trazado 1003508" d="M251.278,262.362a7.813,7.813,0,1,0,7.813,7.813,7.813,7.813,0,0,0-7.813-7.813" transform="translate(-12706.975 -12990.358)" fill="#e8eddb" fill-rule="evenodd"/>
      <path id="Trazado_1003509" data-name="Trazado 1003509" d="M62.75,6.965l-4.522-.99L58.3,1.392A1.324,1.324,0,0,0,56.16.286L50.485,4.777a1.321,1.321,0,0,0-.5,1.016L49.913,9.96l-1.85,1.357A27.177,27.177,0,1,0,50.255,14.3l1.708-1.253,4.5.985a1.323,1.323,0,0,0,1.152-.244L63.288,9.3a1.323,1.323,0,0,0-.538-2.331M50.776,28.886a23.533,23.533,0,1,1-5.711-15.369l-3.878,2.845a18.689,18.689,0,1,0,2.191,2.982L47.256,16.5a23.423,23.423,0,0,1,3.52,12.387M25.75,29.98a1.85,1.85,0,0,0,2.586.4l5.426-3.98a6.98,6.98,0,1,1-2.19-2.983l-5.423,3.979a1.85,1.85,0,0,0-.4,2.586M27.243,18.2a10.679,10.679,0,1,0,9.581,5.951l3.545-2.6a15.056,15.056,0,1,1-2.191-2.982l-3.545,2.6A10.649,10.649,0,0,0,27.243,18.2" transform="translate(-12483 -12749)" fill="#484e36"/>
    </g>
  </g>
</svg>
