<svg xmlns="http://www.w3.org/2000/svg" xmlns:xlink="http://www.w3.org/1999/xlink" width="108" height="108" viewBox="0 0 108 108">
  <defs>
    <filter id="Rectángulo_456513" x="0" y="0" width="108" height="108" filterUnits="userSpaceOnUse">
      <feOffset dy="3" input="SourceAlpha"/>
      <feGaussianBlur stdDeviation="3" result="blur"/>
      <feFlood flood-opacity="0.161"/>
      <feComposite operator="in" in2="blur"/>
      <feComposite in="SourceGraphic"/>
    </filter>
  </defs>
  <g id="Grupo_1181662" data-name="Grupo 1181662" transform="translate(-1264 -280)">
    <g transform="matrix(1, 0, 0, 1, 1264, 280)" filter="url(#Rectángulo_456513)">
      <path id="Rectángulo_456513-2" data-name="Rectángulo 456513" d="M30,0H80A10,10,0,0,1,90,10V60A30,30,0,0,1,60,90H10A10,10,0,0,1,0,80V30A30,30,0,0,1,30,0Z" transform="translate(99 6) rotate(90)" fill="#ffa038"/>
    </g>
    <g id="Grupo_1181638" data-name="Grupo 1181638" transform="translate(-239.716 -117)">
      <path id="Trazado_1003494" data-name="Trazado 1003494" d="M146.489,46.321c-9.7,0-19.509,8.3-19.509,18.533s7.658,18.534,19.509,18.534a47.5,47.5,0,0,0,7-.536l6.658,4.439V80.375c4.758-3.861,7.8-9.016,7.8-15.522,0-10.234-9.273-18.533-21.46-18.533" transform="translate(1413.648 377.081)" fill="#e8eddb" fill-rule="evenodd"/>
      <path id="Trazado_1003495" data-name="Trazado 1003495" d="M49.213,244.908q0-.86.076-1.7a16.519,16.519,0,0,0-2.969,9.374c0,6.5,3.886,12.215,9.754,15.522v6.913l6.658-4.437a24.765,24.765,0,0,0,5.047.536c5.053,0,7.737-1.518,11.405-4.04a56.911,56.911,0,0,1-6.561.516c-14.008,0-23.411-10.424-23.411-22.679" transform="translate(1487.514 196.783)" fill="#e8eddb" fill-rule="evenodd"/>
      <path id="Trazado_1003496" data-name="Trazado 1003496" d="M199.389,231.59a2.926,2.926,0,1,0,2.927,2.926,2.925,2.925,0,0,0-2.927-2.926" transform="translate(1350.019 207.419)" fill="#484e36" fill-rule="evenodd"/>
      <path id="Trazado_1003497" data-name="Trazado 1003497" d="M30.206,0A24.663,24.663,0,0,0,9.3,12.6q-.625.4-1.4.947A20.915,20.915,0,0,0,0,29.618c0,7.1,3.824,13.4,9.755,17.469v8.033c0,1.673,1.009,2.41,2.547,1.463l8.388-5.164a28.985,28.985,0,0,0,4.672.392,21.449,21.449,0,0,0,14.815-5.48l3.811,2.207c2.088,1.209,3.777.759,3.777-1.853V39.66a22.187,22.187,0,0,0,7.8-17.468C55.568,9.936,44.232,0,30.206,0M25.362,48.4a24.758,24.758,0,0,1-5.047-.537L13.656,52.3V45.383C7.788,42.077,3.9,36.366,3.9,29.862a16.519,16.519,0,0,1,2.969-9.374q-.075.844-.076,1.7c0,12.255,9.4,22.679,23.411,22.679a56.888,56.888,0,0,0,6.561-.516C33.1,46.878,30.415,48.4,25.362,48.4m18.5-10.439v6.915L37.2,40.433a47.5,47.5,0,0,1-7,.536c-11.852,0-19.509-8.3-19.509-18.534S20.5,3.9,30.206,3.9c12.187,0,21.46,8.3,21.46,18.533,0,6.505-3.045,11.661-7.8,15.522" transform="translate(1529.932 419.5)" fill="#484e36" fill-rule="evenodd"/>
      <path id="Trazado_1003498" data-name="Trazado 1003498" d="M477.295,231.59a2.926,2.926,0,1,0,2.926,2.926,2.926,2.926,0,0,0-2.926-2.926" transform="translate(1095.524 207.419)" fill="#484e36" fill-rule="evenodd"/>
      <path id="Trazado_1003499" data-name="Trazado 1003499" d="M338.338,231.59a2.926,2.926,0,1,0,2.927,2.926,2.926,2.926,0,0,0-2.927-2.926" transform="translate(1222.775 207.419)" fill="#484e36" fill-rule="evenodd"/>
    </g>
  </g>
</svg>
