<svg xmlns="http://www.w3.org/2000/svg" xmlns:xlink="http://www.w3.org/1999/xlink" width="108" height="108" viewBox="0 0 108 108">
  <defs>
    <filter id="Rectángulo_456512" x="0" y="0" width="108" height="108" filterUnits="userSpaceOnUse">
      <feOffset dy="3" input="SourceAlpha"/>
      <feGaussianBlur stdDeviation="3" result="blur"/>
      <feFlood flood-opacity="0.161"/>
      <feComposite operator="in" in2="blur"/>
      <feComposite in="SourceGraphic"/>
    </filter>
  </defs>
  <g id="Grupo_1181663" data-name="Grupo 1181663" transform="translate(-848 -506)">
    <g transform="matrix(1, 0, 0, 1, 848, 506)" filter="url(#Rectángulo_456512)">
      <path id="Rectángulo_456512-2" data-name="Rectángulo 456512" d="M30,0H80A10,10,0,0,1,90,10V60A30,30,0,0,1,60,90H10A10,10,0,0,1,0,80V30A30,30,0,0,1,30,0Z" transform="translate(99 6) rotate(90)" fill="#ffa038"/>
    </g>
    <g id="Grupo_1181633" data-name="Grupo 1181633" transform="translate(15897.667 14479.607)">
      <path id="Trazado_1003482" data-name="Trazado 1003482" d="M31.812,25.728a8.787,8.787,0,0,1,3.778,4.048,1.766,1.766,0,0,0,2.215,1L45.48,28.1a1.769,1.769,0,0,0,1.085-2.253L41.91,12.057,44.3,10.2a1.772,1.772,0,0,0,.052-2.755C22.157-13.927-6.712,14.938,5.322,40.795H3.363A1.772,1.772,0,0,0,1.6,42.439L.017,53.579a1.768,1.768,0,0,0,1.751,2.01l42.725,0A1.773,1.773,0,0,0,46.2,53.351l-1.992-11.1A1.765,1.765,0,0,0,42.473,40.8l-2.282-.007c-.079-10.845-9.516-11.814-11.686-17.713a18.568,18.568,0,0,0,3.306,2.646M25.64,16.739c-5.512,12.924,10.741,12.7,11.006,24.056H33.978a1.772,1.772,0,1,0,0,3.544H41l1.384,7.711H3.8L4.9,44.338h7.718a1.772,1.772,0,1,0,0-3.544H9.28C-2.661,18.763,20.991-7.842,40.465,8.694l-1.716,1.34a1.767,1.767,0,0,0-.591,1.955l4.506,13.352-4.556,1.585a12.729,12.729,0,0,0-4.318-4.119,10.5,10.5,0,0,1-4.832-5.885,1.77,1.77,0,0,0-3.319-.183" transform="translate(-15019 -13950.404)" fill="#484e36"/>
      <path id="Trazado_1003483" data-name="Trazado 1003483" d="M74.894,59.61a10.5,10.5,0,0,0,4.832,5.885,12.728,12.728,0,0,1,4.318,4.119L88.6,68.029,84.094,54.677a1.767,1.767,0,0,1,.591-1.955l1.716-1.34C66.926,34.846,43.274,61.45,55.215,83.482h3.336a1.772,1.772,0,1,1,0,3.544H50.833L49.74,94.737H88.318l-1.384-7.711h-7.02a1.772,1.772,0,0,1,0-3.544h2.668c-.265-11.351-16.518-11.131-11.006-24.056a1.77,1.77,0,0,1,3.319.183" transform="translate(-15064.936 -13993.092)" fill="#e8eddb"/>
    </g>
  </g>
</svg>
